<?xml version="1.0" encoding="UTF-8"?>
<svg id="b" data-name="Camada_2" xmlns="http://www.w3.org/2000/svg" xmlns:xlink="http://www.w3.org/1999/xlink" viewBox="0 0 158.95 163.4">
  <defs>
    <style>
      .e {
        fill: #fff;
      }

      .f {
        fill: none;
      }

      .g {
        clip-path: url(#d);
      }

      .h {
        fill: #646d63;
      }
    </style>
    <clipPath id="d">
      <path class="f" d="M18.88,112.46s25.46-16.19,34.06-13.66,39.91,13.66,39.91,13.66c0,0,18.12,6.57,19.8,8.4,1.68,1.83,4.65,6.21,3.18,8.46s21.38-8.94,21.38-8.94l16.39-14.97-2.53-70.52-3.03-32.71L55.3,0,22.76,9.1l-3.88,55.7L0,84.47l18.88,27.99Z"/>
    </clipPath>
  </defs>
  <g id="c" data-name="Camada_1">
    <g>
      <g>
        <path class="h" d="M8.75,102.72c.31,0,.81-.14,1.28-.25-.38.02-.78.1-1.28.25Z"/>
        <polygon class="h" points="10.04 102.47 10.04 102.46 10.03 102.47 10.04 102.47"/>
        <path class="h" d="M8.78,163.4c.12-.03.26-.07.39-.1-.13.03-.27.06-.39.1Z"/>
        <path class="h" d="M24.14,108.04l.15.05c.2,1.15-.1.36.12,1.42.26.39.27,1.77.43,2.13-.02,0,.06.52,0,.49.13.14.11.53.19.86.05.12.02-.09.03-.19l.15.75c.01.3-.04.38-.1.06.27,1.99,1.56,11.49,1.86,13.65.04-.29-.1-.94,0-1.21.14.56.09.84.19,1.08-.15.24.12,1.25-.01,1.7l.12.15-.03.29c.42,2.48.13.56.38,2.77.17,1.28.39,1.87.42,2.58-.01-.11.02-.4.08-.07-.08.07.17.87.1,1.05.05.32.16,1.38.24,1.01-.04.19.04,1.13-.08.57.03.32.05.63.1.85v-.41c.13,1.07.1,1.66.28,2.34v-.4c.08.64.15,1.17.05,1.44l-.11-.65c.12,1.06.19,1.7.34,2.57l-.03-.32c.26,1.11.87,6.98,1.05,8l.07-.48.13.88c0-.11-.33-.41-.31-.5.02.43.08,1.27.11,2.32,0,.26,0,.53.01.81,0,.2,0,.4,0,.61,0,.09,0,.19-.03.28-.01.12-.15.09-.23.13-1.41.36-2.87.73-4.08,1.03-1.34.34-2.42.6-2.89.7-.71.12-.16-.12-.16-.13-.84.25-.34.19-1.07.36-.2.03.02-.08.13-.12-.31.09-.62.13-.63.18.4-.07.26.09.45.13l-.93.22.02-.08c-.21.05-.48.33-1.4.52-1.55.38-3.22.79-4.77,1.17.01-.05.33-.16.65-.26-.21.05-.52.14-.72.16.39-.02-.64.21-.34.17-1.09.46-2.6.67-3.57,1.04-.05.18-1.45,3.3-1.4,3.49-.31.07-.62.15-.72.16.09.02.71-.11,1.02-.21l.03-.12c.74-.22.19.02.91-.17.06.07-.6.26-1.19.41.53-.12,1.08-.19,1.27-.34.51-.09-.03.12.58,0,.42-.13.96-.35,1.47-.43v.02c1.21-.21,1.79-.58,2.9-.77l-.11.06c.4-.05,1.14-.3,1.85-.43-.2.03-.39.02.03-.1.81-.15,1.35-.34,1.95-.42l.54-.22c2-.51,8.03-2.06,11.9-3.06.26-.14.51-.27.76-.4l.18-.1h.02s.01-.02.01-.02h0c-.1-.1-.02-.03-.05-.05h0s.04-.03.04-.03l.09-.06c.1-.1.2-.19.26-.31.27-.45.38-.99.43-1.52.02-.26.05-.52.05-.77,0-.16,0-.32,0-.48,0-.27,0-.52,0-.76-.02-.94-.06-1.62-.08-2.08l.02.11c-.24-4.5-1.22-13.5-1.9-18.02,0-.71-.14-1.68-.21-2.41.02.41-.06.28-.1-.04-.27-2.23-.07-.14-.4-2.39-.39-2.58-1.69-12.49-2-14.8-.31-1.21-.46-2.77-.74-3.96l.05.12c-.24-1.3-1.39-8.61-1.98-10.22l.05.22c-.07-.22-.13-.4-.19-.55-.07-.21-.14-.38-.19-.53-.13-.29-.23-.5-.35-.67-.05-.09-.12-.18-.18-.27-.08-.07-.17-.15-.27-.23-.21-.15-.46-.36-.9-.49.09.09-.35.02-.91-.02-.31-.01-.51,0-.7,0-.2,0-.37.01-.49.02l.02-.03c-.75.02-2.29.31-3.37.51l.03-.08c-.91.22-2.6.53-3.24.68-1.48.28-3.75.7-5.65,1.33l-1.3.14-.18.07s-.32.77-.3,1.51c.03.74.38,1.45,1.69,1.37l-.02.08.49-.15c.6-.13.85-.28.83-.2l-.81.21c.6-.14.19.01-.02.11.25-.06.49-.12.69-.15.11-.06-.09,0-.19,0,.31-.11.74-.3,1.14-.37.61-.15.07.11.78-.07,1.88-.45,3.74-.84,5.58-1.16.92-.15,1.84-.29,2.73-.37.44-.04.88-.07,1.28-.07.17,0,.47.01.48.01h.04s-.02.03-.03.04c.03-.01.05,0,.06.03l.17.57c.07.25.13.49.2.74.03.29,0,.38,0,.47.01-.09.34,1.32.63,2.82.14.75.28,1.5.38,2.08.1.58.16.96.17,1Z"/>
      </g>
      <g>
        <path class="h" d="M29.49,108.87c.43-.17,1.11-.59,1.76-.96-.54.23-1.08.53-1.76.96Z"/>
        <polygon class="h" points="31.26 107.9 31.27 107.89 31.25 107.91 31.26 107.9"/>
        <path class="h" d="M68.55,133.39c.18.01.38.03.59.04-.21-.03-.4-.04-.59-.04Z"/>
        <path class="h" d="M64.14,104.72l.15-.09c1.72.56.45.31,2.05.81.68.02,2.62.9,3.2.98-.02.01.76.27.69.32.27-.02.8.25,1.3.39.19.03-.12-.07-.24-.15l1.13.34c.43.18.52.27.04.12,2.92,1.02,16.89,5.92,20.04,7.03-.38-.22-1.36-.51-1.69-.76.85.23,1.21.46,1.6.52.26.29,1.81.69,2.37,1.09h.27s.39.19.39.19c3.67,1.21.85.25,4.06,1.44,1.86.67,2.79.86,3.8,1.3-.15-.06-.54-.27-.05-.12.05.12,1.29.43,1.49.6.47.17,1.98.76,1.51.45.23.16,1.53.72.73.45.44.19.86.38,1.19.48l-.55-.27c.8.3,1.19.55,1.62.74.43.25.81.52,1.24.75l-.43-.36c.75.5,1.32.98,1.49,1.3-.23-.19-.46-.37-.71-.55,1.12.92,1.72,1.53,2.37,2.42-.07-.11-.13-.22-.22-.33.23.27.67.87.95,1.67.14.4.25.85.26,1.33.03.47-.03.99-.18,1.55-.27,1.11-.78,2.2-1.31,2.99-.53.8-1.04,1.36-1.28,1.61.19-.1.35-.25.53-.38-.25.32-.55.59-.84.87.11-.1.24-.61.35-.66-.46.42-1.47,1.26-3,1.74-.78.19-1.66.38-2.62.32-.24-.01-.48,0-.73-.02-.25-.04-.5-.07-.75-.11-.46-.05-1.1-.18-1.67-.27-4.57-.72-9.06-1.31-10.42-1.54-1.09-.2-.18-.18-.16-.19-1.34-.15-.59.02-1.72-.14-.31-.06.07-.07.25-.06-.5-.06-.96-.15-1-.11.62.12.34.2.59.31l-1.46-.21.07-.07c-.33-.05-.85.09-2.28-.14-2.42-.35-5.05-.67-7.49-.99.04-.04.56,0,1.08.04-.33-.04-.83-.09-1.12-.16.58.15-1.03-.08-.57.02-1.81-.04-4.1-.49-5.7-.55-.17.14-3.69,2.46-3.68,2.67-.47-.05-.9-.08-1.04-.11.12.06.98.14,1.51.17l.1-.1c1.16.08.26.09,1.4.2.05.09-1,0-1.91-.08.82.09,1.63.24,1.99.18.78.12-.1.1.84.24.67.05,1.57.07,2.33.21h-.02c1.87.33,2.89.23,4.6.54h-.19c.6.13,1.8.22,2.89.41-.31-.06-.57-.15.09-.08,1.25.21,2.12.28,3.03.46l.89.03c2.19.29,7.61,1.02,13.03,1.75,1.35.19,2.71.39,3.96.6.56.11,1.34.21,2.04.31.71.07,1.43.08,2.1.05,2.76-.15,4.94-1.3,5.97-2.11l-.17.13c1.68-1.15,3.34-3.14,4.34-5.69.24-.65.46-1.32.59-2.06.15-.73.19-1.58.1-2.38-.17-1.63-.88-3.17-1.8-4.38-.91-1.24-2.02-2.22-3.14-3.06-.59-.41-1.1-.8-1.77-1.12-.33-.16-.66-.32-.99-.48-.29-.12-.58-.24-.87-.36-2.28-.93-4.33-1.66-5.99-2.25-.99-.46-2.4-.96-3.46-1.37.58.25.36.23-.1.06-3.24-1.18-.24-.03-3.53-1.18-3.81-1.34-18.27-6.42-21.65-7.61-1.85-.5-4.09-1.35-5.89-1.87l.19.03c-1.92-.61-12.72-4.26-15.04-4.84l.3.11c-2-.51-1.69-.56-3.39-1.01.14.1-.42.03-1.04.07-.63.01-1.31.13-1.68.19l.02-.03c-1.15.16-3.42.97-4.99,1.63l.03-.1c-1.31.58-3.73,1.67-4.63,2.13-2.09.99-5.27,2.57-7.86,4.24l-1.81.85-.24.17s-.34.98-.2,1.74c.15.76.74,1.29,2.57.49v.1s.65-.42.65-.42c.83-.45,1.16-.75,1.14-.65l-1.11.65c.82-.47.28-.09-.01.13.34-.2.67-.39.96-.53.15-.12-.13.04-.27.1.42-.28,1-.7,1.55-.98.84-.48.11.07,1.1-.48,2.6-1.43,5.21-2.76,7.86-3.88,1.32-.56,2.66-1.06,3.98-1.44,1.32-.36,2.62-.63,3.54-.39.12.06-.03.02-.19,0,.8.18,1.57.36,2.39.61.8.23,1.58.45,2.38.68.43.17.54.25.66.32-.12-.07,2.07.59,4.32,1.31,2.24.73,4.52,1.48,4.6,1.5Z"/>
      </g>
      <g>
        <path class="h" d="M32.51,149.14c.57-.02,1.53-.18,2.44-.3-.71.03-1.47.11-2.44.3Z"/>
        <path class="h" d="M34.97,148.85h.01s-.02,0-.03,0h.02Z"/>
        <path class="h" d="M118.38,130.59c.22-.09.46-.2.71-.31-.24.1-.48.21-.71.31Z"/>
        <path class="h" d="M77.63,159.6l.18-.1c2.23.53.61.32,2.69.74.84.01,3.5.65,4.27.62-.02.01,1.04.13.97.18.34-.09,1.11.06,1.8.04.25-.03-.18-.03-.37-.07.53-.01,1.05,0,1.59-.04.64,0,.8.05.11.1.53-.02,1.32-.06,2.35-.26.26-.06.53-.12.81-.19.29-.1.59-.21.91-.32.56-.22.99-.42,1.54-.65,2.13-.9,4.68-1.98,7.23-3.06,5.13-2.16,10.29-4.34,12.17-5.17-.52.13-1.66.68-2.16.75.97-.49,1.48-.6,1.89-.86.46,0,2.21-.89,3.04-1.05l.25-.22.52-.15c4.35-1.98.98-.48,4.89-2.12,2.25-.98,3.26-1.57,4.54-2.06-.19.08-.71.23-.14-.04.14.04,1.53-.73,1.85-.77.57-.26,2.42-1.05,1.75-.89.34-.08,2-.77,1.04-.29.56-.24,1.11-.45,1.5-.65l-.73.28c1.87-.83,2.94-1.19,4.12-1.83l-.71.26c1.12-.5,2.06-.92,2.55-1l-1.14.54c1.86-.82,2.98-1.32,4.5-2.07l-.55.24c1.02-.49,4.03-1.95,7.04-3.4.75-.37,1.51-.75,2.24-1.15.38-.21.69-.35,1.09-.6.4-.26.87-.57,1.15-.8.9-.85,1.79-1.61,2.13-1.98l-.77.54c.42-.4.85-.8,1.27-1.23-.15.15-.43.81-.58.91.35-.32.91-.8,1.57-1.49.65-.69,1.44-1.59,2.08-2.84.65-1.23,1.07-2.93.75-4.63-.09-.41-.21-.82-.33-1.22-.14-.35-.28-.71-.44-1.07-.33-.7-.7-1.4-1.16-2.06-.9-1.31-2.09-2.5-3.54-3.25-1.42-.78-3.06-1.05-4.46-.9-1.4.12-2.61.67-3.32.95-.79.32-1.41.57-1.81.72-1.29.47-.29-.05-.28-.07-1.52.67-.63.36-1.93.91-.36.14.04-.1.24-.2-.56.26-1.1.45-1.13.51.72-.27.47-.03.8-.09l-1.67.71.04-.1c-.37.16-.86.6-2.52,1.26-2.77,1.19-5.77,2.47-8.56,3.66.03-.06.6-.34,1.17-.61-.37.16-.94.41-1.29.53.7-.22-1.15.55-.61.36-1.96,1.05-4.66,2.03-6.41,2.92-.09.22-2.72,4.27-2.65,4.45-.56.24-1.11.47-1.29.53.16-.02,1.27-.47,1.84-.75l.06-.14c1.33-.61.34-.08,1.64-.65.1.05-1.09.58-2.15,1.05.96-.4,1.93-.75,2.29-1.01.91-.35-.06.14,1.04-.29.76-.35,1.74-.87,2.64-1.2v.02c2.17-.84,3.23-1.54,5.23-2.3l-.2.12c.71-.25,2.05-.9,3.33-1.39-.36.14-.7.21.05-.12,1.46-.57,2.42-1.04,3.5-1.43l.98-.51c1.25-.54,3.43-1.48,6.07-2.61.66-.28,1.35-.56,2.06-.86.36-.15.72-.3,1.08-.45l.55-.23.43-.15c1.16-.4,2.37-.34,3.49.18,1.12.53,2.11,1.52,2.82,2.68.36.58.66,1.2.9,1.83.14.32.15.54.25.8.02.25.08.49.07.73,0,1.9-1.61,3.56-2.46,4.4l.13-.15c-.67.68-1.51,1.38-2.53,2.25-.24.19-.55.51-.78.67-.18.09-.35.18-.52.3-.59.3-1.2.61-1.82.93-2.59,1.25-5.49,2.57-8.41,3.87-5.85,2.59-11.74,5.19-15.69,6.94-1.26.45-2.95,1.19-4.24,1.72.73-.27.51-.11-.05.12-3.91,1.66-.24.17-4.18,1.88-2.26,1.01-7.75,3.34-13.19,5.63-2.72,1.15-5.42,2.29-7.7,3.25-.57.24-1.12.48-1.63.69-.51.22-1.02.45-1.32.53-.32.14-.71.17-1,.25-.33.04-.61.07-.85.1-2.08.33-4.92-.1-7.13-.44h.23c-1.19-.15-5.14-1.02-9.07-2.29-3.94-1.23-7.85-2.74-9.19-3.24l.35.15c-2.35-.84-1.98-.84-3.78-1.62.18.23-1.81-.53-2.56-.85l.04-.02c-1.12-.47-3.73-1.51-5.43-2.45l.1-.03c-.29-.16-.9-.44-1.52-.72-.61-.22-1.27-.41-1.89-.54-1.25-.26-2.42-.35-3.06-.4-2.93-.23-7.37-.07-11.12.58-.82.04-1.65.1-2.47.16l-.35.08s-.87.81-1.08,1.59c-.2.78.2,1.47,2.64,1.35l-.06.09.95-.16c1.15-.13,1.66-.28,1.6-.2l-1.57.21c1.15-.15.35,0-.08.12.48-.07.95-.12,1.33-.15.22-.06-.17,0-.35,0,.61-.12,1.46-.29,2.22-.34,1.18-.11.09.11,1.46-.01,1.81-.14,3.59-.22,5.34-.18,1.73.05,3.47.23,4.88.69.39.08.62.27.93.39.11.03.4.22.6.33l.65.36c.85.45,1.7.88,2.56,1.28,1.71.81,3.44,1.57,5.2,2.29.15.09-.04.02-.25-.06,2.13.85,4.03,1.61,6,2.3.53.23.67.33.82.42-.15-.09,2.56.89,5.39,1.78,1.42.44,2.85.87,3.96,1.17,1.11.29,1.86.5,1.91.51Z"/>
      </g>
      <g class="g">
        <g>
          <g>
            <path class="h" d="M124.27,133.34c-.34-.09-.72-.18-1.14-.29-.43-.07-.91-.15-1.4-.23-.5-.07-1.03-.15-1.56-.23-.53-.05-1.08-.09-1.61-.14.82.11,1.67.18,2.61.35.93.15,1.95.26,3.11.54Z"/>
            <path class="h" d="M118.51,132.45s-.02,0-.03,0c.03,0,.05,0,.08,0-.02,0-.03,0-.04,0Z"/>
            <path class="h" d="M127.28,137.01c.63-.11,1.33-.31,2.01-.58-.65.26-1.35.45-2.01.58Z"/>
            <path class="h" d="M37.48,109.46l-.13-.32c.04-4.95.17-1.44.17-6.02-.18-1.79.08-7.6,0-9.19,0,0,0-.12.01-.33,0-.2.01-.47.02-.74.02-.54.04-1.06.07-.99-.1-.69,0-2.31-.01-3.72-.02-.51-.04.38-.07.76v-3.24c.05-1.27.11-1.58.11-.2.07-4.23.24-16.5.62-28.83.35-12.34,1-24.73,1.25-29.27-.14,1.16-.26,3.97-.43,5.03.05-2.41.22-3.53.21-4.6.23-.91.37-5.27.68-7.08l-.03-.33s-.03-.01-.04-.02c.04-.13.1-.13.15-.18.06-.09.3-.24.62-.34.31-.1.67-.17,1-.21.66-.08,1.21-.1,1.62-.11.86,0,1.12-.01,1.34-.01.46,0,.76,0,5.46.04,5.44-.02,8.03-.16,11.05-.11-.45,0-1.65-.07-.24-.09.24.09,3.75-.07,4.44.03,1.38-.01,5.85,0,4.34-.13.76.06,4.75.09,2.37.14,1.35,0,2.65.02,3.62,0l-1.73-.03c4.55-.02,7.02.08,9.98-.03l-1.68-.05c2.72,0,4.99-.02,6.06.11l-2.79.04c4.51,0,7.23-.01,10.98-.08h-1.34c2.39-.07,9.85-.12,17.26-.18,3.7-.03,7.4-.07,10.44-.09.76,0,1.48-.02,2.15-.03.36-.01.62,0,.87.01.26,0,.5.04.73.07.92.15,1.61.4,2.03.6-.49-.3-1.03-.5-1.58-.67,1.05.22,2.06.67,2.94,1.32-.3-.28-1.47-.58-1.74-.72.76.33,1.93.99,2.9,2.3.48.65.91,1.44,1.17,2.37.28.94.28,1.89.27,3.28,0,5.22.01,11.5.02,17.76,0,12.52-.02,24.96-.02,28.72-.05,3.03-.15.54-.17.51.04,3.69.1,1.59.09,4.72-.02.86-.08-.18-.09-.66.01,1.37-.02,2.65.02,2.75.03-1.72.15-.99.23-1.72v4.03s-.09-.18-.09-.18c0,.9.21,2.28.17,6.24,0,6.68-.02,13.93-.02,20.65-.05-.1-.07-1.51-.1-2.93,0,.9,0,2.27-.02,3.1.08-1.62.05,2.82.09,1.55.09,2.46.1,5.28.09,8.03,0,1.37,0,2.73,0,4.02-.02,1.28.07,2.55-.02,3.41.03.09.17.65.17,1.51.01.86-.17,2.04-.65,3.17-.47,1.14-1.24,2.21-1.95,2.93-.7.73-1.29,1.14-1.27,1.19-1.54.6-3.19.68-3.68.65.21.02,1.12.03,2.17-.19,1.05-.21,2.21-.68,2.94-1.12l.2-.24c.83-.51,1.24-.88,1.49-1.09.24-.2.33-.27.42-.35.09-.07.17-.13.39-.36.22-.23.6-.61,1.12-1.41.09-.07-.31.68-1.17,1.59-.85.92-2.21,1.93-3.68,2.5,1.32-.51,2.51-1.3,3.38-2.13.88-.82,1.44-1.65,1.7-2.16.68-1.13.62-1.09.65-1.06.01,0,.03,0,.13-.19.1-.19.28-.57.52-1.35.15-.56.27-1.17.33-1.81.03-.32.04-.65.04-.98,0-.28,0-.57-.01-.85-.02-1.11-.03-2.26,0-3.33l.02.04c.09-5.2-.13-7.95-.04-12.7l.03.51c.05-1.68-.02-4.98.04-8.01-.02.86-.08,1.61-.09-.21.05-3.48,0-5.86.07-8.4l-.08-2.44c0-6.06-.03-21.06-.05-36.07-.02-7.5-.03-15.01-.04-21.4,0-1.6,0-3.13,0-4.57,0-.72,0-1.42,0-2.09,0-.34,0-.67,0-1-.02-.39-.03-.78-.07-1.15-.35-3.04-1.92-5.22-3.25-6.44.15.12.29.25.42.39-.97-1.01-2.2-1.91-3.67-2.48-.73-.28-1.51-.52-2.33-.63-.41-.08-.82-.09-1.24-.11-.46-.03-.73,0-1.11-.01-2.85,0-5.94,0-9.18.01-6.48,0-13.58.02-20.7.02-14.24.04-28.55.08-38.14.1-2.97-.08-7.06-.06-10.15-.09,1.72.03,1.13.09-.21.09-2.34,0-3.6,0-4.35.06-.73.06-.83.1-.92.12-.11.04-.19.02-.99.23-.4.13-1,.25-1.88.85-.43.29-.92.8-1.27,1.48-.08.17-.17.35-.23.54-.05.18-.1.38-.15.62-.03.11-.02.24-.03.34v.21c-.02.14-.03.28-.04.43-.35,5.49-1.11,18.75-1.52,31.85-.43,13.11-.63,26.06-.73,30.93.06,5.24-.1,11.78-.06,16.91l-.02-.52c-.01,1.38-.03,4.36-.06,8.16-.02,1.9-.04,4-.06,6.21,0,.55-.01,1.11-.02,1.67-.01.24.02.41.04.55l.05.45.1.9c.07.6.14,1.2.21,1.81l.42,1.8c.51,2.42,1.62,4.73,2.89,6.8,1.44,1.96,3.06,3.72,4.83,4.88.43.3.84.62,1.27.88.44.24.86.46,1.27.68.41.21.8.44,1.19.62.4.16.78.31,1.14.46,1.44.63,2.65.92,3.45,1.16l-.86-.27c.7.19,1.31.38,1.83.51.53.11.98.21,1.38.29.79.16,1.37.33,1.9.4.54.09,1.04.18,1.68.29.65.12,1.44.23,2.56.32-.29-.1.79-.03,2.17,0,1.38.01,3.06.09,3.98.06l-.07.03c2.8.07,9.09-.3,13.63-.71l-.17.09c3.81-.37,10.89-1.06,13.6-1.33,6.19-.56,15.75-1.48,23.91-1.24,1.75.16,3.49.35,5.18.69l.75.08s.48-.08,1.19-.19c.65-.12,1.44-.3,1.91-.57.47-.24.63-.61-.02-1.08-.66-.46-2.15-1.12-4.96-1.6l.19-.05c-.75-.1-1.49-.12-2.23-.19-2.67-.23-3.9-.1-3.72-.2,1.22.05,2.43.05,3.66.18-2.69-.21-.81-.13.22-.09-1.13-.12-2.21-.15-3.1-.2-.53.01.39.04.8.07-.72,0-1.59-.02-2.49-.01-.9.02-1.83.04-2.71.03-2.72.07-.18-.12-3.35-.02-8.35.38-16.45,1.33-24.54,2.04-8.07.68-16.2,1.31-24.26.53-.36-.06.07-.02.54,0-4.84-.42-9.09-1.33-12.81-3.28-.5-.29-.82-.48-1.05-.62-.22-.15-.33-.28-.46-.38.06.06-.17-.11-.65-.44-.23-.17-.54-.36-.87-.61-.3-.28-.64-.61-1.02-.96-1.48-1.44-3.17-3.77-4.03-6.6-.36-1.43-.79-2.86-.88-4.31-.04-.36-.08-.71-.12-1.05-.02-.17-.04-.34-.06-.5-.01-.12,0,0,0-.13v-.27c0-.71.01-1.38.02-2,.03-2.49.04-4.19.04-4.3Z"/>
          </g>
          <g>
            <path class="e" d="M53.07,10.09v16.69M68.91,10.09v16.69M84.74,10.09v16.69M100.57,10.09v16.69M116.4,10.09v16.69"/>
            <g>
              <path class="f" d="M53.07,10.09v16.69M68.91,10.09v16.69M84.74,10.09v16.69M100.57,10.09v16.69M116.4,10.09v16.69"/>
              <g>
                <path class="h" d="M114.76,10.15c-.08.05-.09.14-.1.22.08-.06.11-.13.1-.22Z"/>
                <polygon class="h" points="114.66 10.37 114.66 10.38 114.66 10.37 114.66 10.37"/>
                <path class="h" d="M118.33,26.71s0-.05,0-.07c0,.02,0,.05,0,.07Z"/>
                <path class="h" d="M114.42,14.45h.14c0,.21-.16.07-.12.26.19.07-.02.31.08.37-.02,0-.02.09-.08.08.1.03.02.09.05.15.03.02.03-.02.06-.03l.04.13c-.03.05-.1.06-.11,0-.04.34-.14,1.98-.09,2.35.08-.05.03-.16.15-.2.07.1-.02.14.05.19-.18.04-.04.21-.23.29l.1.03-.06.05c.11.43.05.1.03.48.02.22.16.32.11.45,0-.02.07-.07.09,0-.09,0,.07.15-.03.18.01.06,0,.24.13.18-.06.03-.09.19-.14.1,0,.05-.02.11,0,.15l.03-.07c.02.18-.08.28.03.4l.05-.07c0,.11.02.2-.11.24l-.04-.11c0,.18.01.29.08.44v-.05c.13.19.23,1.2.38,1.38l.1-.08.08.15s-.31-.07-.28-.09c0,.33.08,2.03.02,2.34-.05.12-.15.02-.17.02.04.15.1.06.09.19-.02.03-.08,0-.09-.03.01.06-.02.11.02.11.03-.07.15-.04.23-.07v.16s-.09,0-.09,0c0,.04.21.09.17.25-.03.27,0,.56-.02.83-.05,0-.07-.06-.1-.12,0,.04,0,.09-.02.13.08-.07.05.11.09.06.18.2.02.46.14.63.17.02,2.85.38,3.04.38,0,.05,0,.11-.02.13.05-.01.07-.12.04-.18h-.11c-.04-.14.06-.04.06-.17.09,0,.1.11.11.21.01-.09.07-.19-.02-.22.04-.09.11,0,.14-.1-.03-.08-.11-.17-.06-.26h.02c.09-.21-.13-.32-.04-.51l.03.02c.05-.07-.02-.2.04-.32-.02.03-.08.07-.09,0,.05-.14,0-.24.07-.34l-.08-.1c.02-.49-.1-2.42-.12-2.91v.02c-.03-.75-.02-2.28-.14-3.06.08-.12.06-.28.09-.41-.03.07-.09.05-.09,0,0-.38-.06-.03-.09-.41-.08-.44.01-2.14.08-2.53-.12-.21-.03-.47-.11-.68l.03.02c-.05-.22.07-1.48.02-1.74l-.02.03c-.08-.23.06-.19.1-.37-.14.02-.22-.17-.23-.24h.03c-.02-.11-.14-.36-.16-.54h.08c-.08-.15-.05-.43-.06-.54.03-.25.16-.64.06-.97l.21-.22-.02-.03s-2.59-.35-3.15.09h-.08s0,.08,0,.08c-.04.11.05.15-.02.15v-.14c-.01.11-.05.03-.1,0,0,.04-.02.09-.04.12.03.02.03-.02.05-.03.03.06.1.14.06.21,0,.11-.12,0-.13.13-.06.67-.15,1.31-.13,1.99-.03.02-.03,0-.04-.02.03.2.02.38.05.57-.03.05-.08.07-.11.08.06-.03.07,1.02.05,1.04Z"/>
              </g>
              <g>
                <path class="h" d="M98.93,10.15c-.08.05-.09.14-.1.22.08-.06.11-.13.1-.22Z"/>
                <polygon class="h" points="98.82 10.37 98.83 10.38 98.83 10.37 98.82 10.37"/>
                <path class="h" d="M102.5,26.71s0-.05,0-.07c0,.02,0,.05,0,.07Z"/>
                <path class="h" d="M98.59,14.45h.14c0,.21-.16.07-.12.26.19.07-.02.31.08.37-.02,0-.02.09-.08.08.1.03.02.09.05.15.03.02.03-.02.06-.03l.04.13c-.03.05-.1.06-.11,0-.04.34-.14,1.98-.09,2.35.08-.05.03-.16.15-.2.07.1-.02.14.05.19-.18.04-.04.21-.23.29l.1.03-.06.05c.11.43.05.1.03.48.02.22.16.32.11.45,0-.02.07-.07.09,0-.09,0,.07.15-.03.18.01.06,0,.24.13.18-.06.03-.09.19-.14.1,0,.05-.02.11,0,.15l.03-.07c.02.18-.08.28.03.4l.05-.07c0,.11.02.2-.11.24l-.04-.11c0,.18.01.29.08.44v-.05c.13.19.23,1.2.38,1.38l.1-.08.08.15s-.31-.07-.28-.09c0,.33.08,2.03.02,2.34-.05.12-.15.02-.17.02.04.15.1.06.09.19-.02.03-.08,0-.09-.03.01.06-.02.11.02.11.03-.07.15-.04.23-.07v.16s-.09,0-.09,0c0,.04.21.09.17.25-.03.27,0,.56-.02.83-.05,0-.07-.06-.1-.12,0,.04,0,.09-.02.13.08-.07.05.11.09.06.18.2.02.46.14.63.17.02,2.85.38,3.04.38,0,.05,0,.11-.02.13.05-.01.07-.12.04-.18h-.11c-.04-.14.06-.04.06-.17.09,0,.1.11.11.21.01-.09.07-.19-.02-.22.04-.09.11,0,.14-.1-.03-.08-.11-.17-.06-.26h.02c.09-.21-.13-.32-.04-.51l.03.02c.05-.07-.02-.2.04-.32-.02.03-.08.07-.09,0,.05-.14,0-.24.07-.34l-.08-.1c.02-.49-.1-2.42-.12-2.91v.02c-.03-.75-.02-2.28-.14-3.06.08-.12.06-.28.09-.41-.03.07-.09.05-.09,0,0-.38-.06-.03-.09-.41-.08-.44.01-2.14.08-2.53-.12-.21-.03-.47-.11-.68l.03.02c-.05-.22.07-1.48.02-1.74l-.02.03c-.08-.23.06-.19.1-.37-.14.02-.22-.17-.23-.24h.03c-.02-.11-.14-.36-.16-.54h.08c-.08-.15-.05-.43-.06-.54.03-.25.16-.64.06-.97l.21-.22-.02-.03s-2.59-.35-3.15.09h-.08s0,.08,0,.08c-.04.11.05.15-.02.15v-.14c-.01.11-.05.03-.1,0,0,.04-.02.09-.04.12.03.02.03-.02.05-.03.03.06.1.14.06.21,0,.11-.12,0-.13.13-.06.67-.15,1.31-.13,1.99-.03.02-.03,0-.04-.02.03.2.02.38.05.57-.03.05-.08.07-.11.08.06-.03.07,1.02.05,1.04Z"/>
              </g>
              <g>
                <path class="h" d="M83.1,10.15c-.08.05-.09.14-.1.22.08-.06.11-.13.1-.22Z"/>
                <polygon class="h" points="82.99 10.37 82.99 10.38 82.99 10.37 82.99 10.37"/>
                <path class="h" d="M86.66,26.71s0-.05,0-.07c0,.02,0,.05,0,.07Z"/>
                <path class="h" d="M82.76,14.45h.14c0,.21-.16.07-.12.26.19.07-.02.31.08.37-.02,0-.02.09-.08.08.1.03.02.09.05.15.03.02.03-.02.06-.03l.04.13c-.03.05-.09.06-.11,0-.04.34-.14,1.98-.09,2.35.08-.05.03-.16.15-.2.07.1-.02.14.05.19-.18.04-.04.21-.23.29l.1.03-.06.05c.11.43.05.1.03.48.02.22.16.32.11.45,0-.02.07-.07.09,0-.09,0,.07.15-.03.18.01.06,0,.24.13.18-.06.03-.09.19-.14.1,0,.05-.02.11,0,.15l.03-.07c.02.18-.08.28.03.4l.05-.07c0,.11.02.2-.11.24l-.04-.11c0,.18.01.29.08.44v-.05c.13.19.23,1.2.38,1.38l.1-.08.08.15s-.31-.07-.28-.09c0,.33.08,2.03.02,2.34-.05.12-.15.02-.17.02.04.15.1.06.09.19-.02.03-.08,0-.09-.03.01.06-.02.11.02.11.03-.07.15-.04.23-.07v.16s-.09,0-.09,0c0,.04.21.09.17.25-.03.27,0,.56-.02.83-.05,0-.07-.06-.1-.12,0,.04,0,.09-.02.13.08-.07.05.11.09.06.18.2.02.46.14.63.17.02,2.85.38,3.04.38,0,.05,0,.11-.02.13.05-.01.07-.12.04-.18h-.11c-.04-.14.06-.04.06-.17.09,0,.1.11.11.21.01-.09.07-.19-.02-.22.04-.09.11,0,.14-.1-.03-.08-.11-.17-.06-.26h.02c.09-.21-.13-.32-.04-.51l.03.02c.05-.07-.02-.2.04-.32-.02.03-.08.07-.09,0,.05-.14,0-.24.07-.34l-.08-.1c.02-.49-.1-2.42-.12-2.91v.02c-.03-.75-.02-2.28-.14-3.06.08-.12.06-.28.09-.41-.03.07-.09.05-.09,0,0-.38-.06-.03-.09-.41-.08-.44.01-2.14.08-2.53-.12-.21-.03-.47-.11-.68l.03.02c-.05-.22.07-1.48.02-1.74l-.02.03c-.08-.23.06-.19.1-.37-.14.02-.22-.17-.23-.24h.03c-.02-.11-.14-.36-.16-.54h.08c-.08-.15-.05-.43-.06-.54.03-.25.16-.64.06-.97l.21-.22-.02-.03s-2.59-.35-3.15.09h-.08s0,.08,0,.08c-.04.11.05.15-.02.15v-.14c-.01.11-.05.03-.1,0,0,.04-.02.09-.04.12.03.02.03-.02.05-.03.03.06.1.14.06.21,0,.11-.12,0-.13.13-.06.67-.15,1.31-.13,1.99-.03.02-.03,0-.04-.02.03.2.02.38.05.57-.03.05-.08.07-.11.08.06-.03.07,1.02.05,1.04Z"/>
              </g>
              <g>
                <path class="h" d="M67.26,10.15c-.08.05-.09.14-.1.22.08-.06.11-.13.1-.22Z"/>
                <polygon class="h" points="67.16 10.37 67.16 10.38 67.16 10.37 67.16 10.37"/>
                <path class="h" d="M70.83,26.71s0-.05,0-.07c0,.02,0,.05,0,.07Z"/>
                <path class="h" d="M66.92,14.45h.14c0,.21-.16.07-.12.26.19.07-.02.31.08.37-.02,0-.02.09-.08.08.1.03.02.09.05.15.03.02.03-.02.06-.03l.04.13c-.03.05-.09.06-.11,0-.04.34-.14,1.98-.09,2.35.08-.05.03-.16.15-.2.07.1-.02.14.05.19-.18.04-.04.21-.23.29l.1.03-.06.05c.11.43.05.1.03.48.02.22.16.32.11.45,0-.02.07-.07.09,0-.09,0,.07.15-.03.18.01.06,0,.24.13.18-.06.03-.09.19-.14.1,0,.05-.02.11,0,.15l.03-.07c.02.18-.08.28.03.4l.05-.07c0,.11.02.2-.11.24l-.04-.11c0,.18.01.29.08.44v-.05c.13.19.23,1.2.38,1.38l.1-.08.08.15s-.31-.07-.28-.09c0,.33.08,2.03.02,2.34-.05.12-.15.02-.17.02.04.15.1.06.09.19-.02.03-.08,0-.09-.03.01.06-.02.11.02.11.03-.07.15-.04.23-.07v.16s-.09,0-.09,0c0,.04.21.09.17.25-.03.27,0,.56-.02.83-.05,0-.07-.06-.1-.12,0,.04,0,.09-.02.13.08-.07.05.11.09.06.18.2.02.46.14.63.17.02,2.85.38,3.04.38,0,.05,0,.11-.02.13.05-.01.07-.12.04-.18h-.11c-.04-.14.06-.04.06-.17.09,0,.1.11.11.21.01-.09.07-.19-.02-.22.04-.09.11,0,.14-.1-.03-.08-.11-.17-.06-.26h.02c.09-.21-.13-.32-.04-.51l.03.02c.05-.07-.02-.2.04-.32-.02.03-.08.07-.09,0,.05-.14,0-.24.07-.34l-.08-.1c.02-.49-.1-2.42-.12-2.91v.02c-.03-.75-.02-2.28-.14-3.06.08-.12.06-.28.09-.41-.03.07-.09.05-.09,0,0-.38-.06-.03-.09-.41-.08-.44.01-2.14.08-2.53-.12-.21-.03-.47-.11-.68l.03.02c-.05-.22.07-1.48.02-1.74l-.02.03c-.08-.23.06-.19.1-.37-.14.02-.22-.17-.23-.24h.03c-.02-.11-.14-.36-.16-.54h.08c-.08-.15-.05-.43-.06-.54.03-.25.16-.64.06-.97l.21-.22-.02-.03s-2.59-.35-3.15.09h-.08s0,.08,0,.08c-.04.11.05.15-.02.15v-.14c-.01.11-.05.03-.1,0,0,.04-.02.09-.04.12.03.02.03-.02.05-.03.03.06.1.14.06.21,0,.11-.12,0-.13.13-.06.67-.15,1.31-.13,1.99-.03.02-.03,0-.04-.02.03.2.02.38.05.57-.03.05-.08.07-.11.08.06-.03.07,1.02.05,1.04Z"/>
              </g>
              <g>
                <path class="h" d="M51.43,10.15c-.08.05-.09.14-.1.22.08-.06.11-.13.1-.22Z"/>
                <polygon class="h" points="51.33 10.37 51.33 10.38 51.33 10.37 51.33 10.37"/>
                <path class="h" d="M55,26.71s0-.05,0-.07c0,.02,0,.05,0,.07Z"/>
                <path class="h" d="M51.09,14.45h.14c0,.21-.16.07-.12.26.19.07-.02.31.08.37-.02,0-.02.09-.08.08.1.03.02.09.05.15.03.02.03-.02.06-.03l.04.13c-.03.05-.09.06-.11,0-.04.34-.14,1.98-.09,2.35.08-.05.03-.16.15-.2.07.1-.02.14.05.19-.18.04-.04.21-.23.29l.1.03-.06.05c.11.43.05.1.03.48.02.22.16.32.11.45,0-.02.07-.07.09,0-.09,0,.07.15-.03.18.01.06,0,.24.13.18-.06.03-.09.19-.14.1,0,.05-.02.11,0,.15l.03-.07c.02.18-.08.28.03.4l.05-.07c0,.11.02.2-.11.24l-.04-.11c0,.18.01.29.08.44v-.05c.13.19.23,1.2.38,1.38l.1-.08.08.15s-.31-.07-.28-.09c0,.33.08,2.03.02,2.34-.05.12-.15.02-.17.02.04.15.1.06.09.19-.02.03-.08,0-.09-.03.01.06-.02.11.02.11.03-.07.15-.04.23-.07v.16s-.09,0-.09,0c0,.04.21.09.17.25-.03.27,0,.56-.02.83-.05,0-.07-.06-.1-.12,0,.04,0,.09-.02.13.08-.07.05.11.09.06.18.2.02.46.14.63.17.02,2.85.38,3.04.38,0,.05,0,.11-.02.13.05-.01.07-.12.04-.18h-.11c-.04-.14.06-.04.06-.17.09,0,.1.11.11.21.01-.09.07-.19-.02-.22.04-.09.11,0,.14-.1-.03-.08-.11-.17-.06-.26h.02c.09-.21-.13-.32-.04-.51l.03.02c.05-.07-.02-.2.04-.32-.02.03-.08.07-.09,0,.05-.14,0-.24.07-.34l-.08-.1c.02-.49-.1-2.42-.12-2.91v.02c-.03-.75-.02-2.28-.14-3.06.08-.12.06-.28.09-.41-.03.07-.09.05-.09,0,0-.38-.06-.03-.09-.41-.08-.44.01-2.14.08-2.53-.12-.21-.03-.47-.11-.68l.03.02c-.05-.22.07-1.48.02-1.74l-.02.03c-.08-.23.06-.19.1-.37-.14.02-.22-.17-.23-.24h.03c-.02-.11-.14-.36-.16-.54h.08c-.08-.15-.05-.43-.06-.54.03-.25.16-.64.06-.97l.21-.22-.02-.03s-2.59-.35-3.15.09h-.08s0,.08,0,.08c-.04.11.05.15-.02.15v-.14c-.01.11-.05.03-.1,0,0,.04-.02.09-.04.12.03.02.03-.02.05-.03.03.06.1.14.06.21,0,.11-.12,0-.13.13-.06.67-.15,1.31-.13,1.99-.03.02-.03,0-.04-.02.03.2.02.38.05.57-.03.05-.08.07-.11.08.06-.03.07,1.02.05,1.04Z"/>
              </g>
            </g>
          </g>
          <g>
            <path class="h" d="M64.8,59.91c-.08.51-.09,1.38-.1,2.2.08-.64.11-1.31.1-2.2Z"/>
            <polygon class="h" points="64.69 62.13 64.69 62.14 64.69 62.11 64.69 62.13"/>
            <path class="h" d="M66.69,57.36c-.16-.06-.33-.15-.51-.25.16.09.33.19.51.25Z"/>
            <path class="h" d="M93.46,79.78l.13-.14c1.96,0,.57.16,2.38.12.18-.05.45-.07.78-.08.41-.02.9-.03,1.38-.11.95-.14,1.87-.47,2.2-.71,0,.05,1-.53.97-.45.24-.28.96-.71,1.43-1.27.15-.22-.14.13-.32.23.39-.39.73-.82,1.04-1.28.37-.52.51-.64.15-.03.29-.46.72-1.15,1.03-2.11.15-.48.27-1.02.34-1.61.02-.29.03-.59.05-.9,0-.24,0-.49,0-.74.01-2.03.03-4.47.04-6.91,0-1.08.01-2.15.01-3.19,0,0,0-.01.01-.01,0,0,0,0,0,0h0s.1-.05.1-.05l.42-.23c.27-.17.53-.34.79-.5,2.02-1.39,3.2-3.04,3.74-3.94-.33.44-1.09,1.5-1.52,1.78.68-.87,1.04-1.26,1.25-1.71.44-.23,1.24-2.1,1.64-2.86,0-.11,0-.22,0-.34l.21-.52c.51-2.42.3-2.73.36-2.93-.02-.21.13-.36-.13-2.53-.2-1.25-.57-2.12-.88-2.84-.35-.71-.64-1.28-1-1.88.11.18.34.68-.02.14.05-.17-1.01-1.39-1.15-1.67-.22-.22-.65-.75-1.04-1.07-.38-.33-.65-.53-.44-.25-.18-.31-1.67-1.38-.75-.79-.48-.39-1-.69-1.39-.9l.66.44c-1.78-1.07-2.86-1.52-4.2-1.72l.73.24c-.6-.16-1.15-.29-1.62-.35-.47-.1-.84-.15-1.08-.22.43,0,.85.05,1.28.11-2.04-.29-3.36-.22-5.03.24l.6-.13c-.12.03-.27.07-.44.11-.16.04-.41.12-.44.13-.09.04-.14.07-.24.13-.04-.05-.09-.12-.17-.21-.16-.21-.33-.43-.5-.65-.2-.23-.41-.47-.62-.71-.88-.93-1.94-1.75-3.03-2.35-2.19-1.24-4.4-1.5-5.15-1.5.3.06.59.12.88.22-.55-.07-1.11-.11-1.66-.09.19,0,.83-.26.99-.21-1.01-.11-3.39-.27-6.04.8-1.31.52-2.66,1.31-3.82,2.38-.59.52-1.13,1.12-1.61,1.75l-.35.48-.1.15c-.07.1-.1.19-.16.27-.16-.06-.25-.1-.47-.16-.55-.14-1.11-.25-1.65-.32-1.09-.14-2.12-.08-3.03.02-1.82.23-3.17.78-3.81,1.09-1.24.54-.29-.03-.28-.05-.75.37-.86.54-.98.62-.11.11-.23.14-.79.56-.32.22.02-.11.19-.25-.49.38-.98.69-.97.77.63-.45.45-.15.75-.29-.49.34-.93.75-1.37,1.15v-.11c-.27.3-.6.83-1.62,2.23-1.7,2.43-2.36,5.77-1.94,8.7-.04-.04-.18-.65-.22-1.28,0,.4.1,1.01.11,1.38-.04-.72.28,1.22.22.66.31,1.05.73,2.22,1.3,3.28.56,1.07,1.28,2.02,1.98,2.67.12,0,1.34.25,2.47.18,1.14-.03,2.14-.34,2.18-.43.37.22.77.36.89.44l-1.97.42s.02-.02.02-.02c0,0-.01,0-.03.02l1.98-.42c-.14-.1-.87-.45-1.26-.66l-.12.05c-.93-.55-.19-.18-1.04-.79.01-.1.77.49,1.52.86-.67-.36-1.23-.87-1.52-.99-.51-.5.12-.02-.48-.62-.46-.39-1.03-.96-1.37-1.58h.02c-.43-.73-.72-1.3-.96-1.88-.25-.58-.43-1.17-.5-1.95l.05.16c-.04-.54-.16-1.62.03-2.59-.06.27-.16.51-.08-.08.21-1.12.43-1.87.84-2.59.09-.25.17-.51.29-.75.28-.48.72-1.15,1.39-1.84.67-.68,1.55-1.39,2.64-1.91,1.08-.53,2.35-.88,3.67-.94.66-.06,1.31,0,1.95.11l.48.1.28.07c.17.04.36.11.54.17.72.26,1.45.57,2.14.84.33-.58.64-1.19.97-1.74l.49-.83c.11-.16.17-.24.26-.36.33-.45.7-.86,1.09-1.23.77-.73,1.61-1.28,2.43-1.66,1.64-.77,3.13-.89,4.01-.88-.05,0-.11,0-.16.01,1.3-.01,2.93.24,4.5,1.09.78.42,1.55.98,2.23,1.66.35.34.66.72.95,1.12l.11.15.21.35.43.72c.27.49.55.98.83,1.48.7-.28,1.43-.59,2.14-.85.36-.13.67-.2.79-.23.16-.04.33-.08.49-.11.66-.12,1.32-.18,2-.12,1.35.06,2.67.41,3.82.98,2.34,1.14,3.86,3.16,4.59,4.85.33.94.63,2.29.62,3.33,0-.58.07-.39.09.07.02.79-.04,1.2-.06,1.42-.02.22-.01.25,0,.28,0,.03,0,.06-.02.28-.03.22-.09.64-.34,1.41-.28.88-.95,2.39-2.34,3.75-.34.34-.73.67-1.14.97-.2.16-.43.29-.65.43-.11.08-.23.13-.35.2l-.22.12c-.12.07-.25.13-.38.18l-.75.35-.38.17-.19.09c-.06.03-.15.04-.12.13,0,.56,0,1.12,0,1.68,0,.71,0,1.44,0,2.16-.02,2.59-.03,5.16-.04,7.33,0,.54,0,1.06-.01,1.54,0,.12,0,.24,0,.36l-.02.26c0,.17-.03.33-.06.48-.11.61-.3,1.08-.48,1.39-.29.71-.88,1.41-1.62,1.87-.73.48-1.59.7-2.35.76l.15-.04c-.11,0-.21.02-.42.03-.21,0-.46,0-.73,0-.55,0-1.22,0-1.97,0-1.5,0-3.33-.01-5.16-.02-3.67-.02-7.39-.03-8.65-.01l.34.02c-2.21.08-1.91-.06-3.65-.1.23.14-1.66.22-2.38.23l.03-.03c-.27,0-.63.02-1.04.03-.21,0-.43.02-.65.02-.18,0-.37,0-.57,0-.76-.04-1.58-.31-2.18-.69l.09-.04c-.52-.27-1.19-.83-1.61-1.53-.44-.68-.64-1.44-.69-1.86-.05-.24-.04-.5-.05-.77,0-.35.01-.71.02-1.09.01-.75.03-1.56.04-2.4.02-1.67.03-3.44-.02-5.09l.21-2.13-.02-.31s-2.59-3.43-3.15.92l-.08-.07v.86c-.03,1.03.06,1.51-.02,1.44v-1.41c-.01,1.04-.05.31-.1-.08,0,.43-.02.85-.04,1.2.03.2.03-.15.05-.31.03.56.1,1.33.06,2.01,0,1.06-.12.07-.13,1.31-.02,1.63-.03,3.25-.05,4.87v.31s.01.39.01.39c0,.26.03.52.07.78.07.52.19,1.03.37,1.52.34.99.88,1.91,1.56,2.7,1.37,1.58,3.38,2.62,5.5,2.78.25.01.57.03.76.03h.61s1.22,0,1.22,0c.82,0,1.64,0,2.46,0,.15.03-.03.03-.22.04,1.99-.02,3.75-.04,5.57-.05.5.03.64.08.79.11-.15-.03,2.35-.05,4.91-.06,2.56,0,5.16,0,5.26,0Z"/>
          </g>
          <g>
            <path class="h" d="M66.56,68.99c.11.08.31.09.49.1-.14-.08-.29-.11-.49-.1Z"/>
            <polygon class="h" points="67.06 69.09 67.06 69.09 67.05 69.09 67.06 69.09"/>
            <path class="h" d="M102.91,65.42s-.1,0-.15,0c.05,0,.1,0,.15,0Z"/>
            <path class="h" d="M76.01,69.33l.03-.14c.44,0,.13.16.53.12.16-.19.67.02.81-.08,0,.02.2.02.18.08.06-.1.2-.02.33-.05.05-.03-.03-.03-.07-.06l.29-.04c.11.03.14.1.02.11.75.04,4.35.14,5.15.09-.1-.08-.35-.03-.45-.15.21-.07.31.02.41-.05.08.18.47.04.63.23l.06-.1.11.06c.94-.11.21-.05,1.05-.03.48-.02.71-.16.98-.11-.04,0-.15-.07-.02-.09.02.09.33-.07.39.03.12-.01.52,0,.38-.13.07.06.42.09.21.14.12,0,.23.02.32,0l-.15-.03c.4-.02.62.08.88-.03l-.15-.05c.24,0,.44-.02.54.11l-.25.04c.4,0,.64-.01.97-.08h-.12c.42-.13,2.64-.23,3.03-.38l-.18-.1.34-.08s-.16.31-.2.28c.72,0,4.46-.08,5.13-.02.27.05.05.15.05.17.33-.04.14-.1.42-.09.08.02-.02.08-.06.09.12-.01.23.02.24-.02-.15-.03-.09-.15-.15-.23h.36s-.02.09-.02.09c.08,0,.2-.21.55-.17.59.03,1.23,0,1.83.02,0,.05-.13.07-.26.1.08,0,.2,0,.27.02-.14-.08.25-.05.14-.09.44-.18,1-.02,1.38-.14.03-.17.82-2.85.82-3.04.12,0,.24,0,.27.02-.03-.05-.27-.07-.39-.04l-.02.11c-.29.04-.07-.06-.35-.06-.01-.09.24-.1.47-.11-.2-.01-.41-.07-.49.02-.19-.04.02-.11-.21-.14-.16.03-.38.11-.57.06v-.02c-.46-.09-.7.13-1.12.04l.05-.03c-.15-.05-.44.02-.71-.04.08.02.14.08-.02.09-.31-.05-.52,0-.74-.07l-.22.08c-1.07-.02-5.31.1-6.39.12h.04c-1.64.03-5.01.02-6.71.14-.26-.08-.62-.06-.9-.09.15.03.1.09-.02.09-.83,0-.06.06-.9.09-.97.08-4.69-.01-5.55-.08-.46.12-1.04.03-1.5.11l.05-.03c-.49.05-3.25-.07-3.81-.02l.08.02c-.49.08-.43-.06-.82-.1.05.14-.37.22-.53.23v-.03c-.24.02-.79.14-1.19.16l.02-.08c-.34.08-.97.05-1.21.06-.55-.03-1.4-.16-2.14-.06l-.48-.21-.07.02s-.77,2.59.21,3.15l-.02.08h.19c.23.03.34-.06.32.02h-.32c.23.01.07.05-.02.1.1,0,.19.02.27.04.05-.03-.03-.03-.07-.05.12-.03.3-.1.45-.06.24,0,.02.12.29.13,1.46.06,2.88.15,4.36.13.03.03,0,.03-.05.04.45-.03.84-.02,1.25-.05.11.03.14.08.18.11-.07-.06,2.24-.07,2.28-.05Z"/>
          </g>
          <g>
            <path class="h" d="M46.65,93.28c.24.08.65.09,1.03.1-.3-.08-.62-.11-1.03-.1Z"/>
            <path class="h" d="M47.69,93.38h0s-.01,0-.01,0h0Z"/>
            <path class="h" d="M122.81,89.71c-.1,0-.2,0-.32,0,.11,0,.21,0,.32,0Z"/>
            <path class="h" d="M66.45,93.62l.06-.14c.92,0,.27.16,1.12.12.33-.19,1.41.02,1.7-.08,0,.02.41.02.38.08.13-.1.43-.02.69-.05.1-.03-.07-.03-.14-.06l.6-.04c.24.03.29.1.04.11,1.57.04,9.11.14,10.8.09-.22-.08-.74-.03-.94-.15.45-.07.66.02.86-.05.17.18.98.04,1.32.23l.13-.1.22.06c.98-.05,1.1-.07,1.18-.06.05,0,.09,0,.24.01.38,0,.48-.02.94-.05.98-.09,1.44-.28,2-.25-.08,0-.3-.05-.05-.09.05.09.68-.1.81-.02.25-.03,1.07-.06.78-.17.14.05.87.05.44.12.25,0,.49,0,.66-.03l-.32-.02c.83-.05,1.29.03,1.83-.1l-.31-.04c.5-.03.92-.04,1.11.08l-.51.05c.83-.02,1.33-.04,2.01-.12h-.25c.87-.15,5.49-.26,6.31-.39l-.37-.1.7-.07c-.08,0-.34.31-.41.28,1.5-.02,9.32.1,10.71.21.56.07.1.16.09.17.68-.02.3-.09.88-.07.16.02-.03.07-.12.09.25,0,.49.04.51,0-.32-.04-.18-.16-.31-.24l.75.03-.04.07c.17,0,.43-.19,1.16-.13,1.24.06,2.59.07,3.84.12-.02.04-.28.07-.55.09.17,0,.42,0,.58.03-.3-.09.53-.04.29-.08.92-.16,2.1.02,2.91-.1.08-.16,1.74-2.84,1.74-3.04.25,0,.49,0,.57.03-.06-.05-.55-.07-.81-.04l-.04.11c-.6.04-.14-.06-.72-.06-.03-.09.5-.1.97-.11-.42-.01-.84-.08-1.02.02-.4-.04.04-.11-.43-.14-.34.02-.79.1-1.19.04v-.02c-.95-.1-1.46.11-2.34,0l.09-.03c-.31-.06-.92,0-1.48-.07.16.02.3.09-.04.09-.64-.07-1.08-.03-1.55-.11l-.45.07c-2.24-.08-11.14-.2-13.42-.19h.09c-3.46-.04-10.59.02-14.2.44-.56-.04-1.35.04-1.9.06.12,0,.21.02.18.05,0,.01-.04.02-.08.03-.03,0-.13.02-.1.02-.39,0-.58,0-.69,0-.12,0-.14.01-.15.02-.03.02-.07.05-.95.06-2.04.08-9.83-.01-11.64-.08-.97.12-2.18.03-3.14.11l.1-.03c-1.02.05-6.81-.07-7.99-.02l.16.02c-1.04.08-.89-.06-1.71-.1.11.14-.78.22-1.12.23v-.03c-.5.02-1.65.14-2.5.16l.03-.08c-.7.08-2.02.05-2.53.06-1.16-.03-2.94-.16-4.48-.06l-1-.21-.15.02s-1.61,2.59.43,3.15l-.03.08h.4c.48.03.71-.06.68.02h-.66c.49.01.15.05-.04.1.2,0,.4.02.56.04.1-.03-.07-.03-.15-.05.26-.03.63-.1.94-.06.5,0,.03.12.61.13,3.06.06,6.03.15,9.13.13.07.03-.01.03-.1.04.95-.02,1.75-.04,2.61-.05.24.03.3.08.37.11-.07-.03,1.1-.05,2.3-.06.6,0,1.21,0,1.67,0,.46,0,.77,0,.8,0Z"/>
          </g>
          <g>
            <path class="h" d="M46.65,107.06c.24.08.65.09,1.03.1-.3-.08-.61-.11-1.03-.1Z"/>
            <path class="h" d="M47.69,107.16h0s-.01,0-.01,0h0Z"/>
            <path class="h" d="M122.82,103.49c-.1,0-.21,0-.32,0,.11,0,.22,0,.32,0Z"/>
            <path class="h" d="M66.45,107.4l.06-.14c.92,0,.27.16,1.12.12.33-.19,1.41.02,1.7-.08,0,.02.41.02.38.08.13-.1.43-.02.69-.05.1-.03-.07-.03-.14-.06l.6-.04c.23.03.29.1.04.11,1.57.04,9.11.14,10.8.09-.22-.08-.74-.03-.94-.15.45-.07.66.02.86-.05.17.18.98.04,1.32.23l.13-.1.22.06c1.97-.11.45-.05,2.19-.03,1.01-.02,1.49-.16,2.05-.11-.08,0-.31-.07-.04-.09.04.09.7-.07.82.03.26-.01,1.09,0,.8-.13.14.06.88.09.44.14.25,0,.49.02.67,0l-.32-.03c.84-.02,1.3.08,1.85-.03l-.31-.05c.5,0,.93-.02,1.12.11l-.52.04c.84,0,1.34-.01,2.04-.08h-.25c.89-.13,5.53-.23,6.35-.38l-.38-.1.7-.08c-.08,0-.34.31-.41.28,1.51,0,9.35-.08,10.74-.02.56.05.1.15.09.17.68-.04.29-.1.88-.09.16.02-.03.08-.12.09.25-.01.49.02.51-.02-.32-.03-.18-.15-.32-.23h.75s-.03.09-.03.09c.17,0,.42-.21,1.16-.17,1.24.03,2.58,0,3.83.02-.02.05-.28.07-.54.1.17,0,.42,0,.58.02-.3-.08.52-.05.29-.09.91-.18,2.09-.02,2.9-.14.07-.17,1.72-2.85,1.72-3.04.25,0,.5,0,.58.02-.06-.05-.56-.07-.82-.04l-.05.11c-.6.04-.14-.06-.73-.06-.03-.09.51-.1.98-.11-.43-.01-.85-.07-1.03.02-.4-.04.04-.11-.44-.14-.35.03-.8.11-1.2.06v-.02c-.96-.09-1.47.13-2.35.04l.09-.03c-.31-.05-.92.02-1.49-.04.16.02.3.08-.04.09-.65-.05-1.09,0-1.56-.07l-.45.08c-2.25.02-11.13.1-13.39.12h.09c-3.44.03-10.51.02-14.06.14-.55-.08-1.31-.06-1.88-.09.32.03.21.09-.04.09-1.75,0-.12.06-1.89.09-2.04.08-9.83-.01-11.64-.08-.97.12-2.18.03-3.13.11l.1-.03c-1.02.05-6.8-.07-7.99-.02l.16.02c-1.04.08-.89-.06-1.71-.1.11.14-.78.22-1.12.23v-.03c-.5.02-1.65.14-2.5.16l.03-.08c-.7.08-2.02.05-2.53.06-1.16-.03-2.94-.16-4.48-.06l-1-.21-.15.02s-1.61,2.59.43,3.15l-.03.08h.4c.48.03.71-.06.67.02h-.66c.49.01.15.05-.04.1.2,0,.4.02.56.04.1-.03-.07-.03-.15-.05.26-.03.63-.1.94-.06.5,0,.03.12.61.13,3.06.06,6.03.15,9.13.13.07.03-.01.03-.1.04.95-.02,1.75-.04,2.61-.05.24.03.3.08.37.11-.07-.03,1.1-.05,2.3-.06.6,0,1.21,0,1.67,0,.46,0,.77,0,.8,0Z"/>
          </g>
          <g>
            <path class="h" d="M46.61,120.85c.24.09.64.11,1.03.13-.3-.09-.61-.13-1.03-.13Z"/>
            <path class="h" d="M47.65,120.98h0s-.01,0-.01,0h0Z"/>
            <path class="h" d="M122.76,117.28c-.1,0-.21,0-.32.01.11,0,.22,0,.32-.01Z"/>
            <path class="h" d="M66.42,121.71l.06-.13c.92.02.27.16,1.12.15.33-.18,1.41.06,1.71-.04,0,.02.41.03.38.09.13-.1.43-.01.69-.03.1-.03-.07-.03-.14-.07l.6-.02c.23.04.29.1.04.11,1.57.08,9.12.38,10.81.37-.22-.08-.74-.04-.94-.17.45-.06.66.04.86-.03.17.19.98.07,1.32.27l.13-.1.22.07c1.97-.06.45-.04,2.2.03,1.01.02,1.49-.19,2.05-.13-.08,0-.31-.06-.04-.09.04.09.7-.09.82,0,.26-.02,1.09-.03.81-.15.14.06.88.06.44.13.25,0,.49,0,.67-.02l-.32-.03c.84-.04,1.3.04,1.85-.09l-.31-.04c.5-.02.93-.04,1.13.08l-.52.05c.84-.03,1.34-.05,2.04-.13h-.25c.89-.15,5.54-.38,6.35-.56l-.38-.09.7-.1c-.08,0-.34.32-.41.29,1.51-.05,9.36-.35,10.75-.32.56.04.1.15.1.17.68-.06.29-.11.88-.12.16.01-.03.08-.12.09.25-.02.49,0,.51-.04-.32-.03-.19-.15-.32-.22h.75s-.03.07-.03.07c.17,0,.42-.22,1.15-.2,1.24,0,2.59-.07,3.83-.08-.02.05-.28.08-.54.11.17,0,.42-.02.58,0-.3-.07.52-.07.29-.09.91-.21,2.09-.07,2.9-.22.07-.17,1.65-2.89,1.64-3.09.25,0,.5,0,.58,0-.07-.04-.56-.05-.82-.02l-.04.11c-.6.05-.14-.06-.73-.04-.03-.09.51-.12.98-.14-.43,0-.86-.05-1.03.05-.4-.02.04-.11-.44-.13-.34.04-.79.13-1.19.09v-.02c-.96-.06-1.46.17-2.34.11l.09-.03c-.31-.04-.92.04-1.48,0,.16.01.3.07-.04.09-.65-.04-1.08.03-1.56-.02l-.45.1c-2.24.08-11.11.41-13.37.49l.09-.02c-3.44.14-10.49.33-14.04.55-.55-.05-1.31-.06-1.88-.1.32.04.21.1-.04.09-1.75-.06-.12.05-1.88.04-2.03.02-9.82-.27-11.62-.39-.97.1-2.18-.03-3.13.03l.1-.03c-1.02.02-6.8-.25-7.98-.23l.16.02c-1.04.05-.89-.08-1.71-.14.1.14-.78.2-1.12.2v-.03c-.5,0-1.65.1-2.5.1l.03-.07c-.7.06-2.02,0-2.53-.01-1.15-.06-2.93-.24-4.48-.18l-.99-.24-.15.02s-1.68,2.55.35,3.16l-.03.07h.4c.48.05.71-.03.68.04l-.66-.03c.49.03.15.07-.04.1.2.01.4.03.56.05.1-.03-.07-.03-.15-.05.26-.02.63-.08.95-.04.5.02.03.12.61.15,3.07.14,6.04.3,9.14.37.07.03-.01.03-.1.04.95,0,1.75,0,2.62.01.24.04.3.09.37.12-.07-.03,1.11-.02,2.31,0,.6.01,1.21.03,1.67.04.46.02.77.03.8.03Z"/>
          </g>
        </g>
      </g>
    </g>
  </g>
</svg>