<?xml version="1.0" encoding="UTF-8"?>
<svg id="b" data-name="Camada_2" xmlns="http://www.w3.org/2000/svg" viewBox="0 0 178.45 149.36">
  <defs>
    <style>
      .d {
        fill: #C59D58;
      }

      .e {
        fill: none;
      }

      .f {
        fill: #FFF;
      }
    </style>
  </defs>
  <g id="c" data-name="Camada_1">
    <g>
      <g>
        <g>
          <path class="f" d="M127.11,123.34c-.34-.09-.72-.18-1.14-.29-.43-.07-.91-.15-1.4-.23-.5-.07-1.03-.15-1.56-.23-.53-.05-1.08-.09-1.61-.14.82.11,1.67.18,2.61.35.93.15,1.95.26,3.11.54Z"/>
          <path class="f" d="M121.36,122.45s-.02,0-.03,0c.03,0,.05,0,.08,0-.02,0-.03,0-.04,0Z"/>
          <path class="f" d="M130.13,127.01c.63-.11,1.33-.31,2.01-.58-.65.26-1.35.45-2.01.58Z"/>
          <path class="f" d="M40.32,99.45l-.13-.32c.04-4.95.17-1.44.17-6.02-.18-1.79.08-7.6,0-9.19,0,0,0-.12.01-.33,0-.2.01-.47.02-.74.02-.54.04-1.06.07-.99-.1-.69,0-2.31-.01-3.72-.02-.51-.04.38-.07.76v-3.24c.05-1.27.11-1.58.11-.2.07-4.23.24-16.5.62-28.83.35-12.34,1-24.73,1.25-29.27-.14,1.16-.26,3.97-.43,5.03.05-2.41.22-3.53.21-4.6.23-.91.37-5.27.68-7.08l-.03-.33s-.03-.01-.04-.02c.04-.13.1-.13.15-.18.06-.09.3-.24.62-.34.31-.1.67-.17,1-.21.66-.08,1.21-.1,1.62-.11.86,0,1.12-.01,1.34-.01.46,0,.76,0,5.46.04,5.44-.02,8.03-.16,11.05-.11-.45,0-1.65-.07-.24-.09.24.09,3.75-.07,4.44.03,1.38-.01,5.85,0,4.34-.13.76.06,4.75.09,2.37.14,1.35,0,2.65.02,3.62,0l-1.73-.03c4.55-.02,7.02.08,9.98-.03l-1.68-.05c2.72,0,4.99-.02,6.06.11l-2.79.04c4.51,0,7.23-.01,10.98-.08h-1.34c2.39-.07,9.85-.12,17.26-.18,3.7-.03,7.4-.07,10.44-.09.76,0,1.48-.02,2.15-.03.36-.01.62,0,.87.01.26,0,.5.04.73.07.92.15,1.61.4,2.03.6-.49-.3-1.03-.5-1.58-.67,1.05.22,2.06.67,2.94,1.32-.3-.28-1.47-.58-1.74-.72.76.33,1.93.99,2.9,2.3.48.65.91,1.44,1.17,2.37.28.94.28,1.89.27,3.28,0,5.22.01,11.5.02,17.76,0,12.52-.02,24.96-.02,28.72-.05,3.03-.15.54-.17.51.04,3.69.1,1.59.09,4.72-.02.86-.08-.18-.09-.66.01,1.37-.02,2.65.02,2.75.03-1.72.15-.99.23-1.72v4.03s-.09-.18-.09-.18c0,.9.21,2.28.17,6.24,0,6.68-.02,13.93-.02,20.65-.05-.1-.07-1.51-.1-2.93,0,.9,0,2.27-.02,3.1.08-1.62.05,2.82.09,1.55.09,2.46.1,5.28.09,8.03,0,1.37,0,2.73,0,4.02-.02,1.28.07,2.55-.02,3.41.03.09.17.65.17,1.51.01.86-.17,2.04-.65,3.17-.47,1.14-1.24,2.21-1.95,2.93-.7.73-1.29,1.14-1.27,1.19-1.54.6-3.19.68-3.68.65.21.02,1.12.03,2.17-.19,1.05-.21,2.21-.68,2.94-1.12l.2-.24c.83-.51,1.24-.88,1.49-1.09.24-.2.33-.27.42-.35.09-.07.17-.13.39-.36.22-.23.6-.61,1.12-1.41.09-.07-.31.68-1.17,1.59-.85.92-2.21,1.93-3.68,2.5,1.32-.51,2.51-1.3,3.38-2.13.88-.82,1.44-1.66,1.7-2.16.68-1.13.62-1.09.65-1.06.01,0,.03,0,.13-.19.1-.19.28-.57.52-1.35.15-.56.27-1.17.33-1.81.03-.32.04-.65.04-.98,0-.28,0-.57-.01-.85-.02-1.11-.03-2.26,0-3.33l.02.04c.09-5.2-.13-7.95-.04-12.7l.03.51c.05-1.68-.02-4.98.04-8.01-.02.86-.08,1.61-.09-.21.05-3.48,0-5.86.07-8.4l-.08-2.44c0-6.06-.03-21.06-.05-36.07-.02-7.5-.03-15.01-.04-21.4,0-1.6,0-3.13,0-4.57,0-.72,0-1.42,0-2.09,0-.34,0-.67,0-1-.02-.39-.03-.78-.07-1.15-.35-3.04-1.92-5.22-3.25-6.44.15.12.29.25.42.39-.97-1.01-2.2-1.91-3.67-2.48-.73-.28-1.51-.52-2.33-.63-.41-.08-.82-.09-1.24-.11-.46-.03-.73,0-1.11-.01-2.85,0-5.94,0-9.18.01-6.48,0-13.58.02-20.7.02-14.24.04-28.55.08-38.14.1-2.97-.08-7.06-.06-10.15-.09,1.72.03,1.13.09-.21.09-2.34,0-3.6,0-4.35.06-.73.06-.83.1-.92.12-.11.04-.19.02-.99.23-.4.13-1,.25-1.88.85-.43.29-.92.8-1.27,1.48-.08.17-.17.35-.23.54-.05.18-.1.38-.15.62-.03.11-.02.24-.03.34v.21c-.02.14-.03.28-.04.43-.35,5.49-1.11,18.75-1.52,31.85-.43,13.11-.63,26.06-.73,30.93.06,5.24-.1,11.78-.06,16.91l-.02-.52c-.01,1.38-.03,4.36-.06,8.16-.02,1.9-.04,4-.06,6.21,0,.55-.01,1.11-.02,1.67-.01.24.02.41.04.55l.05.45.1.9c.07.6.14,1.2.21,1.81l.42,1.8c.51,2.42,1.62,4.73,2.89,6.8,1.44,1.96,3.06,3.72,4.83,4.88.43.3.84.62,1.27.88.44.24.86.46,1.27.68.41.21.8.44,1.19.62.4.16.78.31,1.14.46,1.44.63,2.65.92,3.45,1.16l-.86-.27c.7.19,1.31.38,1.83.51.53.11.98.21,1.38.29.79.16,1.37.33,1.9.4.54.09,1.04.18,1.68.29.65.12,1.44.23,2.56.32-.29-.1.79-.03,2.17,0,1.38.01,3.06.09,3.98.06l-.07.03c2.8.07,9.09-.3,13.63-.71l-.17.09c3.81-.37,10.89-1.06,13.6-1.33,6.19-.56,15.75-1.48,23.91-1.24,1.75.16,3.49.35,5.18.69l.75.08s.48-.08,1.19-.19c.65-.12,1.44-.3,1.91-.57.47-.24.63-.61-.02-1.08-.66-.46-2.15-1.12-4.96-1.6l.19-.05c-.75-.1-1.49-.12-2.23-.19-2.67-.23-3.9-.1-3.72-.2,1.22.05,2.43.05,3.66.18-2.69-.21-.81-.13.22-.09-1.13-.12-2.21-.15-3.1-.2-.53.01.39.04.8.07-.72,0-1.59-.02-2.49-.01-.9.02-1.83.04-2.71.03-2.72.07-.18-.12-3.35-.02-8.35.38-16.45,1.33-24.54,2.04-8.07.68-16.2,1.31-24.26.53-.36-.06.07-.02.54,0-4.84-.42-9.09-1.33-12.81-3.28-.5-.29-.82-.48-1.05-.62-.22-.15-.33-.28-.46-.38.06.06-.17-.11-.65-.43-.23-.17-.54-.36-.87-.61-.3-.28-.64-.61-1.02-.96-1.48-1.44-3.17-3.77-4.03-6.6-.36-1.43-.79-2.86-.88-4.3-.04-.36-.08-.71-.12-1.05-.02-.17-.04-.34-.06-.5-.01-.12,0,0,0-.13v-.27c0-.71.01-1.38.02-2,.03-2.49.04-4.19.04-4.3Z"/>
        </g>
        <g>
          <path class="d" d="M55.92.09v16.69M71.75.09v16.69M87.58.09v16.69M103.42.09v16.69M119.25.09v16.69"/>
          <g>
            <path class="e" d="M55.92.09v16.69M71.75.09v16.69M87.58.09v16.69M103.42.09v16.69M119.25.09v16.69"/>
            <g>
              <path class="f" d="M117.61.15c-.08.05-.09.14-.1.22.08-.06.11-.13.1-.22Z"/>
              <polygon class="f" points="117.5 .37 117.5 .37 117.5 .37 117.5 .37"/>
              <path class="f" d="M121.17,16.71s0-.05,0-.07c0,.02,0,.05,0,.07Z"/>
              <path class="f" d="M117.27,4.45h.14c0,.21-.16.07-.12.26.19.07-.02.31.08.37-.02,0-.02.09-.08.08.1.03.02.09.05.15.03.02.03-.02.06-.03l.04.13c-.03.05-.09.06-.11,0-.04.34-.14,1.98-.09,2.35.08-.05.03-.16.15-.2.07.1-.02.14.05.19-.18.04-.04.21-.23.29l.1.03-.06.05c.11.43.05.1.03.48.02.22.16.32.11.45,0-.02.07-.07.09,0-.09,0,.07.15-.03.18.01.06,0,.24.13.18-.06.03-.09.19-.14.1,0,.05-.02.11,0,.15l.03-.07c.02.18-.08.28.03.4l.05-.07c0,.11.02.2-.11.24l-.04-.11c0,.18.01.29.08.44v-.05c.13.19.23,1.2.38,1.38l.1-.08.08.15s-.31-.07-.28-.09c0,.33.08,2.03.02,2.34-.05.12-.15.02-.17.02.04.15.1.06.09.19-.02.03-.08,0-.09-.03.01.06-.02.11.02.11.03-.07.15-.04.23-.07v.16s-.09,0-.09,0c0,.04.21.09.17.25-.03.27,0,.56-.02.83-.05,0-.07-.06-.1-.12,0,.04,0,.09-.02.13.08-.07.05.11.09.06.18.2.02.46.14.63.17.02,2.85.38,3.04.38,0,.05,0,.11-.02.13.05-.01.07-.12.04-.18h-.11c-.04-.14.06-.04.06-.17.09,0,.1.11.11.21.01-.09.07-.19-.02-.22.04-.09.11,0,.14-.1-.03-.08-.11-.17-.06-.26h.02c.09-.21-.13-.32-.04-.51l.03.02c.05-.07-.02-.2.04-.32-.02.03-.08.07-.09,0,.05-.14,0-.24.07-.34l-.08-.1c.02-.49-.1-2.42-.12-2.91v.02c-.03-.75-.02-2.28-.14-3.06.08-.12.06-.28.09-.41-.03.07-.09.05-.09,0,0-.38-.06-.03-.09-.41-.08-.44.01-2.14.08-2.53-.12-.21-.03-.47-.11-.68l.03.02c-.05-.22.07-1.48.02-1.74l-.02.03c-.08-.23.06-.19.1-.37-.14.02-.22-.17-.23-.24h.03c-.02-.11-.14-.36-.16-.54h.08c-.08-.15-.05-.43-.06-.54.03-.25.16-.64.06-.97l.21-.22-.02-.03s-2.59-.35-3.15.09h-.08s0,.08,0,.08c-.04.11.05.15-.02.15v-.14c-.01.11-.05.03-.1,0,0,.04-.02.09-.04.12.03.02.03-.02.05-.03.03.06.1.14.06.21,0,.11-.12,0-.13.13-.06.67-.15,1.31-.13,1.99-.03.02-.03,0-.04-.02.03.2.02.38.05.57-.03.05-.08.07-.11.08.06-.03.07,1.02.05,1.04Z"/>
            </g>
            <g>
              <path class="f" d="M101.77.15c-.08.05-.09.14-.1.22.08-.06.11-.13.1-.22Z"/>
              <polygon class="f" points="101.67 .37 101.67 .37 101.67 .37 101.67 .37"/>
              <path class="f" d="M105.34,16.71s0-.05,0-.07c0,.02,0,.05,0,.07Z"/>
              <path class="f" d="M101.43,4.45h.14c0,.21-.16.07-.12.26.19.07-.02.31.08.37-.02,0-.02.09-.08.08.1.03.02.09.05.15.03.02.03-.02.06-.03l.04.13c-.03.05-.1.06-.11,0-.04.34-.14,1.98-.09,2.35.08-.05.03-.16.15-.2.07.1-.02.14.05.19-.18.04-.04.21-.23.29l.1.03-.06.05c.11.43.05.1.03.48.02.22.16.32.11.45,0-.02.07-.07.09,0-.09,0,.07.15-.03.18.01.06,0,.24.13.18-.06.03-.09.19-.14.1,0,.05-.02.11,0,.15l.03-.07c.02.18-.08.28.03.4l.05-.07c0,.11.02.2-.11.24l-.04-.11c0,.18.01.29.08.44v-.05c.13.19.23,1.2.38,1.38l.1-.08.08.15s-.31-.07-.28-.09c0,.33.08,2.03.02,2.34-.05.12-.15.02-.17.02.04.15.1.06.09.19-.02.03-.08,0-.09-.03.01.06-.02.11.02.11.03-.07.15-.04.23-.07v.16s-.09,0-.09,0c0,.04.21.09.17.25-.03.27,0,.56-.02.83-.05,0-.07-.06-.1-.12,0,.04,0,.09-.02.13.08-.07.05.11.09.06.18.2.02.46.14.63.17.02,2.85.38,3.04.38,0,.05,0,.11-.02.13.05-.01.07-.12.04-.18h-.11c-.04-.14.06-.04.06-.17.09,0,.1.11.11.21.01-.09.07-.19-.02-.22.04-.09.11,0,.14-.1-.03-.08-.11-.17-.06-.26h.02c.09-.21-.13-.32-.04-.51l.03.02c.05-.07-.02-.2.04-.32-.02.03-.08.07-.09,0,.05-.14,0-.24.07-.34l-.08-.1c.02-.49-.1-2.42-.12-2.91v.02c-.03-.75-.02-2.28-.14-3.06.08-.12.06-.28.09-.41-.03.07-.09.05-.09,0,0-.38-.06-.03-.09-.41-.08-.44.01-2.14.08-2.53-.12-.21-.03-.47-.11-.68l.03.02c-.05-.22.07-1.48.02-1.74l-.02.03c-.08-.23.06-.19.1-.37-.14.02-.22-.17-.23-.24h.03c-.02-.11-.14-.36-.16-.54h.08c-.08-.15-.05-.43-.06-.54.03-.25.16-.64.06-.97l.21-.22-.02-.03s-2.59-.35-3.15.09h-.08s0,.08,0,.08c-.04.11.05.15-.02.15v-.14c-.01.11-.05.03-.1,0,0,.04-.02.09-.04.12.03.02.03-.02.05-.03.03.06.1.14.06.21,0,.11-.12,0-.13.13-.06.67-.15,1.31-.13,1.99-.03.02-.03,0-.04-.02.03.2.02.38.05.57-.03.05-.08.07-.11.08.06-.03.07,1.02.05,1.04Z"/>
            </g>
            <g>
              <path class="f" d="M85.94.15c-.08.05-.09.14-.1.22.08-.06.11-.13.1-.22Z"/>
              <polygon class="f" points="85.84 .37 85.84 .37 85.84 .37 85.84 .37"/>
              <path class="f" d="M89.51,16.71s0-.05,0-.07c0,.02,0,.05,0,.07Z"/>
              <path class="f" d="M85.6,4.45h.14c0,.21-.16.07-.12.26.19.07-.02.31.08.37-.02,0-.02.09-.08.08.1.03.02.09.05.15.03.02.03-.02.06-.03l.04.13c-.03.05-.09.06-.11,0-.04.34-.14,1.98-.09,2.35.08-.05.03-.16.15-.2.07.1-.02.14.05.19-.18.04-.04.21-.23.29l.1.03-.06.05c.11.43.05.1.03.48.02.22.16.32.11.45,0-.02.07-.07.09,0-.09,0,.07.15-.03.18.01.06,0,.24.13.18-.06.03-.09.19-.14.1,0,.05-.02.11,0,.15l.03-.07c.02.18-.08.28.03.4l.05-.07c0,.11.02.2-.11.24l-.04-.11c0,.18.01.29.08.44v-.05c.13.19.23,1.2.38,1.38l.1-.08.08.15s-.31-.07-.28-.09c0,.33.08,2.03.02,2.34-.05.12-.15.02-.17.02.04.15.1.06.09.19-.02.03-.08,0-.09-.03.01.06-.02.11.02.11.03-.07.15-.04.23-.07v.16s-.09,0-.09,0c0,.04.21.09.17.25-.03.27,0,.56-.02.83-.05,0-.07-.06-.1-.12,0,.04,0,.09-.02.13.08-.07.05.11.09.06.18.2.02.46.14.63.17.02,2.85.38,3.04.38,0,.05,0,.11-.02.13.05-.01.07-.12.04-.18h-.11c-.04-.14.06-.04.06-.17.09,0,.1.11.11.21.01-.09.07-.19-.02-.22.04-.09.11,0,.14-.1-.03-.08-.11-.17-.06-.26h.02c.09-.21-.13-.32-.04-.51l.03.02c.05-.07-.02-.2.04-.32-.02.03-.08.07-.09,0,.05-.14,0-.24.07-.34l-.08-.1c.02-.49-.1-2.42-.12-2.91v.02c-.03-.75-.02-2.28-.14-3.06.08-.12.06-.28.09-.41-.03.07-.09.05-.09,0,0-.38-.06-.03-.09-.41-.08-.44.01-2.14.08-2.53-.12-.21-.03-.47-.11-.68l.03.02c-.05-.22.07-1.48.02-1.74l-.02.03c-.08-.23.06-.19.1-.37-.14.02-.22-.17-.23-.24h.03c-.02-.11-.14-.36-.16-.54h.08c-.08-.15-.05-.43-.06-.54.03-.25.16-.64.06-.97l.21-.22-.02-.03s-2.59-.35-3.15.09h-.08s0,.08,0,.08c-.04.11.05.15-.02.15v-.14c-.01.11-.05.03-.1,0,0,.04-.02.09-.04.12.03.02.03-.02.05-.03.03.06.1.14.06.21,0,.11-.12,0-.13.13-.06.67-.15,1.31-.13,1.99-.03.02-.03,0-.04-.02.03.2.02.38.05.57-.03.05-.08.07-.11.08.06-.03.07,1.02.05,1.04Z"/>
            </g>
            <g>
              <path class="f" d="M70.11.15c-.08.05-.09.14-.1.22.08-.06.11-.13.1-.22Z"/>
              <polygon class="f" points="70 .37 70.01 .37 70.01 .37 70 .37"/>
              <path class="f" d="M73.68,16.71s0-.05,0-.07c0,.02,0,.05,0,.07Z"/>
              <path class="f" d="M69.77,4.45h.14c0,.21-.16.07-.12.26.19.07-.02.31.08.37-.02,0-.02.09-.08.08.1.03.02.09.05.15.03.02.03-.02.06-.03l.04.13c-.03.05-.09.06-.11,0-.04.34-.14,1.98-.09,2.35.08-.05.03-.16.15-.2.07.1-.02.14.05.19-.18.04-.04.21-.23.29l.1.03-.06.05c.11.43.05.1.03.48.02.22.16.32.11.45,0-.02.07-.07.09,0-.09,0,.07.15-.03.18.01.06,0,.24.13.18-.06.03-.09.19-.14.1,0,.05-.02.11,0,.15l.03-.07c.02.18-.08.28.03.4l.05-.07c0,.11.02.2-.11.24l-.04-.11c0,.18.01.29.08.44v-.05c.13.19.23,1.2.38,1.38l.1-.08.08.15s-.31-.07-.28-.09c0,.33.08,2.03.02,2.34-.05.12-.15.02-.17.02.04.15.1.06.09.19-.02.03-.08,0-.09-.03.01.06-.02.11.02.11.03-.07.15-.04.23-.07v.16s-.09,0-.09,0c0,.04.21.09.17.25-.03.27,0,.56-.02.83-.05,0-.07-.06-.1-.12,0,.04,0,.09-.02.13.08-.07.05.11.09.06.18.2.02.46.14.63.17.02,2.85.38,3.04.38,0,.05,0,.11-.02.13.05-.01.07-.12.04-.18h-.11c-.04-.14.06-.04.06-.17.09,0,.1.11.11.21.01-.09.07-.19-.02-.22.04-.09.11,0,.14-.1-.03-.08-.11-.17-.06-.26h.02c.09-.21-.13-.32-.04-.51l.03.02c.05-.07-.02-.2.04-.32-.02.03-.08.07-.09,0,.05-.14,0-.24.07-.34l-.08-.1c.02-.49-.1-2.42-.12-2.91v.02c-.03-.75-.02-2.28-.14-3.06.08-.12.06-.28.09-.41-.03.07-.09.05-.09,0,0-.38-.06-.03-.09-.41-.08-.44.01-2.14.08-2.53-.12-.21-.03-.47-.11-.68l.03.02c-.05-.22.07-1.48.02-1.74l-.02.03c-.08-.23.06-.19.1-.37-.14.02-.22-.17-.23-.24h.03c-.02-.11-.14-.36-.16-.54h.08c-.08-.15-.05-.43-.06-.54.03-.25.16-.64.06-.97l.21-.22-.02-.03s-2.59-.35-3.15.09h-.08s0,.08,0,.08c-.04.11.05.15-.02.15v-.14c-.01.11-.05.03-.1,0,0,.04-.02.09-.04.12.03.02.03-.02.05-.03.03.06.1.14.06.21,0,.11-.12,0-.13.13-.06.67-.15,1.31-.13,1.99-.03.02-.03,0-.04-.02.03.2.02.38.05.57-.03.05-.08.07-.11.08.06-.03.07,1.02.05,1.04Z"/>
            </g>
            <g>
              <path class="f" d="M54.28.15c-.08.05-.09.14-.1.22.08-.06.11-.13.1-.22Z"/>
              <polygon class="f" points="54.17 .37 54.17 .37 54.17 .37 54.17 .37"/>
              <path class="f" d="M57.84,16.71s0-.05,0-.07c0,.02,0,.05,0,.07Z"/>
              <path class="f" d="M53.94,4.45h.14c0,.21-.16.07-.12.26.19.07-.02.31.08.37-.02,0-.02.09-.08.08.1.03.02.09.05.15.03.02.03-.02.06-.03l.04.13c-.03.05-.09.06-.11,0-.04.34-.14,1.98-.09,2.35.08-.05.03-.16.15-.2.07.1-.02.14.05.19-.18.04-.04.21-.23.29l.1.03-.06.05c.11.43.05.1.03.48.02.22.16.32.11.45,0-.02.07-.07.09,0-.09,0,.07.15-.03.18.01.06,0,.24.13.18-.06.03-.09.19-.14.1,0,.05-.02.11,0,.15l.03-.07c.02.18-.08.28.03.4l.05-.07c0,.11.02.2-.11.24l-.04-.11c0,.18.01.29.08.44v-.05c.13.19.23,1.2.38,1.38l.1-.08.08.15s-.31-.07-.28-.09c0,.33.08,2.03.02,2.34-.05.12-.15.02-.17.02.04.15.1.06.09.19-.02.03-.08,0-.09-.03.01.06-.02.11.02.11.03-.07.15-.04.23-.07v.16s-.09,0-.09,0c0,.04.21.09.17.25-.03.27,0,.56-.02.83-.05,0-.07-.06-.1-.12,0,.04,0,.09-.02.13.08-.07.05.11.09.06.18.2.02.46.14.63.17.02,2.85.38,3.04.38,0,.05,0,.11-.02.13.05-.01.07-.12.04-.18h-.11c-.04-.14.06-.04.06-.17.09,0,.1.11.11.21.01-.09.07-.19-.02-.22.04-.09.11,0,.14-.1-.03-.08-.11-.17-.06-.26h.02c.09-.21-.13-.32-.04-.51l.03.02c.05-.07-.02-.2.04-.32-.02.03-.08.07-.09,0,.05-.14,0-.24.07-.34l-.08-.1c.02-.49-.1-2.42-.12-2.91v.02c-.03-.75-.02-2.28-.14-3.06.08-.12.06-.28.09-.41-.03.07-.09.05-.09,0,0-.38-.06-.03-.09-.41-.08-.44.01-2.14.08-2.53-.12-.21-.03-.47-.11-.68l.03.02c-.05-.22.07-1.48.02-1.74l-.02.03c-.08-.23.06-.19.1-.37-.14.02-.22-.17-.23-.24h.03c-.02-.11-.14-.36-.16-.54h.08c-.08-.15-.05-.43-.06-.54.03-.25.16-.64.06-.97l.21-.22-.02-.03s-2.59-.35-3.15.09h-.08s0,.08,0,.08c-.04.11.05.15-.02.15v-.14c-.01.11-.05.03-.1,0,0,.04-.02.09-.04.12.03.02.03-.02.05-.03.03.06.1.14.06.21,0,.11-.12,0-.13.13-.06.67-.15,1.31-.13,1.99-.03.02-.03,0-.04-.02.03.2.02.38.05.57-.03.05-.08.07-.11.08.06-.03.07,1.02.05,1.04Z"/>
            </g>
          </g>
        </g>
        <g>
          <path class="f" d="M67.64,49.91c-.08.51-.09,1.38-.1,2.2.08-.64.11-1.31.1-2.2Z"/>
          <polygon class="f" points="67.54 52.13 67.54 52.14 67.54 52.11 67.54 52.13"/>
          <path class="f" d="M69.53,47.35c-.16-.06-.33-.15-.51-.25.16.09.33.19.51.25Z"/>
          <path class="f" d="M96.3,69.77l.13-.14c1.96,0,.57.16,2.38.12.18-.05.45-.07.78-.08.41-.02.9-.03,1.38-.11.95-.14,1.87-.47,2.2-.71,0,.05,1-.53.97-.45.24-.28.96-.71,1.43-1.27.15-.22-.14.13-.32.23.39-.39.73-.82,1.04-1.28.37-.52.51-.64.15-.03.29-.46.72-1.15,1.03-2.11.15-.48.27-1.02.34-1.61.02-.29.03-.59.05-.9,0-.24,0-.49,0-.74.01-2.03.03-4.47.04-6.91,0-1.08.01-2.15.01-3.19,0,0,0-.01.01-.01,0,0,0,0,0,0h0s.1-.05.1-.05l.42-.23c.27-.17.53-.34.79-.5,2.02-1.39,3.2-3.04,3.74-3.94-.33.44-1.09,1.5-1.52,1.78.68-.87,1.04-1.26,1.25-1.71.44-.23,1.24-2.1,1.64-2.86,0-.11,0-.22,0-.34l.21-.52c.51-2.42.3-2.73.36-2.93-.02-.21.13-.36-.13-2.53-.2-1.25-.57-2.12-.88-2.84-.35-.71-.64-1.28-1-1.88.11.18.34.68-.02.14.05-.17-1.01-1.39-1.15-1.67-.22-.22-.65-.75-1.04-1.07-.38-.33-.65-.53-.44-.25-.18-.31-1.67-1.38-.75-.79-.48-.39-1-.69-1.39-.9l.66.44c-1.78-1.07-2.86-1.52-4.2-1.72l.73.24c-.6-.16-1.15-.29-1.62-.35-.47-.1-.84-.15-1.08-.22.43,0,.85.05,1.28.11-2.04-.29-3.36-.22-5.03.24l.6-.13c-.12.03-.27.07-.44.11-.16.04-.41.12-.44.13-.09.04-.14.07-.24.13-.04-.05-.09-.12-.17-.21-.16-.21-.33-.43-.5-.65-.2-.23-.41-.47-.62-.71-.88-.93-1.94-1.75-3.03-2.35-2.19-1.24-4.4-1.5-5.15-1.5.3.06.59.12.88.22-.55-.07-1.11-.11-1.66-.09.19,0,.83-.26.99-.21-1.01-.11-3.39-.27-6.04.8-1.31.52-2.66,1.31-3.82,2.38-.59.52-1.13,1.12-1.61,1.75l-.35.48-.1.15c-.07.1-.1.19-.16.27-.16-.06-.25-.1-.47-.16-.55-.14-1.11-.25-1.65-.32-1.09-.14-2.12-.08-3.03.02-1.82.23-3.17.78-3.81,1.09-1.24.54-.29-.03-.28-.05-.75.37-.86.54-.98.62-.11.11-.23.14-.79.56-.32.22.02-.11.19-.25-.49.38-.98.69-.97.77.63-.45.45-.15.75-.29-.49.34-.93.75-1.37,1.15v-.11c-.27.3-.6.83-1.62,2.23-1.7,2.43-2.36,5.77-1.94,8.7-.04-.04-.18-.65-.22-1.28,0,.4.1,1.01.11,1.38-.04-.72.28,1.22.22.66.31,1.05.73,2.22,1.3,3.28.56,1.07,1.28,2.02,1.98,2.67.12,0,1.34.25,2.47.18,1.14-.03,2.14-.34,2.18-.43.37.22.77.36.89.44l-1.97.42s.02-.02.02-.02c0,0-.01,0-.03.02l1.98-.42c-.14-.1-.87-.45-1.26-.66l-.12.05c-.93-.55-.19-.18-1.04-.79.01-.1.77.49,1.52.86-.67-.36-1.23-.87-1.52-.99-.51-.5.12-.02-.48-.62-.46-.39-1.03-.96-1.37-1.58h.02c-.43-.73-.72-1.3-.96-1.88-.25-.58-.43-1.17-.5-1.95l.05.16c-.04-.54-.16-1.62.03-2.59-.06.27-.16.51-.08-.08.21-1.12.43-1.87.84-2.59.09-.25.17-.51.29-.75.28-.48.72-1.15,1.39-1.84.67-.68,1.55-1.39,2.64-1.91,1.08-.53,2.35-.88,3.67-.94.66-.06,1.31,0,1.95.11l.48.1.28.07c.17.04.36.11.54.17.72.26,1.45.57,2.14.84.33-.58.64-1.19.97-1.74l.49-.83c.11-.16.17-.24.26-.36.33-.45.7-.86,1.09-1.23.77-.73,1.61-1.28,2.43-1.66,1.64-.77,3.13-.89,4.01-.88-.05,0-.11,0-.16.01,1.3-.01,2.93.24,4.5,1.09.78.42,1.55.98,2.23,1.66.35.34.66.72.95,1.12l.11.15.21.35.43.72c.27.49.55.98.83,1.48.7-.28,1.43-.59,2.14-.85.36-.13.67-.2.79-.23.16-.04.33-.08.49-.11.66-.12,1.32-.18,2-.12,1.35.06,2.67.41,3.82.98,2.34,1.14,3.86,3.16,4.59,4.85.33.94.63,2.29.62,3.33,0-.58.07-.39.09.07.02.79-.04,1.2-.06,1.42-.02.22-.01.25,0,.28,0,.03,0,.06-.02.28-.03.22-.09.64-.34,1.41-.28.88-.95,2.39-2.34,3.75-.34.34-.73.67-1.14.97-.2.16-.43.29-.65.43-.11.08-.23.13-.35.2l-.22.12c-.12.07-.25.13-.38.18l-.75.35-.38.17-.19.09c-.06.03-.15.04-.12.13,0,.56,0,1.12,0,1.68,0,.71,0,1.44,0,2.16-.02,2.59-.03,5.16-.04,7.33,0,.54,0,1.06-.01,1.54,0,.12,0,.24,0,.36l-.02.26c0,.17-.03.33-.06.48-.11.61-.3,1.08-.48,1.39-.29.71-.88,1.41-1.62,1.87-.73.48-1.59.7-2.35.76l.15-.04c-.11,0-.21.02-.42.03-.21,0-.46,0-.73,0-.55,0-1.22,0-1.97,0-1.5,0-3.33-.01-5.16-.02-3.67-.02-7.39-.03-8.65-.01l.34.02c-2.21.08-1.91-.06-3.65-.1.23.14-1.66.22-2.38.23l.03-.03c-.27,0-.63.02-1.04.03-.21,0-.43.02-.65.02-.18,0-.37,0-.57,0-.76-.04-1.58-.31-2.18-.69l.09-.04c-.52-.27-1.19-.83-1.61-1.53-.44-.68-.64-1.44-.69-1.86-.05-.24-.04-.5-.05-.77,0-.35.01-.71.02-1.09.01-.75.03-1.56.04-2.4.02-1.67.03-3.44-.02-5.09l.21-2.13-.02-.31s-2.59-3.43-3.15.92l-.08-.07v.86c-.03,1.03.06,1.51-.02,1.44v-1.41c-.01,1.04-.05.31-.1-.08,0,.43-.02.85-.04,1.2.03.2.03-.15.05-.31.03.56.1,1.33.06,2.01,0,1.06-.12.07-.13,1.31-.02,1.63-.03,3.25-.05,4.87v.31s.01.39.01.39c0,.26.03.52.07.78.07.52.19,1.03.37,1.52.34.99.88,1.91,1.56,2.7,1.37,1.58,3.38,2.62,5.5,2.78.25.01.57.03.76.03h.61s1.22,0,1.22,0c.82,0,1.64,0,2.46,0,.15.03-.03.03-.22.04,1.99-.02,3.75-.04,5.57-.05.5.03.64.08.79.11-.15-.03,2.35-.05,4.91-.06,2.56,0,5.16,0,5.26,0Z"/>
        </g>
        <g>
          <path class="f" d="M69.4,58.98c.11.08.31.09.49.1-.14-.08-.29-.11-.49-.1Z"/>
          <polygon class="f" points="69.9 59.09 69.9 59.09 69.9 59.09 69.9 59.09"/>
          <path class="f" d="M105.76,55.42s-.1,0-.15,0c.05,0,.1,0,.15,0Z"/>
          <path class="f" d="M78.85,59.32l.03-.14c.44,0,.13.16.53.12.16-.19.67.02.81-.08,0,.02.2.02.18.08.06-.1.2-.02.33-.05.05-.03-.03-.03-.07-.06l.29-.04c.11.03.14.1.02.11.75.04,4.35.14,5.15.09-.1-.08-.35-.03-.45-.15.21-.07.31.02.41-.05.08.18.47.04.63.23l.06-.1.11.06c.94-.11.21-.05,1.05-.03.48-.02.71-.16.98-.11-.04,0-.15-.07-.02-.09.02.09.33-.07.39.03.12-.01.52,0,.38-.13.07.06.42.09.21.14.12,0,.23.02.32,0l-.15-.03c.4-.02.62.08.88-.03l-.15-.05c.24,0,.44-.02.54.11l-.25.04c.4,0,.64-.01.97-.08h-.12c.42-.13,2.64-.23,3.03-.38l-.18-.1.34-.08s-.16.31-.2.28c.72,0,4.46-.08,5.13-.02.27.05.05.15.05.17.33-.04.14-.1.42-.09.08.02-.02.08-.06.09.12-.01.23.02.24-.02-.15-.03-.09-.15-.15-.23h.36s-.02.09-.02.09c.08,0,.2-.21.55-.17.59.03,1.23,0,1.83.02,0,.05-.13.07-.26.1.08,0,.2,0,.27.02-.14-.08.25-.05.14-.09.44-.18,1-.02,1.38-.14.03-.17.82-2.85.82-3.04.12,0,.24,0,.27.02-.03-.05-.27-.07-.39-.04l-.02.11c-.29.04-.07-.06-.35-.06-.01-.09.24-.1.47-.11-.2-.01-.41-.07-.49.02-.19-.04.02-.11-.21-.14-.16.03-.38.11-.57.06v-.02c-.46-.09-.7.13-1.12.04l.05-.03c-.15-.05-.44.02-.71-.04.08.02.14.08-.02.09-.31-.05-.52,0-.74-.07l-.22.08c-1.07-.02-5.31.1-6.39.12h.04c-1.64.03-5.01.02-6.71.14-.26-.08-.62-.06-.9-.09.15.03.1.09-.02.09-.83,0-.06.06-.9.09-.97.08-4.69-.01-5.55-.08-.46.12-1.04.03-1.5.11l.05-.03c-.49.05-3.25-.07-3.81-.02l.08.02c-.49.08-.43-.06-.82-.1.05.14-.37.22-.53.23v-.03c-.24.02-.79.14-1.19.16l.02-.08c-.34.08-.97.05-1.21.06-.55-.03-1.4-.16-2.14-.06l-.48-.21-.07.02s-.77,2.59.21,3.15l-.02.08h.19c.23.03.34-.06.32.02h-.32c.23.01.07.05-.02.1.1,0,.19.02.27.04.05-.03-.03-.03-.07-.05.12-.03.3-.1.45-.06.24,0,.02.12.29.13,1.46.06,2.88.15,4.36.13.03.03,0,.03-.05.04.45-.03.84-.02,1.25-.05.11.03.14.08.18.11-.07-.06,2.24-.07,2.28-.05Z"/>
        </g>
        <g>
          <path class="f" d="M49.5,83.27c.24.08.65.09,1.03.1-.3-.08-.62-.11-1.03-.1Z"/>
          <path class="f" d="M50.54,83.38h0s-.01,0-.01,0h0Z"/>
          <path class="f" d="M125.66,79.71c-.1,0-.2,0-.32,0,.11,0,.21,0,.32,0Z"/>
          <path class="f" d="M69.3,83.62l.06-.14c.92,0,.27.16,1.12.12.33-.19,1.41.02,1.7-.08,0,.02.41.02.38.08.13-.1.43-.02.69-.05.1-.03-.07-.03-.14-.06l.6-.04c.23.03.29.09.04.11,1.57.04,9.11.14,10.8.09-.22-.08-.74-.03-.94-.15.45-.07.66.02.86-.05.17.18.98.04,1.32.23l.13-.1.22.06c.98-.05,1.1-.07,1.18-.06.05,0,.09,0,.24.01.38,0,.48-.02.94-.05.98-.09,1.44-.28,2-.25-.08,0-.3-.05-.05-.09.05.09.68-.1.81-.02.25-.03,1.07-.06.78-.17.14.05.87.05.44.12.25,0,.49,0,.66-.03l-.32-.02c.83-.05,1.29.03,1.83-.1l-.31-.04c.5-.03.92-.04,1.11.08l-.51.05c.83-.02,1.33-.04,2.01-.12h-.25c.87-.15,5.49-.26,6.31-.39l-.37-.1.7-.07c-.08,0-.34.31-.41.28,1.5-.02,9.32.1,10.71.21.56.07.1.16.09.17.68-.02.3-.09.88-.07.16.02-.03.07-.12.09.25,0,.49.04.51,0-.32-.04-.18-.16-.31-.24l.75.03-.04.07c.17,0,.43-.19,1.16-.13,1.24.06,2.59.07,3.84.12-.02.04-.28.07-.55.09.17,0,.42,0,.58.03-.3-.09.53-.04.29-.08.92-.16,2.1.02,2.91-.1.08-.16,1.74-2.84,1.74-3.04.25,0,.49,0,.57.03-.06-.05-.55-.07-.81-.04l-.04.11c-.6.04-.14-.06-.72-.06-.03-.09.5-.1.97-.11-.42-.01-.84-.08-1.02.02-.4-.04.04-.11-.43-.14-.34.02-.79.1-1.19.04v-.02c-.95-.1-1.46.11-2.34,0l.09-.03c-.31-.06-.92,0-1.48-.07.16.02.3.09-.04.09-.64-.07-1.08-.03-1.55-.11l-.45.07c-2.24-.08-11.14-.2-13.42-.19h.09c-3.46-.04-10.59.02-14.2.44-.56-.04-1.35.04-1.9.06.12,0,.21.02.18.05,0,.01-.04.02-.08.03-.03,0-.13.02-.1.02-.39,0-.58,0-.69,0-.12,0-.14.01-.15.02-.03.02-.07.05-.95.06-2.04.08-9.83-.01-11.64-.08-.97.12-2.18.03-3.14.11l.1-.03c-1.02.05-6.81-.07-7.99-.02l.16.02c-1.04.08-.89-.06-1.71-.1.11.14-.78.22-1.12.23v-.03c-.5.02-1.65.14-2.5.16l.03-.08c-.7.08-2.02.05-2.53.06-1.16-.03-2.94-.16-4.48-.06l-1-.21-.15.02s-1.61,2.59.43,3.15l-.03.08h.4c.48.03.71-.06.68.02h-.66c.49.01.15.05-.04.1.2,0,.4.02.56.04.1-.03-.07-.03-.15-.05.26-.03.63-.1.94-.06.5,0,.03.12.61.13,3.06.06,6.03.15,9.13.13.07.03-.01.03-.1.04.95-.02,1.75-.04,2.61-.05.24.03.3.08.37.11-.07-.03,1.1-.05,2.3-.06.6,0,1.21,0,1.67,0,.46,0,.77,0,.8,0Z"/>
        </g>
        <g>
          <path class="f" d="M49.5,97.06c.24.08.65.09,1.03.1-.3-.08-.61-.11-1.03-.1Z"/>
          <path class="f" d="M50.54,97.16h0s-.01,0-.01,0h0Z"/>
          <path class="f" d="M125.66,93.49c-.1,0-.21,0-.32,0,.11,0,.22,0,.32,0Z"/>
          <path class="f" d="M69.29,97.4l.06-.14c.92,0,.27.16,1.12.12.33-.19,1.41.02,1.7-.08,0,.02.41.02.38.08.13-.1.43-.02.69-.05.1-.03-.07-.03-.14-.06l.6-.04c.23.03.29.09.04.11,1.57.04,9.11.14,10.8.09-.22-.08-.74-.03-.94-.15.45-.07.66.02.86-.05.17.18.98.04,1.32.23l.13-.1.22.06c1.97-.11.45-.05,2.19-.03,1.01-.02,1.49-.16,2.05-.11-.08,0-.31-.07-.04-.09.04.09.7-.07.82.03.26-.01,1.09,0,.8-.13.14.06.88.09.44.14.25,0,.49.02.67,0l-.32-.03c.84-.02,1.3.08,1.85-.03l-.31-.05c.5,0,.93-.02,1.12.11l-.52.04c.84,0,1.34-.01,2.04-.08h-.25c.89-.13,5.53-.23,6.35-.38l-.38-.1.7-.08c-.08,0-.34.31-.41.28,1.51,0,9.35-.08,10.74-.02.56.05.1.15.09.17.68-.04.29-.1.88-.09.16.02-.03.08-.12.09.25-.01.49.02.51-.02-.32-.03-.18-.15-.32-.23h.75s-.03.09-.03.09c.17,0,.42-.21,1.16-.17,1.24.03,2.58,0,3.83.02-.02.05-.28.07-.54.1.17,0,.42,0,.58.02-.3-.08.52-.05.29-.09.91-.18,2.09-.02,2.9-.14.07-.17,1.72-2.85,1.72-3.04.25,0,.5,0,.58.02-.06-.05-.56-.07-.82-.04l-.05.11c-.6.04-.14-.06-.73-.06-.03-.09.51-.1.98-.11-.43-.01-.85-.07-1.03.02-.4-.04.04-.11-.44-.14-.35.03-.8.11-1.2.06v-.02c-.96-.09-1.47.13-2.35.04l.09-.03c-.31-.05-.92.02-1.49-.04.16.02.3.08-.04.09-.65-.05-1.09,0-1.56-.07l-.45.08c-2.25.02-11.13.1-13.39.12h.09c-3.44.03-10.51.02-14.06.14-.55-.08-1.31-.06-1.88-.09.32.03.21.09-.04.09-1.75,0-.12.06-1.89.09-2.04.08-9.83-.01-11.64-.08-.97.12-2.18.03-3.13.11l.1-.03c-1.02.05-6.8-.07-7.99-.02l.16.02c-1.04.08-.89-.06-1.71-.1.11.14-.78.22-1.12.23v-.03c-.5.02-1.65.14-2.5.16l.03-.08c-.7.08-2.02.05-2.53.06-1.16-.03-2.94-.16-4.48-.06l-1-.21-.15.02s-1.61,2.59.43,3.15l-.03.08h.4c.48.03.71-.06.67.02h-.66c.49.01.15.05-.04.1.2,0,.4.02.56.04.1-.03-.07-.03-.15-.05.26-.03.63-.1.94-.06.5,0,.03.12.61.13,3.06.06,6.03.15,9.13.13.07.03-.01.03-.1.04.95-.02,1.75-.04,2.61-.05.24.03.3.08.37.11-.07-.03,1.1-.05,2.3-.06.6,0,1.21,0,1.67,0,.46,0,.77,0,.8,0Z"/>
        </g>
        <g>
          <path class="f" d="M49.45,110.85c.24.09.64.11,1.03.13-.3-.09-.61-.13-1.03-.13Z"/>
          <path class="f" d="M50.49,110.98h0s-.01,0-.01,0h0Z"/>
          <path class="f" d="M125.61,107.28c-.1,0-.21,0-.32.01.11,0,.22,0,.32-.01Z"/>
          <path class="f" d="M69.27,111.71l.06-.13c.92.02.27.16,1.12.15.33-.18,1.41.06,1.71-.04,0,.02.41.03.38.09.13-.1.43-.01.69-.03.1-.03-.07-.03-.14-.07l.6-.02c.23.04.29.1.04.11,1.57.08,9.12.38,10.81.37-.22-.08-.74-.04-.94-.17.45-.06.66.04.86-.03.17.19.98.07,1.32.27l.13-.1.22.07c1.97-.06.45-.04,2.2.03,1.01.02,1.49-.19,2.05-.13-.08,0-.31-.06-.04-.09.04.09.7-.09.82,0,.26-.02,1.09-.03.81-.15.14.06.88.06.44.13.25,0,.49,0,.67-.02l-.32-.03c.84-.04,1.3.04,1.85-.09l-.31-.04c.5-.02.93-.04,1.13.08l-.52.05c.84-.03,1.34-.05,2.04-.13h-.25c.89-.15,5.54-.38,6.35-.56l-.38-.09.7-.1c-.08,0-.34.32-.41.29,1.51-.05,9.36-.35,10.75-.32.56.04.1.15.1.17.68-.06.29-.11.88-.12.16.01-.03.08-.12.09.25-.02.49,0,.51-.04-.32-.03-.19-.15-.32-.22h.75s-.03.07-.03.07c.17,0,.42-.22,1.15-.2,1.24,0,2.59-.07,3.83-.08-.02.05-.28.08-.54.11.17,0,.42-.02.58,0-.3-.07.52-.07.29-.09.91-.21,2.09-.07,2.9-.22.07-.17,1.65-2.89,1.64-3.09.25,0,.5,0,.58,0-.07-.04-.56-.05-.82-.02l-.04.11c-.6.05-.14-.06-.73-.04-.03-.09.51-.12.98-.14-.43,0-.86-.05-1.03.05-.4-.02.04-.11-.44-.13-.34.04-.79.13-1.19.09v-.02c-.96-.06-1.46.17-2.34.11l.09-.03c-.31-.04-.92.04-1.48,0,.16.01.3.07-.04.09-.65-.04-1.08.03-1.56-.02l-.45.1c-2.24.08-11.11.41-13.37.49l.09-.02c-3.44.14-10.49.33-14.04.55-.55-.05-1.31-.06-1.88-.1.32.04.21.1-.04.09-1.75-.06-.12.05-1.88.04-2.03.02-9.82-.27-11.62-.39-.97.1-2.18-.03-3.13.03l.1-.03c-1.02.02-6.8-.25-7.98-.23l.16.02c-1.04.05-.89-.08-1.71-.14.1.14-.78.2-1.12.2v-.03c-.5,0-1.65.1-2.5.1l.03-.07c-.7.06-2.02,0-2.53-.01-1.15-.06-2.93-.24-4.48-.18l-.99-.24-.15.02s-1.68,2.55.35,3.16l-.03.07h.4c.48.05.71-.03.68.04l-.66-.03c.49.03.15.07-.04.1.2.01.4.03.56.05.1-.03-.07-.03-.15-.05.26-.02.63-.08.95-.04.5.02.03.12.61.15,3.07.14,6.04.3,9.14.37.07.03-.01.03-.1.04.95,0,1.75,0,2.62.01.24.04.3.09.37.12-.07-.03,1.11-.02,2.31,0,.6.01,1.21.03,1.67.04.46.02.77.03.8.03Z"/>
        </g>
      </g>
      <g>
        <path class="f" d="M136.86,33.94c.49.58,1.41,1.51,2.22,2.47-.58-.77-1.25-1.55-2.22-2.47Z"/>
        <path class="f" d="M139.09,36.42s0,0,.01.01c-.01-.01-.02-.02-.03-.03l.02.02Z"/>
        <path class="f" d="M124.61,6.09c.29.12.62.25.95.38-.32-.13-.64-.26-.95-.38Z"/>
        <path class="f" d="M143.95,84.41l-.3.17c-1.2.18-1.82.58-2.18.79-.36.22-.56.4-.69.51-.13.12-.27.22-.53.58-.24.35-.65,1.01-.77,2.15,0,.44.02,1.13.2,1.84.14.55.26,1.06.39,1.65.25,1.14.49,2.26.65,2.73-.02-.02.3,1.34.22,1.27.2.39.35,1.39.58,2.24.1.3-.02-.23-.05-.47l.5,1.95c.15.77.13.98-.07.15.35,1.53,1.11,4.8,2.03,8.78.46,1.99.97,4.15,1.48,6.37l.19.83.1.42.07.31c.03.14.07.27.12.4.19.53.56.97.97,1.37.32.31.66.56,1.04.79.19.11.4.22.6.31l.28.12c.11.04.23.08.34.12.46.14.95.21,1.42.21.89.02,1.89-.25,2.66-.73l-3.06-1.72h0v3.6l3.06-1.87c5.18-3.17,9.83-6.02,11.78-7.21-.66.31-2.13,1.27-2.76,1.51,1.24-.84,1.9-1.13,2.42-1.54.59-.14,2.83-1.68,3.9-2.11l.31-.31.67-.33c5.57-3.53,1.26-.83,6.26-3.86.12-.07.23-.15.34-.22.14-.09.26-.19.38-.29.24-.2.45-.4.63-.62.37-.43.65-.87.87-1.34.21-.47.35-.95.42-1.45.07-.49.03-1.06-.06-1.44-.37-1.68-1.41-2.85-2.75-3.53.42.19,1.36.92.17.19-.02-.04-.32-.2-.55-.29-.21-.08-.49-.19-.78-.3-.58-.22-1.19-.45-1.36-.58-.2-.08-.51-.21-.85-.34-.13-.05-.28-.11-.41-.17l-.07-.02c-.08-.02-.19-.03-.18.04,0-.02-.05-.03-.03-.08.03-.04.05-.09.08-.13.05-.07.07-.09.07,0l.02-.06s0,.02.02-.05c.03-.1.06-.19.09-.29.11-.38.22-.72.28-1.03l-.34,1.05c.8-2.78,1.24-4.31,1.51-6.18l-.27,1.04c.37-1.69.6-3.12.83-3.77-.09.59-.17,1.17-.27,1.76.52-2.83.74-4.55.9-6.94l-.09.85c.05-.76.17-2.33.23-4.29.06-1.98.03-4.3-.03-6.64-.15-4.71-.92-9.33-1.23-10.69.04.43.07.86.1,1.29-.13-.79-.3-1.57-.48-2.35.05.28.52,1.08.53,1.33-.12-.63-.3-1.6-.52-2.81-.28-1.2-.58-2.66-1.02-4.26-.85-3.2-2.12-6.98-3.71-10.62-1.58-3.65-3.46-7.12-5.21-9.9-.4-.71-.91-1.33-1.32-1.93-.42-.61-.83-1.13-1.21-1.6-.75-.95-1.35-1.68-1.75-2.12-1.24-1.48-.12-.36-.09-.35-1.59-1.73-.74-.7-2.11-2.14-.37-.4.13.03.36.24-.61-.62-1.15-1.22-1.23-1.24.73.81.33.56.59.94-.58-.62-1.18-1.23-1.8-1.81l.13.02c-.42-.38-1.16-.88-3-2.55-3.12-2.82-6.75-5.61-10.22-8.02.08,0,.82.49,1.57.97-.46-.33-1.18-.81-1.59-1.14.79.65-1.49-.97-.85-.49-2.67-1.58-6.01-3.8-8.5-4.97-.15.03-1.78-.05-3.36,0-1.59.04-3.09.16-3.14.27-.75-.31-1.49-.61-1.71-.72.18.13,1.64.73,2.42,1.04l.18-.03c1.79.79.39.25,2.12,1.05.05.13-1.54-.63-2.95-1.22,1.27.55,2.49,1.21,3.04,1.37,1.15.63-.18.03,1.21.79,1.02.47,2.34,1.15,3.45,1.83h-.03c2.66,1.7,4.21,2.41,6.54,4.14l-.27-.15c.4.32,1.04.74,1.74,1.24.7.51,1.48,1.08,2.2,1.65-.41-.33-.74-.65.16,0,1.64,1.35,2.82,2.2,3.95,3.27.4.3.8.59,1.19.9,1.37,1.23,3.8,3.35,6.42,6.18,1.29,1.42,2.68,3.01,3.92,4.74.31.44.63.85.93,1.32.29.47.58.94.87,1.42.6.94,1.13,1.96,1.69,2.94,2.16,4.01,3.91,8.22,5.12,11.9,1.22,3.68,1.88,6.82,2.23,8.63l-.07-.28c.56,2.76,1.08,6.28,1.27,10.21.1,1.96.1,4.03.09,6.17-.02,2.11-.15,4.26-.38,6.41-.44,4.29-1.32,8.55-2.45,12.37-.11.38-.23.75-.34,1.13-.14.44-.28.88-.41,1.32l-.2.65-.1.32s-.03.06-.01.07l.08.03.16.06c.42.17.83.34,1.25.51,1.16.47,2.29.93,3.38,1.38.42.17.83.34,1.24.5.2.08.4.16.59.24.1.04.18.08.26.13.31.2.52.53.59.86,0,.05,0,.11,0,.16,0,.02,0,.04-.01.09-.02.08-.04.19-.09.3-.09.23-.27.5-.49.7-.12.11-.18.15-.36.27-.24.14-.47.28-.7.42-.46.28-.91.54-1.32.79.93-.53.65-.29-.07.15-5.01,3.05-.31.26-5.35,3.38-2.65,1.66-8.77,5.4-15.14,9.28l2.34,1.31h0v-2.7l-2.34,1.37c-.24.14-.48.21-.78.21-.15,0-.26-.02-.39-.05-.1-.03-.31-.11-.42-.18-.13-.07-.27-.17-.39-.28-.12-.11-.11-.11-.16-.18-.02-.03-.02-.06-.03-.09l-.08-.32-.18-.79c-.49-2.09-.95-4.11-1.38-5.96-.85-3.7-1.55-6.74-1.91-8.34-.87-3.14-1.71-7.11-2.53-10.21l.1.31c-.05-.19-.11-.45-.18-.75-.04-.19-.06-.43-.03-.65.02-.23.1-.43.21-.57.08-.09.07-.09.2-.18.12-.08.25-.14.4-.19.29-.09.63-.11.98-.02.09.02.16.05.27.09l.46.18c.31.12.63.25.95.37.87.34,1.75.68,2.65,1.04.58.22,1.17.45,1.76.68l.44.17c.06,0,.18.11.19.03l.05-.23.2-.93.39-1.87.19-.93.12-.64c.12-.72.25-1.43.37-2.13.23-1.4.41-2.74.55-3.97.29-2.46.4-4.45.45-5.46l-.05.54c.1-3.53.19-3.04.26-5.82-.12.37-.24-2.68-.34-3.83l.03.04c-.1-1.75-.64-5.69-1.27-8.5l.1.1c-.5-2.36-1.71-6.72-2.34-8.34-1.25-3.91-4.4-9.25-7.91-13.25-.68-.93-1.4-1.83-2.15-2.71l-.38-.35s-.36-.13-.83-.24c-.48-.1-1.05-.17-1.47-.07-.43.1-.69.36-.58.91.11.54.61,1.33,1.62,2.63l-.13-.02c.3.31.59.64.88.96,1,1.21,1.51,1.73,1.39,1.69-.44-.56-.91-1.11-1.37-1.65,1.01,1.21.27.4-.16-.02.43.5.83.99,1.14,1.41.22.22-.12-.2-.26-.4.56.63,1.35,1.52,1.94,2.37.94,1.31-.03.15,1.04,1.7,1.38,2.06,2.61,4.2,3.56,6.38.88,2.15,1.6,4.59,2.18,6.95,1.16,4.77,1.75,9.69,1.7,14.73-.03.23-.03-.04-.04-.34.03,3.08-.11,5.78-.34,8.56-.11.77-.18.97-.23,1.2.03-.11-.05.79-.23,2.2-.09.71-.21,1.54-.35,2.44-.11.66-.24,1.37-.36,2.08,0,.04-.01.07-.05.04-.52-.2-1.02-.39-1.44-.56-.36-.14-.69-.27-.98-.38-.36-.15-.86-.29-1.2-.34-.73-.12-1.18-.06-1.23-.06Z"/>
      </g>
      <g>
        <path class="f" d="M108.18,132.46c-1.01.35-2.81,1-4.55,1.45,1.36-.3,2.8-.71,4.55-1.45Z"/>
        <path class="f" d="M103.59,133.92s-.02,0-.03,0c.02,0,.04-.01.06-.02-.01,0-.02,0-.04,0Z"/>
        <path class="f" d="M92.85,144.29c-.45.09-.96.2-1.48.3.5-.09,1-.2,1.48-.3Z"/>
        <path class="f" d="M30.58,99.96l-.21-.22c-.62-2.07-.63-2.39-.67-2.66-.03-.27-.08-.5-.52-2.44-.26-.74-.56-2.37-.77-3.99-.21-1.62-.32-3.22-.41-3.91,0,0,0-.11,0-.29,0-.18-.02-.41-.03-.65-.01-.47-.01-.93.02-.86-.14-.59-.08-2-.09-3.24-.03-.45-.03.33-.07.67,0-.94,0-1.92,0-2.86.07-1.11.15-1.38.11-.17.07-1.86.25-5.49.93-9.96.09-.56.18-1.13.28-1.71.1-.54.2-1.1.3-1.67,0-.05.02-.09.07-.05.36.14.72.28,1.08.42l.94.37.48.19c.24.09.5.18.76.24,1.05.25,2.21.18,3.25-.26.26-.11.51-.24.75-.39.12-.07.23-.15.35-.24.13-.09.26-.21.39-.33.48-.45.82-1.01,1.05-1.57.44-1.13.42-2.26.18-3.25-.16-.67-.32-1.34-.47-2.01-.31-1.34-.63-2.67-.93-3.97-.61-2.6-1.2-5.1-1.74-7.38-1.09-4.57-1.97-8.28-2.44-10.27.17,1.04.8,3.49.9,4.46-.57-2.09-.71-3.11-1-4.02,0-.21-.07-.61-.17-1.11-.12-.55-.27-1.2-.42-1.88-.14-.61-.53-1.14-.97-1.59-.38-.38-.73-.64-1.14-.9-.2-.12-.43-.24-.62-.32-.18-.08-.4-.17-.61-.24-.43-.14-.83-.2-1.18-.24-.32.03-.66.08-.99.17-.59.07-1.16.26-1.69.53-.05.03-.1.06-.12.07l3.04,1.71h0s-.05-3.59-.05-3.59l-2.99,1.88c-7.94,4.98-1.78,1.15-8.97,5.52-4.16,2.56-6.07,3.9-8.42,5.27.35-.21,1.3-.72.23-.03-.23.03-2.84,1.81-3.42,2.06-.26.16-.67.42-1.13.7-.47.31-.86.48-1.56,1.04-.57.49-.9.99-1.05,1.25-.14.27-.13.26.17-.13-.15.19-.44.62-.66,1.19-.22.56-.35,1.31-.28,1.95.05.56.19.97.2,1.04.03.07-.14-.18-.27-1.02.1.96.5,1.86,1.06,2.54.56.69,1.27,1.15,1.91,1.4-.75-.32-1.43-.85-1.92-1.5.5.63,1.14,1.1,1.79,1.4.44.19.86.36,1.27.53.76.32,1.44.61,2.09.88.13.06.26.11.38.16l.11.04s0,.13,0,.22l.13-.23c-.21.71-.4,1.35-.56,1.89-.27.92-.48,1.66-.66,2.12.19-.83.4-1.67.62-2.5-1.1,4.01-1.55,6.48-1.99,9.91l.18-1.22c-.14,1.09-.43,3.34-.59,6.18-.08,1.41-.13,2.99-.12,4.6.01,1.62,0,3.31.11,5.01.17,3.4.6,6.76,1.09,9.5.52,2.74,1.05,4.87,1.35,5.83-.13-.61-.24-1.22-.34-1.83.26,1.13.61,2.23.92,3.34-.1-.39-.73-1.54-.78-1.88.45,1.8,1.45,5.5,3.23,9.95,1.82,4.43,4.36,9.59,7.74,14.32,3.38,4.66,7.39,8.82,11.04,11.82,3.63,3.04,6.8,5.01,8.28,5.89,2.37,1.47.35.39.32.38,1.47.85,1.83.96,2.09,1.1.28.11.48.26,1.77.89.7.36-.18,0-.58-.19,1.14.55,2.18,1.1,2.29,1.09-1.41-.71-.75-.54-1.32-.9,1.1.57,2.23,1.05,3.35,1.56h-.18c.77.3,2,.66,5.41,1.86,5.78,1.98,12.33,3.28,18.45,3.74-.1.04-1.39-.04-2.68-.15.82.08,2.05.2,2.83.28-1.47-.18,2.58.12,1.42,0,4.5.07,10.28.08,14.22-.47.16-.1,2.2-1.02,4.11-2.03,1.92-1,3.71-2.09,3.69-2.18,1.16-.23,2.31-.46,2.68-.53-.31.03-2.59.49-3.81.73l-.19.14c-2.81.5-.67.07-3.42.48-.16-.06,2.38-.43,4.59-.87-2,.38-4,.6-4.81.81-1.9.21.2-.12-2.09.11-1.62.21-3.76.47-5.64.5l.03-.02c-2.3.05-4.03.08-5.74.11-1.7.01-3.34,0-5.41-.22h.45c-1.46-.15-4.35-.38-6.95-.9.74.14,1.38.31-.19.06-2.99-.59-5.02-1.04-7.15-1.7-.69-.17-1.39-.34-2.07-.53-2.53-.8-6.91-2.27-11.79-4.96-4.89-2.64-10.24-6.53-14.77-11.25-2.27-2.35-4.36-4.9-6.15-7.47-1.77-2.57-3.26-5.25-4.51-7.75-2.47-5.03-3.94-9.44-4.66-12l.13.4c-1.17-3.89-2.26-8.94-2.71-14.61-.13-1.42-.17-2.87-.23-4.35,0-1.49-.02-3.01.02-4.55.06-3.04.35-6.15.83-9.23.49-3.08,1.18-6.13,2.07-9.06.21-.68.42-1.36.64-2.04l.33-1.03c.02-.08.06-.18.07-.25l-.25-.1-.5-.21c-1.1-.45-2.19-.9-3.27-1.34-.71-.29-1.41-.58-2.11-.86l-.52-.21c-.14-.06-.17-.07-.25-.12-.14-.08-.26-.19-.36-.32-.1-.12-.17-.27-.22-.42-.02-.08-.04-.15-.05-.23-.01-.08,0-.07,0-.15.02-.24.19-.63.46-.91.14-.15.23-.23.43-.36.29-.18.58-.36.87-.54.58-.36,1.14-.71,1.7-1.05,2.23-1.38,4.28-2.65,6.11-3.78,2.32-1.32,5.44-3.25,7.83-4.68-1.34.78-.92.45.12-.18,6.48-3.95,1.72-1.1,5.97-3.75l-2.39-1.34h0s.03,2.8.03,2.8l2.36-1.45c.21-.13.51-.26.97-.21.14.02.28.05.49.15.17.08.38.21.55.38.04.04.07.07.11.12.02.02.03.05.03.07l.04.15c.11.44.22.91.33,1.39.46,1.94,1,4.19,1.58,6.66,1.16,4.93,2.52,10.69,3.87,16.41l.25,1.08.1.44c.02.11.03.22.03.32.01.43-.11.76-.28.92-.03.05-.22.18-.38.25-.17.08-.35.12-.54.14-.19.02-.38,0-.57-.04-.1-.02-.18-.05-.29-.09l-.49-.19c-1.8-.7-3.56-1.38-5.26-2.05l-.41-.16-.2-.08-.1-.04-.02.11-.18.85c-.12.57-.24,1.13-.35,1.68-.11.55-.22,1.09-.33,1.63-.06.31-.12.63-.17.93-.89,4.93-1.19,9.01-1.32,11.23-.05,2.4-.11,5.06,0,7.77.1,2.7.42,5.37.85,7.7l-.1-.47c.21,1.25.68,3.96,1.65,7.33.5,1.68,1.06,3.52,1.87,5.44.79,1.9,1.76,3.83,2.87,5.69,2.21,3.72,5.05,7.08,7.73,9.55,2.66,2.51,5.14,4.1,6.32,4.92l-.64-.46c4.26,2.79,3.63,2.5,7.07,4.58-.2-.19.67.23,1.77.79,1.1.57,2.47,1.2,3.21,1.58h-.07c2.26,1.1,7.56,3.26,11.57,4.36l-.18.03c1.68.45,4.09,1.1,6.43,1.55.58.11,1.16.23,1.71.33.56.09,1.1.17,1.6.25,1,.17,1.88.26,2.5.32,2.83.33,6.46.59,10.35.41,3.88-.17,7.98-.79,11.68-1.79,1.6-.34,3.21-.71,4.83-1.21l.68-.27s.4-.32.88-.79c.44-.47.92-1.04,1.09-1.53l.13-.21c-.3-.3-.61-.39-.89,0l.38-.6c-.29-.08-.79-.06-1.53.1-.71.13-1.74.4-3.08.74l.12-.12c-.6.2-1.18.37-1.81.55-2.22.58-3.23.86-3.09.76,1.02-.23,2.02-.47,3.03-.76-2.23.58-.69.13.15-.15-.93.26-1.83.48-2.57.63-.43.13.33-.05.68-.12-1.18.33-2.85.75-4.33.97-2.32.35-.16-.07-2.87.28-3.57.42-7.15.44-10.71.19-3.56-.25-7.08-.8-10.54-1.64-6.92-1.67-13.59-4.46-19.94-8.13-.27-.2.07.01.44.2-.95-.56-1.88-1.1-2.79-1.64-.89-.57-1.76-1.13-2.62-1.68-.84-.58-1.67-1.15-2.5-1.72-.8-.57-1.58-1.16-2.34-1.78-.81-.73-1-.96-1.22-1.2.12.11-.86-.71-2.26-2.15-1.39-1.45-3.16-3.55-4.66-5.88-1.52-2.32-2.77-4.85-3.54-6.82-.78-1.97-1.19-3.42-1.22-3.5Z"/>
      </g>
    </g>
  </g>
</svg>