<?xml version="1.0" encoding="UTF-8"?>
<svg id="b" data-name="Camada_2" xmlns="http://www.w3.org/2000/svg" viewBox="0 0 191.82 186.08">
  <defs>
    <style>
      .d {
        fill: none;
      }

      .e {
        fill: #646d63;
      }
    </style>
  </defs>
  <g id="c" data-name="Camada_1">
    <g>
      <g>
        <path class="d" d="M8.39,79.89S97.41,7.92,100.98,4.76c3.57-3.17,6.23-3.39,7.04-3.49s77.45,41.51,80.83,43.69c3.38,2.18.8,5.13,0,6.16s-89.21,83.74-94.36,89.25-10.13,3.44-10.13,3.44c0,0-80.05-55.07-82.3-56.79s4.18-6.02,4.18-6.02M28.12,68.01s-19.05,12.08-5.53,26.8c11.64,8.93,52.17,33.45,56.05,33.96s16,4.4,32.34-11.83c16.35-16.23,58.1-53.09,59.04-53.6s15.41-15.6,1.76-23.28c-13.64-7.67-54.05-29.93-59.69-29.93s-14.23.75-25.76,10.82c-11.53,10.07-55.04,45.55-55.39,45.67"/>
        <g>
          <path class="e" d="M26.09,67.79c-1.1.74-2.84,2.21-4.31,3.81,1.18-1.18,2.46-2.39,4.31-3.81Z"/>
          <path class="e" d="M21.75,71.62s-.02.02-.02.03c.02-.02.04-.04.05-.06-.01.01-.02.02-.03.03Z"/>
          <path class="e" d="M33.13,66.92c.4-.32.86-.7,1.33-1.07-.44.36-.9.72-1.33,1.07Z"/>
          <path class="e" d="M88.07,131.04c.11-.05.22-.09.32-.14,2.57-.32,2.92-.47,3.25-.49.32-.06.63-.01,2.89-.76.44-.16,1.11-.45,1.89-.77.39-.16.82-.33,1.26-.51.42-.21.86-.42,1.29-.63.43-.21.87-.42,1.28-.63.4-.22.78-.45,1.13-.66.7-.42,1.28-.77,1.62-1-.01.05,1.85-1.28,1.77-1.15.26-.24.74-.58,1.29-.97.53-.43,1.12-.91,1.68-1.37.39-.35-.31.22-.63.45.83-.71,1.72-1.37,2.48-2.14.95-.85,1.22-1.03.21-.07.77-.72,1.99-1.81,3.33-3.13,1.36-1.33,3-2.92,4.84-4.65,3.68-3.48,8.13-7.62,12.63-11.73,8.99-8.24,18.15-16.41,21.49-19.43-.91.72-2.95,2.61-3.8,3.24,1.73-1.63,2.62-2.32,3.37-3.07.78-.49,3.93-3.45,5.38-4.53l.45-.52.92-.74c7.78-6.99,1.75-1.63,8.74-7.72,2.05-1.81,3.57-3.14,4.86-4.28,1.23-1.33,2.09-2.47,3.02-3.74-.26.39-1.05,1.35-.2.16.1-.08.65-.88,1.18-1.77.54-.88,1.02-1.87,1.21-2.18.32-.65.94-2.08,1.25-3.23.32-1.15.4-1.97.2-1.16.11-.4.37-1.67.37-2.58.04-.44,0-.79,0-.84,0-.06.06.17.05.83.04-1.52-.27-3.03-.71-4.06.13.31.22.63.3.95.09.32.17.64.21.97-.48-2.58-1.72-4.35-2.91-5.59-1.21-1.24-2.51-2.05-3.85-2.77.46.26,1,.64,1.49.95-1.27-.81-2.3-1.34-3.21-1.87-.89-.51-1.6-.93-2.04-1.24l2.42,1.32c-3.89-2.17-6.25-3.47-9.53-5.21l1.16.64c-2.11-1.12-8.6-4.57-15.07-8.01-6.48-3.41-12.99-6.69-14.97-7.61l1.76.98-3.38-1.63c.4.2,1.74.58,2.05.78-1.8-.9-5.47-2.77-10.18-4.95-2.37-1.08-4.95-2.26-7.88-3.25-.39-.11-.74-.24-1.16-.33l-.62-.14c-.22-.04-.49-.06-.73-.08-.85-.03-1.58,0-2.38.04-1.58.08-3.18.26-4.76.57-3.16.6-6.18,1.76-8.89,3.12-2.71,1.37-5.11,2.99-7.18,4.54-1.04.77-1.99,1.55-2.85,2.29-.89.73-1.64,1.4-2.35,2.01-1.42,1.2-2.54,2.14-3.24,2.74-2.31,1.89-.49.25-.47.22-2.76,2.36-1.15,1.07-3.52,3.06-.66.53.09-.16.45-.47-1.03.88-2.02,1.66-2.07,1.76,1.32-1.06.83-.53,1.42-.94l-3.06,2.54.1-.16c-.68.57-1.62,1.57-4.65,4.04-5.1,4.19-10.63,8.74-15.75,12.95.06-.09,1.12-.99,2.18-1.9-.69.56-1.73,1.43-2.38,1.93,1.28-.96-2.12,1.8-1.14,1.03-3.66,3.2-8.61,7.07-11.87,9.85-.1.17-1.51,2.08-2.89,3.95-.67.93-1.35,1.85-1.87,2.57-.5.7-.83,1.18-.8,1.21-.52.42-1.05.83-1.48,1.18-.22.17-.37.3-.71.54-.28.2-.52.33-.66.42.12-.06.47-.25.9-.57.26-.2.6-.46.96-.74.69-.54,1.47-1.17,2-1.62l.13-.22c2.47-2.04.62-.43,3.04-2.41.17-.05-2.05,1.78-4.02,3.37,1.78-1.43,3.58-2.82,4.25-3.46,1.68-1.33-.13.22,1.89-1.39,1.41-1.18,3.24-2.76,4.9-4.06l-.02.03c4.02-3.19,6.01-5.06,9.69-7.97l-.38.34c1.31-1.02,3.8-3.13,6.13-5-.67.53-1.27.96.11-.19,2.68-2.18,4.47-3.64,6.44-5.24l1.82-1.59c2.3-1.92,6.3-5.25,11.14-9.29,2.4-2.05,5.01-4.27,7.73-6.58,2.65-2.25,5.59-4.36,8.73-6.05,1.58-.81,3.2-1.56,4.85-2.12,1.66-.56,3.33-.98,5.01-1.25,1.68-.26,3.34-.37,4.99-.38h.31c.08,0,.13.01.19.02l.18.02.25.06c.33.06.69.17,1.06.29.73.23,1.46.49,2.17.77,5.73,2.31,10.39,4.71,13.08,6.01l-.43-.2c8.19,4.04,20.53,10.58,32.84,17.35,3.07,1.7,6.15,3.41,9.16,5.08,1.46.82,2.7,1.66,3.67,2.77.96,1.08,1.6,2.35,1.81,3.7.49,2.72-.52,5.57-1.74,7.95-1.27,2.39-2.84,4.47-4.36,6.09-.12.11-.24.23-.37.35-.11.1-.28.25-.28.25h0s.13.17.13.17c.09.14.18.28.26.42l.12.22.06.11v.03c.14.23-.99-1.87-.51-.98h0s-.04.03-.04.03l-.16.12-.33.24-.33.25-.24.2c-.65.55-1.32,1.12-2,1.69-1.33,1.15-2.67,2.32-3.83,3.32,1.3-1.1.89-.68-.11.19-7,6.16-.45.44-7.48,6.71-4.04,3.62-13.8,12.34-23.37,21.05-4.78,4.36-9.52,8.72-13.47,12.43-3.92,3.74-7.11,6.77-8.85,8.43-3.56,3.61-8.72,7.35-13.21,9.24l.45-.2c-1.2.48-3.82,1.67-7.37,2.15-1.76.27-3.75.34-5.82.14-1.04-.11-2.09-.26-3.21-.46-.52-.1-1.3-.19-1.48-.28-.45-.16-.95-.38-1.45-.61-4.03-1.94-8.04-4.27-11.37-6.17-3.32-1.95-6-3.51-7.36-4.31l.72.45c-4.76-2.77-4.05-2.48-7.74-4.77.43.4-3.63-2.01-5.16-2.96l.07.02c-2.32-1.41-7.57-4.6-11.32-7.05l.18.04c-3.18-1.97-8.97-5.93-11.07-7.54-.15-.11-.3-.23-.46-.35-.22-.17-.16-.11-.29-.27-.25-.3-.51-.61-.78-.92-.28-.31-.5-.67-.75-1.01-.26-.34-.5-.71-.72-1.09-.92-1.51-1.66-3.26-1.95-5.13-.3-1.87-.08-3.86.55-5.73.63-1.88,1.66-3.62,2.85-5.18,1.09-1.29,2.31-2.48,3.62-3.55l.55-.5s.27-.39.66-.97c.36-.54.77-1.18.93-1.63.17-.45.06-.76-.72-.57-.76.22-2.19.91-4.32,2.78l.09-.17c-.54.52-1.06,1.06-1.56,1.62-1.82,2.01-2.37,3.19-2.34,2.98.69-1.05,1.46-2.03,2.29-2.94-1.77,2.07-.59.58.08-.22-.77.84-1.46,1.71-2.01,2.44-.3.46.25-.31.52-.64-.88,1.18-1.95,2.97-2.67,4.66-.52,1.34-.54,1.39-.59,1.49-.03.05-.06.11-.14.37-.09.25-.22.7-.37,1.55-.42,2.23-.22,4.57.43,6.72.65,2.15,1.76,4.09,3.06,5.8.31.45.68.83,1.02,1.25.2.22.26.35.65.72l.69.52c.82.62,1.64,1.22,2.47,1.81,1.65,1.18,3.32,2.32,5,3.45,6.71,4.51,13.56,8.82,20.61,13.13.31.22-.07-.02-.49-.26,4.26,2.57,8.05,4.85,11.99,7.12,1.08.66,1.35.86,1.66,1.07-.29-.23,5.06,2.97,10.85,5.92.73.37,1.47.72,2.26,1.06.18.09.41.17.63.25l.32.12c.12.04.3.08.44.12.13.03.35.08.41.09l.26.04.53.08c1.48.26,2.99.49,4.29.56,2.6.18,4.4-.05,4.5-.03Z"/>
        </g>
        <g>
          <path class="e" d="M10.58,79.85c1.18-.87,3.16-2.47,5.03-3.97-1.48,1.11-3.02,2.33-5.03,3.97Z"/>
          <path class="e" d="M15.65,75.85s.02-.02.03-.02c-.03.02-.04.04-.07.05.01-.01.03-.02.04-.03Z"/>
          <path class="e" d="M3.84,80.8c-.5.4-1.06.87-1.61,1.4.53-.51,1.08-.98,1.61-1.4Z"/>
          <path class="e" d="M105.95,3.46c.08-.07.17-.15.25-.22.42-.16.78-.25,1.07-.31.29-.06.6-.1.53-.09.03,0,.03.01.06.03.13.07.22.12.3.16.17.1.28.16.42.25.3.17.82.44,2.72,1.42,1.89.8,7.71,4.09,9.36,4.87.04.02.54.3,1.08.6.54.3,1.07.6.98.58.74.3,2.35,1.23,3.79,1.98.53.26-.37-.23-.74-.46l3.29,1.73c1.27.71,1.56.93.16.19,4.28,2.32,16.68,9.06,29.16,15.85,6.23,3.41,12.48,6.83,17.75,9.72,2.63,1.45,5.01,2.76,7.02,3.87,1.99,1.11,3.69,2.05,4.7,2.65-1-.68-3.92-2.25-4.92-2.92,2.44,1.29,3.55,2,4.61,2.55.44.32,1.46,1,1.4,1.6.05.31-.15.87-.47,1.38-.16.26-.35.51-.55.74-.19.23-.42.51-.59.62l-.43.52-.98.86c-8.78,8.44-1.98,1.95-9.86,9.35-4.54,4.3-6.63,6.42-9.19,8.77.38-.35,1.42-1.26.25-.13-.25.13-3.11,2.99-3.73,3.48-1.15,1.09-4.9,4.61-3.56,3.49-.67.56-4.03,3.69-2.07,1.78-1.13,1.06-2.23,2.07-3.03,2.85l1.47-1.34c-3.8,3.59-5.93,5.49-8.34,7.89l1.43-1.29c-2.27,2.15-4.17,3.94-5.13,4.71l2.32-2.22c-3.77,3.55-6.05,5.7-9.15,8.7l1.12-1.05c-3.94,3.84-24.83,23.65-28.42,27.24l1.75-1.55-3.12,3.05c.38-.35,1.35-1.64,1.68-1.91-1.69,1.61-5.16,4.92-9.51,9.06-1.08,1.04-2.22,2.14-3.4,3.27-1.18,1.13-2.4,2.32-3.64,3.58-1.14,1.18-2.35,2.25-3.81,2.88-1.42.66-3.04.9-4.53.62-.17-.04-.4-.09-.49-.12-.08-.02-.06-.02-.3-.19l-1.11-.76c-.74-.51-1.47-1.02-2.21-1.52-1.46-1.01-2.91-2.01-4.32-2.98-2.82-1.95-5.52-3.81-7.95-5.49-4.86-3.37-8.68-6.01-10.46-7.24-2.84-2.01-.44-.46-.4-.45-3.5-2.38-1.55-.97-4.51-3.02-.8-.57.2.07.67.37-1.3-.89-2.49-1.74-2.61-1.78,1.61,1.14.86.75,1.51,1.28l-3.81-2.64.21.07c-.85-.59-2.25-1.35-5.98-3.96-6.32-4.37-13.17-9.11-19.52-13.49.12.04,1.47.94,2.82,1.85-.85-.59-2.15-1.48-2.92-2.04,1.5,1.11-2.69-1.8-1.51-.95-4.74-3.09-10.68-7.35-14.85-10.11-.29-.11-3.15-1.25-5.75-2.29-.37-.18-.71-.46-.88-.84-.17-.38-.2-.8-.13-1.2.18-.89.47-1.38.69-1.84.48-.88.83-1.37.8-1.4,1.24-1.17,2.54-2.07,2.99-2.37-.43.22-2.98,2.04-4.17,3.6l-.14.32c-.26.36-.47.68-.68,1.17-.16.43-.26.79-.26,1.08-.03.58.07.88.13,1.07.08.19.11.3.21.46.09.17.25.4.66.76.25.17.68.48,1.38.96.03.04-.09-.03-.32-.17-.26-.17-.64-.43-1.12-.74-.43-.35-.86-.83-1.02-1.49-.17-.64-.08-1.38.23-2.08.17-.39.32-.62.46-.83.15-.22.3-.42.46-.61.31-.38.64-.72.96-1.04-.33.32-.65.66-.97,1.03-.16.19-.31.38-.45.6-.14.21-.28.42-.46.8-.31.69-.44,1.42-.28,2.08.15.67.57,1.19,1.04,1.57.37.25.71.48,1,.68.25.17.47.31.65.41,2.04,1.44-.28-.09,2.18,1.64,1.78,1.2,4.13,2.74,6.13,4.17h-.04c4.88,3.44,7.6,5.1,12.05,8.26l-.5-.32c1.6,1.11,4.7,3.27,7.57,5.26-.81-.58-1.49-1.11.24.07,3.27,2.31,5.55,3.83,7.93,5.54l2.35,1.54c5.74,3.96,19.96,13.75,34.19,23.54,1.78,1.22,3.56,2.45,5.32,3.66.88.61,1.76,1.21,2.63,1.81l.78.53c.2.13.48.2.68.27.16.05.32.09.48.12.63.13,1.25.21,1.86.21,2.47.05,4.78-.89,6.57-2.17.47-.3.86-.68,1.29-1.02.4-.36.76-.74,1.14-1.11.66-.66,1.31-1.31,1.94-1.94,5.25-5.1,9.67-9.28,12.2-11.69l-.39.39c15.51-14.65,47.33-44.72,63.36-59.87,2.53-2.29,5.94-5.53,8.55-7.95-1.46,1.34-1,.84.13-.22,3.94-3.72,4.07-3.86,4.2-4,.07-.07.13-.15.68-.69.28-.27.67-.65,1.24-1.2.29-.28.62-.59,1-.96.39-.39.91-.89,1.41-1.42.47-.62,1.18-1.45,1.63-2.72.22-.63.37-1.44.19-2.31-.17-.87-.69-1.67-1.3-2.21-.3-.3-.64-.51-.96-.74-.3-.18-.61-.36-.92-.54-.6-.34-1.23-.69-1.87-1.06-1.28-.71-2.64-1.47-4.06-2.25-5.68-3.12-12.32-6.76-18.93-10.38-13.22-7.2-26.29-14.32-31.22-17-5.35-2.76-11.94-6.38-17.19-9.08l.54.26c-.64-.33-1.61-.84-2.86-1.49-.63-.32-1.33-.69-2.08-1.08-.38-.19-.78-.4-1.2-.61-.23-.11-.46-.22-.69-.33-.16-.1-.39-.11-.58-.17-.1-.04-.2-.01-.3-.1-.1,0-.21-.02-.31-.01l-.5.07-.34.06c-.23.04-.46.09-.69.16-.46.12-.92.27-1.37.45-.9.36-1.78.83-2.62,1.39-.84.54-1.64,1.22-2.4,1.86-.76.61-1.53,1.24-2.31,1.87-3.13,2.53-6.4,5.18-9.51,7.7-6.21,5.04-11.72,9.51-13.93,11.3l.78-.61c-4.94,4.09-4.33,3.46-8.28,6.61.59-.33-3.64,3.18-5.26,4.51l.05-.07c-2.44,2.01-7.97,6.58-11.99,9.9l.12-.18c-3.34,2.8-9.72,7.93-12.14,9.91-5.58,4.49-14.22,11.36-21.6,17.46l-4.91,3.76-.69.58s-6.39,7.94,3.72.32l-.12.18,1.94-1.58c2.35-1.87,3.38-2.8,3.26-2.62l-3.2,2.59c2.35-1.89.74-.53-.13.22.98-.78,1.94-1.54,2.73-2.17.45-.39-.36.26-.73.54,1.25-1.04,2.96-2.51,4.52-3.73,2.4-1.94.22-.05,3.02-2.31,14.78-11.95,29.1-23.53,44.04-35.6.36-.26-.05.07-.47.43,4.49-3.66,8.47-6.91,12.55-10.24,1.15-.9,1.49-1.12,1.84-1.38-.35.25,5.29-4.34,11.06-9.04,2.88-2.34,5.8-4.71,8.01-6.51,2-1.75,3.62-2.32,3.7-2.36Z"/>
        </g>
      </g>
      <g>
        <path class="e" d="M173.44,66.1c-.08.93-.1,2.54-.12,4.06.07-1.17.11-2.42.12-4.06Z"/>
        <path class="e" d="M173.32,70.2s0,.02,0,.02c0-.02,0-.04,0-.05,0,.01,0,.02,0,.03Z"/>
        <path class="e" d="M8.07,90.35c-.14.41-.22.86-.32,1.33.1-.44.17-.89.32-1.33Z"/>
        <path class="e" d="M152.73,134.11l-.1.24c-2.71,2.39-.87.6-3.36,2.83-.88.98-4.18,3.65-4.99,4.47,0,0-.07.06-.19.15-.11.1-.26.22-.42.35-.3.25-.6.49-.58.44-.32.4-1.25,1.12-2.01,1.82-.27.26.22-.16.45-.33l-1.76,1.58c-.71.59-.92.7-.17.03-1.16,1.02-3.43,2.99-6.26,5.46-.71.62-1.45,1.28-2.22,1.95-.78.71-1.58,1.45-2.35,2.23-1.56,1.54-3.11,3.18-4.68,4.8-3.11,3.25-6.26,6.45-9.02,9.01-1.37,1.29-2.66,2.39-3.74,3.34-1.11.91-2.01,1.64-2.64,2.16.69-.48,2.24-1.76,2.88-2.19-1.29,1.16-1.98,1.59-2.53,2.12-.61.28-3.04,2.26-4.23,2.8l-.36.34-.74.42c-3.19,1.95-3.6,2.06-3.89,2.21-.14.07-.27.12-.72.33-.23.1-.54.26-.98.45-.45.17-1.04.39-1.8.67-.88.39-1.66.5-2.34.71-.34.09-.67.18-.98.27-.31.07-.62.09-.9.14-.58.08-1.1.15-1.61.22-.51.08-1.02.02-1.53.03.31,0,1.14.06.17.08-.08-.04-.73-.03-1.41-.01-.69,0-1.41-.11-1.65-.16-.96,0-4.02-.68-3-.36-.52-.09-3.22-.88-1.6-.47-.91-.26-1.78-.5-2.45-.7.38.15.77.24,1.16.37-3.07-.9-4.66-1.69-6.62-2.46.35.19.71.36,1.08.52-1.77-.77-3.24-1.48-3.86-1.94.59.31,1.19.59,1.79.86-2.88-1.41-4.58-2.36-6.91-3.73l.82.5c-.75-.42-2.27-1.32-4.15-2.54-.95-.61-2-1.29-3.1-2-1.07-.67-2.2-1.42-3.33-2.16-4.5-2.97-8.99-5.94-10.36-6.79l1.19.89-2.33-1.49c.27.18,1.25.53,1.47.71-2.47-1.65-10.09-6.79-17.8-11.72-1.93-1.23-3.86-2.45-5.74-3.59-.46-.28-.95-.57-1.36-.84-.41-.26-.81-.53-1.18-.83-.76-.58-1.43-1.22-2.03-1.87-2.41-2.61-3.58-5.25-4.06-6.44-.72-1.97-.02-.39-.01-.38-.46-1.18-.55-1.44-.63-1.65-.07-.21-.17-.37-.41-1.42-.13-.57.09.1.18.42-.26-.91-.35-1.78-.41-1.84.19,1.16,0,.69.03,1.2-.2-.92-.32-1.81-.41-2.77l.07.12c-.06-.65-.32-1.64-.57-4.52-.45-4.85-1-10.11-1.36-14.98.05.07.14,1.09.25,2.11-.06-.65-.14-1.65-.16-2.25.02,1.18-.2-2.04-.16-1.12-.42-3.55-.48-8.17-.49-11.28-.06-.14-.62-1.82-1.05-3.54-.22-.86-.38-1.73-.53-2.4-.1-.67-.17-1.14-.21-1.15.06-.26.11-.52.16-.76.08-.25.15-.49.22-.7.14-.42.25-.76.3-.92-.06.13-.26.7-.47,1.38-.2.68-.32,1.46-.43,2,.01.07.03.13.05.2-.27,2.45-.19.58-.38,2.96-.08.12.02-2.07.45-4.04-.4,1.78-.57,3.51-.54,4.22-.14,1.63-.11-.18-.22,1.78-.04,1.4.02,3.22.02,4.8v-.03c.01,3.85.34,5.86.52,9.34l-.05-.37c.05,1.23.3,3.64.47,5.85-.04-.63-.04-1.18.09.14.22,2.55.37,4.23.53,6.12l.24,1.77c.11,1.1.25,2.6.43,4.41.04.45.09.92.14,1.41.07.52.12,1.07.22,1.62.19,1.11.47,2.27.86,3.45.78,2.36,1.97,4.81,3.64,7.08.84,1.13,1.79,2.22,2.88,3.21l.84.72.89.68c.62.43,1.27.83,1.83,1.17,9.29,5.66,18.36,11.82,22.06,14.27l-.29-.18c5.64,3.74,14.09,9.62,23,15.18,4.54,2.68,9.36,5.04,14.14,6.37,4.75,1.38,9.41,1.72,13.07,1.14.29-.03.59-.05.89-.08.31-.05.62-.14.94-.21.64-.16,1.31-.32,1.98-.48.66-.19,1.28-.46,1.9-.68.61-.24,1.23-.43,1.74-.7-.59.28-.81.31-.74.28.12-.06.42-.2.85-.41,3.23-1.51,3.25-1.71,3.37-1.75.05-.04.11-.08.53-.34.43-.25,1.24-.71,2.7-1.72,1.72-1.12,4.51-3.21,7.65-5.94,3.15-2.73,6.6-6.13,9.93-9.57,3.34-3.43,6.54-6.93,9.48-9.49,3.01-2.62,5.46-4.76,6.8-5.92,2.8-2.6,6.44-5.68,9.2-8.2l-.27.27c1.51-1.33,6.53-5.75,11.61-10.23,2.54-2.25,5.09-4.49,7.21-6.46.27-.25.53-.5.78-.74.19-.19.41-.45.58-.68l.06-.09.02-.02h0c.2.08-1.78-.85-.91-.45.08.03.15.06.22.1.14.07.28.16.41.25.12.09.29.23.22.21l-.04.04.03-.03.06-.06c.46-.41.89-.8,1.29-1.15.84-.77,1.45-1.49,1.85-1.98l-.45.51c1.41-1.7,1.82-2.6,2.25-3.33.37-.76.76-1.41,1.16-3.15-.12.21.08-.62.12-1.7.07-.54.02-1.13.02-1.69,0-.57-.04-.98-.05-1.32l.03.05c-.09-1.97-.23-6.52-.25-9.83l.06.13c-.08-2.76-.04-7.95-.04-9.94.04-4.54.19-11.54.15-17.62l.21-3.92v-.57s-2.09-6.34-2.62,1.68l-.06-.13v1.59c-.05,1.9.01,2.78-.05,2.65l.03-2.61c-.03,1.91-.06.58-.08-.15-.02.79-.04,1.56-.05,2.21.02.38.03-.28.04-.57.01,1.03.06,2.46.02,3.71-.02,1.96-.1.12-.12,2.41-.05,6.03-.09,11.96-.14,17.91,0,2.98.01,5.96.02,8.97.02,1.51.03,3.01.09,4.55l.02.58v.5c-.02.33.02.67-.03,1-.04.33-.06.66-.11.99l-.21.97c-.09.23,0-.05.04-.35-.33,1.56-1,2.94-1.9,4.15-.43.61-.94,1.17-1.47,1.71-.27.27-.55.53-.84.8-.31.28-.58.5-.99.9-.07.07-.08.06-.2.2-.11.13-.21.27-.29.4l-.06.1h0s0,0,0,0h0c-.3-.14,2.61,1.23,1.37.65l-.13-.06-.25-.11-.49-.23c-.17-.09-.35-.17-.52-.26h0s-.02-.03-.02-.03c-.04,0,.01-.07-.07,0-.15.12-.26.21-.37.29.26-.18-3.11,2.93-6.64,6.06-3.53,3.12-7.14,6.31-7.26,6.42Z"/>
      </g>
    </g>
  </g>
</svg>