<?xml version="1.0" encoding="UTF-8"?>
<svg id="b" data-name="Camada_2" xmlns="http://www.w3.org/2000/svg" xmlns:xlink="http://www.w3.org/1999/xlink" viewBox="0 0 145.03 159.35">
  <defs>
    <style>
      .e {
        fill: #fff;
      }

      .f {
        fill: none;
      }

      .g {
        clip-path: url(#d);
      }

      .h {
        fill: #FFF;
      }
    </style>
    <clipPath id="d">
      <path class="f" d="M0,0v159.35h145.03V0H0ZM96.86,154.58l-4.76,1.96-6.84-1.48-4.46-4.62-6.38-9.52-10.03-14.42-5.07-9.61,3.08-3.23-8.13-10.7-8.01,3.23-10.38,1.18-13.27-6.87-8-9.74-4.68-12.38.38-8.93,4.14-10.04,7.43-7.62,3.28-2.06,9.39-3.38,9.63-.59,12.46,5.39,7.74,8.26,5.23,12.65v6.51l-3.69,11.15-6.61,7.76,8.93,12.23h5.65l7.67,10.39,11.41,16.61,5.01,9.11.33,4.82-1.45,3.93Z"/>
    </clipPath>
  </defs>
  <g id="c" data-name="Camada_1">
    <g>
      <g>
        <g>
          <path class="h" d="M71.44,106.3c-.37.16-.94.55-1.47.92.45-.22.91-.5,1.47-.92Z"/>
          <path class="h" d="M69.95,107.22h0s.02,0,.02,0c0,0-.01,0-.01,0Z"/>
          <path class="h" d="M72.45,110.36c.09.13.2.28.31.44-.1-.15-.2-.3-.31-.44Z"/>
          <path class="h" d="M66.72,132.55h.17c.82,1.32.11.47.9,1.66.46.37,1.25,2.01,1.6,2.37-.02,0,.35.59.28.59.2.12.41.59.67.95.11.12-.04-.12-.07-.23l.58.83c.18.35.19.47-.06.11.7,1.12,2.73,4.36,4.86,7.59,2.11,3.24,4.36,6.45,5.3,7.6-.17-.35-.76-1.04-.85-1.39.51.58.66.93.92,1.16.04.36,1,1.37,1.4,2.03l.37.21c.17.17.34.35.54.48.33.18.66.28.85.32,2.56.58.42.08,3.16.85,1.73.43,2.62.45,3.66.62-.16-.02-.56-.13-.07-.1.06.12,1.32.05,1.57.14.26-.02.8-.02,1.22-.08.43-.08.71-.15.41-.17.28.09,1.91-.43.97-.07.54-.13,1.08-.39,1.46-.63l-.71.33c.91-.43,1.6-.95,2.05-1.51.21-.28.45-.58.58-.83.12-.24.22-.47.32-.73l-.33.52c.47-.87.73-1.65.97-1.97-.08.33-.2.65-.32.96.61-1.53.8-2.51.89-3.84l-.05.47c.09-.85.17-3.49-.57-5.96-.35-1.22-.88-2.45-1.47-3.34-.57-.89-1-1.43-1.22-1.73l.27.59-.72-.95c.08.12.58.31.62.42-1.38-2.16-8.88-12.96-10.17-14.91-.49-.81.03-.23.05-.23-.68-.92-.36-.35-.91-1.16-.14-.23.09,0,.19.12-.25-.35-.45-.69-.51-.69.28.46.05.34.11.57l-.7-1.04h.09c-.16-.23-.57-.46-1.24-1.5-1.18-1.72-2.46-3.57-3.64-5.29.06,0,.33.35.6.69-.16-.23-.41-.58-.53-.81.22.46-.54-.69-.35-.35-1.02-1.15-2.02-2.87-2.89-3.91-.2,0-3.99-.75-4.15-.63-.24-.35-.47-.69-.53-.8.02.11.48.8.75,1.15h.13c.61.81.08.23.65,1.03-.04.09-.57-.64-1.04-1.29.4.59.76,1.22,1,1.4.36.57-.13,0,.3.69.35.46.85,1.04,1.19,1.61h-.02c.85,1.38,1.52,1.95,2.29,3.22l-.11-.11c.26.46.9,1.26,1.39,2.07-.14-.23-.22-.46.11,0,.57.92,1.04,1.5,1.43,2.19l.5.58c2.14,3.1,10.69,15.3,12.75,18.44l-.09-.12c.39.59.83,1.26,1.32,1.99.43.67.79,1.34,1.07,2.17.57,1.65.82,3.65.55,5.53-.13.94-.39,1.84-.77,2.66l-.3.6c-.09.1-.17.21-.24.34-.1.09-.21.16-.3.26-.12.07-.26.13-.38.21-1.19.5-3,.32-4.32.09-.82-.24-1.99-.53-2.9-.81.5.18.31.19-.09.07-2.23-.64-1.17-.3-1.94-.46-.06-.01-.09.03-.27-.17-1.03-1.01-3.45-4.42-5.67-7.78-2.24-3.38-4.38-6.78-5.16-8.07-.98-1.3-1.99-3.06-2.91-4.37l.11.12c-.96-1.41-6.01-9.68-7.09-11.36l.13.24c-.98-1.43-.74-1.3-1.42-2.49-.02.23-.87-1-1.18-1.48h.04c-.06-.08-.13-.19-.2-.3-.03-.03-.06-.07-.09-.1-.07-.08-.15-.18-.23-.28-.16-.12.02-.19.09-.28.1-.09.19-.16.31-.26,0,.03,0,.06.02.08.88-.72,2.73-1.99,3.41-2.48,1.6-1.09,4.11-2.71,6.17-4.29l1.49-.79.19-.16s.7-3.67-2.41-2.15v-.09s-.55.4-.55.4c-.68.44-.94.73-.94.63l.91-.63c-.68.45-.24.09,0-.12-.28.19-.56.37-.79.51-.11.12.11-.04.23-.1-.34.27-.8.69-1.26.97-.69.48-.11-.07-.91.49-2.11,1.46-4.2,2.89-6.29,4.33l-1.96,1.36-1.52,1.07-.38.27-.19.13-.1.07-.05.03.03.05.48.79c.9,1.46,1.8,2.94,2.71,4.42.04.12-.04,0-.13-.12.85,1.33,1.58,2.49,2.36,3.7.18.35.2.47.23.59-.04-.12,1.02,1.55,2.09,3.25,1.07,1.71,2.16,3.44,2.2,3.51Z"/>
        </g>
        <g>
          <path class="h" d="M11.63,74.93c.03-.27.05-.64.05-1.06,0-.41,0-.87.05-1.31-.17.67-.12,1.4-.1,2.36Z"/>
          <path class="h" d="M11.74,72.55h0s0,0,0,.02v-.02Z"/>
          <path class="h" d="M8.15,76.59c.03.25.06.54.09.83-.03-.28-.06-.56-.09-.83Z"/>
          <path class="h" d="M41.98,47.84l.15-.13c2.09.24.59.2,2.52.46.79-.06,3.15.74,3.8.92-.02,0,.88.33.8.37.32-.01.92.36,1.49.56.21.06-.14-.09-.27-.18.43.16.86.34,1.28.55.47.27.56.39.03.13.81.4,2.37,1.25,4.16,2.53,1.79,1.29,3.76,3.07,5.45,5.11,1.7,2.03,3.09,4.3,4.01,6.31.94,2.01,1.44,3.74,1.67,4.68,0-.51-.44-1.62-.45-2.1.35.96.45,1.44.6,1.87-.05.21.07.76.2,1.36.08.6.17,1.25.14,1.64.05.09.1.18.14.28l-.02.51c.14,1.11.13,1.73.14,2.09,0,.37.01.48.01.57,0,.19-.02.32-.23,2.28-.08.56-.15,1.05-.21,1.5-.09.43-.16.82-.23,1.17-.11.71-.33,1.27-.54,1.87.06-.18.28-.64.12-.07-.03.02-.07.12-.12.27-.02.04-.21.67-.21.76-.09.42-.2.86-.28.99-.14.58-.78,2.41-.45,1.83-.16.3-.81,1.89-.49.91-.21.54-.45,1.05-.6,1.45l.33-.67c-.36.91-.73,1.58-1.04,2.18-.3.59-.55,1.07-.87,1.69l.41-.6c-.58,1.02-1.09,1.87-1.47,2.17.21-.34.44-.67.63-1.03-1.04,1.64-1.73,2.58-2.74,3.85l.38-.43c-.61.82-2.72,3.29-5.32,5.17-2.57,1.92-5.54,3.12-6.42,3.48l.86-.21c-.51.21-1.01.45-1.53.61.19-.05.67-.52.82-.56-.82.29-2.54.84-4.77,1.12-2.22.3-4.96.28-7.65-.18-2.68-.46-5.28-1.34-7.3-2.29-2.04-.94-3.51-1.93-4.17-2.4-1.05-.8-.11-.25-.09-.26-1.31-.91-.63-.3-1.7-1.15-.28-.25.11,0,.28.11-.47-.36-.87-.74-.93-.74.55.51.23.39.42.66-.45-.37-.89-.76-1.32-1.16h.11c-.28-.27-.89-.51-2.04-1.81l-.36-.41c-.1-.12-.29-.34-.3-.36-.21-.31-.41-.62-.62-.93-.43-.64-.84-1.3-1.24-1.96-.8-1.33-1.54-2.69-2.15-4.04.06.02.35.58.65,1.12-.18-.36-.45-.89-.57-1.24.22.68-.56-1.11-.36-.59-.52-.95-.98-2.12-1.36-3.27-.17-.58-.39-1.21-.56-1.73-.17-.53-.33-1.02-.48-1.5-.1-.06-1.05-.87-1.94-1.77-.9-.89-1.74-1.88-1.84-1.87-.08-.65-.12-1.3-.12-1.5-.04.17.05,1.45.18,2.13l.12.1c.28,1.54-.02.37.27,1.88-.07.1-.37-1.28-.52-2.52.12,1.11.27,2.22.46,2.65.19,1.04-.14-.09.11,1.15.23.86.65,2.02.92,2.96h-.02c.3,1.1.66,2.05,1.02,2.89.38.86.72,1.66,1.19,2.72l-.13-.21c.29.75,1.06,2.14,1.73,3.41-.19-.37-.31-.71.13.04.78,1.46,1.44,2.37,2.06,3.41l.36.45c.05.06.19.26.3.36l.21.21c.96,1.11,2.72,2.99,5.23,4.81,2.48,1.84,5.71,3.6,9.17,4.72,3.45,1.14,7.1,1.64,10.21,1.58,3.13-.05,5.68-.63,7.1-1.07l-.22.08c2.18-.6,4.87-1.67,7.53-3.37,2.66-1.69,5.29-3.97,7.44-6.64,2.17-2.67,3.88-5.68,5.09-8.58.6-1.46,1.07-2.88,1.43-4.23.09-.34.17-.67.25-.99.08-.26.16-.51.24-.76.2-.62.4-1.21.51-1.78.21-.69.45-1.52.57-2.39.17-.86.24-1.73.3-2.49-.1.84-.14.54-.08-.11.09-2.29.01-2.37.01-2.46-.02-.08-.02-.18-.27-2.47-.2-1.31-.6-3.56-1.55-6.1-.93-2.55-2.43-5.37-4.3-7.88-1.85-2.54-4.11-4.72-6.17-6.34-2.05-1.65-3.92-2.7-4.94-3.27-2.26-1.09-5.19-2.28-7.63-2.74l.25.02c-.65-.13-2.05-.44-3.88-.65-1.83-.16-4.06-.2-6.3.06-2.25.28-4.36.9-6.15,1.38-1.78.57-3.2,1.13-3.87,1.49l.38-.16c-2.4,1.18-2.1.96-3.97,1.95.28-.06-1.56,1.3-2.27,1.8v-.04c-.49.43-1.33,1.1-2.19,1.9-.83.83-1.76,1.72-2.45,2.56v-.11c-.3.35-.65.77-1.03,1.22-.36.48-.74.98-1.11,1.48-.74.99-1.32,2.03-1.68,2.57-.37.65-.75,1.4-1.18,2.21-.39.83-.75,1.74-1.13,2.69-.63,1.93-1.16,4.05-1.25,6.06-.14.86-.31,1.72-.32,2.59l.03.38s.68,1.03,1.4,1.33c.74.31,1.5-.07,1.71-2.4l.08.08c-.03-.31.03-.62.04-.92.13-1.1.08-1.63.14-1.54l-.13,1.52c.11-1.11.09-.33.1.09.04-.46.09-.91.14-1.27-.01-.22-.04.16-.07.33-.01-.6.08-1.43.25-2.15.23-1.12.09-.06.42-1.34.91-3.38,2.57-6.49,4.74-9.21,2.17-2.72,4.85-5.07,7.92-6.89.16-.05-.01.04-.18.15.93-.53,1.79-1.08,2.71-1.47.45-.21.89-.43,1.34-.62.46-.17.91-.35,1.37-.52.52-.15.67-.17.84-.18-.08,0,.54-.18,1.52-.46.49-.15,1.07-.29,1.7-.45.63-.18,1.3-.3,1.97-.4,1.35-.23,2.73-.29,3.78-.29,1.05-.01,1.77.09,1.81.08Z"/>
        </g>
        <g>
          <path class="h" d="M53.39,103.73c-.02.07.03.13.06.2,0-.08,0-.14-.06-.2Z"/>
          <polygon class="h" points="53.46 103.92 53.46 103.92 53.46 103.92 53.46 103.92"/>
          <path class="h" d="M64.23,113.24s-.03-.03-.04-.04c.01.02.02.03.04.04Z"/>
          <path class="h" d="M55.51,106.76l.08-.05c.11.13-.05.11.06.22.14-.04.15.21.24.21,0,0,.04.07,0,.09.07-.03.06.05.11.08.03,0,0-.02.02-.05l.09.07s-.02.08-.05.05c.16.25.99,1.39,1.21,1.61.02-.07-.07-.12-.03-.2.09.03.06.11.13.1-.08.11.09.16.03.29l.07-.03v.06c.28.24.07.04.26.31.13.14.26.15.3.25,0-.01,0-.07.05-.05-.05.05.12.07.08.13.04.03.13.16.16.06-.02.05.05.17-.03.13.03.04.05.08.08.1l-.02-.06c.11.11.11.22.23.25v-.07c.05.07.11.13.06.21l-.08-.06c.1.12.16.19.28.26l-.03-.04c.17.07.77.71.95.76v-.1s.14.07.14.07c0-.01-.21.09-.2.06.18.22,1.14,1.32,1.26,1.56.04.11-.07.08-.08.09.1.08.09,0,.15.09,0,.03-.05.03-.06.02.04.03.05.08.07.06-.02-.06.06-.09.09-.15l.08.11-.05.03s.16-.03.23.1c.13.19.3.38.43.57-.03.02-.07,0-.12-.04.02.03.05.06.05.09,0-.08.09.05.08,0,.21.05.25.3.42.36.1-.06,1.77-1,1.88-1.09.03.04.05.08.05.09.02-.03-.03-.11-.07-.14l-.06.04c-.09-.07.02-.05-.05-.13.04-.04.12.03.18.09-.04-.07-.06-.16-.13-.14-.03-.07.06-.04.03-.13-.05-.04-.15-.07-.17-.15h0c-.06-.19-.24-.16-.3-.33h.03c0-.07-.12-.13-.15-.23,0,.03,0,.08-.05.03-.05-.12-.13-.16-.14-.26l-.1-.03c-.25-.33-1.35-1.57-1.62-1.9h.02c-.42-.48-1.24-1.51-1.72-1.97-.02-.12-.12-.22-.17-.31.02.06-.03.07-.05.03-.2-.26-.05,0-.27-.23-.28-.26-1.14-1.44-1.31-1.73-.18-.09-.27-.3-.42-.41h.03c-.14-.13-.76-1.02-.92-1.17v.03c-.15-.12-.06-.16-.14-.29-.06.08-.21-.02-.26-.06h.02c-.07-.08-.27-.19-.38-.31l.05-.03c-.13-.07-.26-.27-.33-.34-.12-.18-.25-.5-.49-.68v-.24s-.03-.01-.03-.01c0,0-1.62.91-1.68,1.45l-.05.03.05.05c.04.09.11.08.06.11l-.07-.1c.04.08-.02.05-.06.04.02.03.04.07.04.1.03,0,0-.02,0-.04.05.03.13.05.14.11.05.08-.06.06,0,.15.32.47.62.94.99,1.39,0,.02-.02.01-.04,0,.13.12.22.25.33.36,0,.05,0,.08-.02.1.02-.05.58.65.58.67Z"/>
        </g>
        <g>
          <path class="h" d="M59.6,99.45c-.02.07.01.13.04.19.02-.07,0-.13-.04-.19Z"/>
          <polygon class="h" points="59.64 99.65 59.64 99.65 59.64 99.64 59.64 99.65"/>
          <path class="h" d="M69.33,108.9s-.02-.03-.04-.04c0,.02.02.03.04.04Z"/>
          <path class="h" d="M61.4,102.42l.08-.05c.09.13-.06.1.04.21.14-.03.13.21.22.21,0,0,.03.07,0,.09.07-.02.06.05.1.08.03,0,.01-.02.02-.05l.08.07s-.03.08-.06.05c.14.24.84,1.36,1.04,1.58.02-.06-.06-.12,0-.19.09.04.05.1.11.1-.09.1.07.16,0,.28l.07-.02v.06c.25.24.06.04.22.3.11.14.24.15.27.25,0-.01,0-.07.05-.04-.05.04.11.07.07.13.03.03.11.16.15.06-.02.05.04.16-.04.12.02.04.04.08.07.09v-.06c.08.11.07.22.19.25v-.06c.05.07.1.13.05.2l-.07-.06c.09.12.14.19.25.26l-.02-.04c.16.08.69.7.86.75l.02-.09.12.07s-.21.08-.2.06c.16.21.99,1.3,1.09,1.53.03.1-.08.08-.09.08.09.08.09,0,.14.09,0,.03-.05.03-.06.02.03.03.04.08.06.06-.01-.06.07-.09.1-.14l.07.11-.05.03s.16-.02.21.1c.11.19.26.37.37.56-.03.02-.07-.01-.11-.04.02.02.05.06.04.09.02-.08.08.05.08,0,.2.06.22.29.37.36.1-.06,1.82-.91,1.93-.99.02.04.05.07.04.09.02-.03-.02-.11-.06-.13l-.07.04c-.08-.07.02-.05-.04-.13.05-.04.11.03.16.09-.04-.07-.04-.15-.12-.14-.02-.07.07-.04.04-.12-.05-.04-.14-.07-.15-.15h0c-.05-.18-.22-.16-.26-.32h.03c0-.06-.1-.12-.13-.23,0,.03-.02.08-.06.03-.03-.11-.11-.16-.12-.25l-.09-.03c-.22-.33-1.18-1.55-1.42-1.87h.02c-.37-.47-1.08-1.48-1.51-1.94,0-.11-.1-.21-.14-.3.01.06-.03.07-.06.03-.17-.25-.05,0-.24-.23-.25-.26-.98-1.41-1.13-1.7-.17-.09-.24-.3-.38-.4h.03c-.13-.13-.65-1-.79-1.15v.03c-.14-.12-.05-.15-.11-.29-.07.07-.2-.02-.24-.07h.02c-.06-.07-.25-.19-.35-.3l.05-.03c-.12-.07-.23-.27-.29-.34-.1-.18-.2-.49-.42-.67l.02-.23h-.03s-1.66.81-1.77,1.33l-.05.03.05.05c.03.08.1.08.05.11l-.06-.1c.04.08-.02.05-.06.04.02.03.03.06.03.1.03,0,.01-.02.01-.04.04.03.12.05.13.11.05.07-.07.05-.01.14.28.46.52.92.85,1.36-.01.02-.02.01-.04,0,.11.12.19.24.29.35,0,.05-.02.08-.03.1.02-.05.51.64.51.66Z"/>
        </g>
        <g>
          <path class="h" d="M36.37,55.05c.16.02.41-.04.66-.08-.2,0-.4.02-.66.08Z"/>
          <polygon class="h" points="37.03 54.96 37.03 54.96 37.02 54.96 37.03 54.96"/>
          <path class="h" d="M62.16,86.84c.03-.06.06-.13.09-.21-.03.07-.06.13-.09.21Z"/>
          <path class="h" d="M48.65,56.07l.07-.07c.54.23.11.17.62.36.26-.05.81.39,1,.41,0,0,.23.13.19.16.11-.03.25.11.41.17.06.01-.03-.04-.06-.08.12.05.23.11.35.17.12.1.13.15-.02.08.43.26,1.68,1,2.81,1.93,1.14.91,2.19,1.94,2.56,2.33-.05-.14-.31-.36-.34-.5.24.16.28.31.41.37-.02.17.4.48.45.73h.11s.06.14.06.14c.85.92.21.2.9,1.07.38.51.65.7.82,1.02-.03-.04-.08-.18.04-.06-.03.06.28.35.27.45.09.13.37.59.35.39.01.1.25.51.06.29.08.14.14.28.21.37l-.08-.19c.27.47.35.76.59,1.03l-.06-.19c.17.28.27.53.25.68l-.16-.29c.22.48.37.77.59,1.16-.02-.05-.04-.1-.06-.15.13.25.54,1.04.81,1.87.33.82.51,1.67.64,1.92v-.25c.06.14.12.29.16.43,0-.05-.25-.17-.24-.22.05.23.12.72.23,1.33.06.61.16,1.36.14,2.1.03.74-.06,1.48-.1,2.09-.1.6-.18,1.07-.22,1.29-.11.34-.11.04-.13.04-.07.43.03.2-.06.55-.04.1-.05-.03-.04-.09-.03.16-.09.3-.06.32.07-.19.13-.09.21-.16l-.12.46-.05-.03c-.03.1.1.31-.09.74l-.2.57-.1.29s-.12.35-.12.4c-.1.41-.21.82-.34,1.2-.03-.02,0-.19.03-.36-.03.1-.07.26-.12.35.11-.17-.06.34,0,.2-.05.61-.42,1.3-.54,1.81.11.07,1.41,1.85,1.52,1.92-.08.16-.15.32-.19.36.05-.03.21-.34.27-.52l-.06-.06c.15-.4.08-.07.24-.46.06,0-.07.36-.21.67.13-.27.29-.54.28-.68.13-.25.06.06.21-.25.08-.23.14-.56.27-.81h0c.29-.62.26-1.01.5-1.59v.07c.1-.2.18-.63.31-1.01-.04.11-.11.19-.05-.04.06-.19.1-.3.13-.42.06-.17.11-.33.19-.48l.05-.33c.28-.76.77-2.74.86-4.75.12-2.02-.17-4.02-.33-4.81l.02.06c-.23-1.22-.7-3.05-1.47-4.78-.74-1.74-1.77-3.34-2.54-4.34-.18-.35-.5-.79-.75-1.11.12.19.04.16-.07.02-.78-.96-.07-.05-.91-.98-.5-.52-1.68-1.79-3.01-2.87-1.33-1.09-2.75-2.01-3.31-2.34-.63-.29-1.38-.7-2-.96h.07c-.34-.12-1.43-.63-2.59-1.01-.58-.2-1.18-.35-1.67-.5-.5-.11-.91-.19-1.12-.23l.11.04c-.73-.1-.62-.16-1.19-.27.06.11-.57.08-.81.05v-.02c-.35-.01-1.18.01-1.77,0l.02-.05c-.5.07-1.43.03-1.79.09-.81.03-2.09.09-3.14.41l-.73.02-.1.04s-.16.51-.12,1.02c.04.51.28,1.02.95,1.06v.06s.24-.07.24-.07c.3-.05.43-.14.42-.09l-.41.09c.3-.06.1.02,0,.08.13-.03.25-.05.35-.06.05-.03-.05-.01-.1-.01.16-.06.37-.16.58-.17.31-.05.04.08.4.03,1.92-.28,3.8-.23,5.74.03.04.03-.01.02-.07.02.59.04,1.1.18,1.63.26.14.05.17.09.21.12-.04-.04.68.15,1.41.35.72.25,1.45.5,1.47.53Z"/>
        </g>
      </g>
      <g class="g">
        <g>
          <g>
            <path class="h" d="M126.48,125.41c-.34-.09-.72-.18-1.14-.29-.43-.07-.91-.15-1.4-.23-.5-.07-1.03-.15-1.56-.23-.53-.05-1.08-.09-1.61-.14.82.11,1.67.18,2.61.35.93.15,1.95.26,3.11.54Z"/>
            <path class="h" d="M120.73,124.52s-.02,0-.03,0c.03,0,.05,0,.08,0-.02,0-.03,0-.04,0Z"/>
            <path class="h" d="M129.5,129.08c.63-.11,1.33-.31,2.01-.58-.65.26-1.35.45-2.01.58Z"/>
            <path class="h" d="M39.69,101.53l-.13-.32c.04-4.95.17-1.44.17-6.02-.18-1.79.08-7.6,0-9.19,0,0,0-.12.01-.33,0-.2.01-.47.02-.74.02-.54.04-1.06.07-.99-.1-.69,0-2.31-.01-3.72-.02-.51-.04.38-.07.76v-3.24c.05-1.27.11-1.58.11-.2.07-4.23.24-16.5.62-28.83.35-12.34,1-24.73,1.25-29.27-.14,1.16-.26,3.97-.43,5.03.05-2.41.22-3.53.21-4.6.23-.91.37-5.27.68-7.08l-.03-.33s-.03-.01-.04-.02c.04-.13.1-.13.15-.18.06-.09.3-.24.62-.34.31-.1.67-.17,1-.21.66-.08,1.21-.1,1.62-.11.86,0,1.12-.01,1.34-.01.46,0,.76,0,5.46.04,5.44-.02,8.03-.16,11.05-.11-.45,0-1.65-.07-.24-.09.24.09,3.75-.07,4.44.03,1.38-.01,5.85,0,4.34-.13.76.06,4.75.09,2.37.14,1.35,0,2.65.02,3.62,0l-1.73-.03c4.55-.02,7.02.08,9.98-.03l-1.68-.05c2.72,0,4.99-.02,6.06.11l-2.79.04c4.51,0,7.23-.01,10.98-.08h-1.34c2.39-.07,9.85-.12,17.26-.18,3.7-.03,7.4-.07,10.44-.09.76,0,1.48-.02,2.15-.03.36-.01.62,0,.87.01.26,0,.5.04.73.07.92.15,1.61.4,2.03.6-.49-.3-1.03-.5-1.58-.67,1.05.22,2.06.67,2.94,1.32-.3-.28-1.47-.58-1.74-.72.76.33,1.93.99,2.9,2.3.48.65.91,1.44,1.17,2.37.28.94.28,1.89.27,3.28,0,5.22.01,11.5.02,17.76,0,12.52-.02,24.96-.02,28.72-.05,3.03-.15.54-.17.51.04,3.69.1,1.59.09,4.72-.02.86-.08-.18-.09-.66.01,1.37-.02,2.65.02,2.75.03-1.72.15-.99.23-1.72v4.03s-.09-.18-.09-.18c0,.9.21,2.28.17,6.24,0,6.68-.02,13.93-.02,20.65-.05-.1-.07-1.51-.1-2.93,0,.9,0,2.27-.02,3.1.08-1.62.05,2.82.09,1.55.09,2.46.1,5.28.09,8.03,0,1.37,0,2.73,0,4.02-.02,1.28.07,2.55-.02,3.41.03.09.17.65.17,1.51.01.86-.17,2.04-.65,3.17-.47,1.14-1.24,2.21-1.95,2.93-.7.73-1.29,1.14-1.27,1.19-1.54.6-3.19.68-3.68.65.21.02,1.12.03,2.17-.19,1.05-.21,2.21-.68,2.94-1.12l.2-.24c.83-.51,1.24-.88,1.49-1.09.24-.2.33-.27.42-.35.09-.07.17-.13.39-.36.22-.23.6-.61,1.12-1.41.09-.07-.31.68-1.17,1.59-.85.92-2.21,1.93-3.68,2.5,1.32-.51,2.51-1.3,3.38-2.13.88-.82,1.44-1.66,1.7-2.16.68-1.13.62-1.09.65-1.06.01,0,.03,0,.13-.19.1-.19.28-.57.52-1.35.15-.56.27-1.17.33-1.81.03-.32.04-.65.04-.98,0-.28,0-.57-.01-.85-.02-1.11-.03-2.26,0-3.33l.02.04c.09-5.2-.13-7.95-.04-12.7l.03.51c.05-1.68-.02-4.98.04-8.01-.02.86-.08,1.61-.09-.21.05-3.48,0-5.86.07-8.4l-.08-2.44c0-6.06-.03-21.06-.05-36.07-.02-7.5-.03-15.01-.04-21.4,0-1.6,0-3.13,0-4.57,0-.72,0-1.42,0-2.09,0-.34,0-.67,0-1-.02-.39-.03-.78-.07-1.15-.35-3.04-1.92-5.22-3.25-6.44.15.12.29.25.42.39-.97-1.01-2.2-1.91-3.67-2.48-.73-.28-1.51-.52-2.33-.63-.41-.08-.82-.09-1.24-.11-.46-.03-.73,0-1.11-.01-2.85,0-5.94,0-9.18.01-6.48,0-13.58.02-20.7.02-14.24.04-28.55.08-38.14.1-2.97-.08-7.06-.06-10.15-.09,1.72.03,1.13.09-.21.09-2.34,0-3.6,0-4.35.06-.73.06-.83.1-.92.12-.11.04-.19.02-.99.23-.4.13-1,.25-1.88.85-.43.29-.92.8-1.27,1.48-.08.17-.17.35-.23.54-.05.18-.1.38-.15.62-.03.11-.02.24-.03.34v.21c-.02.14-.03.28-.04.43-.35,5.49-1.11,18.75-1.52,31.85-.43,13.11-.63,26.06-.73,30.93.06,5.24-.1,11.78-.06,16.91l-.02-.52c-.01,1.38-.03,4.36-.06,8.16-.02,1.9-.04,4-.06,6.21,0,.55-.01,1.11-.02,1.67-.01.24.02.41.04.55l.05.45.1.9c.07.6.14,1.2.21,1.81l.42,1.8c.51,2.42,1.62,4.73,2.89,6.8,1.44,1.96,3.06,3.72,4.83,4.88.43.3.84.62,1.27.88.44.24.86.46,1.27.68.41.21.8.44,1.19.62.4.16.78.31,1.14.46,1.44.63,2.65.92,3.45,1.16l-.86-.27c.7.19,1.31.38,1.83.51.53.11.98.21,1.38.29.79.16,1.37.33,1.9.4.54.09,1.04.18,1.68.29.65.12,1.44.23,2.56.32-.29-.1.79-.03,2.17,0,1.38.01,3.06.09,3.98.06l-.07.03c2.8.07,9.09-.3,13.63-.71l-.17.09c3.81-.37,10.89-1.06,13.6-1.33,6.19-.56,15.75-1.48,23.91-1.24,1.75.16,3.49.35,5.18.69l.75.08s.48-.08,1.19-.19c.65-.12,1.44-.3,1.91-.57.47-.24.63-.61-.02-1.08-.66-.46-2.15-1.12-4.96-1.6l.19-.05c-.75-.1-1.49-.12-2.23-.19-2.67-.23-3.9-.1-3.72-.2,1.22.05,2.43.05,3.66.18-2.69-.21-.81-.13.22-.09-1.13-.12-2.21-.15-3.1-.2-.53.01.39.04.8.07-.72,0-1.59-.02-2.49-.01-.9.02-1.83.04-2.71.03-2.72.07-.18-.12-3.35-.02-8.35.38-16.45,1.33-24.54,2.04-8.07.68-16.2,1.31-24.26.53-.36-.06.07-.02.54,0-4.84-.42-9.09-1.33-12.81-3.28-.5-.29-.82-.48-1.05-.62-.22-.15-.33-.28-.46-.38.06.06-.17-.11-.65-.43-.23-.17-.54-.36-.87-.61-.3-.28-.64-.61-1.02-.96-1.48-1.44-3.17-3.77-4.03-6.6-.36-1.43-.79-2.86-.88-4.3-.04-.36-.08-.71-.12-1.05-.02-.17-.04-.34-.06-.5-.01-.12,0,0,0-.13v-.27c0-.71.01-1.38.02-2,.03-2.49.04-4.19.04-4.3Z"/>
          </g>
          <g>
            <path class="e" d="M55.29,2.16v16.69M71.12,2.16v16.69M86.95,2.16v16.69M102.78,2.16v16.69M118.62,2.16v16.69"/>
            <g>
              <path class="f" d="M55.29,2.16v16.69M71.12,2.16v16.69M86.95,2.16v16.69M102.78,2.16v16.69M118.62,2.16v16.69"/>
              <g>
                <path class="h" d="M116.98,2.22c-.08.05-.09.14-.1.22.08-.06.11-.13.1-.22Z"/>
                <polygon class="h" points="116.87 2.45 116.87 2.45 116.87 2.45 116.87 2.45"/>
                <path class="h" d="M120.54,18.79s0-.05,0-.07c0,.02,0,.05,0,.07Z"/>
                <path class="h" d="M116.63,6.53h.14c0,.21-.16.07-.12.26.19.07-.02.31.08.37-.02,0-.02.09-.08.08.1.03.02.09.05.15.03.02.03-.02.06-.03l.04.13c-.03.05-.09.06-.11,0-.04.34-.14,1.98-.09,2.35.08-.05.03-.16.15-.2.07.1-.02.14.05.19-.18.04-.04.21-.23.29l.1.03-.06.05c.11.43.05.1.03.48.02.22.16.32.11.45,0-.02.07-.07.09,0-.09,0,.07.15-.03.18.01.06,0,.24.13.18-.06.03-.09.19-.14.1,0,.05-.02.11,0,.15l.03-.07c.02.18-.08.28.03.4l.05-.07c0,.11.02.2-.11.24l-.04-.11c0,.18.01.29.08.44v-.05c.13.19.23,1.2.38,1.38l.1-.08.08.15s-.31-.07-.28-.09c0,.33.08,2.03.02,2.34-.05.12-.15.02-.17.02.04.15.1.06.09.19-.02.03-.08,0-.09-.03.01.06-.02.11.02.11.03-.07.15-.04.23-.07v.16s-.09,0-.09,0c0,.04.21.09.17.25-.03.27,0,.56-.02.83-.05,0-.07-.06-.1-.12,0,.04,0,.09-.02.13.08-.07.05.11.09.06.18.2.02.46.14.63.17.02,2.85.38,3.04.38,0,.05,0,.11-.02.13.05-.01.07-.12.04-.18h-.11c-.04-.14.06-.04.06-.17.09,0,.1.11.11.21.01-.09.07-.19-.02-.22.04-.09.11,0,.14-.1-.03-.08-.11-.17-.06-.26h.02c.09-.21-.13-.32-.04-.51l.03.02c.05-.07-.02-.2.04-.32-.02.03-.08.07-.09,0,.05-.14,0-.24.07-.34l-.08-.1c.02-.49-.1-2.42-.12-2.91v.02c-.03-.75-.02-2.28-.14-3.06.08-.12.06-.28.09-.41-.03.07-.09.05-.09,0,0-.38-.06-.03-.09-.41-.08-.44.01-2.14.08-2.53-.12-.21-.03-.47-.11-.68l.03.02c-.05-.22.07-1.48.02-1.74l-.02.03c-.08-.23.06-.19.1-.37-.14.02-.22-.17-.23-.24h.03c-.02-.11-.14-.36-.16-.54h.08c-.08-.15-.05-.43-.06-.54.03-.25.16-.64.06-.97l.21-.22-.02-.03s-2.59-.35-3.15.09h-.08s0,.08,0,.08c-.04.11.05.15-.02.15v-.14c-.01.11-.05.03-.1,0,0,.04-.02.09-.04.12.03.02.03-.02.05-.03.03.06.1.14.06.21,0,.11-.12,0-.13.13-.06.67-.15,1.31-.13,1.99-.03.02-.03,0-.04-.02.03.2.02.38.05.57-.03.05-.08.07-.11.08.06-.03.07,1.02.05,1.04Z"/>
              </g>
              <g>
                <path class="h" d="M101.14,2.22c-.08.05-.09.14-.1.22.08-.06.11-.13.1-.22Z"/>
                <polygon class="h" points="101.04 2.45 101.04 2.45 101.04 2.45 101.04 2.45"/>
                <path class="h" d="M104.71,18.79s0-.05,0-.07c0,.02,0,.05,0,.07Z"/>
                <path class="h" d="M100.8,6.53h.14c0,.21-.16.07-.12.26.19.07-.02.31.08.37-.02,0-.02.09-.08.08.1.03.02.09.05.15.03.02.03-.02.06-.03l.04.13c-.03.05-.09.06-.11,0-.04.34-.14,1.98-.09,2.35.08-.05.03-.16.15-.2.07.1-.02.14.05.19-.18.04-.04.21-.23.29l.1.03-.06.05c.11.43.05.1.03.48.02.22.16.32.11.45,0-.02.07-.07.09,0-.09,0,.07.15-.03.18.01.06,0,.24.13.18-.06.03-.09.19-.14.1,0,.05-.02.11,0,.15l.03-.07c.02.18-.08.28.03.4l.05-.07c0,.11.02.2-.11.24l-.04-.11c0,.18.01.29.08.44v-.05c.13.19.23,1.2.38,1.38l.1-.08.08.15s-.31-.07-.28-.09c0,.33.08,2.03.02,2.34-.05.12-.15.02-.17.02.04.15.1.06.09.19-.02.03-.08,0-.09-.03.01.06-.02.11.02.11.03-.07.15-.04.23-.07v.16s-.09,0-.09,0c0,.04.21.09.17.25-.03.27,0,.56-.02.83-.05,0-.07-.06-.1-.12,0,.04,0,.09-.02.13.08-.07.05.11.09.06.18.2.02.46.14.63.17.02,2.85.38,3.04.38,0,.05,0,.11-.02.13.05-.01.07-.12.04-.18h-.11c-.04-.14.06-.04.06-.17.09,0,.1.11.11.21.01-.09.07-.19-.02-.22.04-.09.11,0,.14-.1-.03-.08-.11-.17-.06-.26h.02c.09-.21-.13-.32-.04-.51l.03.02c.05-.07-.02-.2.04-.32-.02.03-.08.07-.09,0,.05-.14,0-.24.07-.34l-.08-.1c.02-.49-.1-2.42-.12-2.91v.02c-.03-.75-.02-2.28-.14-3.06.08-.12.06-.28.09-.41-.03.07-.09.05-.09,0,0-.38-.06-.03-.09-.41-.08-.44.01-2.14.08-2.53-.12-.21-.03-.47-.11-.68l.03.02c-.05-.22.07-1.48.02-1.74l-.02.03c-.08-.23.06-.19.1-.37-.14.02-.22-.17-.23-.24h.03c-.02-.11-.14-.36-.16-.54h.08c-.08-.15-.05-.43-.06-.54.03-.25.16-.64.06-.97l.21-.22-.02-.03s-2.59-.35-3.15.09h-.08s0,.08,0,.08c-.04.11.05.15-.02.15v-.14c-.01.11-.05.03-.1,0,0,.04-.02.09-.04.12.03.02.03-.02.05-.03.03.06.1.14.06.21,0,.11-.12,0-.13.13-.06.67-.15,1.31-.13,1.99-.03.02-.03,0-.04-.02.03.2.02.38.05.57-.03.05-.08.07-.11.08.06-.03.07,1.02.05,1.04Z"/>
              </g>
              <g>
                <path class="h" d="M85.31,2.22c-.08.05-.09.14-.1.22.08-.06.11-.13.1-.22Z"/>
                <polygon class="h" points="85.21 2.45 85.21 2.45 85.21 2.45 85.21 2.45"/>
                <path class="h" d="M88.88,18.79s0-.05,0-.07c0,.02,0,.05,0,.07Z"/>
                <path class="h" d="M84.97,6.53h.14c0,.21-.16.07-.12.26.19.07-.02.31.08.37-.02,0-.02.09-.08.08.1.03.02.09.05.15.03.02.03-.02.06-.03l.04.13c-.03.05-.09.06-.11,0-.04.34-.14,1.98-.09,2.35.08-.05.03-.16.15-.2.07.1-.02.14.05.19-.18.04-.04.21-.23.29l.1.03-.06.05c.11.43.05.1.03.48.02.22.16.32.11.45,0-.02.07-.07.09,0-.09,0,.07.15-.03.18.01.06,0,.24.13.18-.06.03-.09.19-.14.1,0,.05-.02.11,0,.15l.03-.07c.02.18-.08.28.03.4l.05-.07c0,.11.02.2-.11.24l-.04-.11c0,.18.01.29.08.44v-.05c.13.19.23,1.2.38,1.38l.1-.08.08.15s-.31-.07-.28-.09c0,.33.08,2.03.02,2.34-.05.12-.15.02-.17.02.04.15.1.06.09.19-.02.03-.08,0-.09-.03.01.06-.02.11.02.11.03-.07.15-.04.23-.07v.16s-.09,0-.09,0c0,.04.21.09.17.25-.03.27,0,.56-.02.83-.05,0-.07-.06-.1-.12,0,.04,0,.09-.02.13.08-.07.05.11.09.06.18.2.02.46.14.63.17.02,2.85.38,3.04.38,0,.05,0,.11-.02.13.05-.01.07-.12.04-.18h-.11c-.04-.14.06-.04.06-.17.09,0,.1.11.11.21.01-.09.07-.19-.02-.22.04-.09.11,0,.14-.1-.03-.08-.11-.17-.06-.26h.02c.09-.21-.13-.32-.04-.51l.03.02c.05-.07-.02-.2.04-.32-.02.03-.08.07-.09,0,.05-.14,0-.24.07-.34l-.08-.1c.02-.49-.1-2.42-.12-2.91v.02c-.03-.75-.02-2.28-.14-3.06.08-.12.06-.28.09-.41-.03.07-.09.05-.09,0,0-.38-.06-.03-.09-.41-.08-.44.01-2.14.08-2.53-.12-.21-.03-.47-.11-.68l.03.02c-.05-.22.07-1.48.02-1.74l-.02.03c-.08-.23.06-.19.1-.37-.14.02-.22-.17-.23-.24h.03c-.02-.11-.14-.36-.16-.54h.08c-.08-.15-.05-.43-.06-.54.03-.25.16-.64.06-.97l.21-.22-.02-.03s-2.59-.35-3.15.09h-.08s0,.08,0,.08c-.04.11.05.15-.02.15v-.14c-.01.11-.05.03-.1,0,0,.04-.02.09-.04.12.03.02.03-.02.05-.03.03.06.1.14.06.21,0,.11-.12,0-.13.13-.06.67-.15,1.31-.13,1.99-.03.02-.03,0-.04-.02.03.2.02.38.05.57-.03.05-.08.07-.11.08.06-.03.07,1.02.05,1.04Z"/>
              </g>
              <g>
                <path class="h" d="M69.48,2.22c-.08.05-.09.14-.1.22.08-.06.11-.13.1-.22Z"/>
                <polygon class="h" points="69.37 2.45 69.37 2.45 69.37 2.45 69.37 2.45"/>
                <path class="h" d="M73.04,18.79s0-.05,0-.07c0,.02,0,.05,0,.07Z"/>
                <path class="h" d="M69.14,6.53h.14c0,.21-.16.07-.12.26.19.07-.02.31.08.37-.02,0-.02.09-.08.08.1.03.02.09.05.15.03.02.03-.02.06-.03l.04.13c-.03.05-.09.06-.11,0-.04.34-.14,1.98-.09,2.35.08-.05.03-.16.15-.2.07.1-.02.14.05.19-.18.04-.04.21-.23.29l.1.03-.06.05c.11.43.05.1.03.48.02.22.16.32.11.45,0-.02.07-.07.09,0-.09,0,.07.15-.03.18.01.06,0,.24.13.18-.06.03-.09.19-.14.1,0,.05-.02.11,0,.15l.03-.07c.02.18-.08.28.03.4l.05-.07c0,.11.02.2-.11.24l-.04-.11c0,.18.01.29.08.44v-.05c.13.19.23,1.2.38,1.38l.1-.08.08.15s-.31-.07-.28-.09c0,.33.08,2.03.02,2.34-.05.12-.15.02-.17.02.04.15.1.06.09.19-.02.03-.08,0-.09-.03.01.06-.02.11.02.11.03-.07.15-.04.23-.07v.16s-.09,0-.09,0c0,.04.21.09.17.25-.03.27,0,.56-.02.83-.05,0-.07-.06-.1-.12,0,.04,0,.09-.02.13.08-.07.05.11.09.06.18.2.02.46.14.63.17.02,2.85.38,3.04.38,0,.05,0,.11-.02.13.05-.01.07-.12.04-.18h-.11c-.04-.14.06-.04.06-.17.09,0,.1.11.11.21.01-.09.07-.19-.02-.22.04-.09.11,0,.14-.1-.03-.08-.11-.17-.06-.26h.02c.09-.21-.13-.32-.04-.51l.03.02c.05-.07-.02-.2.04-.32-.02.03-.08.07-.09,0,.05-.14,0-.24.07-.34l-.08-.1c.02-.49-.1-2.42-.12-2.91v.02c-.03-.75-.02-2.28-.14-3.06.08-.12.06-.28.09-.41-.03.07-.09.05-.09,0,0-.38-.06-.03-.09-.41-.08-.44.01-2.14.08-2.53-.12-.21-.03-.47-.11-.68l.03.02c-.05-.22.07-1.48.02-1.74l-.02.03c-.08-.23.06-.19.1-.37-.14.02-.22-.17-.23-.24h.03c-.02-.11-.14-.36-.16-.54h.08c-.08-.15-.05-.43-.06-.54.03-.25.16-.64.06-.97l.21-.22-.02-.03s-2.59-.35-3.15.09h-.08s0,.08,0,.08c-.04.11.05.15-.02.15v-.14c-.01.11-.05.03-.1,0,0,.04-.02.09-.04.12.03.02.03-.02.05-.03.03.06.1.14.06.21,0,.11-.12,0-.13.13-.06.67-.15,1.31-.13,1.99-.03.02-.03,0-.04-.02.03.2.02.38.05.57-.03.05-.08.07-.11.08.06-.03.07,1.02.05,1.04Z"/>
              </g>
              <g>
                <path class="h" d="M53.65,2.22c-.08.05-.09.14-.1.22.08-.06.11-.13.1-.22Z"/>
                <polygon class="h" points="53.54 2.45 53.54 2.45 53.54 2.45 53.54 2.45"/>
                <path class="h" d="M57.21,18.79s0-.05,0-.07c0,.02,0,.05,0,.07Z"/>
                <path class="h" d="M53.3,6.53h.14c0,.21-.16.07-.12.26.19.07-.02.31.08.37-.02,0-.02.09-.08.08.1.03.02.09.05.15.03.02.03-.02.06-.03l.04.13c-.03.05-.09.06-.11,0-.04.34-.14,1.98-.09,2.35.08-.05.03-.16.15-.2.07.1-.02.14.05.19-.18.04-.04.21-.23.29l.1.03-.06.05c.11.43.05.1.03.48.02.22.16.32.11.45,0-.02.07-.07.09,0-.09,0,.07.15-.03.18.01.06,0,.24.13.18-.06.03-.09.19-.14.1,0,.05-.02.11,0,.15l.03-.07c.02.18-.08.28.03.4l.05-.07c0,.11.02.2-.11.24l-.04-.11c0,.18.01.29.08.44v-.05c.13.19.23,1.2.38,1.38l.1-.08.08.15s-.31-.07-.28-.09c0,.33.08,2.03.02,2.34-.05.12-.15.02-.17.02.04.15.1.06.09.19-.02.03-.08,0-.09-.03.01.06-.02.11.02.11.03-.07.15-.04.23-.07v.16s-.09,0-.09,0c0,.04.21.09.17.25-.03.27,0,.56-.02.83-.05,0-.07-.06-.1-.12,0,.04,0,.09-.02.13.08-.07.05.11.09.06.18.2.02.46.14.63.17.02,2.85.38,3.04.38,0,.05,0,.11-.02.13.05-.01.07-.12.04-.18h-.11c-.04-.14.06-.04.06-.17.09,0,.1.11.11.21.01-.09.07-.19-.02-.22.04-.09.11,0,.14-.1-.03-.08-.11-.17-.06-.26h.02c.09-.21-.13-.32-.04-.51l.03.02c.05-.07-.02-.2.04-.32-.02.03-.08.07-.09,0,.05-.14,0-.24.07-.34l-.08-.1c.02-.49-.1-2.42-.12-2.91v.02c-.03-.75-.02-2.28-.14-3.06.08-.12.06-.28.09-.41-.03.07-.09.05-.09,0,0-.38-.06-.03-.09-.41-.08-.44.01-2.14.08-2.53-.12-.21-.03-.47-.11-.68l.03.02c-.05-.22.07-1.48.02-1.74l-.02.03c-.08-.23.06-.19.1-.37-.14.02-.22-.17-.23-.24h.03c-.02-.11-.14-.36-.16-.54h.08c-.08-.15-.05-.43-.06-.54.03-.25.16-.64.06-.97l.21-.22-.02-.03s-2.59-.35-3.15.09h-.08s0,.08,0,.08c-.04.11.05.15-.02.15v-.14c-.01.11-.05.03-.1,0,0,.04-.02.09-.04.12.03.02.03-.02.05-.03.03.06.1.14.06.21,0,.11-.12,0-.13.13-.06.67-.15,1.31-.13,1.99-.03.02-.03,0-.04-.02.03.2.02.38.05.57-.03.05-.08.07-.11.08.06-.03.07,1.02.05,1.04Z"/>
              </g>
            </g>
          </g>
          <g>
            <path class="h" d="M67.01,51.98c-.08.51-.09,1.38-.1,2.2.08-.64.11-1.31.1-2.2Z"/>
            <polygon class="h" points="66.91 54.2 66.91 54.21 66.91 54.19 66.91 54.2"/>
            <path class="h" d="M68.9,49.43c-.16-.06-.33-.15-.51-.25.16.09.33.19.51.25Z"/>
            <path class="h" d="M95.67,71.85l.13-.14c1.96,0,.57.16,2.38.12.18-.05.45-.07.78-.08.41-.02.9-.03,1.38-.11.95-.14,1.87-.47,2.2-.71,0,.05,1-.53.97-.45.24-.28.96-.71,1.43-1.27.15-.22-.14.13-.32.23.39-.39.73-.82,1.04-1.28.37-.52.51-.64.15-.03.29-.46.72-1.15,1.03-2.11.15-.48.27-1.02.34-1.61.02-.29.03-.59.05-.9,0-.24,0-.49,0-.74.01-2.03.03-4.47.04-6.91,0-1.08.01-2.15.01-3.19,0,0,0-.01.01-.01,0,0,0,0,0,0h0s.1-.05.1-.05l.42-.23c.27-.17.53-.34.79-.5,2.02-1.39,3.2-3.04,3.74-3.94-.33.44-1.09,1.5-1.52,1.78.68-.87,1.04-1.26,1.25-1.71.44-.23,1.24-2.1,1.64-2.86,0-.11,0-.22,0-.34l.21-.52c.51-2.42.3-2.73.36-2.93-.02-.21.13-.36-.13-2.53-.2-1.25-.57-2.12-.88-2.84-.35-.71-.64-1.28-1-1.88.11.18.34.68-.02.14.05-.17-1.01-1.39-1.15-1.67-.22-.22-.65-.75-1.04-1.07-.38-.33-.65-.53-.44-.25-.18-.31-1.67-1.38-.75-.79-.48-.39-1-.69-1.39-.9l.66.44c-1.78-1.06-2.86-1.52-4.2-1.72l.73.24c-.6-.16-1.15-.29-1.62-.35-.47-.1-.84-.15-1.08-.22.43,0,.85.05,1.28.11-2.04-.29-3.36-.22-5.03.24l.6-.13c-.12.03-.27.07-.44.11-.16.04-.41.12-.44.13-.09.04-.14.07-.24.13-.04-.05-.09-.12-.17-.21-.16-.21-.33-.43-.5-.65-.2-.23-.41-.47-.62-.71-.88-.93-1.94-1.75-3.03-2.35-2.19-1.24-4.4-1.5-5.15-1.5.3.06.59.12.88.22-.55-.07-1.11-.11-1.66-.09.19,0,.83-.26.99-.21-1.01-.11-3.39-.27-6.04.8-1.31.52-2.66,1.31-3.82,2.38-.59.52-1.13,1.12-1.61,1.75l-.35.48-.1.15c-.07.1-.1.19-.16.27-.16-.06-.25-.1-.47-.16-.55-.14-1.11-.25-1.65-.32-1.09-.14-2.12-.08-3.03.02-1.82.23-3.17.78-3.81,1.09-1.24.54-.29-.03-.28-.05-.75.37-.86.54-.98.62-.11.11-.23.14-.79.56-.32.22.02-.11.19-.25-.49.38-.98.69-.97.77.63-.45.45-.15.75-.29-.49.34-.93.75-1.37,1.15v-.11c-.27.3-.6.83-1.62,2.23-1.7,2.43-2.36,5.77-1.94,8.7-.04-.04-.18-.65-.22-1.28,0,.4.1,1.01.11,1.38-.04-.72.28,1.22.22.66.31,1.05.73,2.22,1.3,3.28.56,1.07,1.28,2.02,1.98,2.67.12,0,1.34.25,2.47.18,1.14-.03,2.14-.34,2.18-.43.37.22.77.36.89.44l-1.97.42s.02-.02.02-.02c0,0-.01,0-.03.02l1.98-.42c-.14-.1-.87-.45-1.26-.66l-.12.05c-.93-.55-.19-.18-1.04-.79.01-.1.77.49,1.52.86-.67-.36-1.23-.87-1.52-.99-.51-.5.12-.02-.48-.62-.46-.39-1.03-.96-1.37-1.58h.02c-.43-.73-.72-1.3-.96-1.88-.25-.58-.43-1.17-.5-1.95l.05.16c-.04-.54-.16-1.62.03-2.59-.06.27-.16.51-.08-.08.21-1.12.43-1.87.84-2.59.09-.25.17-.51.29-.75.28-.48.72-1.15,1.39-1.84.67-.68,1.55-1.39,2.64-1.91,1.08-.53,2.35-.88,3.67-.94.66-.06,1.31,0,1.95.11l.48.1.28.07c.17.04.36.11.54.17.72.26,1.45.57,2.14.84.33-.58.64-1.19.97-1.74l.49-.83c.11-.16.17-.24.26-.36.33-.45.7-.86,1.09-1.23.77-.73,1.61-1.28,2.43-1.66,1.64-.77,3.13-.89,4.01-.88-.05,0-.11,0-.16.01,1.3-.01,2.93.24,4.5,1.09.78.42,1.55.98,2.23,1.66.35.34.66.72.95,1.12l.11.15.21.35.43.72c.27.49.55.98.83,1.48.7-.28,1.43-.59,2.14-.85.36-.13.67-.2.79-.23.16-.04.33-.08.49-.11.66-.12,1.32-.18,2-.12,1.35.06,2.67.41,3.82.98,2.34,1.14,3.86,3.16,4.59,4.85.33.94.63,2.29.62,3.33,0-.58.07-.39.09.07.02.79-.04,1.2-.06,1.42-.02.22-.01.25,0,.28,0,.03,0,.06-.02.28-.03.22-.09.64-.34,1.41-.28.88-.95,2.39-2.34,3.75-.34.34-.73.67-1.14.97-.2.16-.43.29-.65.43-.11.08-.23.13-.35.2l-.22.12c-.12.07-.25.13-.38.18l-.75.35-.38.17-.19.09c-.06.03-.15.04-.12.13,0,.56,0,1.12,0,1.68,0,.71,0,1.44,0,2.16-.02,2.59-.03,5.16-.04,7.33,0,.54,0,1.06-.01,1.54,0,.12,0,.24,0,.36l-.02.26c0,.17-.03.33-.06.48-.11.61-.3,1.08-.48,1.39-.29.71-.88,1.41-1.62,1.87-.73.48-1.59.7-2.35.76l.15-.04c-.11,0-.21.02-.42.03-.21,0-.46,0-.73,0-.55,0-1.22,0-1.97,0-1.5,0-3.33-.01-5.16-.02-3.67-.02-7.39-.03-8.65-.01l.34.02c-2.21.08-1.91-.06-3.65-.1.23.14-1.66.22-2.38.23l.03-.03c-.27,0-.63.02-1.04.03-.21,0-.43.02-.65.02-.18,0-.37,0-.57,0-.76-.04-1.58-.31-2.18-.69l.09-.04c-.52-.27-1.19-.83-1.61-1.53-.44-.69-.64-1.44-.69-1.86-.05-.24-.04-.5-.05-.77,0-.35.01-.71.02-1.09.01-.75.03-1.56.04-2.4.02-1.67.03-3.44-.02-5.09l.21-2.13-.02-.31s-2.59-3.43-3.15.92l-.08-.07v.86c-.03,1.03.06,1.51-.02,1.44v-1.41c-.01,1.04-.05.31-.1-.08,0,.43-.02.85-.04,1.2.03.2.03-.15.05-.31.03.56.1,1.33.06,2.01,0,1.06-.12.07-.13,1.31-.02,1.63-.03,3.25-.05,4.87v.31s.01.39.01.39c0,.26.03.52.07.78.07.52.19,1.03.37,1.52.34.99.88,1.91,1.56,2.7,1.37,1.58,3.38,2.62,5.5,2.78.25.01.57.03.76.03h.61s1.22,0,1.22,0c.82,0,1.64,0,2.46,0,.15.03-.03.03-.22.04,1.99-.02,3.75-.04,5.57-.05.5.03.64.08.79.11-.15-.03,2.35-.05,4.91-.06,2.56,0,5.16,0,5.26,0Z"/>
          </g>
          <g>
            <path class="h" d="M68.77,61.06c.11.08.31.09.49.1-.14-.08-.29-.11-.49-.1Z"/>
            <polygon class="h" points="69.27 61.17 69.27 61.16 69.27 61.16 69.27 61.17"/>
            <path class="h" d="M105.13,57.49s-.1,0-.15,0c.05,0,.1,0,.15,0Z"/>
            <path class="h" d="M78.22,61.4l.03-.14c.44,0,.13.16.53.12.16-.19.67.02.81-.08,0,.02.2.02.18.08.06-.1.2-.02.33-.05.05-.03-.03-.03-.07-.06l.29-.04c.11.03.14.09.02.11.75.04,4.35.14,5.15.09-.1-.08-.35-.03-.45-.15.21-.07.31.02.41-.05.08.18.47.04.63.23l.06-.1.11.06c.94-.11.21-.05,1.05-.03.48-.02.71-.16.98-.11-.04,0-.15-.07-.02-.09.02.09.33-.07.39.03.12-.01.52,0,.38-.13.07.06.42.09.21.14.12,0,.23.02.32,0l-.15-.04c.4-.02.62.08.88-.03l-.15-.05c.24,0,.44-.02.54.11l-.25.04c.4,0,.64-.01.97-.08h-.12c.42-.13,2.64-.23,3.03-.38l-.18-.1.34-.08s-.16.31-.2.28c.72,0,4.46-.08,5.13-.02.27.05.05.15.05.17.33-.04.14-.1.42-.09.08.02-.02.08-.06.09.12-.01.23.02.24-.02-.15-.03-.09-.15-.15-.23h.36s-.02.09-.02.09c.08,0,.2-.21.55-.17.59.03,1.23,0,1.83.02,0,.05-.13.07-.26.1.08,0,.2,0,.27.02-.14-.08.25-.05.14-.09.44-.18,1-.02,1.38-.14.03-.17.82-2.85.82-3.04.12,0,.24,0,.27.02-.03-.05-.27-.07-.39-.04l-.02.11c-.29.04-.07-.06-.35-.06-.01-.09.24-.1.47-.11-.2-.01-.41-.07-.49.02-.19-.04.02-.11-.21-.14-.16.03-.38.11-.57.06v-.02c-.46-.09-.7.13-1.12.04l.05-.03c-.15-.05-.44.02-.71-.04.08.02.14.08-.02.09-.31-.05-.52,0-.74-.07l-.22.08c-1.07-.02-5.31.1-6.39.12h.04c-1.64.03-5.01.02-6.71.14-.26-.08-.62-.06-.9-.09.15.03.1.09-.02.09-.83,0-.06.06-.9.09-.97.08-4.69-.01-5.55-.08-.46.12-1.04.03-1.5.11l.05-.03c-.49.05-3.25-.07-3.81-.02l.08.02c-.49.08-.43-.06-.82-.1.05.14-.37.22-.53.23v-.03c-.24.02-.79.14-1.19.16l.02-.08c-.34.08-.97.05-1.21.06-.55-.03-1.4-.16-2.14-.06l-.48-.21-.07.02s-.77,2.59.21,3.15l-.02.08h.19c.23.03.34-.06.32.02h-.32c.23.01.07.05-.02.1.1,0,.19.02.27.04.05-.03-.03-.03-.07-.05.12-.03.3-.1.45-.06.24,0,.02.12.29.13,1.46.06,2.88.15,4.36.13.03.03,0,.03-.05.04.45-.03.84-.02,1.25-.05.11.03.14.08.18.11-.07-.06,2.24-.07,2.28-.05Z"/>
          </g>
          <g>
            <path class="h" d="M48.86,85.35c.24.08.65.09,1.03.1-.3-.08-.62-.11-1.03-.1Z"/>
            <path class="h" d="M49.91,85.46h0s-.01,0-.01,0h0Z"/>
            <path class="h" d="M125.03,81.78c-.1,0-.2,0-.32,0,.11,0,.21,0,.32,0Z"/>
            <path class="h" d="M68.66,85.69l.06-.14c.92,0,.27.16,1.12.12.33-.19,1.41.02,1.7-.08,0,.02.41.02.38.08.13-.1.43-.02.69-.05.1-.03-.07-.03-.14-.06l.6-.04c.24.03.29.1.04.11,1.57.04,9.11.14,10.8.09-.22-.08-.74-.03-.94-.15.45-.07.66.02.86-.05.17.18.98.04,1.32.23l.13-.1.22.06c.98-.05,1.1-.07,1.18-.06.05,0,.09,0,.24.01.38,0,.48-.02.94-.05.98-.09,1.44-.28,2-.25-.08,0-.3-.05-.05-.09.05.09.68-.1.81-.02.25-.03,1.07-.06.78-.17.14.05.87.05.44.12.25,0,.49,0,.66-.03l-.32-.02c.83-.05,1.29.03,1.83-.1l-.31-.04c.5-.03.92-.04,1.11.08l-.51.05c.83-.02,1.33-.04,2.01-.12h-.25c.87-.15,5.49-.26,6.31-.39l-.37-.1.7-.07c-.08,0-.34.31-.41.28,1.5-.02,9.32.1,10.71.21.56.07.1.16.09.17.68-.02.3-.09.88-.07.16.02-.03.07-.12.09.25,0,.49.04.51,0-.32-.04-.18-.16-.31-.24l.75.03-.04.07c.17,0,.43-.19,1.16-.13,1.24.06,2.59.07,3.84.12-.02.04-.28.07-.55.09.17,0,.42,0,.58.03-.3-.09.53-.04.29-.08.92-.16,2.1.02,2.91-.1.08-.16,1.74-2.84,1.74-3.04.25,0,.49,0,.57.03-.06-.05-.55-.07-.81-.04l-.04.11c-.6.04-.14-.06-.72-.06-.03-.09.5-.1.97-.11-.42-.01-.84-.08-1.02.02-.4-.04.04-.11-.43-.14-.34.02-.79.1-1.19.04v-.02c-.95-.1-1.46.11-2.34,0l.09-.03c-.31-.06-.92,0-1.48-.07.16.02.3.09-.04.09-.64-.07-1.08-.03-1.55-.11l-.45.07c-2.24-.08-11.14-.2-13.42-.19h.09c-3.46-.04-10.59.02-14.2.44-.56-.04-1.35.04-1.9.06.12,0,.21.02.18.05,0,.01-.04.02-.08.03-.03,0-.13.02-.1.02-.39,0-.58,0-.69,0-.12,0-.14.01-.15.02-.03.02-.07.05-.95.06-2.04.08-9.83-.01-11.64-.08-.97.12-2.18.03-3.14.11l.1-.03c-1.02.05-6.81-.07-7.99-.02l.16.02c-1.04.08-.89-.06-1.71-.1.11.14-.78.22-1.12.23v-.03c-.5.02-1.65.14-2.5.16l.03-.08c-.7.08-2.02.05-2.53.06-1.16-.03-2.94-.16-4.48-.06l-1-.21-.15.02s-1.61,2.59.43,3.15l-.03.08h.4c.48.03.71-.06.68.02h-.66c.49.01.15.05-.04.1.2,0,.4.02.56.04.1-.03-.07-.03-.15-.05.26-.03.63-.1.94-.06.5,0,.03.12.61.13,3.06.06,6.03.15,9.13.13.07.03-.01.03-.1.04.95-.02,1.75-.04,2.61-.05.24.03.3.08.37.11-.07-.03,1.1-.05,2.3-.06.6,0,1.21,0,1.67,0,.46,0,.77,0,.8,0Z"/>
          </g>
          <g>
            <path class="h" d="M48.86,99.13c.24.08.65.09,1.03.1-.3-.08-.61-.11-1.03-.1Z"/>
            <path class="h" d="M49.91,99.24h0s-.01,0-.01,0h0Z"/>
            <path class="h" d="M125.03,95.57c-.1,0-.21,0-.32,0,.11,0,.22,0,.32,0Z"/>
            <path class="h" d="M68.66,99.47l.06-.14c.92,0,.27.16,1.12.12.33-.19,1.41.02,1.7-.08,0,.02.41.02.38.08.13-.1.43-.02.69-.05.1-.03-.07-.03-.14-.06l.6-.04c.23.03.29.09.04.11,1.57.04,9.11.14,10.8.09-.22-.08-.74-.03-.94-.15.45-.07.66.02.86-.05.17.18.98.04,1.32.23l.13-.1.22.06c1.97-.11.45-.05,2.19-.03,1.01-.02,1.49-.16,2.05-.11-.08,0-.31-.06-.04-.09.04.09.7-.07.82.03.26-.01,1.09,0,.8-.13.14.06.88.09.44.14.25,0,.49.02.67,0l-.32-.03c.84-.02,1.3.08,1.85-.03l-.31-.05c.5,0,.93-.02,1.12.11l-.52.04c.84,0,1.34-.01,2.04-.08h-.25c.89-.13,5.53-.23,6.35-.38l-.38-.1.7-.08c-.08,0-.34.31-.41.28,1.51,0,9.35-.08,10.74-.02.56.05.1.15.09.17.68-.04.29-.1.88-.09.16.02-.03.08-.12.09.25-.01.49.02.51-.02-.32-.03-.18-.15-.32-.23h.75s-.03.09-.03.09c.17,0,.42-.21,1.16-.17,1.24.03,2.58,0,3.83.02-.02.05-.28.07-.54.1.17,0,.42,0,.58.02-.3-.08.52-.05.29-.09.91-.18,2.09-.02,2.9-.14.07-.17,1.72-2.85,1.72-3.04.25,0,.5,0,.58.02-.06-.05-.56-.07-.82-.04l-.05.11c-.6.04-.14-.06-.73-.06-.03-.09.51-.1.98-.11-.43-.01-.85-.07-1.03.02-.4-.04.04-.11-.44-.14-.35.03-.8.11-1.2.06v-.02c-.96-.09-1.47.13-2.35.04l.09-.03c-.31-.05-.92.02-1.49-.04.16.02.3.08-.04.09-.65-.05-1.09,0-1.56-.07l-.45.08c-2.25.02-11.13.1-13.39.12h.09c-3.44.03-10.51.02-14.06.14-.55-.08-1.31-.06-1.88-.09.32.03.21.09-.04.09-1.75,0-.12.06-1.89.09-2.04.08-9.83-.01-11.64-.08-.97.12-2.18.03-3.13.11l.1-.03c-1.02.05-6.8-.07-7.99-.02l.16.02c-1.04.08-.89-.06-1.71-.1.11.14-.78.22-1.12.23v-.03c-.5.02-1.65.14-2.5.16l.03-.08c-.7.08-2.02.05-2.53.06-1.16-.03-2.94-.16-4.48-.06l-1-.21-.15.02s-1.61,2.59.43,3.15l-.03.08h.4c.48.03.71-.06.67.02h-.66c.49.01.15.05-.04.1.2,0,.4.02.56.04.1-.03-.07-.03-.15-.05.26-.03.63-.1.94-.06.5,0,.03.12.61.13,3.06.06,6.03.15,9.13.13.07.03-.01.03-.1.04.95-.02,1.75-.04,2.61-.05.24.03.3.08.37.11-.07-.03,1.1-.05,2.3-.06.6,0,1.21,0,1.67,0,.46,0,.77,0,.8,0Z"/>
          </g>
          <g>
            <path class="h" d="M48.82,112.92c.24.09.64.11,1.03.13-.3-.09-.61-.13-1.03-.13Z"/>
            <path class="h" d="M49.86,113.05h0s-.01,0-.01,0h0Z"/>
            <path class="h" d="M124.98,109.36c-.1,0-.21,0-.32.01.11,0,.22,0,.32-.01Z"/>
            <path class="h" d="M68.64,113.78l.06-.13c.92.02.27.16,1.12.15.33-.18,1.41.06,1.71-.04,0,.02.41.03.38.09.13-.1.43-.01.69-.03.1-.03-.07-.03-.14-.07l.6-.02c.23.04.29.1.04.11,1.57.08,9.12.38,10.81.37-.22-.08-.74-.04-.94-.17.45-.06.66.04.86-.03.17.19.98.07,1.32.27l.13-.1.22.07c1.97-.06.45-.04,2.2.03,1.01.02,1.49-.19,2.05-.13-.08,0-.31-.06-.04-.09.04.09.7-.09.82,0,.26-.02,1.09-.03.81-.15.14.06.88.06.44.13.25,0,.49,0,.67-.02l-.32-.03c.84-.04,1.3.04,1.85-.09l-.31-.04c.5-.02.93-.04,1.13.08l-.52.05c.84-.03,1.34-.05,2.04-.13h-.25c.89-.15,5.54-.38,6.35-.56l-.38-.09.7-.1c-.08,0-.34.32-.41.29,1.51-.05,9.36-.35,10.75-.32.56.04.1.15.1.17.68-.06.29-.11.88-.12.16.01-.03.08-.12.09.25-.02.49,0,.51-.04-.32-.03-.19-.15-.32-.22h.75s-.03.07-.03.07c.17,0,.42-.22,1.15-.2,1.24,0,2.59-.07,3.83-.08-.02.05-.28.08-.54.11.17,0,.42-.02.58,0-.3-.07.52-.07.29-.09.91-.21,2.09-.07,2.9-.22.07-.17,1.65-2.89,1.64-3.09.25,0,.5,0,.58,0-.07-.04-.56-.05-.82-.02l-.04.11c-.6.05-.14-.06-.73-.04-.03-.09.51-.12.98-.14-.43,0-.86-.05-1.03.05-.4-.02.04-.11-.44-.13-.34.04-.79.13-1.19.09v-.02c-.96-.06-1.46.17-2.34.11l.09-.03c-.31-.04-.92.04-1.48,0,.16.01.3.07-.04.09-.65-.04-1.08.03-1.56-.02l-.45.1c-2.24.08-11.11.41-13.37.49l.09-.02c-3.44.14-10.49.33-14.04.55-.55-.05-1.31-.06-1.88-.1.32.04.21.1-.04.09-1.75-.06-.12.05-1.88.04-2.03.02-9.82-.27-11.62-.39-.97.1-2.18-.03-3.13.03l.1-.03c-1.02.02-6.8-.25-7.98-.23l.16.02c-1.04.05-.89-.08-1.71-.14.1.14-.78.2-1.12.2v-.03c-.5,0-1.65.1-2.5.1l.03-.07c-.7.06-2.02,0-2.53-.01-1.15-.06-2.93-.24-4.48-.18l-.99-.24-.15.02s-1.68,2.55.35,3.16l-.03.07h.4c.48.05.71-.03.68.04l-.66-.03c.49.03.15.07-.04.1.2.01.4.03.56.05.1-.03-.07-.03-.15-.05.26-.02.63-.08.95-.04.5.02.03.12.61.15,3.07.14,6.04.3,9.14.37.07.03-.01.03-.1.04.95,0,1.75,0,2.62.01.24.04.3.09.37.12-.07-.03,1.11-.02,2.31,0,.6.01,1.21.03,1.67.04.46.02.77.03.8.03Z"/>
          </g>
        </g>
      </g>
    </g>
  </g>
</svg>