<?xml version="1.0" encoding="UTF-8"?>
<svg id="b" data-name="Camada_2" xmlns="http://www.w3.org/2000/svg" viewBox="0 0 136.65 85.68">
  <defs>
    <style>
      .d {
        fill: #646d63;
      }
    </style>
  </defs>
  <g id="c" data-name="Camada_1">
    <g>
      <g>
        <path class="d" d="M3.28,3.23c.85.09,2.33.12,3.73.15-1.07-.09-2.22-.14-3.73-.15Z"/>
        <path class="d" d="M7.04,3.38s.02,0,.02,0c-.02,0-.03,0-.05,0,.01,0,.02,0,.03,0Z"/>
        <path class="d" d="M.18,5.67c-.03.37-.06.78-.1,1.21.03-.4.06-.81.1-1.21Z"/>
        <path class="d" d="M74.7,4.45l.21-.13c3.31.04.96.17,4.03.17,1.2-.18,5.09.08,6.15,0-.02.02,1.48.04,1.38.1.46-.1,1.54,0,2.49-.02.34-.02-.25-.03-.51-.07h2.17c.85.03,1.06.1.13.1,5.66.11,32.86.54,38.97.57-.78-.09-2.67-.06-3.38-.19,1.61-.05,2.38.05,3.09-.01.31.1,1.19.12,2.16.14.24,0,.49.01.73.02h.18s.01,0,.02,0h.01s.02.05-.02.1c.03-.03.06-.05.09-.07-.01.02-.03.05-.05.05h0s.02.06.02.06l.04.13c.02.08.04.17.07.25.05.16.08.31.11.45.07.29.11.53.15.75.07.43.1.74.11.96.02.23,0,.35,0,.44,0,.09,0,.16-.02.19-.03.09-.02.08-.03.09-.01.01-.03.04-.08.03.13,0-.38.01-.76.02-3.6.1-5.35.25-7.37.23.3,0,1.1.05.16.09-.16-.09-2.51.1-2.97,0-.92.02-3.91.04-2.9.16-.51-.06-3.18-.06-1.59-.13-.9,0-1.77,0-2.42.03l1.16.02c-3.04.05-4.7-.04-6.68.09l1.12.04c-1.82.02-3.34.04-4.05-.07l1.87-.05c-3.02.03-4.83.05-7.35.13h.9c-3.2.15-19.95.35-22.91.51l1.36.09-2.54.09c.3,0,1.22-.32,1.48-.29-5.44.05-33.72.19-38.75.1-2.03-.06-.36-.15-.34-.17-2.47.03-1.06.1-3.16.09-.57-.02.12-.08.44-.09-.92.01-1.77-.02-1.84.02,1.15.04.66.16,1.15.23l-2.7-.02.12-.08c-.6,0-1.53.2-4.17.15-4.47-.04-9.32-.08-13.81-.11.07-.04,1.01-.06,1.96-.08-.6,0-1.52,0-2.07-.04,1.08.09-1.88.03-1.04.08-3.29.15-7.55-.08-10.42-.08-.05.04-.44.19-.93.4-.18.11-.43.24-.79.35-.32.11-.95.32-1.1-.07-.55-.45-.97-1.76-1.26-2.32-.3-.68-.49-1.16-.55-1.16.07-.95.18-1.87.24-2.18-.09.26-.31,2.08-.31,3.1l.1.18c0,.56,0,.81.01,1.24.01.34.01.49.02.6.04.21-.09.4.37,1.62.05.12.2.29.36.49.03.05-.16-.09-.41-.45-.12-.24-.23-.57-.35-.97-.08-.42-.15-.91-.16-1.46-.02-.32-.01-.39-.01-.58,0-.16,0-.33,0-.5,0-.33.02-.67.04-.99C.04,7.54,0,8.12,0,8.84c.01.27.02.52.03.77.03.24.06.48.09.71.1.43.23.8.36,1.1.09.16.21.28.31.39l.07.08h0s0,.01,0,.01h0s.07-.08.07-.08h0s0,0,0,0h0s.02.02.02.02l.04.03.14.1c.38.42.75.44.88.49.14.04.11.05.11.06,0,0,0,.04.22.07.12.02.29.04.52.07.24.02.54.05.95.08,1.29.04,2.94,0,4.38.09h-.03c3.49.18,5.34-.02,8.53.1l-.34.03c1.12.06,3.34.02,5.37.08-.58-.02-1.08-.09.14-.09,2.33.07,3.92.02,5.63.1l1.64-.08c8.12.08,40.17-.1,48.33-.17h-.32c12.42-.08,37.91-.22,50.76-.52.78.02,1.67.02,2.59.02.46,0,.93-.01,1.4-.02.24,0,.47-.01.7-.02.25,0,.39,0,.89-.04.45-.12.9-.21,1.3-.38.38-.22.74-.46.99-.8-.33.42-.66.56-.83.67-.18.1-.23.11-.18.08.08-.09.63-.33,1.1-1,.4-.56.61-1.22.69-1.69.09-.44.08-.76.1-1.06,0-.56-.03-.93-.07-1.18-.05-.51-.09-.55-.1-.62-.02-.06-.04-.13-.14-.61-.06-.24-.13-.58-.26-1.06-.04-.14-.08-.28-.12-.44-.07-.24-.14-.48-.22-.73-.17-.51-.36-1.1-.63-1.71-3.87-.05-13.18-.18-22.39-.31-8.76-.15-17.42-.3-20.68-.35-3.5.08-7.88-.07-11.31-.03l.35-.02c-3.7-.05-24.55-.32-28.84-.38l.58.02c-3.74.03-3.23-.1-6.17-.18.39.14-2.82.18-4.04.18l.05-.03c-1.84,0-6.01.07-9.05.05l.12-.07c-2.54.05-7.3-.04-9.13-.06-4.17-.08-10.59-.29-16.17-.26l-3.6-.26h-.53s-5.83,2.54,1.52,3.18l-.12.07h1.46c1.75.07,2.55-.01,2.43.06l-2.39-.04c1.75.04.53.07-.14.1.73.02,1.43.05,2.03.06.35-.02-.25-.03-.53-.05.94-.01,2.26-.07,3.41-.02,1.8.03.11.12,2.21.16,11.05.19,21.77.41,32.94.54.25.03-.05.03-.37.04,3.37.02,6.35.04,9.42.06.85.04,1.08.09,1.33.13-.25-.03,3.98,0,8.31.05,4.33.06,8.75.11,8.9.11Z"/>
      </g>
      <g>
        <path class="d" d="M90.01,61c-.28-.65-.83-1.77-1.55-2.68.22.39.5.76.74,1.2.23.45.5.93.81,1.48Z"/>
        <path class="d" d="M88.45,58.3s0,0-.01-.01c0,.01.02.02.02.03v-.02Z"/>
        <path class="d" d="M122.03,82.54c-.27,0-.58,0-.89,0,.3,0,.6,0,.89,0Z"/>
        <path class="d" d="M40.64,58.55l-.04.21c-.23.18-.41.33-.56.45-.02,0-.03.01-.04.01-.02,0-.03-.01-.04-.02-.02-.03-.03-.06-.05-.04h-.01c-.07.07.09.17-.98-.78-.82-.7-1.72-1.31-2.13-1.51.03,0-1.13-.64-1.03-.65-.2-.06-.52-.18-.88-.34-.37-.15-.77-.36-1.19-.45-.31-.06.21.09.42.19-.62-.17-1.24-.37-1.88-.48-.75-.15-.93-.24-.1-.12-1.22-.29-3.9-.51-6.82.57-2.91,1.06-5.79,3.23-7.99,5.99-2.19,2.77-3.57,6.01-4.36,8.77-.8,2.77-1.1,5.07-1.2,6.3.12-.63.3-2.15.52-2.7-.14,1.3-.32,1.9-.3,2.48-.27.48-.29,2.85-.47,3.84l.11.38c-.02.13-.05.67-.05,1.05.04.66.08,1.24.12,1.77.02.26.04.5.06.72.01.11.02.22.03.33.01.1-.01.24.13.21.79.03,1.37.06,1.8.08.88,0,1.15,0,1.38.01.25,0,.43.01,3.04.08,2.81.03,4.14-.1,5.7-.02-.23,0-.85-.08-.12-.09.12.09,1.94-.04,2.29.06.71,0,3.02.05,2.24-.09.39.07,2.45.12,1.22.16.69.01,1.37.04,1.87.02l-.89-.05c2.35.02,3.62.13,5.15.04l-.87-.06c1.4.01,2.57.02,3.12.15l-1.44.02c2.33.03,3.73.04,5.67,0h-.69c2.47-.1,15.39-.01,17.67-.13l-1.05-.11,1.96-.05c-.23,0-.95.3-1.14.26,4.19.05,26,.3,29.87.43,1.56.08.28.16.26.17,1.9,0,.82-.09,2.44-.06.44.02-.09.07-.34.08.71,0,1.37.04,1.42,0-.89-.05-.51-.16-.88-.25l2.08.04-.09.07c.46,0,1.18-.19,3.22-.12,3.45.06,7.19.12,10.65.18-.05.04-.78.06-1.51.08.46,0,1.17,0,1.6.05-.84-.09,1.45-.03.8-.07,2.54-.15,5.82.07,8.06-.02.2-.16,4.84-2.78,4.84-2.97.7.01,1.39.03,1.6.05-.18-.05-1.55-.09-2.27-.08l-.13.1c-1.67.01-.39-.07-2.02-.09-.09-.09,1.42-.08,2.74-.07-1.19-.03-2.38-.11-2.86-.02-1.12-.05.13-.1-1.22-.16-.96.01-2.22.08-3.33,0h.02c-2.68-.14-4.1.05-6.55-.07l.26-.02c-.87-.06-2.57-.02-4.13-.1.45.02.83.09-.11.09-1.8-.08-3.02-.04-4.33-.13l-1.26.07c-6.25-.07-30.96-.36-37.24-.44h.25c-9.57-.11-29.22-.41-39.12-.44-1.53-.11-3.64-.12-5.24-.17.89.05.58.1-.11.09-.32,0-.56,0-.74-.01-.07,0-.12,0-.15,0-.07,0-.08.01-.09,0-.01,0-.02,0-.04-.06,0-.03-.01-.09-.02-.16,0-.04,0-.09,0-.14,0-.09,0-.19,0-.29,0-.13,0-.27,0-.42,0-1.35.11-3.69.67-6.41.55-2.71,1.56-5.82,3.27-8.46,1.69-2.63,4.08-4.72,6.34-5.84,2.25-1.15,4.24-1.15,5.29-1.05,1.14.05,2.42.43,3.61,1.03.6.3,1.16.67,1.7,1.04.26.2.52.4.77.59l.36.3c.13.12.19.14.42.37l-.16-.14s-.07-.05-.11-.08c.05.03.2.19.35.34.15.16.33.33.52.53.39.42.88,1.04,1.42,1.69.83-.7,1.79-1.52,2.85-2.42.64-.52,1.35-1.08,2.08-1.67,1.49-1.17,3.15-2.41,4.78-3.56,3.26-2.32,6.42-4.19,7.62-4.86l-.39.2c1.22-.77,1.69-.87,2.15-1.06.43-.2.88-.21,1.85-.49-.15-.04.3-.23.94-.34.62-.14,1.4-.29,1.84-.28l-.03.03c1.3-.2,4.36-.11,6.56.36l-.1.05c.46.09,1.02.19,1.61.33.59.18,1.21.37,1.83.56.61.19,1.18.46,1.69.65.51.2.95.38,1.24.54,2.78,1.3,6.71,4.07,9.24,7.22l.68,1.11c.23.36.45.73.61,1.14l.2.32s1.07.58,1.92.63c.81.05,1.47-.53.15-3.32l.12.04-.71-.97c-.8-1.21-1.34-1.62-1.22-1.6.46.47.82,1.03,1.21,1.56-.84-1.19-.21-.39.15.03-.36-.49-.68-.99-.98-1.37-.22-.19.13.16.24.37-.51-.59-1.31-1.33-1.92-2.06-1.08-1.01.02-.15-1.26-1.32-3.39-3.05-7.43-5.14-11.69-6.46-.53-.18-1.07-.33-1.62-.44l-1.64-.38c-1.12-.14-2.22-.39-3.37-.4-2.27-.19-4.63.01-6.96.61-.22.03.03-.04.3-.13-.7.23-1.39.37-2.05.66-.64.29-1.32.58-1.88.88-1.08.6-2.11,1.21-3.14,1.86-.59.33-.77.39-.95.47.18-.09-2.63,1.71-5.37,3.73-1.37,1-2.73,2.04-3.76,2.85-1.02.81-1.72,1.36-1.76,1.4Z"/>
      </g>
      <g>
        <path class="d" d="M125.01,82.61c.08-.2.07-.53.08-.85-.07.25-.1.51-.08.85Z"/>
        <polygon class="d" points="125.09 81.75 125.09 81.75 125.09 81.76 125.09 81.75"/>
        <path class="d" d="M83.92,56.08c.05-.04.12-.09.18-.14-.06.04-.13.09-.18.14Z"/>
        <path class="d" d="M120,66.63l-.13.06c-.65-.55-.09-.28-.72-.77-.36-.03-1.07-.79-1.37-.83.01-.01-.32-.2-.27-.24-.15.04-.36-.17-.59-.26-.09,0,.05.05.09.12-.17-.08-.35-.13-.52-.2-.18-.12-.21-.2.01-.11-.64-.36-2.63-1.08-4.63-1.32-2-.27-3.93-.21-4.62-.17.18.07.6,0,.77.13-.37.07-.54-.01-.7.06-.15-.18-.8-.02-1.07-.2l-.1.11-.17-.06c-.77.08-.82.09-.89.09-.06,0-.12,0-.7-.04-.06,0-.18,0-.16,0,0,0,0,.01,0,.02-.01.01-.03.03-.04.04-.03.03-.07.04-.06,0,0,0-.02.07-.06.08.06-.07-.09-.02-.02-.09h0c.04.11-.2-.49-.22-.23.02-.14-.2-.72,0-.4-.08-.2-.14-.39-.23-.52l.07.26c-.3-.64-.37-1.03-.67-1.39l.06.25c-.18-.38-.35-.68-.31-.88l.22.37c-.3-.62-.5-.98-.82-1.46l.09.18c-.22-.3-.8-1.26-1.41-2.21-.23-.32-.57-.95-.85-1.33-.3-.4-.54-.7-.67-.82.04.1.07.22.1.32-.13-.16-.27-.3-.42-.45.04.06.43.05.44.12-.38-.53-1.63-2.19-3.38-3.38-.43-.3-.92-.54-1.36-.8-.47-.21-.94-.37-1.35-.54-.86-.25-1.57-.35-1.88-.42-.52-.06-.08-.15-.07-.17-.65.03-.29.1-.84.08-.15-.02.03-.08.12-.09-.24,0-.47-.02-.49.02.3.03.18.15.31.23h-.7s.02-.08.02-.08c-.16,0-.36.26-1.02.34-.28.05-.56.1-.85.15-.28.07-.54.19-.81.28-.52.22-1.1.36-1.56.64,0-.04.17-.19.38-.3-.14.04-.32.18-.46.21.26-.06-.37.27-.18.2-.59.55-1.59.87-2.03,1.42.02.09.15.88.32,1.65.17.77.38,1.51.44,1.59-.15.11-.29.21-.35.23.07,0,.37-.19.5-.32l-.04-.1c.33-.29.12-.01.46-.27.07.06-.23.3-.5.52.25-.18.54-.31.58-.46.25-.15.04.1.34-.08.18-.17.39-.44.65-.56v.02c.63-.24.83-.61,1.4-.83l-.04.06c.2-.09.56-.27.92-.35-.1.02-.21,0,0-.09.42-.08.67-.29.98-.26l.26-.13c.7-.21,2.4-.34,3.98.36,1.58.73,2.9,2.21,3.35,2.83l-.05-.04c.33.4.68.94,1.02,1.53l.12.22s.19.36.2.37c.1.17.2.35.31.53.2.37.41.74.63,1.12.42.76.82,1.54,1.19,2.29.18.37.36.74.51,1.09.08.17.15.34.22.51l.11.26c.06.16.12.32.18.48.13.21.2.45.36.6.14.17.22.38.4.48.31.26.65.37.96.49.36.13.8.28,1.3.3.34.04.61.03.87.05-.29-.04-.19-.1.03-.09,1.46-.02.11-.05,1.54-.13.81-.06,2.71-.16,4.48.04,1.79.16,3.37.74,3.92,1.02.67.14,1.35.63,1.91.94h-.07c.31.15,1.2.89,1.91,1.84.38.45.66.99.93,1.42.22.46.41.83.52,1.01l-.04-.11c.37.65.19.62.37,1.17.11-.13.4.46.47.7h-.03c.07.16.19.46.32.77.12.32.22.68.3.99h-.08c.22.48.32,1.48.38,1.86.06.43.07.99.09,1.59.04.59.07,1.23.13,1.82l-.19.77.02.11s.66.3,1.38.41c.72.11,1.51.03,1.76-.82l.08.02-.02-.33c.02-.4-.07-.58,0-.56v.55c.02-.4.07-.12.11.03,0-.17,0-.33.02-.47-.03-.08-.03.06-.04.12-.03-.22-.11-.51-.09-.78-.02-.41.12-.03.09-.52-.12-2.54-.41-5.07-1.38-7.63,0-.07.03,0,.07.07-.16-.39-.31-.74-.46-1.09-.16-.35-.35-.68-.53-1.02-.07-.2-.05-.28-.05-.35.01.07-.52-.86-1.2-1.74-.34-.44-.7-.88-1.01-1.18-.3-.31-.5-.53-.52-.54Z"/>
      </g>
      <g>
        <path class="d" d="M1.15,13.8c.03.82.21,2.2.38,3.52-.06-1.02-.18-2.1-.38-3.52Z"/>
        <path class="d" d="M1.53,17.35v.02s0-.03,0-.05c0,.01,0,.02,0,.03Z"/>
        <path class="d" d="M133.83,3.35c.02.24.02.58.02.93,0-.33,0-.67-.02-.93Z"/>
        <path class="d" d="M11.53,80.92l.19.17c.11.4.19.71.26.97.08.27.11.39.21.71.16.51.23.71.3.89.07.18.12.36.37.73.13.18.3.4.63.62.16.13.37.15.63.19.25.04.53.09.84.14,0,0,.03,0,.05,0,.22-.03.49-.05.81-.07.16,0,.32-.02.49-.03.12,0,.24,0,.37-.01.52,0,1.11,0,1.71,0,1.18,0,2.35.03,2.86-.02-.02.02,1.4.02,1.31.08.44-.1,1.46-.02,2.36-.05.32-.03-.24-.03-.48-.06l2.05-.03c.8.04,1,.1.13.11,5.37.04,31.15.27,36.93.24-.74-.08-2.53-.04-3.21-.16,1.53-.06,2.25.04,2.93-.03.59.19,3.36.06,4.52.25l.44-.1.76.07c6.73-.08,1.54-.05,7.5,0,3.45,0,5.09-.14,7.01-.08-.29,0-1.05-.07-.15-.09.15.09,2.38-.06,2.82.04.88,0,3.71.01,2.75-.12.48.06,3.01.1,1.51.15.85,0,1.68.03,2.3,0l-1.1-.04c2.88-.01,4.46.09,6.34-.02l-1.07-.05c1.72,0,3.17-.01,3.84.11l-1.77.04c2.86,0,4.59,0,6.97-.07h-.85c1.13-.05,4.05-.1,7.4-.15,1.68-.03,3.47-.07,5.21-.11.87-.03,1.73-.06,2.55-.08.42-.02.83-.03,1.23-.05.61-.06,1.21-.13,1.78-.19.33-.13.68-.32.89-.64.21-.3.36-.66.48-1.01.27-.82.32-1.1.42-1.49.18-.74.29-1.3.36-1.66l-.41,1.25c.18-.8.34-1.6.49-2.4-.06.28.04,1.22-.05,1.45.64-2.56,2.19-10.42,3.56-18.26,1.38-7.84,2.64-15.64,3.05-17.99.36-1.89.21-.32.22-.29.33-2.32.06-1.01.38-2.98.1-.53.06.12.02.43.12-.86.28-1.66.25-1.73-.2,1.07-.25.6-.4,1.04l.41-2.53.06.12c.09-.56.02-1.46.44-3.94.67-4.19,1.31-8.75,1.89-12.98.04.07-.06.96-.15,1.86.08-.57.19-1.43.29-1.95-.22,1.01.19-1.78.04-.99.23-3.12.9-7.12,1.05-9.9-.07-.17-.65-1.67-1.23-3.17-.59-1.51-1.28-2.87-1.39-2.85,0-.39,0-.77-.02-.99,0-.04,0-.07-.01-.11-.21.02.53-.1.84-.24.71-.22.76-.46.73-.4,0,0,0,0,0,0-.03.06-.03.04-.14.14-.05.03-.1.06-.16.08-.08.05-.17.09-.27.12-.17.04-.5.17-.8.23-.07.02-.19.03-.22.04h0s0,.03,0,.03v.09c0,.09.01.18.02.28.01.45,0,1.06,0,1.49l.1.15c-.08,1.99-.08.46-.22,2.41-.1.1.06-1.73.08-3.24-.04,1.36-.23,2.8-.18,3.38-.16,1.35-.09-.16-.28,1.46-.09,1.16-.17,2.7-.38,4.03v-.03c-.49,3.24-.5,5-.98,7.96v-.32c-.18,1.04-.4,3.12-.72,5.01.09-.54.22-1,.07.14-.37,2.17-.53,3.67-.83,5.25l-.15,1.54c-.57,3.79-2,13.19-3.58,22.56-1.56,9.38-3.3,18.72-4.15,22.44l.05-.29c-.18.81-.37,1.69-.61,2.65-.11.47-.26,1-.39,1.45-.03.05-.02.17-.11.17-1.26.03-2.6.06-4.01.09-1.72.02-3.51.03-5.35.05-3.69.01-7.56.02-11.38.03-7.64.02-15.04.03-20.26.04-1.88-.09-4.48-.08-6.44-.11,1.09.04.72.1-.13.09-5.98-.04-.4.06-6.45.06-6.96.05-33.62-.18-39.81-.26-3.32.12-7.47.01-10.74.11l.33-.03c-.22,0-.5,0-.84.01-.14,0-.28,0-.44,0-.12,0-.24,0-.37.01-.08,0-.22.05-.26-.08-.03-.05-.05-.1-.07-.16-.04-.12-.08-.24-.12-.37-.27-.91-.53-1.99-.79-3.13-.51-2.29-1-4.87-1.45-7.38-.9-5.01-1.65-9.73-1.95-11.48l.07.54c-.64-3.48-.43-3.02-.82-5.78-.08.38-.63-2.6-.81-3.74l.04.04c-.29-1.72-1-5.61-1.44-8.45l.09.1c-.44-2.36-1.06-6.84-1.31-8.55-.54-3.91-1.26-9.96-2.08-15.18l-.25-3.41-.09-.49s-3.31-5.1-2.92,1.89l-.09-.1.2,1.37c.19,1.65.38,2.39.29,2.29l-.3-2.25c.21,1.65,0,.51-.12-.12.08.69.16,1.35.22,1.91.07.32,0-.24-.02-.5.15.88.39,2.11.51,3.19.23,1.69-.11.12.16,2.09,1.41,10.39,2.78,20.46,4.44,30.94,0,.24-.04-.04-.1-.34.53,3.15.97,5.96,1.48,8.83.1.8.09,1.03.1,1.27,0-.24.67,3.72,1.43,7.78.38,2.03.79,4.08,1.13,5.65.34,1.57.62,2.66.63,2.73Z"/>
      </g>
    </g>
  </g>
</svg>