<?xml version="1.0" encoding="UTF-8"?>
<svg id="b" data-name="Camada_2" xmlns="http://www.w3.org/2000/svg" viewBox="0 0 126.2 125.42">
  <defs>
    <style>
      .d {
        fill: #FFF;
      }
    </style>
  </defs>
  <g id="c" data-name="Camada_1">
    <g>
      <g>
        <path class="d" d="M71.38.04c-.2-.06-.53-.03-.83,0,.24.04.49.04.83,0Z"/>
        <polygon class="d" points="70.54 .03 70.53 .03 70.54 .03 70.54 .03"/>
        <path class="d" d="M72.71,2.4c.05.02.11.04.17.06-.06-.03-.11-.05-.17-.06Z"/>
        <path class="d" d="M61.14,10.37l.12.04c.03.72-.15.22-.04.89.21.24.12,1.13.29,1.35-.01,0,.06.33,0,.32.11.08.11.33.18.54.04.07.01-.06.02-.13.04.16.11.31.18.46.04.19,0,.26-.08.06.17.61.9,2.45,2.31,3.86,1.38,1.42,3.21,2.23,3.89,2.4-.15-.13-.58-.22-.68-.4.36.09.5.21.68.21.08.22.76.28,1,.51l.13-.06.17.09c.83.11.94.07,1.01.09.08,0,.1.06.9.07.9-.05,1.26-.26,1.72-.3-.07.01-.25,0-.05-.07.05.07.54-.18.66-.13.2-.07.84-.25.59-.29.13.03.69-.17.37,0,.19-.07.38-.12.51-.2l-.25.06c.62-.27,1-.35,1.34-.65l-.24.08c.35-.2.64-.37.84-.36l-.35.24c.59-.34.93-.58,1.34-.98l-.16.13c.25-.27,1.12-1,1.75-1.94.66-.91,1.08-1.95,1.14-2.27-.06.08-.13.16-.2.24.07-.17.11-.36.15-.54-.02.06.16.36.12.4.24-.56.85-2.35.83-4.18.06-1.84-.52-3.67-.77-4.17-.13-.44.09-.13.11-.13-.25-.5-.16-.19-.38-.61-.05-.12.07,0,.12.05-.11-.18-.18-.36-.22-.35.1.24-.04.2-.05.32l-.29-.52h.07c-.06-.13-.32-.21-.64-.69-.55-.81-1.33-1.53-2.08-2.13.04-.02.21.08.39.19-.1-.08-.26-.19-.34-.29.14.2-.35-.21-.22-.08-.65-.29-1.34-.89-1.94-1.07-.06.05-.63.46-1.16.92-.53.45-.99.96-1.02,1.04-.13-.06-.26-.1-.26-.12-.03.03.24.15.39.19l.06-.08c.35.11.06.08.38.22-.02.08-.32-.05-.58-.14.23.1.44.26.57.23.21.13-.06.07.18.23.2.07.47.13.66.3h-.01c.45.37.82.38,1.19.77h-.06c.13.13.43.32.64.58-.06-.07-.08-.17.07-.04.25.29.43.46.58.69.08.04.14.1.22.16.43.48,1.27,1.83,1.45,3.42.08.39.06.8.07,1.19.03.39-.06.77-.08,1.12-.11.69-.26,1.24-.39,1.54v-.05c-.06.24-.17.49-.31.76-.12.28-.31.54-.49.83-.4.55-.91,1.12-1.52,1.58-1.22.94-2.79,1.5-3.8,1.67-.33-.02-.73.01-1.02-.03.17.04.11.09-.03.08-.97-.12-.07.07-1.08-.09-.58-.09-2.03-.58-3.06-1.56-1.07-.93-1.66-2.24-1.78-2.76-.17-.24-.26-.55-.33-.88-.09-.31-.15-.64-.21-.93l.03.05c-.07-.29-.19-1.4-.06-2.42.05-1.04.48-1.93.59-2.24l-.05.08c.16-.57.3-.41.54-.78-.06,0-.05-.13,0-.27.07-.13.17-.27.23-.34l.02.02c.16-.24.59-.78,1-1.08l.02.07c.29-.31,1.03-.67,1.31-.8.66-.28,1.77-.51,2.72-.74.22.03.43.06.64.11l.09-.03s.19-.59.26-1.23c.1-.63-.02-1.35-.85-1.5l.02-.07c-.11.01-.21.03-.31.05-.38.02-.54.13-.52.06l.51-.07c-.38.04-.12-.04.02-.1-.16.02-.31.03-.44.03-.07.04.06.02.12.02-.2.05-.46.18-.71.19-.38.07-.05-.1-.49,0-1.17.27-2.32.68-3.42,1.3-1.09.62-2.1,1.52-2.86,2.64-.06.04-.02-.02.02-.1-.2.36-.44.67-.59,1.02-.15.34-.29.68-.42,1.03-.11.18-.14.22-.19.27.02-.02-.03.21-.12.57-.04.18-.09.4-.15.63-.04.23-.05.48-.08.73-.14,1.02-.04,1.96-.07,1.99Z"/>
      </g>
      <g>
        <path class="d" d="M79.53,41.04c-.03-.21-.18-.5-.33-.76.07.24.16.46.33.76Z"/>
        <polygon class="d" points="79.19 40.27 79.19 40.27 79.2 40.28 79.19 40.27"/>
        <path class="d" d="M77.89,43.21c0,.05,0,.11.01.18,0-.06,0-.12-.01-.18Z"/>
        <path class="d" d="M65.97,35.77v.13c-.64.31-.25-.05-.82.32-.14.29-.99.56-1.12.8,0-.01-.28.19-.29.13-.03.14-.27.23-.42.38-.04.07.06-.01.13-.03-.13.1-.24.22-.35.35-.16.11-.23.11-.09-.05-.49.4-1.89,1.8-2.62,3.65-.75,1.84-.77,3.83-.66,4.53.06-.19-.03-.62.1-.79.06.37,0,.55.07.71-.17.16.05.81-.07,1.12l.11.09v.2c.21.8.29.89.3.96.03.07-.02.12.3.86.4.81.74,1.05.96,1.46-.04-.06-.1-.23.04-.08-.04.08.38.42.38.55.14.15.57.67.5.42.03.13.43.56.15.34.14.15.26.3.38.38l-.16-.21c.49.46.72.78,1.13.97l-.17-.19c.33.24.6.44.67.62l-.36-.22c.55.4.91.62,1.44.84l-.18-.1c.35.12,1.37.63,2.48.83,1.1.24,2.22.21,2.54.14-.1-.02-.2-.06-.3-.09.19,0,.37-.05.55-.08-.06,0-.26.29-.32.26.61,0,2.49-.16,4.17-.91,1.71-.68,3.16-1.94,3.52-2.36.35-.3.16.03.16.05.36-.43.12-.22.41-.59.09-.09.04.06,0,.13.12-.17.26-.31.23-.35-.18.19-.2.04-.32.08l.36-.47.04.06c.09-.11.05-.37.36-.86.52-.83.88-1.83,1.12-2.76.04.02,0,.23-.02.43.03-.13.07-.32.13-.43-.13.21.05-.4-.02-.23,0-.71.28-1.58.2-2.21-.07-.03-.67-.4-1.3-.7-.62-.31-1.27-.52-1.36-.52,0-.14,0-.28,0-.29-.04-.01-.04.28-.02.43l.09.02c.04.36-.05.08-.05.44-.08.02-.08-.31-.1-.59,0,.25-.06.51.02.61-.04.24-.09-.03-.14.26.01.21.07.49-.01.72h-.01c-.15.55-.02.89-.23,1.38v-.06c-.09.17-.14.53-.3.82.04-.08.12-.14.07.05-.16.34-.25.58-.4.81,0,.09-.04.17-.06.26-.27.59-1.17,1.9-2.56,2.69-.32.23-.71.38-1.07.53-.35.18-.73.26-1.06.37-.68.18-1.24.25-1.56.26h.05c-.25.02-.52.02-.82,0-.3,0-.62-.06-.96-.11-.67-.15-1.38-.39-2.06-.76-1.35-.75-2.48-1.96-3.05-2.82-.11-.31-.3-.66-.38-.94.03.17-.04.14-.08,0-.28-.94-.09-.03-.35-1.02-.15-.57-.28-2.09.21-3.43.43-1.36,1.39-2.42,1.82-2.73.15-.25.4-.46.67-.65.25-.21.52-.39.77-.56l-.04.05c.23-.18,1.21-.73,2.2-1.02.98-.37,1.96-.33,2.29-.35h-.09c.59-.1.49.1.93.17-.02-.06.1-.1.25-.1.14.01.31.05.41.07l-.02.02c.28.05.95.23,1.39.49l-.05.05c.4.15,1.03.67,1.26.88.52.49,1.17,1.42,1.76,2.2.06.21.12.42.16.63l.06.07s.62-.06,1.23-.25c.62-.16,1.23-.55,1.04-1.38h.07c-.05-.1-.11-.19-.17-.28-.17-.34-.33-.44-.26-.46l.27.44c-.19-.33-.02-.13.09-.02-.08-.14-.16-.27-.21-.39-.06-.05,0,.06.03.12-.13-.16-.35-.36-.46-.58-.22-.32.08-.09-.2-.45-.72-.97-1.55-1.86-2.56-2.62-1-.76-2.23-1.32-3.56-1.57-.06-.04.02-.02.1-.02-.41-.04-.79-.13-1.17-.13-.38,0-.74,0-1.11.02-.21-.03-.26-.04-.33-.07.03,0-.2.05-.57.12-.18.03-.4.07-.63.12-.23.06-.46.14-.7.22-.99.28-1.81.74-1.85.73Z"/>
      </g>
      <g>
        <path class="d" d="M60.43,82.12c.01.21.15.51.28.78-.05-.24-.13-.47-.28-.78Z"/>
        <polygon class="d" points="60.71 82.91 60.71 82.91 60.7 82.9 60.71 82.91"/>
        <path class="d" d="M62.2,80.07c0-.05,0-.12,0-.18,0,.06,0,.12,0,.18Z"/>
        <path class="d" d="M73.6,88.28v-.13c.67-.27.25.07.85-.26.16-.28,1.02-.49,1.17-.73,0,.01.29-.17.3-.11.04-.13.28-.21.44-.35.05-.06-.06,0-.13.02.13-.09.25-.21.37-.33.17-.1.24-.09.08.05.52-.37,2.01-1.67,2.86-3.47.87-1.78,1.02-3.77.95-4.47-.07.18-.01.62-.15.78-.03-.37.03-.55-.03-.71.18-.15,0-.81.14-1.12l-.1-.1.03-.19c-.17-.82-.25-.91-.25-.98-.03-.07.03-.12-.24-.87-.35-.83-.67-1.1-.86-1.52.04.06.08.24-.05.07.05-.07-.35-.45-.34-.58-.13-.16-.52-.71-.47-.46-.02-.13-.39-.59-.13-.35-.13-.16-.24-.32-.36-.41l.14.22c-.46-.5-.66-.82-1.07-1.04l.16.2c-.31-.26-.57-.48-.63-.67l.34.25c-.52-.44-.86-.68-1.38-.93l.17.11c-.34-.14-1.32-.72-2.42-.99-1.08-.31-2.2-.36-2.52-.31.1.03.2.07.29.11-.19,0-.37.02-.56.04.06,0,.28-.27.34-.24-.61-.04-2.5,0-4.22.63-1.75.56-3.28,1.72-3.66,2.12-.37.27-.15-.04-.16-.06-.39.41-.13.21-.45.56-.1.09-.03-.06,0-.13-.13.16-.28.29-.26.33.19-.18.2-.02.32-.06l-.39.45-.03-.06c-.09.1-.08.37-.42.83-.58.79-1,1.77-1.3,2.68-.03-.03,0-.23.05-.43-.04.12-.09.31-.16.42.14-.2-.08.4,0,.24-.06.71-.39,1.56-.35,2.19.07.04.64.44,1.25.78.6.35,1.23.61,1.32.61,0,.14,0,.28-.02.29.04.02.06-.28.05-.43l-.09-.03c-.01-.36.06-.08.08-.43.08-.01.06.32.06.59.02-.25.1-.5.02-.61.05-.24.09.04.16-.25,0-.21-.03-.49.06-.72h.01c.19-.54.08-.89.32-1.37v.06c.1-.17.17-.52.35-.8-.05.08-.13.13-.06-.05.19-.33.29-.56.46-.78.01-.09.05-.17.07-.26.31-.57,1.29-1.81,2.73-2.52.34-.21.73-.33,1.1-.46.36-.16.75-.21,1.09-.3.69-.13,1.25-.17,1.58-.15h-.05c.25,0,.53.01.82.06.3.01.62.1.95.18.65.19,1.35.48,2,.9,1.29.84,2.35,2.12,2.85,3.02.09.32.25.68.32.97-.02-.17.05-.13.08,0,.22.95.08.04.28,1.04.11.58.14,2.1-.44,3.41-.52,1.33-1.55,2.32-2,2.6-.17.24-.43.43-.71.61-.26.19-.55.36-.8.51l.04-.05c-.25.16-1.25.65-2.26.87-1,.3-1.98.2-2.31.2l.09.02c-.59.04-.48-.14-.91-.25.01.06-.11.09-.25.09-.14-.02-.31-.07-.4-.1l.02-.02c-.28-.06-.93-.29-1.35-.58l.05-.04c-.39-.17-.98-.74-1.19-.97-.49-.53-1.07-1.49-1.61-2.31-.05-.22-.09-.43-.12-.64l-.06-.07s-.62.02-1.24.17c-.63.12-1.26.47-1.13,1.31h-.07c.05.1.1.19.15.28.15.35.3.46.23.47l-.24-.46c.16.34,0,.13-.1.02.07.14.14.28.18.41.06.05,0-.06-.02-.12.11.17.32.38.42.61.2.33-.08.08.17.46.65,1.01,1.43,1.96,2.38,2.78.95.82,2.14,1.47,3.45,1.81.05.04-.02.02-.1.02.4.07.78.19,1.15.21.37.03.74.04,1.11.05.21.04.26.06.32.09-.03-.01.21-.04.58-.08.19-.02.41-.05.64-.07.23-.04.47-.11.71-.17,1-.21,1.86-.62,1.9-.61Z"/>
      </g>
      <g>
        <path class="d" d="M71.42,124.8c.21,0,.52-.11.8-.22-.24.03-.48.1-.8.22Z"/>
        <polygon class="d" points="72.23 124.58 72.23 124.57 72.22 124.58 72.23 124.58"/>
        <path class="d" d="M69.5,122.89c-.05,0-.11,0-.18-.01.06.01.12.01.18.01Z"/>
        <path class="d" d="M78.5,112.09h-.13c-.22-.69.08-.26-.2-.88-.26-.18-.41-1.06-.64-1.22.01,0-.15-.3-.09-.31-.13-.04-.19-.29-.32-.47-.06-.05,0,.06.01.13-.08-.14-.19-.27-.3-.39-.09-.17-.07-.24.06-.08-.33-.54-1.53-2.12-3.26-3.1-1.72-.99-3.69-1.28-4.39-1.27.18.09.62.06.77.2-.37,0-.54-.07-.71-.02-.13-.19-.81-.07-1.1-.22l-.1.09-.19-.04c-.83.11-.93.18-1,.18-.08.02-.11-.03-.89.18-.86.29-1.14.59-1.58.75.06-.03.25-.07.07.05-.07-.05-.47.32-.6.3-.17.12-.74.47-.49.44-.13,0-.62.35-.36.1-.16.12-.33.22-.43.33l.23-.13c-.53.42-.87.6-1.12.99l.21-.14c-.28.29-.52.53-.71.58l.27-.32c-.48.49-.74.81-1.03,1.31l.12-.16c-.17.33-.81,1.27-1.16,2.34-.39,1.06-.51,2.17-.49,2.5.03-.1.09-.19.13-.28-.02.19,0,.37,0,.56,0-.06-.25-.3-.22-.35-.08.6-.18,2.49.33,4.25.44,1.79,1.49,3.39,1.86,3.81.25.39-.05.15-.07.15.38.41.2.14.53.48.08.1-.07.03-.13-.02.15.14.27.3.31.28-.16-.2,0-.2-.04-.32l.42.43-.06.03c.09.1.36.1.8.48.75.63,1.69,1.12,2.58,1.49-.03.03-.23-.02-.42-.08.12.05.31.12.41.19-.19-.15.39.11.23.01.71.11,1.53.5,2.16.5.04-.07.49-.61.87-1.2.39-.57.69-1.19.7-1.27.14.02.28.03.29.04.02-.04-.27-.08-.43-.08l-.04.09c-.36-.01-.08-.07-.43-.11,0-.08.32-.04.6-.02-.25-.03-.49-.13-.61-.06-.23-.07.04-.08-.24-.17-.21-.02-.49,0-.71-.11h0c-.53-.24-.89-.15-1.35-.43h.06c-.16-.1-.51-.2-.78-.4.08.06.12.14-.06.06-.32-.21-.54-.33-.74-.51-.09-.02-.17-.06-.25-.09-.55-.35-1.72-1.42-2.32-2.9-.18-.35-.28-.75-.38-1.13-.13-.37-.15-.76-.22-1.1-.08-.69-.08-1.26-.04-1.58v.05c.01-.25.05-.52.11-.82.04-.3.15-.61.24-.93.24-.64.57-1.32,1.04-1.93.93-1.23,2.28-2.19,3.21-2.63.32-.07.7-.21.99-.25-.17,0-.13-.06,0-.08.97-.15.04-.08,1.06-.21.58-.07,2.11.01,3.37.68,1.29.61,2.21,1.71,2.46,2.18.22.19.4.46.56.75.17.28.32.57.45.84l-.05-.04c.14.26.56,1.3.71,2.31.23,1.02.06,1.99.03,2.32l.03-.09c0,.59-.18.47-.31.89.06,0,.08.11.07.26-.03.14-.09.31-.13.39l-.02-.02c-.08.28-.35.91-.67,1.31l-.04-.06c-.2.38-.81.92-1.05,1.12-.56.45-1.56.97-2.42,1.44-.22.03-.43.06-.64.07l-.08.05s-.02.62.08,1.25c.07.63.38,1.29,1.23,1.22v.07c.1-.04.2-.09.29-.13.36-.12.48-.27.49-.2l-.47.21c.35-.14.13,0,0,.1.15-.06.29-.12.42-.15.06-.05-.06,0-.12,0,.18-.1.4-.29.64-.38.35-.17.07.09.47-.13,1.06-.58,2.05-1.28,2.94-2.18.89-.89,1.61-2.03,2.05-3.31.04-.05.02.02,0,.1.1-.4.24-.76.29-1.14.05-.37.1-.74.13-1.1.06-.2.08-.25.11-.31-.01.03-.03-.21-.04-.58,0-.19-.02-.41-.03-.64-.02-.23-.08-.47-.12-.72-.14-1.02-.48-1.9-.47-1.94Z"/>
      </g>
      <g>
        <path class="d" d="M126.02,3.69c-.12-.08-.33-.09-.53-.11.15.08.32.12.53.11Z"/>
        <polygon class="d" points="125.48 3.57 125.48 3.58 125.49 3.58 125.48 3.57"/>
        <path class="d" d="M86.55,5.67c.05,0,.11.01.17.02-.06-.01-.12-.02-.17-.02Z"/>
        <path class="d" d="M115.85,3.22l-.03.14c-.47,0-.14-.16-.57-.13-.17.19-.72-.03-.88.07,0-.02-.21-.02-.2-.08-.07.1-.22.02-.36.05-.05.03.04.03.07.06l-.31.03c-.12-.04-.15-.1-.02-.11-.81-.05-4.68-.2-5.55-.16.11.08.38.03.48.16-.23.07-.34-.03-.44.04-.08-.19-.5-.05-.67-.24l-.07.1-.11-.07c-1.01.1-.23.05-1.13.01-.52,0-.77.15-1.05.09.04,0,.15.07.02.09-.02-.09-.36.06-.42-.04-.13,0-.56-.02-.42.11-.07-.06-.45-.1-.22-.15-.13,0-.25-.03-.34,0l.16.04c-.43,0-.66-.1-.95,0l.16.06c-.26,0-.47,0-.57-.13l.27-.03c-.43-.01-.69-.01-1.04.04h.13c-.46.12-2.84.11-3.26.24l.19.11-.36.06s.19-.3.22-.27c-.77-.02-4.78-.21-5.48-.35-.28-.08-.04-.16-.03-.17-.35,0-.16.09-.45.06-.08-.02.02-.07.07-.08-.13,0-.25-.04-.26,0,.16.05.08.16.14.25l-.38-.04.02-.07c-.08,0-.23.19-.6.11-.63-.09-1.31-.13-1.94-.22.01-.04.15-.06.29-.07-.08-.01-.21-.01-.29-.05.14.1-.27.02-.15.07-.48.13-1.06-.11-1.48-.03-.04.16-1.26,2.7-1.3,2.9-.13-.02-.27-.05-.32-.07.04.05.3.12.45.11l.04-.1c.32,0,.07.07.38.11,0,.09-.28.07-.54.04.23.04.45.14.55.05.21.06-.04.1.21.17.19,0,.43-.06.64.02h0c.49.16.79-.02,1.24.11l-.05.02c.16.07.48.03.77.12-.08-.03-.15-.1.03-.09.33.09.57.06.8.15l.24-.06c1.17.15,5.79.36,6.96.39h-.05c1.79.07,5.45.22,7.3.14.28.09.67.07.97.1-.16-.04-.11-.1.02-.09.9.02.06-.06.98-.08,1.05-.06,5.07.08,6.01.16.5-.12,1.13-.02,1.62-.09l-.05.03c.53-.04,3.51.11,4.13.08l-.08-.02c.53-.07.46.06.88.11-.05-.14.4-.21.58-.22v.03c.26-.02.85-.13,1.29-.14l-.02.08c.36-.08,1.04-.03,1.31-.04.6.04,1.52.18,2.31.09l.52.22.08-.02s.82-2.58-.23-3.15l.02-.07h-.21c-.25-.03-.36.05-.35-.02h.34c-.25-.01-.08-.05.02-.09-.1,0-.21-.02-.29-.04-.05.03.04.03.08.05-.13.02-.32.09-.49.06-.26-.01-.02-.12-.32-.13-1.57-.08-3.1-.19-4.69-.19-.04-.03,0-.03.05-.04-.5.01-.88.02-1.34.04-.12-.04-.15-.08-.19-.11.04.03-.57.04-1.18.04-.31,0-.62,0-.86,0-.24,0-.4,0-.41-.01Z"/>
      </g>
      <g>
        <path class="d" d="M86.35,16.73c.07.08.19.09.3.11-.09-.08-.18-.11-.3-.11Z"/>
        <polygon class="d" points="86.65 16.84 86.65 16.84 86.65 16.84 86.65 16.84"/>
        <path class="d" d="M108.66,14.49s-.07-.01-.11-.02c.03.01.07.02.11.02Z"/>
        <path class="d" d="M92.01,17.13l.02-.14c.26,0,.08.16.32.12.1-.19.4.02.49-.08,0,.02.12.02.11.08.04-.1.12-.02.2-.05.03-.03-.02-.03-.04-.06l.17-.04c.07.03.08.1,0,.11.45.04,2.6.16,3.08.11-.06-.08-.21-.03-.26-.15.13-.07.19.03.25-.05.04.18.28.05.37.23l.04-.1.06.06c.56-.1.13-.05.63-.02.29-.01.43-.16.59-.1-.02,0-.08-.07,0-.09,0,.09.2-.06.23.04.07,0,.31.01.23-.12.04.06.24.1.12.15.07,0,.14.03.19,0l-.09-.04c.24,0,.36.09.52-.01l-.09-.05c.14,0,.26,0,.31.12l-.15.03c.23,0,.38,0,.58-.05h-.07c.26-.12,1.57-.14,1.81-.27l-.1-.1.2-.06s-.12.3-.14.27c.43.01,2.63.17,3,.3.15.07,0,.16,0,.17.19-.01.1-.09.25-.06.04.02-.02.07-.05.08.07,0,.13.04.14,0-.08-.05-.03-.16-.05-.24l.2.04-.02.07s.15-.19.34-.12c.34.09.71.12,1.05.2-.01.04-.09.06-.17.07.05.01.12.01.15.05-.07-.09.15-.03.09-.07.28-.13.57.09.81.02.03-.16,1.12-2.67,1.19-2.85.08.02.17.05.21.08-.03-.06-.19-.12-.28-.11l-.04.1c-.2,0-.03-.07-.21-.11,0-.09.18-.07.34-.04-.13-.04-.26-.14-.33-.06-.12-.06.04-.1-.1-.17-.11,0-.27.06-.38-.02h0c-.28-.16-.47.02-.72-.11l.03-.02c-.08-.07-.28-.03-.44-.12.05.03.08.09-.03.09-.18-.09-.32-.05-.45-.14l-.15.06c-.67-.14-3.31-.32-3.97-.35h.03c-1.02-.06-3.1-.18-4.15-.09-.16-.08-.38-.07-.54-.09.09.04.06.09-.01.09-.51-.01-.04.06-.55.09-.59.07-2.85-.04-3.37-.11-.28.12-.63.02-.91.1l.03-.03c-.3.04-1.97-.09-2.32-.05l.05.02c-.3.07-.26-.06-.5-.1.03.14-.22.21-.32.22v-.03c-.14.02-.48.14-.72.15v-.08c-.19.08-.58.04-.72.05-.33-.03-.85-.17-1.3-.07l-.29-.22-.04.02s-.41,2.59.19,3.15v.08s.11,0,.11,0c.14.04.2-.05.19.03h-.19c.14.01.04.05,0,.09.06,0,.11.02.16.04.03-.03-.02-.03-.04-.05.07-.03.18-.1.27-.06.14,0,.01.12.18.13.88.07,1.73.16,2.61.15.02.03,0,.03-.03.04.27-.03.5-.02.75-.05.07.03.09.08.11.11-.04-.06,1.34-.06,1.36-.04Z"/>
      </g>
      <g>
        <path class="d" d="M125.13,39.43c-.12-.08-.33-.09-.53-.11.15.08.32.12.53.11Z"/>
        <polygon class="d" points="124.59 39.32 124.59 39.32 124.6 39.32 124.59 39.32"/>
        <path class="d" d="M85.66,41.42c.05,0,.11.01.17.02-.06-.01-.12-.02-.17-.02Z"/>
        <path class="d" d="M114.96,38.96l-.03.14c-.47,0-.14-.16-.57-.13-.17.19-.72-.03-.88.07,0-.02-.21-.02-.2-.08-.07.1-.22.02-.36.05-.05.03.04.03.07.06l-.31.03c-.12-.04-.15-.1-.02-.11-.81-.05-4.68-.2-5.55-.16.11.08.38.03.48.16-.23.07-.34-.03-.44.04-.08-.19-.5-.05-.67-.24l-.07.1-.11-.07c-1.01.1-.23.05-1.13.01-.52,0-.77.15-1.05.09.04,0,.15.07.02.09-.02-.09-.36.06-.42-.04-.13,0-.56-.02-.42.11-.07-.06-.45-.1-.22-.15-.13,0-.25-.03-.34,0l.16.04c-.43,0-.66-.1-.95,0l.16.06c-.26,0-.47,0-.57-.13l.27-.03c-.43-.01-.69-.01-1.04.04h.13c-.46.12-2.84.11-3.26.24l.19.11-.36.06s.19-.3.22-.27c-.77-.02-4.78-.21-5.48-.35-.28-.08-.04-.16-.03-.17-.35,0-.16.09-.45.06-.08-.02.02-.07.07-.08-.13,0-.25-.04-.26,0,.16.05.08.16.14.25l-.38-.04.02-.07c-.08,0-.23.19-.6.11-.63-.09-1.31-.13-1.94-.22.01-.04.15-.06.29-.07-.08-.01-.21-.01-.29-.05.14.1-.27.02-.15.07-.48.13-1.06-.11-1.48-.03-.04.16-1.26,2.7-1.3,2.9-.14-.02-.27-.05-.32-.07.04.05.3.12.45.11l.04-.1c.32,0,.07.07.38.11,0,.09-.28.07-.54.04.23.04.45.14.55.05.21.06-.04.1.21.17.19,0,.43-.06.64.02h0c.49.16.79-.02,1.24.11l-.05.02c.16.07.48.03.77.12-.08-.03-.15-.1.03-.09.33.09.57.06.8.15l.24-.06c1.17.15,5.79.36,6.96.39h-.05c1.79.07,5.45.22,7.3.14.28.09.67.07.97.1-.16-.04-.11-.1.02-.09.9.02.06-.06.98-.08,1.05-.06,5.07.08,6.01.16.5-.12,1.13-.02,1.62-.09l-.05.03c.53-.04,3.51.11,4.13.08l-.08-.02c.53-.07.46.06.88.11-.05-.14.4-.21.58-.22v.03c.26-.02.85-.13,1.29-.14l-.02.08c.36-.08,1.04-.03,1.31-.04.6.04,1.52.18,2.31.09l.52.22.08-.02s.82-2.58-.23-3.15l.02-.07h-.21c-.25-.03-.36.05-.35-.02h.34c-.25-.01-.08-.05.02-.09-.1,0-.21-.02-.29-.04-.05.03.04.03.08.05-.13.02-.32.09-.49.06-.26-.01-.02-.12-.32-.13-1.57-.08-3.1-.19-4.69-.19-.04-.03,0-.03.05-.04-.5.01-.88.02-1.34.04-.12-.04-.15-.08-.19-.11.04.03-.57.04-1.18.04-.31,0-.62,0-.86,0-.24,0-.4,0-.41-.01Z"/>
      </g>
      <g>
        <path class="d" d="M85.46,52.48c.07.08.19.09.3.11-.09-.08-.18-.11-.3-.11Z"/>
        <polygon class="d" points="85.76 52.58 85.76 52.58 85.75 52.58 85.76 52.58"/>
        <path class="d" d="M107.76,50.23s-.07-.01-.11-.02c.03.01.07.02.11.02Z"/>
        <path class="d" d="M91.12,52.87l.02-.14c.26,0,.08.16.32.12.1-.19.4.02.49-.08,0,.02.12.02.11.08.04-.1.12-.02.2-.05.03-.03-.02-.03-.04-.06l.17-.04c.07.03.08.1,0,.11.45.04,2.6.16,3.08.11-.06-.08-.21-.03-.26-.15.13-.07.19.03.25-.05.04.18.28.05.37.23l.04-.1.06.06c.56-.1.13-.05.63-.02.29-.01.43-.16.59-.1-.02,0-.08-.07,0-.09,0,.09.2-.06.23.04.07,0,.31.01.23-.12.04.06.24.1.12.15.07,0,.14.03.19,0l-.09-.04c.24,0,.36.09.52-.01l-.09-.05c.14,0,.26,0,.31.12l-.15.03c.23,0,.38,0,.58-.05h-.07c.26-.12,1.57-.14,1.81-.27l-.1-.1.2-.06s-.12.3-.14.27c.43.01,2.63.17,3,.3.15.07,0,.16,0,.17.19-.01.1-.09.25-.06.04.02-.02.07-.05.08.07,0,.13.04.14,0-.08-.05-.03-.16-.05-.24l.2.04-.02.07s.15-.19.34-.12c.34.09.71.12,1.05.2-.01.04-.09.06-.17.07.05.01.12.01.15.05-.07-.09.15-.03.09-.07.28-.13.57.09.81.02.03-.16,1.12-2.67,1.19-2.85.08.02.17.05.21.08-.03-.06-.19-.12-.28-.11l-.04.1c-.2,0-.03-.07-.21-.11,0-.09.18-.07.34-.04-.13-.04-.26-.14-.33-.06-.12-.06.04-.1-.1-.17-.11,0-.27.06-.38-.02h0c-.28-.16-.47.02-.72-.11l.03-.02c-.08-.07-.28-.03-.44-.12.05.03.08.09-.03.09-.18-.09-.32-.05-.45-.14l-.15.06c-.67-.14-3.31-.32-3.97-.35h.03c-1.02-.06-3.1-.18-4.15-.09-.16-.08-.38-.07-.54-.09.09.04.06.09-.01.09-.51-.01-.04.06-.55.09-.59.07-2.85-.04-3.37-.11-.28.12-.63.02-.91.1l.03-.03c-.3.04-1.97-.09-2.32-.05l.05.02c-.3.07-.26-.06-.5-.1.03.14-.22.21-.32.22v-.03c-.14.02-.48.14-.72.15v-.08c-.19.08-.58.04-.72.05-.33-.03-.85-.17-1.3-.07l-.29-.22-.04.02s-.41,2.59.19,3.15v.08s.11,0,.11,0c.14.04.2-.05.19.03h-.19c.14.01.04.05,0,.09.06,0,.11.02.16.04.03-.03-.02-.03-.04-.05.07-.03.18-.1.27-.06.14,0,.01.12.18.13.88.07,1.73.16,2.61.15.02.03,0,.03-.03.04.27-.03.5-.02.75-.05.07.03.09.08.11.11-.04-.06,1.34-.06,1.36-.04Z"/>
      </g>
      <g>
        <path class="d" d="M124.24,75.18c-.12-.08-.33-.09-.53-.11.15.08.32.12.53.11Z"/>
        <polygon class="d" points="123.7 75.06 123.7 75.06 123.71 75.07 123.7 75.06"/>
        <path class="d" d="M84.77,77.16c.05,0,.11.01.17.02-.06-.01-.12-.02-.17-.02Z"/>
        <path class="d" d="M114.06,74.71l-.03.14c-.47,0-.14-.16-.57-.13-.17.19-.72-.03-.88.07,0-.02-.21-.02-.2-.08-.07.1-.22.02-.36.05-.05.03.04.03.07.06l-.31.03c-.12-.04-.15-.1-.02-.11-.81-.05-4.68-.2-5.55-.16.11.08.38.03.48.16-.23.07-.34-.03-.44.04-.08-.19-.5-.05-.67-.24l-.07.1-.11-.07c-1.01.1-.23.05-1.13.01-.52,0-.77.15-1.05.09.04,0,.15.07.02.09-.02-.09-.36.06-.42-.04-.13,0-.56-.02-.42.11-.07-.06-.45-.1-.22-.15-.13,0-.25-.03-.34,0l.16.04c-.43,0-.66-.1-.95,0l.16.06c-.26,0-.47,0-.57-.13l.27-.03c-.43-.01-.69-.01-1.04.04h.13c-.46.12-2.84.11-3.26.24l.19.11-.36.06s.19-.3.22-.27c-.77-.02-4.78-.21-5.48-.35-.28-.08-.04-.16-.03-.17-.35,0-.16.09-.45.06-.08-.02.02-.07.07-.08-.13,0-.25-.04-.26,0,.16.05.08.16.14.25l-.38-.04.02-.07c-.08,0-.23.19-.6.11-.63-.09-1.31-.13-1.94-.22.01-.04.15-.06.29-.07-.08-.01-.21-.01-.29-.05.14.1-.27.02-.15.07-.48.13-1.06-.11-1.48-.03-.04.16-1.26,2.7-1.3,2.9-.13-.02-.27-.05-.32-.07.04.05.3.12.45.11l.04-.1c.32,0,.07.07.38.11,0,.09-.28.07-.54.04.23.04.45.14.55.05.21.06-.04.1.21.17.19,0,.43-.06.64.02h0c.49.16.79-.02,1.24.11l-.05.02c.16.07.48.03.77.12-.08-.03-.15-.1.03-.09.33.09.57.06.8.15l.24-.06c1.17.15,5.79.36,6.96.39h-.05c1.79.07,5.45.22,7.3.14.28.09.67.07.97.1-.16-.04-.11-.1.02-.09.9.02.06-.06.98-.08,1.05-.06,5.07.08,6.01.16.5-.12,1.13-.02,1.62-.09l-.05.03c.53-.04,3.51.11,4.13.08l-.08-.02c.53-.07.46.06.88.11-.05-.14.4-.21.58-.22v.03c.26-.02.85-.13,1.29-.14l-.02.08c.36-.08,1.04-.03,1.31-.04.6.04,1.52.18,2.31.09l.52.22.08-.02s.82-2.58-.23-3.15l.02-.07h-.21c-.25-.03-.36.05-.35-.02h.34c-.25-.01-.08-.05.02-.09-.1,0-.21-.02-.29-.04-.05.03.04.03.08.05-.13.02-.32.09-.49.06-.26-.01-.02-.12-.32-.13-1.57-.08-3.1-.19-4.69-.19-.04-.03,0-.03.05-.04-.5.01-.88.02-1.34.04-.12-.04-.15-.08-.19-.11.04.03-.57.04-1.18.04-.31,0-.62,0-.86,0-.24,0-.4,0-.41-.01Z"/>
      </g>
      <g>
        <path class="d" d="M84.57,88.22c.07.08.19.09.3.11-.09-.08-.18-.11-.3-.11Z"/>
        <polygon class="d" points="84.86 88.33 84.87 88.33 84.86 88.33 84.86 88.33"/>
        <path class="d" d="M106.87,85.98s-.07-.01-.11-.02c.03.01.07.02.11.02Z"/>
        <path class="d" d="M90.22,88.61l.02-.14c.26,0,.08.16.32.12.1-.19.4.02.49-.08,0,.02.12.02.11.08.04-.1.12-.02.2-.05.03-.03-.02-.03-.04-.06l.17-.04c.07.03.08.1,0,.11.45.04,2.6.16,3.08.11-.06-.08-.21-.03-.26-.15.13-.07.19.03.25-.05.04.18.28.05.37.23l.04-.1.06.06c.56-.1.13-.05.63-.02.29-.01.43-.16.59-.1-.02,0-.08-.07,0-.09,0,.09.2-.06.23.04.07,0,.31.01.23-.12.04.06.24.1.12.15.07,0,.14.03.19,0l-.09-.04c.24,0,.36.09.52-.01l-.09-.05c.14,0,.26,0,.31.12l-.15.03c.23,0,.38,0,.58-.05h-.07c.26-.12,1.57-.14,1.81-.27l-.1-.1.2-.06s-.12.3-.14.27c.43.01,2.63.17,3,.3.15.07,0,.16,0,.17.19-.01.1-.09.25-.06.04.02-.02.07-.05.08.07,0,.13.04.14,0-.08-.05-.03-.16-.05-.24l.2.04-.02.07s.15-.19.34-.12c.34.09.71.12,1.05.2-.01.04-.09.06-.17.07.05.01.12.01.15.05-.07-.09.15-.03.09-.07.28-.13.57.09.81.02.03-.16,1.12-2.67,1.19-2.85.08.02.17.05.21.08-.03-.06-.19-.12-.28-.11l-.04.1c-.2,0-.03-.07-.21-.11,0-.09.18-.07.34-.04-.13-.04-.26-.14-.33-.06-.12-.06.04-.1-.1-.17-.11,0-.27.06-.38-.02h0c-.28-.16-.47.02-.72-.11l.03-.02c-.08-.07-.28-.03-.44-.12.05.03.08.09-.03.09-.18-.09-.32-.05-.45-.14l-.15.06c-.67-.14-3.31-.32-3.97-.35h.03c-1.02-.06-3.1-.18-4.15-.09-.16-.08-.38-.07-.54-.09.09.04.06.09-.01.09-.51-.01-.04.06-.55.09-.59.07-2.85-.04-3.37-.11-.28.12-.63.02-.91.1l.03-.03c-.3.04-1.97-.09-2.32-.05l.05.02c-.3.07-.26-.06-.5-.1.03.14-.22.21-.32.22v-.03c-.14.02-.48.14-.72.15v-.08c-.19.08-.58.04-.72.05-.33-.03-.85-.17-1.3-.07l-.29-.22-.04.02s-.41,2.59.19,3.15v.08s.11,0,.11,0c.14.04.2-.05.19.03h-.19c.14.01.04.05,0,.09.06,0,.11.02.16.04.03-.03-.02-.03-.04-.05.07-.03.18-.1.27-.06.14,0,.01.12.18.13.88.07,1.73.16,2.61.15.02.03,0,.03-.03.04.27-.03.5-.02.75-.05.07.03.09.08.11.11-.04-.06,1.34-.06,1.36-.04Z"/>
      </g>
      <g>
        <path class="d" d="M123.34,110.92c-.12-.08-.33-.09-.53-.11.15.08.32.12.53.11Z"/>
        <polygon class="d" points="122.81 110.81 122.81 110.81 122.81 110.81 122.81 110.81"/>
        <path class="d" d="M83.88,112.91c.05,0,.11.01.17.02-.06-.01-.12-.02-.17-.02Z"/>
        <path class="d" d="M113.17,110.45l-.03.14c-.47,0-.14-.16-.57-.13-.17.19-.72-.03-.88.07,0-.02-.21-.02-.2-.08-.07.1-.22.02-.36.05-.05.03.04.03.07.06l-.31.03c-.12-.04-.15-.1-.02-.11-.81-.05-4.68-.2-5.55-.16.11.08.38.03.48.16-.23.07-.34-.03-.44.04-.08-.19-.5-.05-.67-.24l-.07.1-.11-.07c-1.01.1-.23.05-1.13.01-.52,0-.77.15-1.05.09.04,0,.15.07.02.09-.02-.09-.36.06-.42-.04-.13,0-.56-.02-.42.11-.07-.06-.45-.1-.22-.15-.13,0-.25-.03-.34,0l.16.04c-.43,0-.66-.1-.95,0l.16.06c-.26,0-.47,0-.57-.13l.27-.03c-.43-.01-.69-.01-1.04.04h.13c-.46.12-2.84.11-3.26.24l.19.11-.36.06s.19-.3.22-.27c-.77-.02-4.78-.21-5.48-.35-.28-.08-.04-.16-.03-.17-.35,0-.16.09-.45.06-.08-.02.02-.07.07-.08-.13,0-.25-.04-.26,0,.16.05.08.16.14.25l-.38-.04.02-.07c-.08,0-.23.19-.6.11-.63-.09-1.31-.13-1.94-.22.01-.04.15-.06.29-.07-.08-.01-.21-.01-.29-.05.14.1-.27.02-.15.07-.48.13-1.06-.11-1.48-.03-.04.16-1.26,2.7-1.3,2.9-.14-.02-.27-.05-.32-.07.04.05.3.12.45.11l.04-.1c.32,0,.07.07.38.11,0,.09-.28.07-.54.04.23.04.45.14.55.05.21.06-.04.1.21.17.19,0,.43-.06.64.02h0c.49.16.79-.02,1.24.11l-.05.02c.16.07.48.03.77.12-.08-.03-.15-.1.03-.09.33.09.57.06.8.15l.24-.06c1.17.15,5.79.36,6.96.39h-.05c1.79.07,5.45.22,7.3.14.28.09.67.07.97.1-.16-.04-.11-.1.02-.09.9.02.06-.06.98-.08,1.05-.06,5.07.08,6.01.16.5-.12,1.13-.02,1.62-.09l-.05.03c.53-.04,3.51.11,4.13.08l-.08-.02c.53-.07.46.06.88.11-.05-.14.4-.21.58-.22v.03c.26-.02.85-.13,1.29-.14l-.02.08c.36-.08,1.04-.03,1.31-.04.6.04,1.52.18,2.31.09l.52.22.08-.02s.82-2.58-.23-3.15l.02-.07h-.21c-.25-.03-.36.05-.35-.02h.34c-.25-.01-.08-.05.02-.09-.1,0-.21-.02-.29-.04-.05.03.04.03.08.05-.13.02-.32.09-.49.06-.26-.01-.02-.12-.32-.13-1.57-.08-3.1-.19-4.69-.19-.04-.03,0-.03.05-.04-.5.01-.88.02-1.34.04-.12-.04-.15-.08-.19-.11.04.03-.57.04-1.18.04-.31,0-.62,0-.86,0-.24,0-.4,0-.41-.01Z"/>
      </g>
      <g>
        <path class="d" d="M67.95,87.59c-.08.07-.09.17-.1.27.08-.08.11-.16.1-.27Z"/>
        <polygon class="d" points="67.85 87.87 67.85 87.87 67.85 87.87 67.85 87.87"/>
        <path class="d" d="M70.67,107.9s.01-.07.02-.1c-.01.03-.02.07-.02.1Z"/>
        <path class="d" d="M67.68,92.74h.14c0,.25-.15.08-.12.3.19.08-.01.37.09.44-.02,0-.02.11-.08.1.1.03.03.11.05.18.03.02.03-.02.06-.04l.04.16c-.03.06-.09.08-.11.01-.03.41-.1,2.36-.05,2.8.08-.06.02-.19.15-.24.07.12-.02.17.05.22-.18.04-.04.25-.23.34l.1.03-.06.06c.12.51.05.12.04.57.02.26.17.39.11.53,0-.02.07-.08.09-.01-.09.01.06.18-.03.21.01.07,0,.28.12.21-.06.03-.09.22-.14.11,0,.06-.02.12,0,.17l.04-.08c.01.22-.08.33.02.47l.05-.08c0,.13,0,.24-.12.28l-.03-.13c0,.21,0,.34.06.52v-.06c.13.23.17,1.42.3,1.64l.1-.09.07.18s-.31-.11-.27-.12c0,.39-.11,2.38-.23,2.72-.07.13-.15,0-.17,0,.01.18.09.09.07.23-.02.04-.07-.02-.08-.04,0,.06-.04.12,0,.13.05-.07.16-.03.24-.05l-.04.19-.07-.02s.19.13.12.31c-.08.3-.1.64-.18.95-.04-.01-.06-.08-.07-.15,0,.04,0,.11-.05.14.09-.06.03.14.07.09.14.26-.08.51,0,.73.16.03,2.68,1.07,2.86,1.14-.02.08-.05.16-.08.2.06-.03.12-.18.11-.26l-.1-.04c0-.18.07-.03.1-.2.09,0,.07.17.04.31.04-.13.13-.24.05-.31.06-.11.1.04.17-.1,0-.11-.06-.25.01-.35h.01c.14-.25-.05-.43.08-.66l.02.03c.06-.08.03-.26.11-.4-.02.04-.09.07-.09-.03.08-.17.05-.3.13-.42l-.06-.14c.13-.62.25-3.04.26-3.65v.02c.04-.93.12-2.84,0-3.79.08-.14.06-.35.08-.5-.03.08-.09.05-.09-.01,0-.46-.06-.03-.1-.5-.08-.54-.02-2.6.04-3.07-.13-.25-.04-.58-.12-.83l.03.02c-.05-.27.04-1.8,0-2.11l-.02.04c-.08-.27.05-.24.09-.45-.14.03-.22-.2-.23-.29h.03c-.03-.13-.15-.43-.17-.65h.08c-.08-.18-.05-.53-.06-.66.03-.31.15-.78.05-1.18l.21-.27-.02-.04s-2.6-.3-3.14.26h-.08s.01.1.01.1c-.04.13.05.18-.02.18v-.17c-.01.13-.05.04-.1,0,0,.05-.01.1-.04.15.03.02.03-.02.05-.04.03.07.1.16.07.24,0,.13-.12.01-.13.16-.05.8-.12,1.57-.1,2.37-.03.02-.03,0-.04-.03.04.24.03.46.06.68-.03.06-.08.08-.11.1.06-.04.08,1.22.07,1.24Z"/>
      </g>
      <g>
        <path class="d" d="M68.85,51.49c-.08.07-.09.17-.1.27.08-.08.11-.16.1-.27Z"/>
        <polygon class="d" points="68.75 51.77 68.75 51.77 68.75 51.77 68.75 51.77"/>
        <path class="d" d="M71.57,71.8s.01-.07.02-.1c-.01.03-.02.07-.02.1Z"/>
        <path class="d" d="M68.58,56.64h.14c0,.25-.15.08-.12.3.19.08-.01.37.09.44-.02,0-.02.11-.08.1.1.03.03.11.05.18.03.02.03-.02.06-.04l.04.16c-.03.06-.09.08-.11.01-.03.41-.1,2.36-.05,2.8.08-.06.02-.19.15-.24.07.12-.02.17.05.22-.18.04-.04.25-.23.34l.1.03-.06.06c.12.51.05.12.04.57.02.26.17.39.11.53,0-.02.07-.08.09-.01-.09.01.06.18-.03.21.01.07,0,.28.12.21-.06.03-.09.22-.14.11,0,.06-.02.12,0,.17l.04-.08c.01.22-.08.33.02.47l.05-.08c0,.13,0,.24-.12.28l-.03-.13c0,.21,0,.34.06.52v-.06c.13.23.17,1.42.3,1.64l.1-.09.07.18s-.31-.11-.27-.12c0,.39-.11,2.38-.23,2.72-.07.13-.15,0-.17,0,.01.18.09.09.07.23-.02.04-.07-.02-.08-.04,0,.06-.04.12,0,.13.05-.07.16-.03.24-.05l-.04.19-.07-.02s.19.13.12.31c-.08.3-.1.64-.18.95-.04-.01-.06-.08-.07-.15,0,.04,0,.11-.05.14.09-.06.03.14.07.09.14.26-.08.51,0,.73.16.03,2.68,1.07,2.86,1.14-.02.08-.05.16-.08.2.06-.03.12-.18.11-.26l-.1-.04c0-.18.07-.03.1-.2.09,0,.07.17.04.31.04-.13.13-.24.05-.31.06-.11.1.04.17-.1,0-.11-.06-.25.01-.35h.01c.14-.25-.05-.43.08-.66l.02.03c.06-.08.03-.26.11-.4-.02.04-.09.07-.09-.03.08-.17.05-.3.13-.42l-.06-.14c.13-.62.25-3.04.26-3.65v.02c.04-.93.12-2.84,0-3.79.08-.14.06-.35.08-.5-.03.08-.09.05-.09-.01,0-.46-.06-.03-.1-.5-.08-.54-.02-2.6.04-3.07-.13-.25-.04-.58-.12-.83l.03.02c-.05-.27.04-1.8,0-2.11l-.02.04c-.08-.27.05-.24.09-.45-.14.03-.22-.2-.23-.29h.03c-.03-.13-.15-.43-.17-.65h.08c-.08-.18-.05-.53-.06-.66.03-.31.15-.78.05-1.18l.21-.27-.02-.04s-2.6-.3-3.14.26h-.08s.01.1.01.1c-.04.13.05.18-.02.18v-.17c-.01.13-.05.04-.1,0,0,.05-.01.1-.04.15.03.02.03-.02.05-.04.03.07.1.16.07.24,0,.13-.12.01-.13.16-.05.8-.12,1.57-.1,2.37-.03.02-.03,0-.04-.03.04.24.03.46.06.68-.03.06-.08.08-.11.1.06-.04.08,1.22.07,1.24Z"/>
      </g>
      <g>
        <path class="d" d="M69.69,17.95c-.08.07-.09.17-.1.27.08-.08.11-.16.1-.27Z"/>
        <polygon class="d" points="69.59 18.23 69.59 18.23 69.59 18.22 69.59 18.23"/>
        <path class="d" d="M72.41,38.26s.01-.07.02-.1c-.01.03-.02.07-.02.1Z"/>
        <path class="d" d="M69.42,23.1h.14c0,.25-.15.08-.12.3.19.08-.01.37.09.44-.02,0-.02.11-.08.1.1.03.03.11.05.18.03.02.03-.02.06-.04l.04.16c-.03.06-.09.08-.11.01-.03.41-.1,2.36-.05,2.8.08-.06.02-.19.15-.24.07.12-.02.17.05.22-.18.04-.04.25-.23.34l.1.03-.06.06c.12.51.05.12.04.57.02.26.17.39.11.53,0-.02.07-.08.09-.01-.09.01.06.18-.03.21.01.07,0,.28.12.21-.06.03-.09.22-.14.11,0,.06-.02.12,0,.17l.04-.08c.01.22-.08.33.02.47l.05-.08c0,.13,0,.24-.12.28l-.03-.13c0,.21,0,.34.06.52v-.06c.13.23.17,1.42.3,1.64l.1-.09.07.18s-.31-.11-.27-.12c0,.39-.11,2.38-.23,2.72-.07.13-.15,0-.17,0,.01.18.09.09.07.23-.02.04-.07-.02-.08-.04,0,.06-.04.12,0,.13.05-.07.16-.03.24-.05l-.04.19-.07-.02s.19.13.12.31c-.08.3-.1.64-.18.95-.04-.01-.06-.08-.07-.15,0,.04,0,.11-.05.14.09-.06.03.14.07.09.14.26-.08.51,0,.73.16.03,2.68,1.07,2.86,1.14-.02.08-.05.16-.08.2.06-.03.12-.18.11-.26l-.1-.04c0-.18.07-.03.1-.2.09,0,.07.17.04.31.04-.13.13-.24.05-.31.06-.11.1.04.17-.1,0-.11-.06-.25.01-.35h.01c.14-.25-.05-.43.08-.66l.02.03c.06-.08.03-.26.11-.4-.02.04-.09.07-.09-.03.08-.17.05-.3.13-.42l-.06-.14c.13-.62.25-3.04.26-3.65v.02c.04-.93.12-2.84,0-3.79.08-.14.06-.35.08-.5-.03.08-.09.05-.09-.01,0-.46-.06-.03-.1-.5-.08-.54-.02-2.6.04-3.07-.13-.25-.04-.58-.12-.83l.03.02c-.05-.27.04-1.8,0-2.11l-.02.04c-.08-.27.05-.24.09-.45-.14.03-.22-.2-.23-.29h.03c-.03-.13-.15-.43-.17-.65h.08c-.08-.18-.05-.53-.06-.66.03-.31.15-.78.05-1.18l.21-.27-.02-.04s-2.6-.3-3.14.26h-.08s.01.1.01.1c-.04.13.05.18-.02.18v-.17c-.01.13-.05.04-.1,0,0,.05-.01.1-.04.15.03.02.03-.02.05-.04.03.07.1.16.07.24,0,.13-.12.01-.13.16-.05.8-.12,1.57-.1,2.37-.03.02-.03,0-.04-.03.04.24.03.46.06.68-.03.06-.08.08-.11.1.06-.04.08,1.22.07,1.24Z"/>
      </g>
      <g>
        <path class="d" d="M83.67,123.96c.07.08.19.09.3.11-.09-.08-.18-.11-.3-.11Z"/>
        <polygon class="d" points="83.97 124.07 83.97 124.07 83.97 124.07 83.97 124.07"/>
        <path class="d" d="M105.98,121.72s-.07-.01-.11-.02c.03.01.07.02.11.02Z"/>
        <path class="d" d="M89.33,124.36l.02-.14c.26,0,.08.16.32.12.1-.19.4.02.49-.08,0,.02.12.02.11.08.04-.1.12-.02.2-.05.03-.03-.02-.03-.04-.06l.17-.04c.07.03.08.1,0,.11.45.04,2.6.16,3.08.11-.06-.08-.21-.03-.26-.15.13-.07.19.03.25-.05.04.18.28.05.37.23l.04-.1.06.06c.56-.1.13-.05.63-.02.29-.01.43-.16.59-.1-.02,0-.08-.07,0-.09,0,.09.2-.06.23.04.07,0,.31.01.23-.12.04.06.24.1.12.15.07,0,.14.03.19,0l-.09-.04c.24,0,.36.09.52-.01l-.09-.05c.14,0,.26,0,.31.12l-.15.03c.23,0,.38,0,.58-.05h-.07c.26-.12,1.57-.14,1.81-.27l-.1-.1.2-.06s-.12.3-.14.27c.43.01,2.63.17,3,.3.15.07,0,.16,0,.17.19-.01.1-.09.25-.06.04.02-.02.07-.05.08.07,0,.13.04.14,0-.08-.05-.03-.16-.05-.24l.2.04-.02.07s.15-.19.34-.12c.34.09.71.12,1.05.2-.01.04-.09.06-.17.07.05.01.12.01.15.05-.07-.09.15-.03.09-.07.28-.13.57.09.81.02.03-.16,1.12-2.67,1.19-2.85.08.02.17.05.21.08-.03-.06-.19-.12-.28-.11l-.04.1c-.2,0-.03-.07-.21-.11,0-.09.18-.07.34-.04-.13-.04-.26-.14-.33-.06-.12-.06.04-.1-.1-.17-.11,0-.27.06-.38-.02h0c-.28-.16-.47.02-.72-.11l.03-.02c-.08-.07-.28-.03-.44-.12.05.03.08.09-.03.09-.18-.09-.32-.05-.45-.14l-.15.06c-.67-.14-3.31-.32-3.97-.35h.03c-1.02-.06-3.1-.18-4.15-.09-.16-.08-.38-.07-.54-.09.09.04.06.09-.01.09-.51-.01-.04.06-.55.09-.59.07-2.85-.04-3.37-.11-.28.12-.63.02-.91.1l.03-.03c-.3.04-1.97-.09-2.32-.05l.05.02c-.3.07-.26-.06-.5-.1.03.14-.22.21-.32.22v-.03c-.14.02-.48.14-.72.15v-.08c-.19.08-.58.04-.72.05-.33-.03-.85-.17-1.3-.07l-.29-.22-.04.02s-.41,2.59.19,3.15v.08s.11,0,.11,0c.14.04.2-.05.19.03h-.19c.14.01.04.05,0,.09.06,0,.11.02.16.04.03-.03-.02-.03-.04-.05.07-.03.18-.1.27-.06.14,0,.01.12.18.13.88.07,1.73.16,2.61.15.02.03,0,.03-.03.04.27-.03.5-.02.75-.05.07.03.09.08.11.11-.04-.06,1.34-.06,1.36-.04Z"/>
      </g>
      <g>
        <path class="d" d="M7.06,63.79c-.08.52-.09,1.42-.1,2.27.08-.65.11-1.35.1-2.27Z"/>
        <path class="d" d="M6.96,66.07h0s0,0,0-.02v.02Z"/>
        <path class="d" d="M8.94,61.21c-.17-.06-.34-.16-.52-.25.17.1.34.19.52.25Z"/>
        <path class="d" d="M36.5,84.17l.13-.14c2.01,0,.59.16,2.45.12.18-.05.47-.07.8-.08.42-.02.92-.03,1.41-.12.98-.15,1.91-.48,2.25-.73,0,.05,1.02-.54.99-.46.25-.28.98-.73,1.47-1.3.16-.22-.15.13-.32.24.4-.4.75-.84,1.06-1.31.38-.54.52-.65.15-.03.3-.47.74-1.18,1.05-2.16.15-.49.27-1.04.35-1.64.02-.3.03-.6.05-.92,0-.25,0-.5,0-.76.01-2.09.03-4.6.04-7.11,0-1.12.01-2.24.01-3.32,0,0,0-.01.01-.01-.13.08.3-.16.56-.3.27-.17.54-.35.81-.51,2.07-1.43,3.28-3.12,3.83-4.04-.33.45-1.12,1.53-1.56,1.82.7-.9,1.07-1.29,1.28-1.75.44-.24,1.27-2.15,1.67-2.93,0-.12.01-.23,0-.34l.21-.53c.52-2.48.31-2.8.37-3-.02-.21.14-.37-.14-2.59-.21-1.28-.58-2.18-.9-2.91-.35-.73-.66-1.31-1.02-1.93.11.18.35.7-.02.14.05-.17-1.03-1.42-1.18-1.71-.23-.23-.66-.77-1.06-1.09-.39-.34-.67-.55-.45-.26-.19-.32-1.71-1.42-.77-.81-.49-.4-1.03-.71-1.43-.93l.68.45c-.9-.57-1.64-.93-2.32-1.21-.34-.13-.66-.26-.99-.35-.33-.08-.66-.15-1-.21l.75.24c-.61-.17-1.18-.29-1.66-.36-.48-.1-.86-.16-1.11-.22.44,0,.87.06,1.31.11-2.09-.3-3.44-.22-5.15.25l.62-.13c-.12.03-.27.07-.45.12-.09.02-.18.05-.28.08-.09.02-.25.07-.23.07-.07.03-.14.08-.23.12-.04-.05-.1-.13-.19-.25-.17-.22-.34-.44-.52-.67-.21-.24-.42-.48-.64-.73-.9-.95-1.99-1.79-3.11-2.41-2.24-1.28-4.51-1.54-5.28-1.54.3.06.6.13.9.22-.57-.07-1.14-.11-1.71-.09.2,0,.85-.26,1.02-.21-1.04-.11-3.48-.28-6.19.82-1.34.53-2.73,1.35-3.92,2.44-.6.54-1.15,1.15-1.65,1.8l-.36.49-.11.17c-.08.12-.11.2-.17.29l-.22-.08-.29-.09c-.57-.15-1.13-.26-1.69-.32-1.12-.15-2.17-.08-3.1.02-1.87.24-3.25.8-3.91,1.12-1.27.56-.3-.03-.29-.05-.77.38-.88.55-1.01.63-.11.11-.23.14-.81.57-.33.22.02-.11.19-.25-.5.39-1,.71-1,.79.64-.47.46-.16.77-.3-.51.35-.95.77-1.4,1.18v-.11c-.27.3-.62.85-1.66,2.29-1.75,2.49-2.42,5.92-1.99,8.92-.04-.04-.18-.67-.22-1.32,0,.41.1,1.03.11,1.41-.04-.74.29,1.25.22.68.32,1.07.75,2.28,1.33,3.37.58,1.1,1.32,2.07,2.03,2.74.12,0,1.36.27,2.51.22,1.16-.01,2.18-.31,2.22-.4.38.22.79.37.92.46l-1.97.42s.02-.02.03-.02c0,0-.01,0-.03.02l1.98-.42c-.15-.1-.9-.47-1.31-.68l-.12.05c-.96-.57-.19-.18-1.08-.81.01-.11.79.51,1.57.9-.69-.37-1.27-.9-1.58-1.02-.53-.51.12-.02-.5-.64-.48-.4-1.06-1-1.42-1.63h.02c-.44-.75-.74-1.35-1-1.95-.26-.6-.44-1.22-.51-2.02l.05.17c-.05-.56-.17-1.68.03-2.68-.06.28-.17.53-.08-.08.22-1.15.45-1.94.87-2.68.1-.26.17-.53.31-.77.29-.5.75-1.19,1.44-1.9.69-.7,1.61-1.43,2.73-1.98,1.12-.55,2.43-.91,3.8-.97.68-.06,1.35,0,2.02.12l.5.1.25.06c.18.05.37.11.55.17.74.26,1.49.58,2.2.86.34-.59.66-1.24,1-1.78l.49-.83.27-.37c.34-.47.73-.89,1.12-1.27.8-.75,1.67-1.32,2.51-1.72,1.7-.79,3.24-.92,4.14-.91-.05,0-.11,0-.16.01,1.35-.01,3.03.25,4.66,1.13.81.43,1.6,1.01,2.3,1.72.36.35.68.74.99,1.16l.12.15.21.35.43.72c.28.5.56,1.01.85,1.52.72-.29,1.47-.61,2.2-.87.17-.06.39-.13.52-.16l.25-.07c.17-.04.34-.08.51-.11.68-.12,1.36-.19,2.07-.13,1.4.06,2.76.42,3.95,1.02,2.42,1.18,3.99,3.27,4.75,5.02.34.98.65,2.37.64,3.44,0-.6.07-.4.09.07.02.82-.04,1.24-.06,1.47-.02.23-.01.26,0,.29,0,.03,0,.06-.02.29-.03.23-.09.66-.36,1.46-.29.91-.98,2.47-2.42,3.88-.35.35-.75.69-1.18,1-.21.17-.45.29-.68.45-.11.08-.24.14-.36.2l-.2.1c-.13.08-.26.14-.39.19l-.77.36-.39.18-.19.09c-.06.03-.15.04-.13.13,0,.57,0,1.15,0,1.73,0,.73,0,1.46,0,2.19-.02,2.66-.03,5.31-.04,7.54,0,.56,0,1.09-.01,1.59,0,.12,0,.25,0,.37l-.02.27c0,.18-.03.34-.06.5-.11.63-.31,1.12-.5,1.44-.3.74-.92,1.46-1.68,1.94-.76.5-1.65.73-2.44.79l.16-.04c-.12,0-.22.02-.43.03-.22,0-.47,0-.75,0-.57,0-1.26,0-2.03,0-1.54,0-3.42-.01-5.31-.02-3.78-.02-7.6-.03-8.9-.01l.35.02c-2.27.08-1.96-.06-3.75-.1.24.14-1.71.22-2.45.23l.03-.03c-.28,0-.65.02-1.07.03-.21,0-.44.02-.67.02-.19,0-.39,0-.59,0-.79-.05-1.63-.32-2.26-.72l.09-.03c-.54-.28-1.23-.87-1.67-1.59-.46-.71-.66-1.49-.72-1.93-.05-.25-.04-.52-.05-.8,0-.36.01-.73.02-1.12.01-.78.03-1.61.04-2.47.02-1.72.03-3.54-.02-5.23l.21-2.19-.02-.32s-2.59-3.52-3.15.95l-.08-.07v.88c-.03,1.06.06,1.55-.02,1.48v-1.45c-.01,1.07-.05.32-.1-.09,0,.45-.02.88-.04,1.23.03.21.03-.15.05-.32.03.57.1,1.37.06,2.07,0,1.09-.12.07-.13,1.34-.02,1.68-.03,3.35-.05,5.01v.32s.01.4.01.4c0,.27.03.53.07.8.07.53.2,1.05.37,1.56.35,1.01.9,1.95,1.6,2.76,1.4,1.62,3.46,2.67,5.63,2.84.25.01.58.04.77.03h.63s1.26,0,1.26,0c.84,0,1.69,0,2.53,0,.15.03-.03.03-.23.04,2.05-.02,3.86-.04,5.73-.05.52.03.66.08.81.11-.15-.03,2.42-.05,5.05-.06,2.63,0,5.31,0,5.41,0Z"/>
      </g>
      <g>
        <path class="d" d="M8.83,73.08c.12.08.32.09.51.1-.15-.08-.3-.11-.51-.1Z"/>
        <polygon class="d" points="9.34 73.19 9.34 73.19 9.34 73.19 9.34 73.19"/>
        <path class="d" d="M46.23,69.52s-.1,0-.16,0c.05,0,.11,0,.16,0Z"/>
        <path class="d" d="M18.55,73.42l.03-.14c.45,0,.13.16.55.12.16-.19.69.02.84-.08,0,.02.2.02.19.08.06-.1.21-.02.34-.05.05-.03-.03-.03-.07-.06l.3-.04c.12.03.14.09.02.11.77.04,4.47.14,5.3.09-.11-.08-.36-.03-.46-.15.22-.07.32.02.42-.05.08.18.48.04.65.23l.06-.1.11.06c.97-.11.22-.05,1.08-.03.5-.02.73-.16,1.01-.11-.04,0-.15-.07-.02-.09.02.09.34-.07.4.03.13-.01.53,0,.4-.13.07.06.43.09.22.14.12,0,.24.02.33,0l-.16-.03c.41-.02.64.08.91-.03l-.15-.05c.25,0,.45-.02.55.11l-.25.04c.41,0,.66-.01,1-.08h-.12c.44-.13,2.72-.23,3.12-.38l-.18-.1.35-.08s-.17.31-.2.28c.74,0,4.59-.08,5.27-.02.28.05.05.15.05.17.34-.04.14-.1.43-.09.08.02-.02.08-.06.09.13-.01.24.02.25-.02-.16-.03-.09-.15-.16-.23h.37s-.02.09-.02.09c.08,0,.21-.21.57-.17.61.03,1.27,0,1.88.02,0,.05-.14.07-.27.1.08,0,.21,0,.28.02-.15-.08.26-.05.14-.09.45-.18,1.03-.02,1.42-.14.03-.17.85-2.85.85-3.04.12,0,.24,0,.28.02-.03-.05-.27-.07-.4-.04l-.02.11c-.3.04-.07-.06-.36-.06-.02-.09.25-.1.48-.11-.21-.01-.42-.07-.51.02-.2-.04.02-.11-.22-.14-.17.03-.39.11-.59.06v-.02c-.47-.09-.72.13-1.15.04l.05-.03c-.15-.05-.45.02-.73-.04.08.02.15.08-.02.09-.32-.05-.53,0-.77-.07l-.22.08c-1.1-.02-5.47.1-6.57.12h.04c-1.69.03-5.16.02-6.91.14-.27-.08-.64-.06-.92-.09.16.03.1.09-.02.09-.86,0-.06.06-.93.09-1,.08-4.83-.01-5.71-.08-.48.12-1.07.03-1.54.11l.05-.03c-.5.05-3.34-.07-3.92-.02l.08.02c-.51.08-.44-.06-.84-.1.05.14-.38.22-.55.23v-.03c-.24.02-.81.14-1.23.16l.02-.08c-.35.08-.99.05-1.24.06-.57-.03-1.44-.16-2.2-.06l-.49-.21-.07.02s-.79,2.59.21,3.15l-.02.08h.2c.24.03.35-.06.33.02h-.33c.24.01.07.05-.02.1.1,0,.2.02.28.04.05-.03-.03-.03-.07-.05.13-.03.31-.1.46-.06.24,0,.02.12.3.13,1.5.06,2.96.15,4.48.13.03.03,0,.03-.05.04.46-.03.87-.02,1.28-.05.12.03.15.08.18.11-.07-.06,2.3-.07,2.34-.05Z"/>
      </g>
    </g>
  </g>
</svg>