<?xml version="1.0" encoding="UTF-8"?>
<svg id="b" data-name="Camada_2" xmlns="http://www.w3.org/2000/svg" viewBox="0 0 140.08 115.58">
  <defs>
    <style>
      .d {
        fill: #C59D58;
      }
    </style>
  </defs>
  <g id="c" data-name="Camada_1">
    <g>
      <g>
        <g>
          <path class="d" d="M113.12,16.93c-.34-.2-.98-.43-1.58-.63.44.22.93.42,1.58.63Z"/>
          <path class="d" d="M111.53,16.3h0s.02,0,.02,0c0,0-.01,0-.01,0Z"/>
          <path class="d" d="M7.13,36.77c-.07-.11-.16-.23-.24-.35.08.12.16.24.24.35Z"/>
          <path class="d" d="M81.44,10.07l-.11.13c-1.5-.14-.42-.2-1.81-.29-.56.14-2.3-.21-2.79-.14.01-.01-.67-.07-.62-.13-.22.09-.7-.02-1.13-.02-.16.02.11.04.23.08l-.98-.03c-.38-.06-.47-.12-.05-.11-1.28-.1-5-.33-8.75-.41-3.74-.1-7.53-.04-8.92.04.36.07,1.21,0,1.54.11-.73.08-1.08,0-1.4.08-.29-.18-1.61.01-2.17-.15l-.21.11-.37-.05c-3.22.28-.73.08-3.59.24-1.65.14-2.43.36-3.35.39.14-.01.51.02.08.08-.08-.09-1.13.18-1.35.11-.42.05-1.77.2-1.3.27-.24-.04-1.45.09-.74-.06-.41.05-.8.08-1.09.15l.53-.03c-1.37.2-2.14.21-3.01.46l.51-.03c-.82.13-1.5.25-1.84.19l.83-.18c-1.36.22-2.18.38-3.29.66l.4-.07c-.71.19-2.93.68-5.12,1.28-2.19.59-4.33,1.27-4.95,1.55l.62-.08-1.08.41c.13-.04.44-.46.56-.46-1.19.35-4.86,1.52-8.39,3.01-1.78.75-3.47,1.52-4.9,2.17-1.43.65-2.55,1.25-3.08,1.52-.86.41-.23-.05-.22-.07-.99.6-.38.34-1.24.84-.24.13,0-.09.13-.18-.37.23-.73.42-.73.49.48-.28.35-.04.59-.1-.37.21-.71.47-1.07.71v-.09c-.24.16-.48.57-1.49,1.36-.42.34-.81.75-1.22,1.14-.38.43-.75.89-1.11,1.35-.3.52-.66,1-.89,1.55-.21.57-.52,1.09-.6,1.68-.04-.05.03-.55.22-1.01-.06.15-.13.33-.21.52-.05.19-.09.38-.14.52.2-.54-.16.99-.03.56-.14,1.71-.06,3.97.64,5.25.11.03.99.54,1.94.81.94.29,1.86.37,1.94.32.18.28.36.54.43.65-.02-.09-.39-.64-.59-.94h-.12c-.43-.7-.05-.19-.41-.91.06-.07.38.59.74,1.12-.31-.49-.5-1.04-.68-1.21-.17-.52.09.02-.08-.61-.09-.21-.19-.47-.3-.72-.05-.13-.1-.26-.15-.39-.02-.13-.03-.26-.04-.39h.02c-.02-.3-.06-.57-.12-.81-.03-.24-.01-.46-.03-.68-.07-.45.02-.86.17-1.38v.12c.04-.18.14-.44.27-.74.06-.15.12-.31.18-.47.08-.16.2-.3.3-.45-.12.16-.27.29-.05-.09.12-.18.22-.33.32-.48.12-.14.23-.28.34-.4.21-.26.39-.5.67-.7l.39-.5c.59-.53,1.68-1.44,3.24-2.34,1.54-.93,3.5-1.85,5.57-2.77,4.02-1.89,8.19-3.31,9.91-3.84l-.13.06c2.6-.84,6.64-1.93,10.77-2.7,4.13-.8,8.35-1.31,11.18-1.61.88,0,2.09-.1,3.01-.14-.51,0-.34-.07.06-.09,2.8-.15.18-.08,3.01-.25,1.63-.12,5.57-.23,9.48-.14,3.91.06,7.76.29,9.21.41,1.57-.04,3.5.19,5.03.24l-.16.02c.82.04,3.54.29,6.29.64,2.75.33,5.51.77,6.45.9l-.25-.06c1.65.19,1.41.28,2.69.55-.15-.17,1.27,0,1.8.1l-.03.03c.81.12,2.65.37,3.98.65l-.07.06c1.12.16,3.17.68,3.96.88,1.79.48,4.51,1.36,6.89,2.02l1.45.7.23.05s.81-.41,1.27-1.02c.46-.6.55-1.4-.95-2.2l.07-.05-.63-.19c-.75-.28-1.12-.31-1.05-.36l1.04.34c-.75-.26-.21-.13.09-.08-.32-.11-.62-.22-.87-.32-.16-.02.1.06.21.12-.42-.11-1.01-.21-1.5-.4-.78-.24-.01-.14-.93-.41-4.82-1.47-9.57-2.64-14.58-3.5-.11-.05.03-.03.17-.01-1.51-.24-2.86-.46-4.24-.63-.38-.09-.48-.15-.59-.2.11.05-1.8-.21-3.75-.44-1.95-.21-3.94-.43-4.02-.44Z"/>
        </g>
        <g>
          <path class="d" d="M4.64,39.49c.27.42.87,1.03,1.44,1.56-.4-.47-.84-.94-1.44-1.56Z"/>
          <polygon class="d" points="6.09 41.07 6.1 41.08 6.08 41.06 6.09 41.07"/>
          <path class="d" d="M122.42,25.17s.02,0,.03.02h0s0,0,0,0c0-.01-.02-.02-.03-.02Z"/>
          <path class="d" d="M39.79,55.37l.13-.12c.21.02.38.04.52.05l.15-.71c0,.19-.03.38-.09.68-.03.1,0,.04,0,.07.02.03.04.05.06.07.02.02.05.05.17.1.14.05.29.17,1.02.34.15.01.39.03.68.02h-.2c.84-.03,2.5.28,3.01.23-.01.01.79.09.73.15.25-.08.83.05,1.34.07.19-.02-.13-.04-.27-.09l1.16.04c.45.06.56.13.06.11.76.06,2.24.16,4.08.3,1.85.07,4.06.21,6.28.24,2.22.04,4.45.07,6.33,0,1.88-.02,3.41-.08,4.23-.15-.42-.06-1.43.04-1.82-.06.86-.11,1.28-.04,1.65-.13.34.17,1.9-.05,2.57.11l.24-.12.43.04c3.8-.39.87-.12,4.24-.35,1.95-.17,2.86-.45,3.95-.5-.16.02-.6,0-.1-.08.1.08,1.33-.21,1.59-.14.49-.05,2.09-.28,1.53-.32.28.02,1.7-.15.86.02.48-.06.95-.11,1.29-.18l-.62.05c1.62-.24,2.51-.26,3.54-.56l-.6.05c.96-.17,1.76-.32,2.16-.26l-.98.21c1.6-.28,2.56-.43,3.88-.76l-.47.09c.83-.25,3.46-.78,6.03-1.45,1.28-.34,2.56-.68,3.63-.96,1.05-.31,1.87-.58,2.24-.72l-.73.1,1.29-.43c-.16.04-.55.47-.69.48,1.41-.37,5.77-1.6,10.01-3.09,2.14-.71,4.22-1.51,5.93-2.17.86-.33,1.6-.59,2.32-.89.71-.3,1.22-.61,1.55-.79,1.05-.63.27,0,.26.03,1.21-.89.49-.43,1.47-1.22.27-.21,0,.11-.15.24.42-.36.81-.71.81-.77-.53.45-.4.16-.66.3.4-.36.78-.73,1.13-1.14v.1c.23-.28.49-.79,1.33-2.11.69-1.14,1.2-2.4,1.5-3.78.29-1.37.32-2.79.14-4.12.04.04.16.59.2,1.16,0-.37-.09-.91-.1-1.25.03.65-.25-1.1-.2-.6-.29-.94-.63-2-1.1-2.97-.46-.98-1.04-1.87-1.61-2.5-.1,0-1.06-.24-2.06-.31-.52.12-1.15.12-1.65.09-.49-.02-.91-.13-.9,0,0,0-.01,0-.01,0-.01-.02-.03-.03-.05-.04-.06-.03-.13-.06-.18-.09-.1-.06-.22-.13-.33-.21-.23-.16-.43-.4-.52-.55.06.1.22.33.46.51.12.1.24.18.35.24.1.06.25.13.22.12l.04.05c.05.05.1.11.15.16.07.06.13.12.19.18h.15c.51.44.6.5.66.57.03.03.05.06.11.12.05.04.26.21.23.18,0,0,.01.02.03.03,0,.03-.05.01-.06.02.08.08-.34-.19-.61-.41-.28-.22-.66-.57-.89-.81.22.25.57.59.83.82.14.12.28.23.42.33.06.04.12.08.18.12.01,0,.02,0,.02,0,.01,0,.02,0,.07.02.42.49-.11,0,.37.61.38.39.88.94,1.14,1.52h-.02c.34.69.6,1.22.81,1.75.22.53.38,1.07.43,1.76l-.04-.14c.02.49.16,1.44-.02,2.3.05-.24.14-.45.08.07-.19.97-.39,1.65-.74,2.33-.06.23-.15.46-.23.69-.41.79-1.27,2.16-2.8,3.29-.38.28-.79.55-1.24.78-.45.25-.89.41-1.52.65-1.19.46-2.43.94-3.67,1.42-4.96,1.83-9.99,3.41-12.06,3.94l.16-.06c-3.13.92-7.97,2.08-12.88,3.05-4.92.91-9.91,1.62-13.27,1.99-1.04.05-2.48.17-3.57.23.61-.01.4.06-.07.1-3.31.23-.22.1-3.57.34-1.93.14-6.6.37-11.21.28-4.62-.03-9.17-.36-10.88-.52-1.85.03-4.14-.31-5.95-.39h.18c-.19-.03-.47-.05-.82-.08l-.16.41c0-.1,0-.19.03-.37.02-.11,0-.03-.02-.06-.04-.01-.13-.04-.26-.1-.27-.09-.68-.36-1.59-.4h.12c-1.93-.15-4.53-.54-6.83-1.07-2.29-.53-4.29-1.16-5.09-1.41l.28.11c-1.87-.53-1.57-.58-2.99-1.14.14.2-1.45-.32-2.04-.55l.03-.02c-.46-.17-1.22-.46-2.07-.73-.82-.27-1.7-.59-2.43-.89l.09-.05c-1.25-.42-3.44-1.54-4.24-2.02-.92-.54-2.05-1.29-3.21-2.15-.57-.42-1.13-.88-1.74-1.38-.59-.47-1.17-.94-1.74-1.4-.42-.46-.81-.92-1.18-1.38l-.2-.17s-.96-.06-1.69.19c-.71.25-1.24.96.07,2.63h-.1s.61.56.61.56c.7.68,1.1.89,1,.9-.33-.28-.67-.57-1-.88.72.67.18.25-.13.02.29.27.57.54.83.77.16.1-.09-.12-.19-.23.41.32,1.01.73,1.47,1.14.74.61-.03.13.83.84,2.42,1.97,5.02,3.56,7.76,4.86,1.36.65,2.75,1.23,4.15,1.76,1.3.49,2.68,1.11,4.12,1.62.12.08-.04.02-.2-.03,1.73.61,3.28,1.13,4.91,1.57.44.16.55.24.68.3-.13-.07,2.12.56,4.47.98,1.17.22,2.37.4,3.29.51.91.1,1.54.17,1.58.18Z"/>
        </g>
        <g>
          <path class="d" d="M1.3,30.78c-.13.34-.29.8-.43,1.33-.11.54-.24,1.13-.36,1.7.25-.87.44-1.81.79-3.03Z"/>
          <path class="d" d="M.51,33.83s0,.01,0,.02c0-.02,0-.03,0-.04v.02Z"/>
          <path class="d" d="M126.35,33.05c.02.27.05.57.08.88-.03-.3-.05-.59-.08-.88Z"/>
          <path class="d" d="M16.5,85.42l.21.06c1.65,2.17.35.73,1.96,2.68.78.63,2.83,3.14,3.61,3.62-.01,0,.21.21.43.42.21.22.43.41.38.41.37.16,1.02.79,1.66,1.26.24.16-.15-.16-.29-.31.48.37.96.73,1.47,1.05.56.42.67.57.03.15,1.87,1.44,7.77,4.94,14.2,6.95,6.38,2.17,13.05,3.28,15.49,3.58-.61-.18-2.13-.35-2.68-.57,1.3.14,1.89.32,2.47.34.47.27,2.83.42,3.79.71l.38-.07.64.13c2.86.22,3.19.17,3.43.21.25.02.41.07,2.95.17,2.99.06,4.42-.21,6.09-.29-.25.03-.91.03-.14-.08.14.09,2.06-.29,2.44-.28.76-.1,3.18-.6,2.34-.55.43-.01,2.56-.51,1.31-.15.72-.18,1.42-.33,1.92-.51-.3.08-.61.15-.92.22,2.4-.66,3.69-1.02,5.17-1.63l-.87.24c1.39-.47,2.52-.89,3.1-.96l-1.39.53c2.27-.8,3.62-1.3,5.46-2.03l-.67.23c.61-.24,1.84-.71,3.37-1.31,1.59-.61,3.43-1.51,5.22-2.46,3.57-1.96,6.73-4.47,7.61-5.28l-.93.6c.52-.45,1.06-.87,1.56-1.34-.18.16-.57.88-.75.97.87-.68,2.62-2.14,4.63-4.15,2.02-2,4.25-4.59,6.23-7.36,4.02-5.51,6.67-11.78,7.43-13.64.63-1.51.25-.22.26-.2.67-1.89.21-.84.81-2.43.16-.43.05.12-.04.37.24-.7.48-1.35.46-1.42-.33.87-.31.46-.51.81l.7-2.06.04.11c.16-.46.16-1.24.78-3.28.96-3.47,1.66-7.33,2.08-10.93.05.06-.01.82-.1,1.58.07-.48.16-1.18.23-1.66-.17.86.1-1.52,0-.84.1-2.65.42-6.07.24-8.42-.08-.1-.79-1.35-1.58-2.51-.75-1.17-1.58-2.26-1.67-2.26-.05-.69-.11-1.39-.11-1.6-.03.18.06,1.55.14,2.27l.12.12c.13,1.67-.04.4.04,2.03-.1.09-.13-1.41-.27-2.73.11,1.19.05,2.38.18,2.86,0,1.12-.09-.12-.11,1.23.03.96.14,2.22.04,3.32v-.02c-.17,2.67-.1,4.11-.43,6.54v-.27c-.15.85-.29,2.56-.62,4.09.09-.44.22-.81.07.12-.34,1.76-.58,2.97-.92,4.24l-.22,1.24c-.37,1.52-1.11,4.14-2.25,7.23-1.14,3.09-2.73,6.62-4.68,9.94-1.93,3.34-4.26,6.43-6.43,8.89-2.18,2.45-4.16,4.3-5.37,5.28l.18-.17c-1.8,1.55-4.19,3.38-7.05,5.03-.72.41-1.45.84-2.22,1.21-.76.4-1.55.77-2.37,1.11-.8.38-1.65.66-2.48.99-.88.32-1.77.63-2.66.95-3.57,1.28-7.07,2.6-10.31,3.47-3.24.89-6.24,1.27-8.69,1.38-1.51,0-3.61-.06-5.22-.15.89.07.58.12-.11.09-4.9-.36-.34.09-5.29-.33-2.84-.26-9.74-1.19-16.25-3.22-3.25-.99-6.39-2.22-8.94-3.43-2.52-1.26-4.48-2.43-5.48-3.16-.56-.36-1.18-.71-1.75-1.15-.57-.45-1.15-.91-1.73-1.36-1.11-.99-2.17-2.02-3.07-2.97l.2.18c-1-.98-4-4.62-6.37-8.82-2.42-4.16-4.37-8.68-5.05-10.21l.16.42c-1.22-2.66-.93-2.35-1.76-4.51-.02.34-1.01-1.98-1.35-2.88l.04.02c-.54-1.34-1.76-4.37-2.45-6.64l.1.07c-.68-1.86-1.54-5.47-1.78-6.85-.6-3.17-1.03-8.12-.51-12.3.15-.9.45-1.76.68-2.62l.08-.38s-.35-1.21-.92-1.83c-.54-.6-1.46-.61-2.42,2.35l-.05-.11-.22,1.2c-.24,1.44-.22,2.12-.29,2.01.09-.66.16-1.32.27-1.98-.22,1.45-.14.43-.08-.13-.12.6-.18,1.2-.27,1.68,0,.29.06-.21.1-.43-.09.79-.1,1.88-.18,2.83-.06,1.49-.14.09-.16,1.83,0,4.6.8,9.03,1.91,13.31,1.15,4.28,2.64,8.44,4.3,12.57.05.2-.04-.02-.15-.26,1.02,2.49,1.95,4.71,3.01,6.94.26.64.29.83.35,1.03-.05-.2,1.38,2.9,3.14,5.96.88,1.53,1.82,3.05,2.59,4.18.75,1.14,1.32,1.89,1.35,1.94Z"/>
        </g>
        <g>
          <path class="d" d="M32.55,100.26c-.07.29,0,.78.1,1.25,0-.37-.06-.75-.1-1.25Z"/>
          <polygon class="d" points="32.65 101.52 32.65 101.53 32.65 101.51 32.65 101.52"/>
          <path class="d" d="M90.92,98.61c.03.06.06.12.09.19-.03-.07-.05-.13-.09-.19Z"/>
          <path class="d" d="M48.05,112.54l.1-.11c.86.27.2.23,1.01.45.36-.07,1.32.43,1.63.4-.01.01.38.12.34.18.15-.07.41.09.67.13.1,0-.06-.05-.12-.1l.58.12c.21.09.25.17,0,.11.37.12,1.1.29,2.02.5.91.23,2.02.45,3.13.63,2.22.39,4.5.6,5.33.62-.21-.09-.73-.07-.91-.21.44-.04.64.07.84,0,.16.2.96.11,1.28.32l.13-.1.22.08c1.94-.07.44-.04,2.16.01,1,.02,1.46-.18,2.02-.14-.08,0-.3-.06-.05-.09.05.09.68-.09.81,0,.25-.02,1.07-.04.78-.15.14.05.87.02.44.11.24-.02.48-.02.66-.06h-.32c.82-.09,1.28-.03,1.81-.19l-.31-.02c.49-.04.9-.1,1.11,0l-.5.1c.81-.11,1.31-.18,1.98-.34l-.24.03c.86-.15,5.3-1.17,6.03-1.54h-.38s.65-.24.65-.24c-.08.02-.25.38-.32.36.36-.08,1.09-.27,1.99-.55.91-.27,1.99-.58,3.09-.99,1.09-.41,2.18-.9,3.05-1.41.87-.5,1.52-.99,1.81-1.22.5-.35.18.05.19.06.54-.52.18-.29.65-.71.13-.11.03.08-.03.16.19-.2.4-.37.38-.41-.27.23-.25.04-.41.08.19-.19.38-.38.56-.58l.03.08c.12-.13.16-.47.65-1.1.8-1.1,1.35-2.45,1.66-3.75.04.03,0,.31-.05.59.06-.17.12-.44.18-.6-.15.3.07-.57-.02-.32.03-.99.25-2.27,0-3.15-.09-.03-.85-.42-1.64-.62-.79-.21-1.56-.23-1.66-.19-.06-.15-.12-.31-.13-.37-.03.07.09.36.16.53h.11c.16.39-.02.1.08.5-.07.03-.18-.32-.29-.62.08.28.1.57.21.67.02.28-.1-.01-.09.32.06.23.17.55.12.84h-.02c-.1.69.07,1.1-.17,1.75v-.08c-.11.22-.18.69-.38,1.07.06-.11.15-.19.07.06-.24.44-.34.77-.58,1.04-.03.11-.06.23-.1.34-.12.18-.28.41-.49.67-.24.27-.51.59-.86.89-.68.63-1.62,1.25-2.69,1.76-2.14,1.02-4.74,1.66-5.71,1.96l.08-.03c-.77.18-1.74.44-2.82.67-1.09.2-2.28.46-3.49.6-2.41.38-4.86.5-6.5.6-.51-.05-1.21-.07-1.74-.1.29.04.19.1-.04.09-1.62-.05-.11.07-1.75.05-.47-.01-1.28-.06-2.24-.12-.96-.11-2.09-.23-3.2-.4-2.22-.35-4.38-.89-5.19-1.12-.9-.12-1.96-.48-2.83-.67h.09c-.45-.15-1.97-.57-3.45-1.18-1.5-.55-2.96-1.24-3.48-1.43l.13.07c-.91-.31-.74-.39-1.4-.75.03.17-.74-.12-1.03-.25l.02-.02c-.45-.19-1.45-.54-2.08-.93l.06-.05c-.58-.24-1.48-.95-1.79-1.23-.74-.66-1.53-1.84-1.94-2.89-.02-.25.02-.51.04-.75l-.03-.1s-.67-.21-1.41-.32c-.71-.09-1.55-.02-1.63,1.24l-.08-.02.11.47c.13.57.3.79.22.78-.09-.25-.16-.51-.23-.76.15.56,0,.19-.11-.02.06.24.13.47.16.67.06.1,0-.09,0-.18.11.3.35.67.48,1.03.27.52-.1.09.23.7,1.88,3.16,4.95,4.72,7.58,5.95.05.06-.02.02-.11,0,.83.39,1.59.7,2.36,1.01.2.12.24.19.29.25-.05-.05,1.01.39,2.13.78.55.2,1.11.41,1.54.57.43.14.72.24.74.25Z"/>
        </g>
        <g>
          <path class="d" d="M30.74,97.68c-.08.03-.08.05-.09.07.07-.04.1-.06.09-.07Z"/>
          <polygon class="d" points="30.65 97.75 30.65 97.75 30.65 97.75 30.65 97.75"/>
          <path class="d" d="M35.14,99.84s0,0,0-.01c0,0,0,0,0,.01Z"/>
          <path class="d" d="M30.67,98.62l.13-.04s-.14.06-.1.08c.19-.04,0,.07.1.05-.01,0-.01.02-.07.04.1-.03.03.01.06.01.03,0,.03-.01.06-.02h.04s-.09.05-.1.05c-.02.08-.01.42.06.48.07-.03.01-.04.13-.08.07,0-.01.03.06.02-.17.06-.03.05-.2.12l.1-.03-.06.03c.13.05.06,0,.06.08.03.04.17.02.13.05,0,0,.06-.03.09-.03-.09.03.07,0-.01.04.01,0,.01.05.13,0-.06.02-.07.06-.13.06,0,.01-.01.03.01.03l.03-.02s-.06.08.06.07l.04-.03s.03.03-.09.08h-.04s.03.04.1.05h0c.13-.01.29.15.45.14l.09-.04h.09s-.3.08-.27.07c.03.06.2.37.16.45-.04.04-.14.05-.16.05.04.02.1-.02.1,0-.01.01-.07.02-.09.02.01,0-.01.03.03.01.03-.02.14-.05.22-.08v.03s-.07.02-.07.02c0,0,.2-.04.17,0-.01.06.03.11.03.17-.04.01-.07,0-.1,0,0,0,.01.02-.01.03.07-.04.06,0,.09-.01.19-.02.04.08.17.08.16-.05,2.74-.77,2.93-.83,0,.01,0,.02-.01.03.04-.02.06-.04.03-.05l-.1.03s.06-.02.04-.05c.08-.03.11,0,.12,0,0-.02.06-.06-.03-.04.03-.03.1-.03.13-.06-.03,0-.12,0-.07-.03h.01c.07-.07-.14-.03-.07-.09h.03s-.03-.04.02-.08c-.01.01-.07.04-.09.03.04-.04-.01-.05.04-.09h-.09c-.01-.09-.24-.43-.29-.52h.01c-.09-.13-.17-.43-.33-.55.07-.05.04-.07.06-.11-.03.02-.09.04-.09.03-.01-.08-.06.01-.11-.05-.1-.06-.12-.42-.07-.52-.13,0-.06-.08-.14-.1h.03c-.06-.03-.02-.31-.08-.35h-.01c-.09,0,.04-.04.07-.09-.13.05-.22.03-.23.02h.03s-.16-.04-.19-.07l.07-.02c-.09,0-.07-.07-.09-.09.01-.06.12-.17,0-.21l.19-.11h-.02s-2.5.7-3,.95l-.07.02h.01s.06.03-.01.05v-.03s-.06.02-.1.03c0,.01-.01.02-.03.04.03,0,.03-.01.04-.02.03,0,.1,0,.07.02,0,.02-.12.04-.12.06-.02.15-.06.3,0,.42-.03.01-.03,0-.04,0,.04.03.04.07.09.09-.03.02-.07.04-.1.05.06-.02.13.18.11.19Z"/>
        </g>
        <g>
          <path class="d" d="M117.22,34.22c-.04.08,0,.12.02.17.03-.08.02-.14-.02-.17Z"/>
          <polygon class="d" points="117.24 34.39 117.24 34.39 117.24 34.39 117.24 34.39"/>
          <path class="d" d="M125.05,42.56v-.05s0,.04,0,.05Z"/>
          <path class="d" d="M118.64,36.38l.11-.07c.07.09-.11.12-.01.19.18-.08.09.16.2.13-.01,0,.01.06-.04.09.09-.05.05.03.09.04.03,0,.02-.03.04-.05l.07.04s-.06.08-.09.06c.09.19.5,1.05.64,1.21.06-.06-.02-.09.07-.18.09.02.02.09.1.07-.15.11.02.13-.12.26l.1-.03-.04.05c.21.17.07.03.15.23.07.11.23.1.21.19,0,0,.04-.06.08-.04-.08.04.1.05.02.11.02.02.05.13.16.04-.05.04-.04.14-.11.11,0,.03,0,.07.04.08l.02-.05c.06.09,0,.18.13.2l.03-.06c.03.06.06.1-.04.17l-.06-.05c.05.1.08.15.17.21v-.03c.15.06.46.58.63.64l.08-.08.11.06s-.31.05-.28.04c.08.18.42,1.14.38,1.34-.04.08-.15.04-.16.05.05.08.11.02.12.09-.01.02-.07.01-.09,0,.02.03,0,.07.04.06.03-.05.15-.05.22-.09v.1s-.06.01-.06.01c0,.02.21.02.19.12,0,.17.05.34.06.5-.05,0-.08-.03-.11-.06,0,.02.02.05-.01.08.07-.05.06.06.09.03.2.1.05.27.18.36.16-.02,2.86-.04,3.06-.04,0,.04,0,.08-.01.1.05-.01.06-.1.03-.14h-.11c-.05-.09.06-.03.04-.12.09-.01.11.07.13.15,0-.07.06-.15-.04-.17.03-.07.11,0,.13-.09-.03-.05-.12-.12-.08-.19h.02c.07-.17-.15-.23-.09-.38h.03s-.04-.14,0-.24c-.01.03-.07.06-.09,0,.04-.11-.03-.18.03-.26l-.1-.06c-.03-.37-.49-1.76-.64-2.09h.02c-.19-.52-.62-1.58-.98-2.04.04-.12-.04-.22-.06-.31,0,.06-.07.07-.08.04-.12-.25-.06,0-.22-.23-.21-.25-.76-1.36-.88-1.63-.19-.06-.22-.27-.37-.35h.03c-.12-.11-.59-.91-.75-1.02v.03c-.16-.08-.04-.14-.09-.27-.09.1-.24.05-.29.01l.02-.02c-.07-.05-.28-.11-.38-.19l.06-.05c-.13-.03-.25-.2-.31-.25-.1-.16-.2-.44-.44-.55l.04-.26h-.03s-.5.42-1.02.91c-.52.5-1.05,1.07-1.15,1.37l-.06.05.04.03c.02.07.1.03.04.08l-.05-.07c.03.06-.03.06-.08.07.01.02.03.05.02.08.03-.01.02-.03.02-.05.04,0,.13,0,.13.04.04.05-.08.09-.04.15.24.33.43.67.7.96-.02.03-.02.02-.04.02.1.07.16.16.25.22,0,.04-.04.08-.06.11.04-.05.42.43.41.45Z"/>
        </g>
        <g>
          <path class="d" d="M8.25,41.72c.25-.21.55-.65.88-1.03-.31.25-.58.57-.88,1.03Z"/>
          <polygon class="d" points="9.15 40.68 9.15 40.67 9.14 40.69 9.15 40.68"/>
          <path class="d" d="M109.47,25.32c-.13-.05-.28-.11-.43-.16.14.06.29.12.43.16Z"/>
          <path class="d" d="M31.19,29.03l.04-.15c1.23-.36.4.05,1.53-.31.39-.31,1.9-.51,2.27-.71,0,.02.56-.13.54-.06.15-.15.57-.17.92-.29.12-.06-.1,0-.21-.01l.8-.24c.33-.05.42,0,.08.09,1.06-.25,4.18-.99,7.31-1.64,3.13-.66,6.3-1.21,7.46-1.42-.31-.03-1.02.14-1.31.07.6-.18.91-.13,1.17-.25.27.14,1.36-.18,1.86-.07l.16-.13.32.02c2.7-.5.61-.15,3.02-.45,1.39-.19,2.04-.41,2.82-.44-.12.01-.43-.02-.07-.08.07.08.96-.17,1.14-.09.35-.05,1.51-.14,1.1-.23.2.04,1.23-.02.62.09.35-.03.68-.03.93-.08h-.45c1.17-.11,1.81-.06,2.57-.22l-.44-.02c.7-.05,1.29-.09,1.57.01l-.72.08c1.16-.07,1.86-.11,2.83-.21h-.35c.61-.08,2.54-.19,4.45-.25,1.91-.06,3.82-.05,4.39-.11l-.52-.12.98-.04c-.12,0-.49.29-.58.25,1.05.04,4.3.18,7.51.55,3.21.35,6.37.93,7.32,1.16.75.21.11.18.1.19.94.15.42-.02,1.21.15.21.06-.06.06-.18.05.35.06.66.17.7.13-.42-.13-.22-.2-.38-.32l1.01.23-.06.06c.22.06.62-.07,1.6.21,1.67.44,3.48.91,5.13,1.44-.04.04-.39-.05-.75-.13.22.07.56.16.76.26-.38-.2.71.17.41.04,1.27.2,2.77.89,3.86,1.17.13-.15,3.28-1.78,3.37-1.96.33.14.67.27.76.33-.07-.08-.72-.36-1.08-.47l-.1.07c-.82-.28-.17-.13-.96-.44-.01-.1.72.17,1.36.42-.57-.24-1.12-.52-1.39-.52-.53-.24.1-.08-.54-.36-.48-.15-1.12-.3-1.65-.53h.01c-1.29-.56-2.06-.57-3.25-1.04h.14c-.41-.17-1.28-.36-2.05-.63.22.08.39.19-.08.07-.88-.31-1.51-.41-2.15-.65l-.66-.08c-1.57-.41-5.49-1.28-9.47-1.8-3.97-.55-7.97-.78-9.59-.84h.13c-2.47-.12-6.24-.18-10.02,0-3.78.15-7.57.54-10.08.89-.79,0-1.87.16-2.68.25.46-.03.31.05-.04.1-2.47.34-.16.07-2.65.48-1.43.26-4.89.83-8.28,1.53-3.4.69-6.71,1.46-7.97,1.74-1.31.45-3,.8-4.29,1.24l.12-.06c-.7.21-3.04.85-5.39,1.59-2.35.72-4.71,1.57-5.5,1.88l.22-.06c-1.37.6-1.23.4-2.35.81.2.06-.96.64-1.4.86v-.04c-.67.32-2.13,1.18-3.19,1.81v-.09c-.86.56-2.5,1.62-3.09,2.07-1.4.97-3.51,2.64-4.88,4.52-.36.35-.74.68-1.08,1.06l-.11.19s.18.87.66,1.43c.48.57,1.23.85,2.23-.07l.03.08.32-.42c.42-.48.55-.75.58-.67-.2.21-.37.45-.56.67.41-.49.17-.11.05.1.17-.2.33-.4.49-.55.06-.11-.09.05-.16.12.19-.28.47-.68.77-.97.46-.47.12.05.65-.49,2.87-2.82,6.39-4.74,10.26-6.36.1,0,0,.03-.11.09,1.15-.52,2.23-.9,3.33-1.33.32-.08.42-.06.52-.07-.1,0,1.43-.56,3.01-1.08.8-.25,1.6-.5,2.21-.7.62-.18,1.03-.3,1.07-.31Z"/>
        </g>
        <g>
          <path class="d" d="M14.36,54.35c.02-.07,0-.09-.03-.1-.01.07,0,.11.03.1Z"/>
          <polygon class="d" points="14.33 54.25 14.33 54.25 14.33 54.25 14.33 54.25"/>
          <path class="d" d="M12.69,58.28s-.04-.01-.07-.02c.02,0,.05.01.07.02Z"/>
          <path class="d" d="M13.55,54.59l-.04.13s.05-.13.03-.06c-.06.2,0,.05-.04.17,0-.01,0,0,.03-.06-.03.11,0,.05-.01.09,0,.03-.01.03-.02.05v.07s.02-.07.02-.1c0,.02.04.12.12.24.07.12.23.29.27.38-.06.05-.06-.04-.13.06,0,.09.04.03.03.11.1-.15.09.04.22-.09l-.05.1.05-.03c.09.27,0,.08.18.23.04.06.05.13.06.18,0,.06,0,.11.13.05-.03,0-.14.07-.08.07.08-.07.15.01.26-.07.07,0,.32-.06.12.06.1-.06.34-.12.26-.15.03,0,.09-.02.12-.03.03,0,.02.03.01.05-.02,0-.03-.02-.07,0,.06.12.17.14.09.31h-.07c.02.07.04.14.19.09v-.11s.03.06.05.11h0s-.02.02-.07.05h0c-.11.13-.25-.05-.41-.01l-.09.09h-.08s.3-.18.27-.16c0-.09-.3-.58-.34-.71.01-.08.1-.13.11-.14-.06-.02-.08.06-.11.02,0-.02.05-.06.07-.06-.02,0,0-.05-.04-.01,0,.05-.09.14-.14.21l-.03-.05.05-.06s-.15.14-.16.07c-.04-.1-.13-.15-.2-.23.03-.04.06-.05.09-.06,0-.01-.03-.01-.02-.05-.02.08-.06.02-.06.06-.16.12-.15-.09-.27,0-.04.08-.4.68-.71,1.33-.3.65-.42,1.37-.45,1.47.05.01.1.02.12,0-.02.04-.13.04-.18,0l.03-.1c-.1-.08-.05.05-.16,0-.04.07.05.15.15.18-.09-.02-.21,0-.2-.1-.05.01-.06.09-.08.12.01-.02.05-.1.03-.05h0c-.04.09.07-.1.02-.02v.02s-.01,0-.03.03c0-.01.04-.06.05-.07-.03.04,0,0-.04.06l.05-.06s.07-.02.07,0h0s0,.02,0,.02h0s0-.04,0-.07c-.03.03-.03.02-.04.02.01-.01.03-.04.03-.04-.01-.01.02-.03.02-.06,0-.06-.02-.12-.03-.08.04-.13.01-.04.04-.12v.03c0-.06,0-.01.02-.07v-.02c.04-.09,0,.05-.02.09.06-.15.09-.24.09-.25v.03s.06-.18.08-.21l-.03.09c.04-.1.05-.08.06-.09,0,.02-.04.17.04.05l-.11.26v-.03s.43-.78.88-1.65c.1-.18.19-.37.29-.55.08-.16.16-.31.23-.46.14-.29.24-.52.27-.65l.04-.07h-.03s-.08.05-.04-.02h.05s.02-.04.05-.08c-.01,0-.02-.02-.03-.04-.02.03,0,.03,0,.04-.03.02-.09.08-.1.05-.03,0,.05-.11.01-.11-.2-.04-.35-.04-.48.1,0-.03.01-.03.02-.05-.05.06-.07.09-.11.16,0-.03.02-.06.02-.09-.03.05-.14.28-.12.28Z"/>
        </g>
        <g>
          <path class="d" d="M36.57,65.29s-.02-.02-.02-.04c0,.01.01.03.02.04Z"/>
          <polygon class="d" points="36.55 65.25 36.55 65.25 36.55 65.25 36.55 65.25"/>
          <path class="d" d="M34.67,63.48s-.1.08-.16.12c.05-.04.01-.01.16-.12Z"/>
          <path class="d" d="M36.1,65.77h0s.04,0,.05-.01c.12-.02.03,0,.09-.01,0,0,0,0,.02,0,.06,0,.03,0,.04,0,0,0,0,0,0,0h.04s.02,0,0,0c.04,0,.22.02.26.05.04.03,0,0,.06.04.05.05.07.08.07.08,0,0,0,0-.02-.02.02.02,0,0,.01.02,0,0,.01.03.01.03h0s0,0,0,0c0-.06,0-.04,0-.05,0-.03,0-.08.02-.11,0,0,0,.02,0,0,.02-.05,0,0,.02-.05,0-.02.03-.07.02-.05,0,0,.03-.05.01-.03,0,0,0,0,.02-.04v.02c.02-.05.03-.08.05-.1h-.01s0,.02.04-.03l-.02.02s.04-.05.06-.07h0s.05-.04.04-.03c0,0-.04.03-.05.03h0s-.02,0-.02,0h.01s-.12.04-.2.04c-.05,0-.05,0-.08,0,.01,0,0,0,0,0h0s-1.03-.13-1.03-.13c.05-.03.02-.01,0,0,.35.04.69.08,1.03.13h0c-.34-.04-.68-.08-1.03-.13h.01s.02-.02.02-.02h.03s.03-.03.03-.03c.01,0,.02-.01.09-.03.04,0,0,0-.03,0,.06-.01.11-.02.1-.02-.04.01-.03,0-.06.01.07,0,.07-.03.12-.02h0s.07.02.05,0c-.06-.07.02-.41,0-.33,0,0,0-.01,0-.01,0,0,0,0,0,.01,0-.01,0,.02,0,0-.02.07-.19.23-.23.21h0s0,0,0,0h0s-.11-.05-.11-.05c-.08-.04-.15-.09-.22-.15-.3-.21-.45-.59-.6-.83-.14-.25-.22-.45-.25-.49.12-.09.25-.16.29-.17-.05-.03-.32.12-.42.25l.05.09c-.14.17-.21.25-.24.25-.03.02-.09.03-.23.32-.05,0-.02-.14.09-.34.05-.1.13-.2.22-.3.05-.06.1-.11.16-.16-.03.02-.09.07-.16.12-.06.05-.16.15-.22.23-.13.17-.2.34-.2.45-.11.24-.13.25-.15.23-.02,0-.08,0-.14.39,0,.31.06.55.16.8.05.12.12.26.16.34.01.02.03.05.12.22h-.02c.4.65.67.47.9.71h-.04c.08.11.3.13.49.23-.06-.03-.09-.11.04-.08.25.11.48.09.9.09.16-.06.31-.14.44-.22.13-.05.4-.2.6-.41.21-.21.4-.5.51-.91.06-.24.05-.3.06-.45,0-.14,0-.28-.04-.43-.04-.18-.09-.32-.17-.5l-1.71-3.88-1.73,3.83c-.14.3-.25.81-.2,1.23.03.43.17.74.23.88h-.02c.13.27.35.65.69.96.33.31.83.56,1.3.58.1.11.35.1.51.12-.09-.03-.06-.09,0-.09.5-.06.03-.04.52-.19.28-.11.85-.48,1.1-.92.29-.45.37-.91.41-1.06-.11-.18-.04-.36-.14-.5h.03c-.03-.15-.21-.96-.4-1.08v.03c-.15-.09-.03-.14-.08-.28-.1.1-.25.04-.29.01l.02-.02c-.08-.05-.29-.09-.43-.17l.05-.06c-.15-.01-.36-.17-.48-.2-.19-.13-.75-.34-1.13-.1-.1-.04-.21-.08-.33-.1l-.03.04s.19.63.54,1.25c.52.91.33.57.34.59h0s0-.02,0-.02c0-.03,0-.03,0-.03v.03s0,0,0,0c0,0,0-.01,0-.03,0,0,0,0,0,0,0-.02,0,0,0,0h0s-.13.35-.33.47c0,0,0,0,0,0-.06.04-.09.06-.13.08,0,0-.02,0-.02,0,0,0-.02.01-.03.02.02,0,.04-.01.05-.02Z"/>
        </g>
        <g>
          <path class="d" d="M25.63,75.64c-.07-.05-.09-.04-.11-.03.07.04.1.05.11.03Z"/>
          <polygon class="d" points="25.52 75.61 25.52 75.61 25.52 75.61 25.52 75.61"/>
          <path class="d" d="M23.73,76.75s0,0,0,.01c0,0,0,0,0-.01Z"/>
          <path class="d" d="M24.81,76.07l.1.09s-.13-.09-.12-.04c.14.14-.05.03.01.11-.01-.01-.03,0-.07-.04.08.07,0,.03.02.06.02.02.03.02.05.04v.04s-.07-.05-.07-.07c-.07.03-.36.21-.37.3.07.04.04,0,.14.07.04.06-.04,0,.01.06-.15-.11-.06,0-.21-.11l.08.07-.05-.03c.03.14.03.05-.04.09-.02.04.08.15.02.14,0,0,.06.03.07.06-.07-.06.03.07-.04,0,0,.02-.03.04.07.11-.05-.04-.09-.03-.12-.08,0,0-.03,0-.01.03h.04s-.03.03-.04.03l3.16,1.19s0-.02-.05-.04h-.05s-.02-.03.11-.03l.04.02s-.01-.06-.08-.09h0c-.12-.03-.22-.23-.38-.27h-.1s-.08-.02-.08-.02c0,0,.25.02.28.02,0-.07-.08-.41-.01-.47.05-.02.15,0,.17,0-.04-.03-.1-.01-.09-.04.02,0,.08,0,.09,0-.01-.01.02-.02-.02-.02-.04.01-.15,0-.23.01v-.03s.09,0,.09,0c0,0-.21-.02-.16-.05.03-.05,0-.11.03-.17.05,0,.07.01.1.03,0,0,0-.02.02-.02-.08.01-.05-.02-.09-.01-.18-.04-.01-.09-.14-.13-.17,0-2.85-.11-3.04-.12,0-.01,0-.02.02-.02-.05,0-.07.02-.04.03h.11s-.06,0-.06.03c-.09,0-.1-.02-.11-.04-.01.02-.07.04.02.04-.04.02-.11,0-.14.02.03.02.11.04.06.05h-.02c-.09.04.13.07.04.1h-.03c-.05,0,.02.04-.04.06.02,0,.08-.01.09,0-.05.03,0,.05-.07.07l.08.02c-.02.1.1.48.11.58h-.01c.03.1.03.27.07.42l1.19,4.91,1.87-3.76c.03-.07.06-.13.06-.19.08.04.09,0,.12,0-.04-.01-.08-.05-.07-.06.06-.05-.04-.04-.02-.12,0-.12.29-.32.39-.33-.07-.11.04-.09,0-.17l.02.02c0-.06.24-.18.24-.25h-.02c-.03-.09.07,0,.12,0-.11-.09-.14-.17-.14-.18l.02.02s-.06-.15-.05-.19l.06.05c-.04-.08.02-.1.03-.12.06-.02.21,0,.17-.11l.19.11v-.02s-1.94-1.74-2.42-2.03l-.06-.05v.02s.01.06-.04,0l.03-.02s-.05-.04-.08-.07c-.01,0-.02,0-.05,0,.02.02.03.02.04.03.01.03.06.08.02.07-.02.01-.09-.08-.12-.06-.13.06-.28.1-.35.22-.03-.02-.02-.02-.03-.03,0,.05-.03.07-.03.12-.03-.01-.07-.04-.1-.06.05.04-.08.2-.09.19Z"/>
        </g>
        <g>
          <path class="d" d="M46.9,89.63c.13.18.73.37,1.2.26-.2,0-.38-.01-.59-.06-.21-.04-.43-.11-.61-.2Z"/>
          <polygon class="d" points="48.11 89.89 48.12 89.88 48.1 89.89 48.11 89.89"/>
          <path class="d" d="M47.44,85.61s-.04.03-.07.04c.02-.01.05-.03.07-.04Z"/>
          <path class="d" d="M49.56,88.96l-.11-.09c.14-.26.19-.01.27-.27-.13-.17.16-.4.07-.51.01,0,.04-.11.1-.09-.1-.05,0-.12-.02-.2-.03-.03-.03.02-.07.03l-.02-.17c.04-.06.1-.08.11,0,.01-.22.13-.88-.4-1.73-.26-.41-.73-.78-1.16-.94-.43-.17-.8-.17-.99-.15.1.07.34.03.41.17-.2.05-.28-.05-.36.03-.08-.19-.41-.01-.59-.15l-.03.12-.11-.03c-.38.19-.4.25-.44.26-.03.02-.07,0-.37.21-.32.3-.31.55-.47.7.02-.03.12-.06.09.03-.04-.02-.06.05-.08.12,0,.03-.02.07-.03.1,0,.01-.01.02-.02.03h-.02s0,.01,0,.01h0c0,.5,0,1.01,0,1.52h0s0,0,0,0c.02.02.04.09.15.02-.05.04-.04.11-.11.1,0,.02,0,.05.03.06l.02-.04c.05.06-.02.15.11.14l.03-.05s.05.07-.05.14l-.06-.03c.04.07.06.11.15.14v-.02c.14.02.42.38.6.38l.07-.07.1.03s-.3.11-.27.09c.03.06.15.26.25.45l2.74-.53c0-.05,0-.11.04-.11.05,0,.14.05.16.05-.03-.02-.09-.04-.08-.05.02,0,.07.03.08.03,0,0,.02,0-.02-.02-.03-.01-.14-.05-.22-.08h.02s.07.02.07.02c0,0-.18-.09-.14-.1.04-.02.04-.05.07-.06.03.03.05.05.07.07,0,0,0,0,.02,0-.06-.05-.04-.04-.06-.06-.13-.13,0-.03-.08-.12-.05-.06-.49-.62-.86-1.24-.37-.61-.66-1.28-.71-1.37.05-.03.11-.05.13-.05-.04-.03-.15,0-.19.06l.05.1c-.1.11-.06-.04-.17.05-.06-.07.03-.16.13-.22-.1.05-.22.05-.2.16-.1.03-.05-.09-.17-.05-.05.07-.08.2-.18.23h0c-.23.08-.14.31-.32.39v-.03c-.09.02-.12.16-.23.23.03-.02.1,0,.07.06-.12.08-.12.18-.22.23l.03.12c-.16.24-.39,1-.37,1.57l3.5-.68c-.11-.19-.2-.33-.24-.4h.02c-.16-.24-.39-.74-.61-1.02l-.96.99s-.03-.02-.04-.03c0,0-.01-.01-.01-.01h0s0,0,0,0c-.02,0,.03-.1-.02-.02-.1.1-.4.14-.39.13-.04,0,0,0,.07.02h0s.31.14.35.26l.31.22s.03-.03.1-.03c.07-.01.12,0,.15,0h-.02c.09,0,.07.02.05,0,.02,0-.06-.03-.11-.07h0s-.08-.08-.1-.12c-.02-.04,0-.06-.02,0h0s0,0-.03.02c-.03.02-.09.03-.13.03-.07,0-.17-.03-.13-.01.03,0,.18.11.21.19.02.04.01.06.01.04h0s0-.03.04-.07c-.21.29-.46.58-.6.87-.11.29-.11.71.53.9l-.04.07c.16,0,.32-.02.48-.06.26-.05.4-.14.49-.2.07-.05.1-.07.11-.04-.13.09-.36.2-.58.25.47-.14.19.02-.02.11.24-.05.42-.12.58-.18.06-.07-.07,0-.16.03.23-.14.39-.37.54-.48.2-.22.12.07.31-.18.22-.32.35-.61.41-1,.05-.37.07-.96-.42-1.62-.23-.3-.58-.56-1.03-.7-.26-.07-.55-.1-.8-.07-.27.03-.52.11-.69.2-.74.41-.88.8-1.05,1.12-.04.02-.03-.02-.02-.06-.15.43-.25.77-.14,1.36,0,.18-.03.24-.05.3,0-.03.04.11.18.37.12.25.42.65.87.91h0s1.94.02,1.94.02c.31-.17.58-.43.72-.62.15-.19.23-.33.24-.33Z"/>
        </g>
        <g>
          <path class="d" d="M54.36,78.41c.01.08.04.09.07.11-.02-.08-.04-.12-.07-.11Z"/>
          <polygon class="d" points="54.43 78.52 54.43 78.52 54.43 78.52 54.43 78.52"/>
          <path class="d" d="M55.12,76.61v-.02s-.01,0,0,.02Z"/>
          <path class="d" d="M55.97,74.85l-.06.12c-.07-.03.04-.15-.03-.15-.1.17-.09-.06-.15.02,0-.01-.02-.03,0-.09-.05.09-.04,0-.07.03-.02.02,0,.03-.01.06l-.06.02s.02-.1.04-.1c-.03-.03-.11-.08-.21-.14l-1.41-.89-1.08,1.73c-.23.38-.39.91-.38,1.32,0,.42.09.72.15.85.06-.08-.03-.19.08-.27.1.09.02.16.1.18-.16.1.04.24-.1.38l.11-.02-.03.08c.32.36.09.07.29.43.16.18.34.16.4.29-.01-.01,0-.1.06-.07-.06.07.16.06.12.15.04.03.22.16.23.02-.01.07.13.2,0,.18.05.04.09.09.15.09-.02-.03-.04-.05-.05-.07.2.1.29.24.5.2-.03-.03-.06-.05-.07-.08.15.05.29.07.32.21h-.18c.27.07.49.08.76,0h-.1c.16-.04.77-.19,1.13-.55.34-.33.47-.7.45-.82l-.13.04c0-.06.01-.13,0-.19,0,.01.24.22.21.22.11-.18.29-.8.2-1.26-.06-.46-.24-.82-.28-.94,0-.12.12-.09.14-.1-.1-.1-.11,0-.17-.1,0-.04.07-.04.09-.03-.04-.04-.04-.09-.08-.07,0,.07-.11.12-.16.18l-.07-.12.06-.04s-.2.06-.27-.07c-.12-.19-.38-.37-.67-.52.02-.04.09-.04.17-.03-.04-.02-.1-.04-.13-.09.05.11-.17,0-.12.05-.29.08-.67-.13-.93.06,0,.08.01.82.29,1.48.02.04.04.09.05.13,0,0,0,.02,0,.02,0,.01.02.03.02.03,0,0-.02-.03-.03-.04h0s0-.02-.02-.05c0-.01,0,.03.03.06-.02-.02-.03-.07-.03-.06h0s0-.03,0,0h0s0,.07-.04.13h0s-.04.08-.07.12c0-.02.02-.03,0,0-.04.06-.07.09-.11.13l-.03.03c-.09.09-.28.17-.11.11.17-.06.43,0,.42,0h0c.06.04-.03-.04.08.06.07.09.05.11.05.04,0-.15.2-.44.23-.45.01-.01.03-.02.02-.02h0s-.02.01-.04.02c-.03.05-.37.05-.29.05l-1.17,1.14c.09.06.15.11.18.14.12-.08.17.04.26,0l-.02.02c.07,0,.34.18.48.24l.7-3.07s-.06,0-.08,0v.02c-.07.07-.05-.06-.11-.11,0,.14-.07.21-.1.22v-.03s-.13.14-.2.15v-.08c-.05.08-.15.04-.19.04-.09-.04-.22-.17-.34-.08l-.07-.22v.02s-.27,2.58-.15,3.14v.07s.03,0,.03,0c.04.04.06-.05.05.03h-.05s0,.05,0,.09c.02,0,.03.02.04.04,0-.03,0-.03,0-.05.02-.03.05-.09.08-.06.04,0,0,.12.04.13.23.07.46.17.7.17,0,.03,0,.03-.01.04.04-.01.07-.02.1-.02.02,0,.03,0,.05,0h.02s.01-.01.01-.01h0s0,0,0,0h0s.85-3.7.85-3.7h0s0,0,0,0c0-.04,0-.08.02-.11-.01.06-.36-.08-.36-.09Z"/>
        </g>
        <g>
          <path class="d" d="M66.25,61.37c-.07-.05-.1-.03-.13-.02.07.04.11.05.13.02Z"/>
          <polygon class="d" points="66.11 61.35 66.11 61.35 66.12 61.35 66.11 61.35"/>
          <path class="d" d="M64.66,62.84h0s0,0,0,0Z"/>
          <path class="d" d="M65,62.39l.12.07c-.03.06-.15-.05-.15.02.16.11-.07.09.02.15-.01,0-.03.02-.09,0,.09.05,0,.04.02.07.02.02.03,0,.06.02l.02.06s-.1-.02-.1-.04c-.08.08-.33.53-.34.72l3.9,1.04s0-.03,0-.05c-.05,0-.05.01-.07.03l-3.76-1s.04-.01.09,0c.02.02.02.03.02.03l3.54.94s.03-.02-.01-.04c.18.04.06-.06.25-.04l-.1-.04h.07c-.07-.17-.04-.05.01-.17,0-.08-.14-.14-.08-.17,0,0-.07.01-.09-.01.09.01-.06-.06.04-.05,0-.02.01-.08-.11-.08.06,0,.1-.05.15-.01,0-.02.03-.03,0-.05l-.04.02c-.01-.06.09-.08-.02-.14l-.05.02s-.01-.07.11-.07l.03.04c0-.06,0-.1-.06-.15v.02c-.12-.08-.21-.4-.37-.44l-.1.03-.08-.04s.31.01.28.02c0-.1-.13-.61-.09-.71.05-.05.15-.04.16-.04-.04-.04-.1,0-.1-.04.01-.01.07-.01.09,0-.01-.02.01-.04-.03-.03-.03.03-.15.04-.22.07v-.05s.07-.01.07-.01c0-.01-.21.02-.18-.04.01-.09-.04-.17-.04-.25.04-.01.07,0,.1,0,0-.01-.02-.02.01-.04-.07.04-.06-.02-.09,0-.19,0-.06-.13-.2-.14-.17.03-2.69.94-2.87,1.03,0,0,0,0,.02-.02-.04.02-.06.03-.04.02l.1-.04s-.06.02-.05.03c-.08.03-.1.03-.11.03,0,0-.07.03.02,0-.03.01-.1.04-.13.05.03,0,.11-.03.06,0h-.01c-.08.04.13-.02.05.01h-.03s.02.01-.03.03c.02,0,.08-.02.09-.02-.05.02,0,.01-.06.03h.08s.13.13.14.17h-.01c.05.06.03.17.13.25-.08,0-.07,0-.09.01.03,0,.09.02.09.02-.02.03.06.02.08.05.01.01.02.02.02.04l2.96.79c0-.06.1-.13.16-.13-.11-.06-.01-.05-.08-.09h.03s.11-.05.08-.08h-.02c-.05-.06.06.01.1.03-.11-.08-.17-.14-.17-.15l.02.02s-.1-.11-.1-.13l.06.05c-.05-.06-.01-.06-.01-.07.04,0,.14.09.09,0l.15.15v-.02s-.42-.5-.88-1.06c-.45-.56-.95-1.17-1.19-1.32l-.05-.06-.02.03c-.05,0,0,.07-.06.02l.05-.03s-.05-.04-.07-.08c-.02,0-.04,0-.06,0,.01.03.03.02.04.03,0,.03.03.11-.01.1-.03.02-.08-.09-.13-.06-.22.13-.45.27-.59.48-.03-.01-.02-.02-.03-.03-.02.08-.07.13-.07.2-.04,0-.08-.02-.11-.04.05.02-.14.36-.15.36Z"/>
        </g>
        <g>
          <path class="d" d="M69.78,91.61h0s0,0,0,0Z"/>
          <polygon class="d" points="69.79 91.61 69.79 91.61 69.79 91.61 69.79 91.61"/>
          <path class="d" d="M68.76,90.52v-.02s0,0,0,.02Z"/>
          <path class="d" d="M70.43,90.83s.02-.01-.03.02c0,0,.05-.02.06-.03-.08.04.04-.02-.03.01.01,0,.02,0,.06-.02-.07.03-.01,0-.03.01-.03.01-.03.01-.06.02h-.04s.09-.02.1-.02c.11-.02-.22.04-.31.02.02,0,0,0,.04,0-.04,0,0,0-.04,0-.05,0-.01,0-.06,0h0s0,0,0,0c-.09-.02-.06-.01-.09-.02-.03,0-.04-.01-.06-.02,0,0,.01,0,0,0-.01,0-.01,0-.01,0h0s-2.11-2.09-2.11-2.09c-.08.06-.15.13-.2.11-.12.08-.43.36-.23.35-.09,0-.34.28-.25.07-.08.1-.17.19-.18.27l.11-.11c-.19.33-.33.49-.26.7l.08-.09c-.04.17-.05.31-.18.34,0-.05-.01-.1-.01-.17-.04.27-.03.42.04.59v-.06c.06.12.15.43.31.69.15.26.4.5.53.54l.02-.13c.06.03.11.06.17.08,0-.01-.29.14-.28.1.03.04.08.09.18.18.09.08.2.17.4.28.17.09.48.19.77.18.33,0,.59-.09.83-.22.45-.25.71-.7.8-.99.09-.29.1-.47.12-.56.05-.14.15-.03.17-.02-.04-.17-.1-.07-.1-.21.01-.04.08,0,.09.02-.02-.06.01-.12-.03-.12-.03.08-.15.06-.22.1,0-.06,0-.11-.01-.15h.08s-.21-.05-.21-.19c-.03-.23-.16-.46-.34-.71.04-.03.1.01.16.05-.02-.04-.07-.08-.07-.14-.01.11-.13-.07-.11,0-.15-.03-.26-.13-.41-.23-.15-.1-.35-.19-.56-.17-.01.04-.11.23-.17.5-.04.14-.06.3-.08.47,0,.08,0,.17,0,.26v.18s.02.04.02.04c0,.02.02.03.02.03,0,0-.02-.03-.03-.05h0s0-.01,0-.02c0,.03.01.04.01.04,0,0,0,0-.01-.04,0,0,0,0,0,0,0,.02,0,.02-.02.06h0c-.04.06-.09.12-.16.18h0s-.08.05-.13.08c.01,0,.03-.01,0,0-.04.02-.07.03-.08.04h0s.02,0,.12-.02c.1-.01.27.02.31.06.03.03,0,0,.02.02.03.05.02.07.02.06,0-.03.07-.15.12-.18h0c.14-.14.41-.21.22-.16-.09.01-.23,0-.31-.03-.09-.04-.09-.06-.08-.04l-1.7-.87h0c-.02.07-.03.13-.03.18-.1.05-.12.17-.16.25.04-.04.1,0,.09.03-.06.25.05.03.04.28.02.15,0,.47,0,.79.02.22.04.51.06.74.16.08.12.25.25.33h-.03c.07.1.38.8.56.89v-.03c.16.05.04.13.1.25.08-.11.23-.08.27-.06l-.02.02c.08.03.27.04.39.09l-.04.06c.14-.01.29.11.38.14.15.1.45.32.75.23.06.07.12.15.19.22l.03-.02s.05-.65-.02-1.37c-.04-.43-.08-.9-.1-1.06h0s0,0,0,0h0s0,0,0,0h0s0,0,0,0h0s0,0,0-.01v-.02c.01-.09.12-.31.29-.47,0,0,0,0,0,0,.05-.05.1-.09.14-.13l.02-.02s.23-.15.2-.14Z"/>
        </g>
        <g>
          <path class="d" d="M78.91,80.35c.1.02.11.02.12.02-.09-.01-.13-.02-.12-.02Z"/>
          <polygon class="d" points="79.03 80.38 79.03 80.38 79.03 80.38 79.03 80.38"/>
          <path class="d" d="M76.33,77.89s-.05.06-.07.09c.03-.03.05-.06.07-.09Z"/>
          <path class="d" d="M79.31,80.41l-.1-.04s.12.05.09.04c-.14-.07.02,0-.06-.03.01,0,.02,0,.06.03-.07-.04-.02-.01-.04-.02-.02-.01-.02-.01-.05-.02l-.03-.02s.07.04.08.04c.02,0,.07.04.07.04,0,0,0,0,0,0-.05-.05-.02-.02-.1-.09-.03-.03,0,0-.03-.03.12.11.03.03.15.14l-.07-.06.04.04c-.07-.06-.03-.03-.02-.01,0,0-.09-.08-.06-.05,0,0-.04-.03-.05-.05.05.05-.04-.03.02.02,0,0,0,0-.07-.06.04.03.05.04.08.07,0,0,.01.01,0,0l-.02-.02s.05.04-.02,0l-.03-.02s0,0,.06.05h.02s0,.01-.04,0h0c-.07-.05-.14-.03-.26-.06l-.06-.03h-.06s.16.05.18.06c-.02.04-.18-.03-.13-.05.04.01.13.05.14.05-.03-.02-.08-.04-.08-.04.01,0,.06.03.07.03-.01,0,.02,0-.02-.01-.03-.01-.13-.05-.19-.08h0s.06.02.06.02c0,0-.18-.08-.14-.08.02,0,0-.04.01-.05.04.03.06.04.08.05,0,0,0-.01.02,0-.07-.03-.04-.03-.07-.05-.16-.11,0-.04-.11-.12-.07-.05-.66-.44-1.24-.87-.58-.42-1.03-1.01-1.1-1.08.06-.06.12-.12.15-.13-.05-.02-.19.09-.22.18l.07.08c-.05.09-.07.09-.09.09-.02,0-.06.01-.07.03-.03-.03-.06-.04-.05-.08.03-.06.08-.14.13-.21-.11.11-.25.21-.16.24-.05.01-.09-.06-.14-.05,0,.04.05.12,0,.12h-.01c-.12.02.05.17-.06.19l-.02-.02c-.05,0-.02.08-.08.1.02,0,.08.02.08.05-.07.02-.03.08-.1.08l.07.07c-.03.07-.06.3-.03.43.02.17.1,0,.14-.13h-.02c.02-.05.04-.1.06-.15l.04-.09s.01-.03.02-.05h.12c.08,0,.17,0,.24,0l.07-.08c.05-.06.1-.1.16-.14.22-.16.41-.2.49-.2-.04-.06,0-.06-.01-.07.02.02.05.05.05.05,0-.02.04.03.04.04,0,0-.02.01-.08.02l-.3-.27h0c-.03.08,0,.25-.16.3-.27-.03-.32.12-.38.15.04.08.03.13,0,.18,0,.02-.02.05-.03.07.01.03.05.08.08.12l-.04-.03s.07.11.11.21c-.01.06-.07.12-.11.18-.09.12-.18.23-.19.27h.02c.03.08-.1.03-.17.07.14.03.18.09.17.1h-.03s.07.1.04.12h-.07s-.05.04-.06.05c-.09.01-.3-.01-.27-.03l-.25-.06h.02s2.75.43,3.33.52h.08s0,.01,0,.01c.04,0-.05,0,.03,0h-.02s.07,0,.12.01c0,0,.02,0,.05,0-.03,0-.03,0-.05,0-.03,0-.1-.01-.06,0,0,0,.13.02.14.02.08.01.17.02.16.01.03,0,.03,0,.04,0-.02,0-.02,0-.04-.02.03,0,.07.02.09.03-.05-.01-.05-.02-.04-.02Z"/>
        </g>
        <g>
          <path class="d" d="M83.65,97.76c.12-.03.21-.18.28-.3-.11.07-.19.16-.28.3Z"/>
          <polygon class="d" points="83.93 97.45 83.93 97.45 83.93 97.45 83.93 97.45"/>
          <path class="d" d="M81.77,95.79s-.02-.02-.03-.03l.03.03Z"/>
          <path class="d" d="M79.87,96.13l.13.04c-.04.23-.17.04-.16.26.18.09-.03.36.09.43-.02,0-.01.11-.07.11.11.02.04.12.09.18.03.02.03-.03.05-.05l.08.16c-.01.08-.06.12-.1.04.02.09.06.28.19.53.14.26.4.62.88.88l2.41,1.3.48-3.2c.02-.15.03-.32,0-.37-.08.02-.02.04-.15.06-.07-.02.02-.04-.05-.04.18-.02.04-.06.23-.09h-.1s.06-.02.06-.02c-.12-.1-.05-.02-.04-.12-.02-.05-.17-.07-.11-.11,0,0-.06.02-.09,0,.09,0-.07-.03.02-.05-.01-.01,0-.06-.13-.04.06-.01.08-.05.14-.03,0-.01.02-.03,0-.04l-.03.02s.07-.08-.04-.1l-.05.02s-.02-.05.1-.07l.04.03s-.02-.07-.08-.11h0c-.09-.02-.18-.16-.28-.24l-.64-1.14c-.2-.11-.37-.16-.57-.19-.22-.03-.4,0-.5.03.11.02.23.06.33.1-.21,0-.39.05-.56.13.05-.02.21-.37.3-.34-.16,0-.49.08-.73.23-.1.07-.22.16-.31.26-.07.07-.13.16-.2.26-.19.32-.23.56-.26.83,0,.27-.04.57.25,1.08.15.25.44.51.74.62.31.12.47.11.61.12.42.02.1.15.08.16.52-.13.21-.12.62-.27.13-.05,0,.08-.05.12.18-.09.39-.21.37-.26-.26.15-.22-.03-.36-.04.17-.09.34-.24.44-.37l.04.07c.07-.09.05-.4.16-.69.13-.53,0-.75-.09-1.03.04-.01.09.03.14.08-.01-.04-.04-.09-.03-.14-.04.1-.1-.09-.11-.03-.14-.06-.19-.15-.31-.3-.05-.06-.12-.14-.23-.21-.08-.06-.23-.13-.38-.15-.03.04-.17.19-.3.46-.07.13-.12.29-.13.46,0,.08,0,.17,0,.26v.04s.03.04.04.05c0,.01.02.02.03.03,0,0,0,0,.01,0h0c.38.3.8.63,1.27.99-.62-.48-1.08-.84-1.3-1.01-.01-.01-.03-.03-.04-.05h0s0-.01-.01-.03c0,0,0,0,.03.05-.03-.03-.03-.06-.03-.05h0s-.02.06-.05.09h0c-.08.08-.15.11-.19.13h0s-.02,0,0,0c0,0-.02,0,0,0,.03,0,.09-.01.14-.01.02,0,.03,0,.05,0,.06,0,.14.08.1.01,0-.03,0,.01,0,.03,0,0,0,.02,0,0,.01-.02.1-.06.17-.07.18-.03.21.02.08-.03-.12-.04-.22-.14-.22-.16h0s.01,0-.04.07l-1.69-.03c.04.2.07.5.18.66-.08.04-.06.08-.08.11.03-.02.09-.02.09,0,0,.1.06,0,.1.1.05.07.05.27.02.44l1.66-.29s.11-.09.15-.1c.07-.02.14-.03.14-.03h0s-.02.01-.16-.05c-.14-.08-.13-.12-.13-.12h0s0,0,0,.01c0,0-.01.03-.03.05h0s-.08.09-.12.12h0s-.07.04-.06.03c0,0,.11-.02.18,0,0,0,.03.01.03.01h0s.02.02.05.04c.57.42,1.17.99,1.61.76l.06.04.05-.14c.1-.15.03-.24.1-.21-.02.07-.05.14-.08.22.08-.16.08-.03.09.05.03-.07.07-.14.11-.19-.02-.04-.04.01-.06.04,0-.1-.04-.23.01-.32.03-.15.12,0,.15-.17.05-.48,0-.85-.18-1.24-.08-.19-.21-.4-.4-.6-.22-.21-.48-.43-.96-.55-.03-.04.02-.03.07-.03-.55-.14-1.16-.06-1.58.2-.14.03-.19.01-.24.01.04-.01-.53.43-.71.82-.21.39-.25.7-.27.71Z"/>
        </g>
        <g>
          <path class="d" d="M98.29,66.84c-.08.02-.09.05-.1.08.08-.02.11-.05.1-.08Z"/>
          <polygon class="d" points="98.19 66.93 98.19 66.93 98.19 66.93 98.19 66.93"/>
          <path class="d" d="M100.4,69.79v-.02s0,.01,0,.02Z"/>
          <path class="d" d="M97.96,68.41h.14c0,.06-.1.04-.12.07l2.66-1.86s-.06-.03-.12-.04c-.17.13-.53-.14-.66-.03,0-.02-.15-.02-.14-.08-.04.11-.16.03-.25.07-.03.03.03.03.06.06l-.2.07c-.08-.02-.12-.07-.03-.1-.28.02-1,.26-1.43.7-.46.42-.68,1-.71,1.23.09-.03.08-.18.22-.18.03.13-.08.15-.02.22-.19,0-.1.22-.3.28l.1.05-.07.05s0,.07.01.09l3.92-.18c-.08,0-.03,0,0,0-.02,0-.16,0-.11-.01,0,0-.06,0-.09,0,.09,0-.07-.01.03-.01-.01,0,0-.02-.13-.02.06,0,.09-.01.14,0,0,0,.02,0,0-.01h-.03s.08-.01-.03-.03h-.05s-.01-.02.11,0h.04s0,0-.07-.03h0c-.12-.03-.19-.16-.32-.24l-.09-.03-.07-.05s.23.11.25.12c0-.01,0-.04,0-.08l-2.5-1.46c-.08.2-.18.42-.25.46-.07.02-.14-.06-.15-.07,0,.06.08.07.05.1-.02,0-.07-.04-.07-.05,0,.02-.04.02,0,.05.04,0,.14.06.22.08l-.04.05-.07-.04s.17.12.11.16c-.07.07-.1.18-.16.26-.04-.02-.05-.05-.07-.08,0,.01,0,.03-.04.03.08.02.03.06.07.06.13.15-.06.15.02.27.14.08,2.47,1.42,2.65,1.51-.01.02-.02.03-.04.03.04.02.08,0,.07-.04l-.09-.05c-.01-.06.06.02.08-.03.08.04.07.08.07.12.02-.03.1-.03.02-.08.05-.01.09.05.14.03-.01-.04-.07-.11,0-.11h.01c.11-.02-.06-.16.05-.18l.02.02c.06,0,.02-.07.09-.09-.02,0-.08-.02-.08-.04.07-.02.04-.08.12-.08l-.06-.07c.07-.11.2-.5.28-.73l-3.15-1.83c-.15.26-.2.42-.24.5v-.02c-.22.48-.39,1.46-.21,1.95-.08.08-.05.19-.06.27.03-.05.09-.04.09,0,.02.19.05.09.09.14l2.41-.21h0s.04.02,0-.01c-.05-.03-.13-.18-.13-.22-.01-.05,0-.09,0-.09h0s0,0,0,0l1.73-.48c0-.15.07-.48.03-.56h-.02c-.08-.07.06-.06.1-.12-.14,0-.22-.06-.23-.09h.03s-.14-.13-.16-.2h.08c-.08-.05-.05-.16-.06-.2.03-.09.16-.23.06-.35l.21-.08h-.02s-2.6-.12-3.15.04h-.08s0,.03,0,.03c-.04.04.05.06-.02.05v-.05s-.05.01-.1,0c0,.02-.02.03-.04.04.03,0,.03,0,.05-.01.03.02.1.05.06.07,0,.04-.12,0-.13.05-.06.24-.14.48-.12.72-.03,0-.03,0-.04,0,.03.07.02.14.06.21-.03.02-.08.02-.11.03.06-.01.07.37.05.38Z"/>
        </g>
        <g>
          <path class="d" d="M94.75,84.68c0,.08-.04.08-.09.1.01-.08.04-.1.09-.1Z"/>
          <polygon class="d" points="94.65 84.78 94.65 84.78 94.66 84.77 94.65 84.78"/>
          <path class="d" d="M92.48,84.85h.02s-.01,0-.02,0Z"/>
          <path class="d" d="M93.87,86.22v-.14c.08,0,.03.17.11.14.01-.2.15.03.17-.07,0,.02.05.02.05.08,0-.11.05-.03.07-.05,0-.03-.01-.03-.02-.06l.06-.04s.05.09.02.11c.09.02.38.03.66-.04.27-.05.57-.19.66-.27-.06-.06-.1.02-.18-.07.02-.09.09-.02.08-.1.11.15.13-.02.26.12l-.04-.1.06.04c.13-.21.02-.07.19-.16.07-.07.03-.22.1-.2,0,0-.06-.04-.06-.07.06.07.01-.09.08-.02.01-.02.07-.06-.02-.14.05.04.11.02.12.09,0,0,.02,0,.03-.01l2.74-1.11-3.22-2.02s-.01,0-.02,0l.47,3.09h0s0,0,0,0h0s-.47-3.04-.47-3.04h0s0,0,0,0h0s0,0,0,0h-.01s-.02-.03-.02-.04c-.01-.01-.03-.02-.07.03v.05s-.06,0-.03-.13l.04-.02c-.05-.02-.08-.02-.15.03h.01c-.1.1-.41.09-.52.22v.1s-.08.06-.08.06c0,0,.13-.28.13-.25-.09-.03-.59-.14-.64-.23-.01-.06.05-.14.06-.16-.05.02-.05.09-.09.07,0-.02.03-.07.04-.08-.02,0-.02-.03-.04,0,0,.04-.04.15-.07.22l-.04-.03.03-.07s-.1.18-.13.13c-.06-.06-.15-.07-.22-.11.02-.04.04-.06.07-.08,0,0-.03,0-.03-.03-.01.08-.05.04-.05.07-.12.15-.13-.03-.22.06-.07.15-1.13,2.62-1.2,2.8-.01,0-.03-.02-.03-.04-.01.04,0,.08.03.06l.04-.1s-.01.06.02.07c-.03.08-.07.09-.1.08.02.02.02.09.07,0,.01.04-.04.1-.03.14.03-.02.09-.08.09-.03h0c.02.12.14-.07.16.03l-.02.02c0,.05.06,0,.08.07,0-.02.01-.08.03-.08.02.07.06.03.07.1l.06-.07c.13.07.7.16.84.2h-.01c.16.04.44.14.67.18l-.45-2.95s-.06.09-.06.13c-.06-.06-.07-.03-.1-.04.03.02.06.07.05.08-.04.02.03.05.01.1.03.08-.13.04-.16-.05,0,.11-.02.02-.03.08v-.03s-.06-.14-.05-.12h0c0,.05,0-.04,0-.08,0,.08,0,.12,0,.13v-.02s0,.05.01.04v-.04s.02-.02.02-.02c.01-.04.03-.12.07-.07,0-.03,0-.05-.02-.08h0s.13.29.26.59c.13.29.26.6.38.86.12.29.19.53.18.66l.03.07s-.03,0-.06,0c-.07.05-.13-.03-.1.04l.11-.03c-.07.03,0,.06.04.1-.03.01-.06.03-.08.05-.03-.02,0-.03,0-.05-.02,0-.06-.03-.09-.04h-.02s0,.06,0,.09c0,.05,0,.05,0,.25.01.5.04.18.06.79-.39.2-.66.15-.78.2-.13.02-.19.03-.18.03,0,.04,0,.04,0,.06,0-.04,0-.02.03-.05,0,.04,0,.1,0,.14,0-.04.03-.05.1-.04.07,0,.17.03.18.03Z"/>
        </g>
        <g>
          <path class="d" d="M89.1,61.11c.02-.1-.05-.18-.11-.26,0,.11.04.19.11.26Z"/>
          <polygon class="d" points="88.98 60.84 88.98 60.84 88.98 60.84 88.98 60.84"/>
          <path class="d" d="M86.72,61.7h-.02s0,0,.02,0Z"/>
          <path class="d" d="M85.24,61.6l.12.07c-.07.16-.16-.01-.19.15.16.12-.1.27-.02.36-.01,0-.04.08-.1.06.1.04,0,.09.03.16.03.02.03-.01.07-.02l.02.13s-.1.06-.11,0c-.04.15-.07.65.1,1.14l1.52,4.38,2.25-4.57c.06-.13.12-.3.11-.37-.08,0-.04.05-.16.03-.06-.05.03-.04-.03-.07.18.03.06-.06.25-.05l-.1-.03h.07c-.07-.18-.04-.05,0-.19,0-.09-.14-.15-.08-.2,0,0-.07.02-.09,0,.09,0-.06-.07.04-.07,0-.02.01-.1-.12-.09.06,0,.09-.08.15-.03,0-.02.03-.05,0-.07l-.04.03c-.01-.08.09-.13-.03-.19l-.05.03c0-.05-.02-.1.11-.12l.04.06c0-.1-.01-.15-.08-.23v.03c-.11-.09-.33-.66-.53-.7l-.07.08-.11-.05s.31-.07.28-.05c-.01-.04-.21-.51-.58-.8-.35-.31-.79-.42-.93-.47-.1-.07,0-.15.01-.17-.15.01-.08.09-.2.07-.03-.02.01-.07.04-.09-.06,0-.11-.03-.12.02.07.04.03.16.05.24l-.15-.02v-.08s-.08.21-.23.18c-.26,0-.56.14-.82.33-.02-.04.01-.1.06-.16-.04.02-.09.07-.14.07.11,0-.07.13,0,.12-.05.28-.35.44-.3.66.07.04.7.4,1.39.59.05.01.09.03.13.04,0,0,.02,0,.02,0,.24.03.43.05,1.35.15-.97-.11-.81-.09-1.37-.15h0s-.04-.01-.04-.01c0,0,.03.01.06.01-.02,0-.06-.02-.06-.02h-.02s-.02-.01-.03-.02h0s-.01,0-.01,0h0s0,0,.02.02c0,0,0,0,0,0,0,.02,0,.03.01.04h0c.01.05,0,.14,0,.11,0,0,.01-.02.01-.02-.18.08-.32.15-.39.18h0s-.17.06-.44.08c-.08,0-.14,0-.23,0-.04,0-.09,0-.13,0,0,0,0,0,0,0,.02,0,.04.02.06.04-.08,0-.07.01-.09.02.04,0,.09.01.09.02-.02.04.06.01.08.07.04.04,0,.14-.06.25l2.02.21s0,0,.02,0c.02,0,.05,0,.08.02h0s.06.02.08.04c.02.01-.01-.01-.02-.02h0s-.02-.02-.04-.05c-.02-.03-.03-.04-.03-.04h0s-.04-.07-.05-.12h0s-.02-.1-.02-.1c0-.06.01-.03-.02,0-.01.02-.02.03-.04.04h0s0,0,0,.01h0s0,0,0,0l.2-.16c.56-.45,1.22-.9,1.23-1.29l.06-.05-.08-.06c-.06-.11-.17-.08-.12-.13.05.04.08.08.13.12-.08-.1.01-.07.08-.07-.03-.04-.07-.08-.09-.13-.04,0,0,.04,0,.06-.07-.02-.2-.03-.26-.11-.12-.08.06-.11-.1-.2-.42-.25-.96-.34-1.35-.29-.42.05-.74.19-.99.37-.03-.02-.01-.03,0-.05-.14.13-.27.23-.35.36-.05,0-.1-.02-.13-.03.03.01-.11.18-.23.37-.12.19-.23.4-.23.4Z"/>
        </g>
        <g>
          <path class="d" d="M113.58,76.28c.05-.07.04-.09.03-.12-.05.07-.06.1-.03.12Z"/>
          <polygon class="d" points="113.61 76.16 113.61 76.16 113.61 76.16 113.61 76.16"/>
          <path class="d" d="M110.73,76.64h-.05s0,.01.05,0Z"/>
          <path class="d" d="M112.97,75.04l-.11.08s.11-.11.04-.14c-.16.11-.05-.09-.14-.03.01,0,0-.03.05-.07-.09.06-.04,0-.07,0-.03.01-.02.02-.04.05h-.05s.06-.08.08-.08c-.04-.1-.29-.56-.41-.61-.05.06.01.05-.07.14-.07.02-.01-.05-.07-.01.13-.13,0-.08.12-.22l-.09.06.04-.05h-.02s-3.34-.32-3.34-.32l-.04.92c-.02.36,0,.08-.1.41-.03.21.12.31.05.41,0-.02.07-.05.09,0-.09,0,.06.12-.03.14,0,.05,0,.19.12.14-.06.02-.08.15-.14.08,0,.04-.02.09.01.12l.03-.06c.03.14-.05.23.07.3l.04-.06c.02.08.04.14-.07.2l-.06-.08c.03.14.06.22.16.31v-.04c.12.12.57.76.83.76l.03-.11.14.04s-.27.16-.26.13c.08.09.32.36.76.55l1.73-2.23c-.39-.45-.85-.61-.97-.69-.08-.08.03-.15.04-.16-.14,0-.08.08-.19.04-.02-.02.03-.07.05-.08-.05,0-.09-.05-.1,0,.05.05,0,.16,0,.24l-.13-.04.02-.07s-.12.19-.24.13c-.23-.05-.54-.04-.96.14-.01-.04.07-.11.15-.17-.06.02-.15.07-.21.07.14.02-.15.14-.06.13-.12.18-.29.32-.43.53-.15.2-.22.43-.19.6.08.03.78.28,1.49.23.12,0,.14-.01.15-.02.24-.07.45-.13,1.3-.38-.44.13-.85.24-1.23.35h-.01s-.02.01-.03.01c-.02,0-.05.01-.07.02h0c-.09,0-.04,0-.09,0-.01,0,.05,0,.13-.02-.07.01-.13.01-.14.02-.04,0,0,0-.04,0-.05-.01-.04,0-.07-.02h0s.02,0,.06.08h0s.04.08.04.14c0-.02,0-.03,0,0,.02.08,0,.13.01.18v.05c0,.08-.05.22-.04.19,0-.03.1-.16.17-.21l.71-.91c.04-.08.11-.15.14-.18h0c.08-.08.27-.18.32-.19.06-.01-.06.01-.14,0-.03,0-.06,0-.09-.02.02,0,0,0,0,0-.06-.02-.02,0-.06-.02l-2.04.72s.02,0,.04.02c.15.05.42.51.44.65.14-.03.12.09.22.09h-.03c.08.04.24.41.33.44v-.02c.11,0,0,.08,0,.15.1-.09.2-.1.22-.09l-.02.02s.18,0,.23.02l-.06.05c.09-.02.12.07.15.09.03.08,0,.26.15.27l-.12.19h.02s2.05-1.6,2.38-2.07l.06-.05h-.02c0-.06-.07-.02-.01-.07l.02.04s.04-.05.08-.07c0-.02,0-.03,0-.05-.03.01-.02.02-.03.04-.03,0-.1.03-.09,0-.02-.03.09-.08.07-.12-.09-.19-.15-.4-.3-.55.02-.02.02-.02.04-.02-.07-.03-.09-.08-.16-.1.02-.03.05-.07.07-.09-.04.05-.26-.2-.25-.21Z"/>
        </g>
        <g>
          <path class="d" d="M112.2,55.36c-.02-.08-.04-.09-.05-.1.02.08.04.11.05.1Z"/>
          <polygon class="d" points="112.15 55.26 112.15 55.26 112.15 55.26 112.15 55.26"/>
          <path class="d" d="M111.84,57.77l-.02-.02s0,0,.02.02Z"/>
          <path class="d" d="M110.52,55.57l.07.11c-.09.07-.12-.1-.19,0,.09.17-.16.11-.12.22-.01-.01-.05.02-.09-.02.06.08-.02.06-.03.1.01.03.03.01.06.03l-.02.08s-.1-.03-.08-.07c-.05.05-.1.07-.22.24-.12.16-.22.33-.29.5-.15.34-.17.64-.15.75.08-.02.03-.1.16-.11.06.06-.03.08.04.11-.19.01-.05.12-.23.16h.1s-.06.04-.06.04c.12.24.05.05.05.27.03.13.19.16.15.24,0-.01.06-.05.09-.03-.09.03.09.07,0,.11.02.03.04.14.15.06-.06.03-.04.15-.12.1,0,.04,0,.08.04.09v-.06c.08.11.02.21.17.25l.02-.07c.05.07.09.13,0,.22l-.08-.06c.07.12.15.22.3.29l-.03-.04c.1.03.34.24.73.37.39.14.8.07.89-.01l-.1-.09.18-.09s-.07.32-.1.29c.09,0,.43-.03.76-.24.38-.22.61-.63.68-.88.14-.53.05-.75.09-.86.04-.08.15-.04.16-.04-.05-.09-.11-.02-.11-.1.01-.02.07-.01.09,0-.02-.03,0-.07-.04-.06-.02.05-.14.06-.22.09v-.09s.06-.02.06-.02c0-.02-.21,0-.2-.09-.03-.16-.11-.32-.34-.6.03-.03.12.02.18.06-.01-.02-.09-.09-.1-.15.01.12-.16-.08-.13,0-.13,0-.39-.18-.63-.24-.3-.09-.7-.03-.81.1,0,.04.03.25.12.52.04.13.11.28.19.43.07.13.25.35.2.3.02.03.05.06.05.06.02.01.04.02.04.03,0,0-.04-.02-.06-.04h0s-.01-.01-.04-.05c0,0,.03.04.06.07-.03-.02-.06-.07-.06-.07-.01-.01,0,0-.01-.01-.01-.02,0-.04-.01-.03h0s-.02.05-.07.09h0s-.06.05-.1.07c.01,0,.02-.01,0,0-.05.03-.08.04-.11.06h-.03c-.09.05-.12.02.11.03.23.02.24.14.21.05h0s0,0,0,0c0-.11,0-.03,0-.05h0s0,.01,0,.01c0-.02.03-.05.09-.1.11-.09.27-.13.31-.14.04,0,.03,0,.04,0h0s.01,0,0,0c0,0-.06,0-.16-.03-.05-.02-.1-.04-.13-.05h-.02s-.01-.02-.01-.02h0s0,0,0,0l.23.17h0s0,0,0,0h0s0,0,0,0h-.01s-.02-.02,0-.02h0s.01.01.04.06c.03.05.07.14.08.19h0c.02.06.03.08.04.11.02.06.03.1.03.1h0s.02.07.03.12c0,.03.01.05.02.07,0-.01,0-.03,0-.03v.07c0-.08.02-.05.02-.06.02.03.05.16.08.05l.04.21v-.02s-.13-2.59-.26-3.14v-.08s-.02.01-.02.01c-.02-.04-.03.05-.03-.02h.03s-.01-.05,0-.1c0,0-.02-.01-.03-.04,0,.03,0,.03.01.05-.01.03-.02.1-.04.07-.03,0-.01-.12-.04-.13-.17-.04-.41-.1-.69,0-.02-.03,0-.03,0-.05-.08.06-.17.08-.24.14-.04-.02-.06-.06-.08-.09.05.03-.49.33-.5.35Z"/>
        </g>
        <g>
          <path class="d" d="M123.37,49.4c-.06.04-.07.04-.08.05.06-.04.09-.05.08-.05Z"/>
          <polygon class="d" points="123.29 49.45 123.3 49.45 123.3 49.45 123.29 49.45"/>
          <path class="d" d="M125.55,50.34l.02-.02s0,0-.02.02Z"/>
          <path class="d" d="M123.1,49.54l.13-.02s-.15.03-.12.03c.19-.02-.02.02.09.01-.02,0-.02.01-.08.02.1-.01.03,0,.05,0,.03,0,.03,0,.06-.01h.04s-.09.03-.11.02c-.03.02-.11.29-.05.38.08-.02.02-.03.14-.06.07.01-.02.03.05.03-.18.03-.04.05-.22.09h.1s-.06.01-.06.01c.12.09.05,0,.04.11.02.06.17.06.12.1,0,0,.06-.03.09-.02-.09.02.07.03-.02.06.01.01.01.07.13.03-.06.02-.08.07-.13.06,0,.02-.02.04.01.04l.03-.03s-.04.18.1.24l.03-.07c.03.09.07.15-.03.23l-.07-.08c.06.15.1.24.24.34l-.02-.05c.1.05.29.27.54.4.24.15.48.18.57.15v-.11s.08-.01.12-.03c0,0-.17.26-.17.23.11.06.47.16.77.16.3,0,.6-.07.71-.08.09.03.06.14.07.16.1-.07.01-.11.11-.14.03,0,.02.07.01.09.04-.03.09-.02.08-.06-.07,0-.09-.13-.15-.19l.11-.04.03.07s-.04-.21.11-.26c.19-.08.53-.42.64-.95.04.01.05.12.04.24.03-.07.04-.18.08-.23-.09.11-.03-.23-.07-.13-.15-.42-.15-.77-.38-.89-.08.03-.7.39-1.24.87-.05.04-.06.06-.06.06,0,0-.01.01-.02.03,0,0,0,0,0,.01h0c-.27.32-.56.67-.88,1.05.32-.38.61-.73.88-1.05h0s.01-.02.01-.02c.01-.02,0,0,.03-.03h0s0-.01.05-.05c0,0-.04.03-.07.06.02-.03.06-.06.07-.07,0,0,.03-.02.04-.02.03-.02.03-.03.06-.04h0c.07-.02.04-.02.06-.02h0s-.02,0-.03-.02c0,0,.01,0,0,0-.03-.02-.04-.03-.06-.05l-.02-.02s-.12-.25-.1-.25c0,0,0,.1-.03.12h0s-.07.09-.02.05c0,0,.04-.02.05-.02h.03s0,0,0,0l1.24-.28h0s0,0,0,0h0s-.04,0-.07-.02c.08-.02.06-.03.08-.04-.03,0-.09.02-.09.01,0-.04-.06,0-.1-.03-.08-.03-.02-.31.04-.42-.13-.03-.04-.1-.13-.14h.03s0-.43-.09-.51h-.01c-.09-.02.04-.06.06-.12-.13.05-.22.02-.24,0h.03s-.17-.05-.21-.09l.07-.03c-.09,0-.1-.09-.12-.11,0-.07.06-.22-.09-.23l.16-.15h-.02s-.59.33-1.25.7c-.59.34-1.23.72-1.45.85l-.06.03h.01s.05-.02-.02,0h0s-.05.02-.09.04c0,0-.01,0-.03.02.02-.01.03-.01.04-.02.02-.01.09-.04.06-.03,0,0-.1.06-.11.06-.04.03-.12.07-.1.07-.03,0-.03,0-.04.01.03-.01.02,0,.05-.02-.03,0-.08.02-.11.02.02,0,.03-.01.03-.02,0,0,0-.01,0-.01h0s0,0,0,0h0s.27-.06.27-.06h0s0,0,0,0h-.06s-.08.03-.12.04c-.12.02-.07.02-.08.02h0s0,0,0,0Z"/>
        </g>
        <g>
          <path class="d" d="M119.33,64.2c-.08,0-.09.02-.1.03.08,0,.11-.02.1-.03Z"/>
          <polygon class="d" points="119.23 64.23 119.23 64.23 119.23 64.23 119.23 64.23"/>
          <path class="d" d="M122.9,66.28s0,0,0,0c0,0,0,0,0,0Z"/>
          <path class="d" d="M118.99,64.74h.14s-.16,0-.12.03c.19,0-.02.04.08.05-.02,0-.02.01-.08.01.1,0,.02.01.05.02.03,0,.03,0,.06,0l.04.02s-.09,0-.11,0c-.04.04-.14.25-.09.3.08,0,.03-.02.15-.03.07.01-.02.02.05.02-.18,0-.04.03-.23.04h.1s-.06,0-.06,0c.11.05.05.01.03.06.02.03.16.04.11.06,0,0,.07,0,.09,0-.09,0,.07.02-.03.02.01,0,0,.03.13.02-.06,0-.09.02-.14.01,0,0-.02.01,0,.02h.03s-.08.03.03.04h.05s.02.02-.11.02h-.04s.01.02.08.04h0c.12.02.23.14.38.17h.1s.08,0,.08,0c0,0-.31,0-.28-.01,0,.04.08.26.02.29-.05.02-.15,0-.17,0,.04.02.1,0,.09.02-.02,0-.08,0-.09,0,.01,0-.02.01.02.01.03,0,.15,0,.23,0v.02s-.09,0-.09,0c0,0,.21.01.17.03-.03.03,0,.07-.02.1-.05,0-.07,0-.1-.01,0,0,0,.01-.02.02.08,0,.05.01.09,0,.18.02.02.06.14.08.17,0,2.85.05,3.04.05,0,0,0,.01-.02.02.05,0,.07-.02.04-.02h-.11s.06,0,.06-.02c.09,0,.1.01.11.03.01-.01.07-.02-.02-.03.04-.01.11,0,.14-.01-.03,0-.11-.02-.06-.03h.02c.09-.03-.13-.04-.04-.06h.03c.05,0-.02-.02.04-.04-.02,0-.08,0-.09,0,.05-.02,0-.03.07-.04h-.08c.02-.07-.1-.32-.12-.38h.01c-.04-.09-.04-.28-.15-.38.08-.02.06-.04.09-.05-.03,0-.09,0-.09,0,0-.05-.06,0-.09-.05-.08-.06.01-.27.08-.32-.12-.03-.03-.06-.11-.09h.03s.07-.18.02-.22h-.02c-.08-.02.06-.02.1-.04-.14,0-.22-.02-.23-.03h.03s-.14-.05-.16-.07h.08c-.08-.02-.05-.05-.06-.07.03-.03.16-.08.06-.12l.21-.03h-.02s-2.59-.05-3.15,0h-.08s0,.01,0,.01c-.04.01.05.02-.02.02v-.02s-.05,0-.1,0c0,0-.02.01-.04.02.03,0,.03,0,.05,0,.03,0,.1.02.06.03,0,.01-.12,0-.13.02-.06.08-.15.16-.13.25-.03,0-.03,0-.04,0,.03.03.02.05.05.07-.03,0-.08,0-.11.01.06,0,.07.13.05.13Z"/>
        </g>
        <g>
          <path class="d" d="M14.75,69.76s0,.01,0,.01c0,0,0-.01,0-.01Z"/>
          <polygon class="d" points="14.74 69.77 14.74 69.77 14.74 69.77 14.74 69.77"/>
          <path class="d" d="M15.55,71.89h0s0,0,0,0Z"/>
          <path class="d" d="M14.69,70.02h0s0-.02,0-.03c0,0,0-.05.01-.06,0,0,0,0,0-.01.02-.04,0-.02.01-.03h0s.01-.02.01-.02c0,0,0,0,0,0,.03-.06.1-.1.06-.08l-2.1-1.12c-.08.09-.13.16-.15.21.07.03.06-.04.17.02.03.07-.06.03,0,.09-.16-.1-.09.04-.26-.04l.08.07-.06-.02c-.01.21.02.06-.08.18-.03.09.07.19,0,.21,0,0,.07,0,.08.04-.08-.04.03.08-.06.05,0,.02-.04.08.08.12-.06-.02-.11.02-.14-.03-.01.02-.04.03-.02.05h.04c-.01.06-.12.05-.04.14h.06s-.02.07-.14.04l-.02-.05c-.03.06-.03.11,0,.18v-.02c.09.12.07.49.2.59h.1s.06.07.06.07c0,0-.29-.11-.26-.11-.04.11-.08.69-.15.78-.06.04-.15-.01-.17-.01.03.06.1.03.09.08-.02.01-.08-.01-.09-.02,0,.02-.03.04.02.04.04-.02.15,0,.23,0l-.02.05h-.07s.2.04.16.09c-.04.09-.02.18-.04.27-.05,0-.07-.02-.1-.04,0,.01,0,.03-.02.04.08-.02.05.04.09.02.19.07.02.15.14.21.17.02,2.85-.05,3.04-.09,0,0,0,.01-.02.01.05,0,.07-.02.04-.02h-.11s.06,0,.05-.01c.09,0,.11,0,.11.01,0,0,.07-.02-.02-.02.04,0,.11,0,.14-.01-.03,0-.11,0-.06-.02h.02c.09-.02-.13-.03-.04-.04h.03s-.02-.02.04-.02c-.02,0-.08,0-.09,0,.06,0,0-.02.07-.03h-.08c.02-.05-.07-.25-.07-.31h.01c-.02-.08.04-.2-.03-.31.08.03.07.01.09.02-.03-.01-.08-.05-.08-.05.02-.02-.05-.03-.06-.08-.02-.03,0-.05.02-.07l-2.65-.54c.12.55.59,1.09.82,1.26.24.01.47.21.75.18l-.03.02c.12,0,.65.1,1.17-.13.23-.09.48-.28.63-.45.15-.17.22-.3.25-.38l-.04.03c.04-.26.15-.17.25-.33-.14-.02-.16-.22-.16-.27h.03c0-.09-.1-.3-.12-.43h.08c-.08-.11-.08-.33-.11-.42-.02-.19-.02-.66-.52-.96-.05-.13-.11-.26-.21-.39h-.07s-.11.12-.24.34c-.13.22-.27.53-.38.87l-.16.52c-.03.09-.05.17-.08.25l-.02.06v.03s.13-.45.13-.45h0s0,0,0,0h0s0,0,0,0h0s0,0-.01.03v-.02s.01,0,.02,0c0,0,0,0-.01.01h0s-.02.02-.03.03l-.03.02c-.08.06-.21.08-.24.08-.04,0,0,0,.1.02,0,0,0,0,0,0,.05.02.1.04.14.07h.01s.02.03.02.03c0,0,.01.01.02.02h0s0,0,0,0l-.04-.05h0s0,0,0,0h0s0,0,0,0h0s0,.01,0,.01c0,.02,0,0,0,0Z"/>
        </g>
        <g>
          <path class="d" d="M36.62,90.57s0-.03,0-.03c0,.02,0,.03,0,.03Z"/>
          <polygon class="d" points="36.63 90.54 36.63 90.54 36.63 90.54 36.63 90.54"/>
          <path class="d" d="M37.46,91.95s0,0,0-.02c0,0,0,.01,0,.02Z"/>
          <path class="d" d="M37.05,90.06h0s.02,0,.02,0c.02-.01,0,0,.02,0h0s0,0,0,0h0s0,0,0,0h0s-.05.01-.09.01c0,0,0,0,.01,0-.01,0,0,0-.01,0-.01,0-.02,0-.02,0h-3.43s-.04.02-.1.03h.1s-.06.02-.06.02c.11.09.05.02.03.1.02.05.16.07.11.1,0,0,.06-.01.09,0-.09,0,.07.03-.03.04.01.01,0,.05.13.04-.06,0-.09.04-.14.02,0,.01-.02.02,0,.03l.03-.02s-.08.06.04.09l.05-.02s.02.04-.11.05l-.04-.02s.01.06.08.1h0c.12.03.23.25.38.29l.1-.02.08.03s-.31-.01-.28-.02c0,.07.09.44.02.51-.05.03-.15,0-.17,0,.04.03.1.01.09.04-.02,0-.08,0-.09,0,.01.01-.02.02.02.02.03-.02.15,0,.23-.02v.04s-.09,0-.09,0c0,0,.21.02.17.05-.03.06,0,.12-.02.18-.05,0-.07-.01-.1-.03,0,0,0,.02-.02.03.08-.01.05.02.09.01.18.04.02.1.14.14.17,0,2.85.06,3.05.06,0,.01,0,.02-.02.03.05,0,.07-.03.04-.04h-.11s.06,0,.06-.04c.09,0,.11.02.11.05,0-.02.07-.04-.02-.05.04-.02.11,0,.14-.02-.03-.02-.11-.04-.06-.06h.02c.09-.05-.13-.07-.04-.11h.03s-.02-.04.04-.07c-.02,0-.08.01-.09,0,.05-.03,0-.05.07-.07l-.08-.02c.02-.11-.11-.53-.12-.64h.01c-.04-.16-.04-.49-.16-.66.08-.03.06-.06.09-.09-.03.02-.09.01-.09,0,0-.08-.06,0-.09-.09,0,0,0,0,0-.02h-3.1c.04.24.08.91.1,1.09.14.05.11.18.21.24h-.03c.07.07.26.61.4.68v-.02c.13.03.02.11.05.2.09-.1.21-.09.25-.07l-.02.02c.05.02.22.01.3.05l-.05.06c.1-.02.2.09.25.11.08.09.21.31.43.29.01.08.03.16.05.24h.02s.23-.62.42-1.31c.11-.43.24-.89.28-1.05h0s0,0,0,0c0-.01,0,0,0-.02v.02s0,0,0,0c0,0,0,0,0-.01h0s0-.01.01-.02v-.02c.05-.1.14-.21.23-.29h0s.05-.04.07-.06h0s.11-.08.1-.07Z"/>
        </g>
        <g>
          <path class="d" d="M4.42,44.43c-.08-.03-.1-.01-.12,0,.08.02.11.03.12,0Z"/>
          <polygon class="d" points="4.3 44.43 4.3 44.43 4.3 44.43 4.3 44.43"/>
          <path class="d" d="M7.35,47.42h0s0,0,0,0Z"/>
          <path class="d" d="M3.66,45.32l.13.04s-.15-.03-.13.02c.18.07-.04.07.05.12-.01,0-.03.02-.08,0,.1.03.02.03.04.05.03.01.03,0,.06,0l.03.04s-.1,0-.1-.03c-.06.07-.25.47-.21.57.08,0,.03-.04.16-.03.06.03-.03.03.04.05-.18-.02-.05.05-.24.04l.1.02h-.07c.09.13.05.03.01.13,0,.06.15.1.1.12,0,0,.07-.01.09,0-.09,0,.06.04-.03.04.01.01,0,.06.12.05-.06,0-.09.04-.14.01,0,.01-.02.02,0,.04h.04s-.08.05.03.09h.05s.01.04-.11.04l-.04-.03s0,.07.07.11h0c.12.04.22.28.38.31l.1-.02.08.03s-.31,0-.28-.01c0,.08.11.46.06.54-.05.04-.15.03-.17.03.04.03.1,0,.1.03-.02.01-.07,0-.09,0,.01.01-.02.03.03.02.03-.02.15-.03.23-.05v.04s-.08,0-.08,0c0,0,.21-.01.17.03-.02.07.02.13.01.19-.04,0-.07,0-.1,0,0,0,.01.02-.02.03.08-.03.06.02.09,0,.19,0,.04.1.17.11.17-.02,2.78-.64,2.96-.7,0,0,0,0-.02.02.04-.01.06-.03.04-.02l-.1.03s.06-.02.05-.03c.08-.02.1-.02.11-.01,0,0,.07-.03-.02,0,.03-.01.1-.03.14-.04-.03,0-.11.02-.06,0h.01c.08-.04-.13,0-.05-.03h.03s-.02-.01.03-.03c-.02,0-.08.02-.09.02.05-.02,0-.02.06-.04h-.08s-.13-.16-.14-.21h.01c-.05-.06-.04-.19-.14-.27.08,0,.07-.02.09-.03-.04,0-.09,0-.09-.01.01-.03-.06,0-.09-.05-.07-.05.05-.2.13-.21-.11-.05-.02-.05-.09-.09h.03s.1-.09.07-.13h-.02c-.06-.05.06,0,.1,0-.13-.05-.19-.1-.2-.11h.03s-.12-.08-.13-.1l.07.03c-.07-.05-.02-.06-.03-.07.04,0,.17.03.1-.05l.19.09h-.02s-.55-.35-1.17-.72c-.61-.37-1.29-.78-1.55-.87l-.06-.04v.02s.02.06-.04.02l.03-.03s-.06-.02-.09-.05c-.01,0-.03.01-.05,0,.02.02.03.01.05.02.02.03.07.08.03.08-.02.02-.11-.06-.13-.03-.14.13-.29.25-.34.42-.03,0-.03-.01-.04-.02,0,.06-.02.1,0,.16-.04,0-.08-.01-.11-.02.06.01-.03.28-.04.28Z"/>
        </g>
        <g>
          <path class="d" d="M55.91,98.21c-.07.05-.08.07-.09.09.07-.05.1-.08.09-.09Z"/>
          <polygon class="d" points="55.82 98.3 55.82 98.3 55.82 98.3 55.82 98.3"/>
          <path class="d" d="M58.51,96.42s0,0,.01,0c0,0-.01,0-.01,0Z"/>
          <path class="d" d="M55.81,98.91l.11-.09s-.12.12-.08.11c.16-.13,0,.05.09-.02-.01.01-.01.02-.06.07.08-.07.03,0,.05-.02.02-.02.02-.02.05-.05h.04s-.07.06-.08.07c-.01.06.05.32.12.32.05-.06,0-.04.09-.14.06-.04,0,.03.05-.02-.13.14-.01.06-.14.21l.08-.08-.04.05c.11-.04.04-.03.06.03.03.01.14-.09.11-.04,0,0,.04-.06.06-.07-.06.07.06-.04,0,.04.01,0,.02.02.1-.08-.04.05-.04.09-.09.12,0,0,0,.03.02,0l.02-.03s-.03.09.06.01l.03-.05s.03,0-.05.11l-.03.02s.03.02.09-.02h0c.09-.09.25-.09.35-.2l.05-.09.06-.06s-.15.2-.17.23c.03.02.23.08.23.16-.01.05-.07.13-.08.15.03-.02.06-.08.07-.07,0,.02-.04.07-.05.08.01,0,0,.03.02-.01,0-.03.07-.14.11-.21v.02s-.03.07-.03.07c0,0,.11-.17.11-.13.01.05.05.04.07.07-.02.04-.04.06-.06.08,0,0,.01,0,0,.03.03-.07.04-.04.05-.07.09-.16.09.03.18-.07.04-.08.34-.72.6-1.39.27-.66.5-1.35.53-1.44-.01,0-.02,0-.03.01.02-.04.05-.06.05-.03l-.04.1s.03-.06.05-.04c.03-.08.02-.11,0-.12.02,0,.06-.05.04.04.03-.03.04-.1.07-.12,0,.03,0,.12.03.08h0c.09-.07-.01.13.02.05v-.03s.01,0,.03-.03c0,.02-.04.07-.04.08.03-.05,0,0,.03-.06l-.04.07s-.06.08-.07.08h0s-.03,0-.11.08c.05-.06.04-.05.05-.07-.02.02-.06.06-.06.06,0-.01-.04.04-.06.06-.05.04,0-.04.04-.09-.08.07-.02.01-.07.05l.02-.02s.04-.06.01-.04h-.01s.04-.02.06-.05c-.09.07-.14.1-.15.11h.02s-.09.04-.1.05l.05-.04c-.05.03-.03.01-.03.01.02-.02.11-.09.04-.05l.14-.09h-.01s-.41.27-.86.56c-.31.2-.64.41-.92.59-.3.2-.55.36-.67.46l-.07.04h.01s.05-.01-.02.03v-.02s-.05.04-.09.06c0,0-.01.02-.03.04.03-.02.03-.02.04-.03.03-.01.09-.04.06-.02,0,.02-.11.08-.11.09-.03.11-.08.24-.02.3-.03.02-.03.02-.04.03.04,0,.04.03.08.03-.03.03-.06.06-.09.08.05-.05.12.07.11.08Z"/>
        </g>
      </g>
      <g>
        <path class="d" d="M100.06,50.1c.44-.07,1.14-.39,1.74-.76-.5.22-1.02.47-1.74.76Z"/>
        <polygon class="d" points="101.81 49.33 101.82 49.33 101.8 49.34 101.81 49.33"/>
        <path class="d" d="M117.21,45.82c.06-.15.12-.32.19-.49l-.19.49Z"/>
        <path class="d" d="M113.35,22.49l-.1-.13c.44-1.27.27-.32.67-1.5,0-.53.8-1.9.89-2.33,0,.02.27-.53.31-.47-.02-.21.24-.58.4-.93.04-.14-.07.08-.15.16l.37-.8c.19-.29.29-.33.12,0,.54-1.01,2.22-3.89,4.39-6.4,1.08-1.26,2.25-2.44,3.28-3.31,1.04-.87,1.94-1.45,2.42-1.74-.29.07-.86.5-1.15.56.46-.42.77-.47.95-.68.29.04,1.18-.6,1.66-.57l.11-.16.29-.03c1.15-.43,1.29-.39,1.39-.43.1.01.18-.05,1.2-.05,1.12.03,1.65.12,2.24.45-.09-.04-.3-.22,0-.11,0,.09.77.34.84.51.27.15,1.02.84.85.52.1.15.7.84.29.48.22.21.37.47.54.62l-.22-.33c.66.81.85,1.35,1.2,1.93l-.11-.37c.27.56.42,1.07.35,1.33-.04-.2-.14-.39-.21-.59.17.48.25.87.31,1.24l.04.28c.01.08.04.22.04.2.01.04.03.08.04.12v-.06s.11.23-.06.3l-.11.04s.03,0-.02,0l-.2.04c-.13.03-.27.06-.41.09-.56.1-1.11.3-1.66.5-2.2.8-4.1,2.09-4.57,2.57l.56-.28-.89.74c.11-.08.27-.58.38-.62-.25.19-.65.45-1.11.82-.44.4-1.01.84-1.56,1.4-1.14,1.09-2.35,2.54-3.44,4.05-2.16,3.04-3.64,6.4-4.11,7.39-.38.8-.2.09-.21.07-.37,1.02-.08.47-.43,1.32-.11.23-.05-.08-.01-.21-.14.38-.31.72-.27.76.2-.46.25-.22.4-.39-.16.36-.27.74-.41,1.1l-.05-.07c-.08.25-.05.69-.42,1.78-.64,1.86-1.08,3.9-1.55,5.74-.04-.04.03-.43.1-.83-.06.25-.14.63-.23.85.19-.43-.14.79-.02.45-.15,1.4-.75,3.08-.99,4.26.07.07.56.89,1.03,1.74.47.85.9,1.73.99,1.77-.15.38-.31.75-.37.86.08-.08.41-.82.53-1.22l-.07-.11c.3-.93.14-.19.44-1.09.1-.02-.16.81-.43,1.54.26-.65.54-1.28.54-1.58.23-.6.08.1.35-.63.14-.54.26-1.25.47-1.84h.01c.48-1.43.45-2.26.86-3.55v.15c.16-.45.31-1.38.57-2.19-.08.23-.19.42-.07-.08.29-.93.4-1.58.67-2.23l.11-.66c.48-1.57,1.76-5.49,3.85-8.97,1.03-1.74,2.18-3.4,3.32-4.65,1.12-1.26,2.17-2.16,2.79-2.64l-.09.08c.95-.71,2.19-1.59,3.7-2.19.76-.27,1.56-.56,2.41-.69.03,0,.39-.09.61-.12.23-.03.46-.08.67-.15.42-.13.8-.33,1.12-.64.32-.3.55-.69.67-1.1.15-.41.1-.89.13-1.35l.02-.68-.05-.46c-.03-.3-.07-.61-.14-.9-.11-.6-.3-1.18-.51-1.73-.43-1.11-1.06-2.11-1.78-2.95-1.43-1.69-3.26-2.76-4.88-3.19-.48-.19-1.11-.33-1.74-.38-.61-.05-1.23-.03-1.75,0,.59,0,.39.05-.06.1-1.57.21-1.59.32-1.65.34-.04.06-.13.02-1.56.59-.81.35-2.13,1.03-3.52,2.06-1.39,1.02-2.85,2.38-4.14,3.82-2.64,2.86-4.63,6.16-5.33,7.41-.64,1.41-1.54,3.11-2.03,4.55l.03-.15c-.3.75-1.28,3.28-1.96,5.91-.69,2.63-1.2,5.25-1.38,6.14l.07-.24c-.25,1.56-.33,1.32-.64,2.51.17-.13-.05,1.19-.17,1.68l-.02-.03c-.16.75-.49,2.44-.89,3.61l-.06-.07c-.24,1-1.05,2.75-1.4,3.38-.79,1.47-2.33,3.51-3.95,4.74-.4.19-.8.35-1.2.46l-.15.1s-.04.19-.1.48c-.05.29-.11.68-.1,1.06,0,.37.1.74.41.97.31.22.89.32,1.78,0l-.02.09c.22-.11.42-.25.62-.38.75-.44.99-.77,1-.67-.32.23-.62.48-.97.67.74-.46.26-.09,0,.13.33-.18.61-.39.86-.54.12-.13-.12.05-.24.12.37-.29.82-.76,1.25-1.11.61-.61.14.06.84-.67,3.58-3.94,5.05-8.79,6.08-13.47.05-.1.02.03,0,.17.29-1.43.55-2.68.78-3.95.11-.35.17-.43.22-.53-.05.1.29-1.65.71-3.38.21-.87.45-1.72.65-2.36.19-.65.36-1.08.36-1.11Z"/>
      </g>
    </g>
  </g>
</svg>