<?xml version="1.0" encoding="UTF-8"?>
<svg id="b" data-name="Camada_2" xmlns="http://www.w3.org/2000/svg" xmlns:xlink="http://www.w3.org/1999/xlink" viewBox="0 0 149.45 150.34">
  <defs>
    <style>
      .e {
        fill: #fff;
      }

      .f {
        fill: none;
      }

      .g {
        clip-path: url(#d);
      }

      .h {
        fill: #fff;
      }
    </style>
    <clipPath id="d">
      <polygon class="f" points="121.89 74.23 106.76 71.72 91.6 76.23 83.15 82.61 77.95 89.18 74.07 97.33 72.05 104.09 72.28 113.99 73.84 121.55 78.16 130.56 81.92 135.8 28.27 140.65 11.76 134.1 5.76 116.74 0 78.72 6.12 23.59 13.69 0 67.35 2.52 103.73 5.94 117.42 13.33 121.89 74.23"/>
    </clipPath>
  </defs>
  <g id="c" data-name="Camada_1">
    <g>
      <g>
        <g>
          <path class="h" d="M149.45,107.01c-.19-1.3-.78-3.52-1.75-5.52.68,1.56,1.27,3.25,1.75,5.52Z"/>
          <path class="h" d="M147.67,101.45s-.01-.02-.02-.03c.01.03.02.05.03.07,0-.02-.01-.03-.02-.04Z"/>
          <path class="h" d="M146.97,110.38c.05.49.09,1.05.12,1.61-.03-.54-.06-1.09-.12-1.61Z"/>
          <path class="h" d="M86.07,127.6l-.26-.18c-1.3-1.92-1.39-2.26-1.52-2.52-.11-.27-.26-.48-1.19-2.4-.42-.72-1.13-2.37-1.59-4.04-.48-1.68-.77-3.39-.91-4.11,0-.05-.06-.5-.12-.99-.05-.5-.08-.99-.05-.93-.15-.63-.18-2.15-.18-3.47-.01-.48-.04.35-.05.71-.02-1.01,0-2.02.08-3.03.14-1.18.23-1.46.1-.18.19-1.95.69-5.86,2.71-10.19,1.01-2.17,2.38-4.45,4.11-6.59,1.73-2.14,3.82-4.15,6.16-5.83,2.33-1.7,4.9-3.06,7.49-4.03,2.6-.97,5.18-1.54,7.62-1.77,4.86-.56,8.81.19,10.86.69-1.04-.35-3.64-.73-4.63-.89,2.25.15,3.28.5,4.26.63.4.18,1.6.48,2.87.9,1.27.43,2.6,1,3.33,1.43.21.06.41.13.62.2l.97.55c1.01.54,1.78,1.02,2.35,1.37l.76.47.75-.32c.16-.07.17-.08.23-.12l.13-.08c.08-.06.14-.11.19-.16.11-.11.2-.22.27-.32.15-.21.23-.42.27-.6.09-.36.09-.63.07-.83-.04-.41-.14-.67-.22-.88-.17-.42-.34-.71-.49-.95-.31-.47-.54-.74-.71-.95-.35-.4-.46-.51-.62-.68-.17-.17-.37-.4-.98-.95-.62-.52-1.6-1.37-3.48-2.47-2.48-1.4-4.45-2.06-6.12-2.57-1.69-.49-3.1-.78-4.64-1.04.46.07,1.66.34.23.11-.12-.05-1.07-.19-2.09-.27-1.02-.09-2.09-.1-2.44-.15-.7,0-2.14-.1-3.29.05-1.14.09-1.9.21-1.11.17-.39.02-1.63.12-2.44.21-.77.13-1.17.19-.02-.05-.65.12-1.3.25-1.89.36-.6.12-1.23.25-1.71.38.57-.14,1.22-.25,1.77-.35-.58.12-1.13.24-1.65.35-.49.15-.96.29-1.41.43-.89.28-1.7.52-2.46.78-1.44.61-2.68,1.09-4.04,1.86.53-.26,1.05-.49,1.58-.71-1.26.54-2.44,1.24-3.3,1.73-.92.52-1.64.97-2.12,1.22.78-.53,1.59-1.04,2.38-1.51-1.96,1.13-3.49,2.19-4.86,3.27-1.37,1.08-2.6,2.19-3.91,3.59.32-.32.64-.65.97-.96-.86.86-2.61,2.68-4.43,5.22-1.82,2.55-3.69,5.85-4.98,9.38-1.33,3.5-2.07,7.22-2.31,10.27-.26,3.07-.1,5.48.01,6.58-.02-.68-.02-1.36,0-2.04.04,1.27.16,2.53.31,3.8-.06-.45-.43-1.81-.42-2.19.05.91.16,2.29.42,3.95.12.83.24,1.75.51,2.71.12.48.24.98.36,1.5.12.54.28,1.1.46,1.65.18.55.38,1.1.58,1.64.1.27.2.54.3.82l.15.41c.03.1.15.4.2.5.49,1.12,1.03,2.28,1.64,3.46.61,1.17,1.29,2.35,2.06,3.51.39.58.8,1.15,1.23,1.72.45.56.8,1.04,1.27,1.67,2.33,2.62,4.74,5.07,7.53,7.02,2.77,2.06,5.68,3.48,8.39,4.69,5.57,2.24,10.34,2.7,12.4,2.86,3.05.19.54.16.51.17,1.86.08,2.27.02,2.6.01.35-.02.61-.03,2.18-.1.86-.04-.17.08-.66.11,1.39-.07,2.67-.19,2.77-.24-1.73.15-1.01-.03-1.74-.03,1.35-.09,2.7-.25,4.03-.48l-.17.09c.89-.19,2.26-.47,6.06-1.67,6.38-2.11,12.71-6.27,17.02-11.51-.04.11-.93,1.19-1.91,2.23.64-.66,1.54-1.68,2.1-2.3-.55.6-.1.06.38-.53.47-.58.96-1.22.56-.72.74-.99,1.5-2.09,2.22-3.26.36-.59.71-1.19,1.03-1.81.17-.3.32-.66.45-.87.18-.32.34-.64.5-.96.31-.65.56-1.29.81-1.9.12-.3.24-.6.36-.9.12-.28.26-.65.36-.95.42-1.27.68-2.4.96-3.45-.01-.23-.05-2.66-.48-4.91-.2-1.13-.48-2.21-.72-3.01-.24-.79-.45-1.31-.48-1.3-.06-1.26-.21-2.54-.24-2.93.01.34.25,2.84.26,4.16l.09.23c.01,1.52-.04,1.69-.05,1.86-.03.17-.03.33-.18,1.79-.08.15.21-2.54.06-4.95.11,2.16-.12,4.29-.16,5.16-.32,1.99-.02-.23-.46,2.16-.08.42-.16.85-.27,1.29-.13.5-.27,1.03-.41,1.56-.14.51-.28,1.01-.44,1.49-.09.26-.14.42-.25.67-.11.25-.21.5-.32.75v-.04c-.48,1.19-.87,2.13-1.32,2.92-.24.47-.47.92-.7,1.36-.22.4-.44.79-.67,1.18-.93,1.53-1.96,2.97-3.46,4.64l.3-.38c-1.06,1.21-3.11,3.5-5.42,5.15.65-.48,1.23-.87-.11.18-2.64,1.9-4.62,3.02-6.79,3.98-.68.34-1.38.65-2.08.96-1.83.7-4.66,1.62-8.2,2.11-3.53.5-7.77.53-12.11-.29-2.17-.4-4.36-1.01-6.48-1.81-.52-.19-1.02-.39-1.54-.64l-1.56-.75c-1.03-.51-2.03-1.04-2.99-1.62-.95-.58-1.87-1.18-2.72-1.84l-.41-.31-.31-.22c-.21-.15-.41-.31-.61-.47-.4-.33-.8-.67-1.2-1.03-.41-.37-.81-.74-1.2-1.1-.41-.34-.72-.7-1.07-1.08-.67-.73-1.33-1.45-1.96-2.13-.2-.27-.4-.53-.6-.79-.21-.27-.41-.53-.62-.8-.38-.5-.75-1.01-1.08-1.51-.67-1.01-1.26-2.01-1.78-2.99-.52-.98-.98-1.93-1.4-2.85-.1-.23-.2-.46-.3-.68l-.12-.26-.12-.33c-.17-.46-.33-.9-.49-1.33-.31-.84-.57-1.6-.75-2.29-.18-.74-.35-1.43-.5-2.06-.08-.32-.15-.63-.23-.93-.04-.3-.09-.59-.13-.87-.08-.55-.15-1.05-.22-1.49l.08.45c-.62-4.3-.67-9.98,1.06-15.83,1.7-5.86,5.15-11.86,10.03-16.46,2.43-2.3,5.22-4.22,8.13-5.8.7-.37,1.44-.71,2.2-1.04l1.16-.49c.41-.18.71-.31,1.12-.43,1.53-.47,3.03-1.03,4.51-1.26.77-.14,1.57-.35,2.3-.42.73-.07,1.45-.17,2.17-.22,1.41-.17,2.9-.09,4.26-.06,2.73.11,5.22.57,7.36,1.23,1.31.44,2.87,1.04,4.33,1.79,1.48.75,2.86,1.65,3.93,2.55-1.22-.99-.76-.71.19.06,1.56,1.34,2.06,2.25,2.13,2.5.01.02,0,.05.03.03.22-.03.35-.05.49-.05.26,0,.35.03.43.06.07.03.08.05.11.07.01.01.02.02.04.05l.03.04.02.03h0s0,0,0,0h0s-.55-1.08-.55-1.08l.03-.02.06-.03,1.24.12c-.09-.05-.14-.07-.7-.41-.56-.34-1.64-1.02-3.92-2.07-2.52-1.15-7.1-2.8-12.85-3.03-2.88-.11-5.96.14-9.12.83-3.16.69-6.3,1.93-9.2,3.56-5.83,3.26-10.48,8.27-13.2,13.13-2.82,4.85-3.71,9.43-4.08,11.86-.33,2.64-.43,5.65-.13,8.61.29,2.96.97,5.87,1.92,8.32l-.2-.49c.47,1.31,1.57,4.18,3.69,7.41,2.1,3.24,5.3,6.77,9.17,9.48,3.86,2.72,8.33,4.59,12.24,5.41,3.9.83,7.13.81,8.75.75h-.87c2.83-.1,4.05-.28,5.11-.42,1.06-.15,1.99-.26,4.16-.84-.3.02.73-.29,2.01-.78,1.28-.49,2.82-1.18,3.64-1.62l-.05.05c1.25-.62,3.23-1.77,5.21-3.3,2-1.51,3.96-3.42,5.44-5.17l-.07.18c1.24-1.46,2.9-3.68,4.16-5.99,1.28-2.3,2.18-4.62,2.61-5.94.9-2.66,1.62-6.16,1.7-9.89.18-3.77-.44-7.83-1.66-11.49l-.18,1.07-.05.06c.69.63-.95-.84-.78-.69h0s0,0,0,0h0s.04.05.04.05l.03.03s.02.03.03.04c.01.02.02.05.03.07.02.06.02.13,0,.24-.01.09-.04.22-.09.36-.02.06-.07.17-.07.17h.01s.17.11.28.22c.23.2.48.5.69.8.84,1.31,1.44,2.9,1.86,4.49l.22.7s.24.4.59.99c.33.54.73,1.19,1.09,1.53.35.33.67.34.81-.42.12-.76.15-2.34-.73-5.07l.12.15c-.27-.71-.56-1.4-.92-2.09-.61-1.23-1.25-2.11-1.77-2.64-.53-.54-.93-.75-.79-.7.73.52,1.15,1.07,1.55,1.61.39.55.7,1.11.99,1.67-.64-1.23-.82-1.42-.63-1.19.17.23.56.88.81,1.35-.52-1.04-1.11-2.04-1.85-2.84-.48-.46.34.36.58.75-.26-.33-.54-.67-.97-1.04-.22-.18-.45-.36-.83-.55-.19-.09-.43-.19-.79-.22-.18-.02-.4-.01-.65.06-.12.03-.26.09-.39.16-.07.04-.13.08-.21.14-.08.07-.11.08-.28.28l-.46.56.24.71c.27.78.51,1.61.69,2.39.29,1.23.25,1.28.25,1.37-.01.1.02.24.24,1.69.27,1.92.35,3.8.23,5.76-.07,1.94-.31,3.83-.73,5.69-.83,3.71-2.4,7.25-4.49,10.42-4.21,6.33-10.71,11.23-18.24,13.18-.35.05.06-.03.49-.17-4.51,1.26-8.78,1.46-13.02.94-1.18-.19-1.48-.3-1.82-.39.17.03-1.2-.15-3.28-.79-2.08-.64-4.84-1.81-7.38-3.43-2.55-1.61-4.85-3.65-6.41-5.36-1.56-1.72-2.46-3.04-2.51-3.12Z"/>
        </g>
        <g>
          <path class="h" d="M108.06,101.38c-.49-.56-1.36-1.48-2.26-2.3.66.66,1.32,1.4,2.26,2.3Z"/>
          <path class="h" d="M105.78,99.06s-.01,0-.01-.01c.01.01.02.02.03.03l-.02-.02Z"/>
          <path class="h" d="M109.48,103.33c.19-.22.42-.47.64-.72-.22.24-.43.49-.64.72Z"/>
          <path class="h" d="M89.23,126.85l.06.22c-.29,1.5-.34,1.74-.39,2.03-.02.21-.14.3-.05,1.88.04.2.08.41.13.63.06.24.12.48.21.77.19.58.44,1.24.97,1.91.26.33.59.64.99.88.2.12.42.22.63.3.19.07.37.12.58.15.8.13,1.37,0,1.67-.09-.02.01.44-.09.81-.24.38-.14.73-.32.69-.27.43-.32,1.39-.88,2.05-1.67.21-.28-.18.17-.4.34.52-.52,1.01-1.13,1.38-1.84.23-.4.33-.6.36-.62.03-.02,0,.1-.22.54.11-.21.22-.45.32-.66l.08-.16c.06-.13.1-.24.13-.31.06-.16.12-.34.18-.54.11-.4.21-.86.21-1.45,0-.3-.04-.61-.14-.98-.05-.18-.13-.38-.24-.58-.06-.1-.12-.21-.2-.32l-.07-.08h0s-.09.07-.04,0l.04-.06c.11-.16.22-.32.34-.48.19-.26.39-.53.59-.8,1.71-2.12,3.64-4.37,5.54-6.64.85-1.05,1.69-2.07,2.48-3.04,0,0,0-.01.01,0l.08.09c1.53,1.76,2.76,3.19,3.47,4.01-.39-.55-1.46-1.73-1.78-2.26.94,1,1.3,1.54,1.74,1.96.23.5,1.94,2.3,2.5,3.19l.32.24.4.55c4,4.51.93,1.01,4.4,5.07,1.16,1.3,2.02,2.28,2.76,3.11.31.35.6.68.88,1,.14.16.28.32.42.47.12.1.22.11.34.16.43.19.85.38,1.29.57-.26-.11-.95-.48-.15-.14.02.02.07.05.14.08.07.04.18-.1.3-.16.11-.08.24-.18.38-.28.13-.11.25-.26.37-.39.13-.13.21-.33.32-.48.1-.16.2-.31.25-.49.12-.34.23-.62.3-.74.08-.29.09-.85.15-1.42.03-.28.03-.6,0-.92-.04-.28-.08-.55-.12-.81-.12-.72-.31-1.13-.22-.67-.04-.23-.19-.97-.34-1.44-.15-.46-.22-.7.05-.02-.29-.77-.53-1.55-.82-2.04.14.31.27.63.38.97-1.07-2.53-1.77-3.8-2.73-5.25.17.28.33.56.47.86-.82-1.36-1.56-2.45-1.81-3.04l.9,1.35c-.69-1.12-1.3-1.98-1.89-2.78-.58-.81-1.13-1.57-1.82-2.4l.47.61c-.44-.55-1.33-1.65-2.44-3.02-.58-.67-1.21-1.42-1.87-2.19-.17-.19-.33-.39-.5-.59l-.25-.3-.06-.06c-.06-.08-.24-.17-.1-.26l.11-.14.42-.49c.34-.39.67-.78,1-1.16.66-.75,1.28-1.47,1.85-2.12,1.12-1.29,2-2.3,2.43-2.79l-.84.79,1.41-1.62c-.17.19-.52.94-.68,1.07,1.55-1.7,6.43-6.92,11.39-12.01,2.79-2.85,5.57-5.69,7.86-8.04.2-.21.44-.43.59-.61.06-.14.13-.29.19-.43.12-.28.25-.55.36-.82.11-.26.23-.51.33-.76-.19-.31-.43-.52-.68-.67-.98-.54-1.98-.5-2.74-.39-2.49.5-.4-.05-.34-.08-.79.16-1.32.39-1.66.51-.34.13-.5.2-.65.27-.26.13-.42.21-1.46.72-.46.23.06-.11.32-.24-.73.38-1.4.73-1.43.79.9-.47.57-.18.98-.32-.7.37-1.39.77-2.05,1.18l.06-.11c-.44.28-1.05.83-2.93,2.14-3.15,2.23-6.3,4.96-9.15,7.54.02-.07.6-.63,1.19-1.19-.39.34-.96.88-1.33,1.18.73-.58-1.16,1.13-.6.66-1.96,2.02-4.64,4.5-6.28,6.37-.08.25-1.9,5.47-1.75,5.57-.51.56-1.01,1.13-1.18,1.29.16-.12,1.16-1.23,1.69-1.83l.03-.16c1.21-1.37.32-.28,1.53-1.6.12-.02-.99,1.19-1.95,2.27.88-.96,1.8-1.87,2.1-2.31.86-.87-.03.16,1-.89.7-.78,1.61-1.81,2.49-2.64v.02c2.11-2.01,3.1-3.22,5.12-4.97l-.2.21c.72-.61,2.06-1.89,3.38-2.96-.38.31-.73.54.04-.13,1.51-1.23,2.52-2.09,3.68-2.91l1.04-.88c.68-.5,1.61-1.18,2.76-1.92.57-.37,1.2-.77,1.87-1.15.34-.19.69-.38,1.05-.57.17-.08.35-.17.52-.26.06-.03.12-.05.19-.06.07-.02.19.02.09.08-.68.7-1.38,1.43-2.09,2.16-5.97,6.1-11.86,12.31-14.2,14.87l.18-.21c-1.8,1.94-4.05,4.41-6.5,7.18-.43.49-.86.98-1.3,1.48l-.88,1-.11.13s.05.08.07.13l.22.25.44.51.89,1.03.53.63c.31.37.62.74.93,1.12,1.28,1.48,2.48,3.07,3.7,4.64,2.34,3.19,4.6,6.53,5.9,9.78.15.4.32.8.44,1.2.11.39.21.78.31,1.16.07.5.07.42.08.52,0,.07,0,.14,0,.22,0,.07-.03.14-.06.21-.02.03-.04.06-.06.09-.03.03-.04-.03-.07-.04-.09-.1-.18-.19-.26-.28l-.03-.06-.02-.03h0s-.05-.08-.05-.08c-.15-.18-.3-.36-.45-.54-.31-.37-.64-.75-.96-1.14-.66-.77-1.32-1.55-1.89-2.22.62.76.36.54-.14-.04-3.49-4.06-.27-.24-3.83-4.33-.91-1.05-2.38-2.74-4.17-4.8-1.15-1.33-2.4-2.79-3.71-4.3-.11-.11-.22-.3-.33-.35l-.32.4-.65.8c-.42.52-.85,1.04-1.28,1.57-.51.62-1.03,1.26-1.55,1.89-1.01,1.28-2.07,2.53-3.13,3.76-1.06,1.27-2.1,2.52-3.09,3.7-.24.31-.47.62-.7.93l-.33.47-.39.57c-.7,1.04-1.28,2.12-1.65,3.05-.2.47-.39.93-.57,1.37-.09.22-.17.44-.26.65l.08-.06c.1-.08.19-.15.28-.22h0s-.24.64-.24.64l-.03.09s-.01.02,0,0l.09-.07.17-.14.35-.28,1.38-1.14.34-.28.17-.14.09-.07.04-.04c.15-.11-.27.19.35-.25h-.02s-.04.04-.04.04c-.1.07-.21.12-.27.15l.02.07c.01.08.02.19,0,.32-.03.25-.11.52-.2.74-.04.11,0,.02-.06.17l-.12.27c-.07.17-.14.32-.21.45-.14.27-.3.51-.51.76-.42.51-.96.95-1.52,1.23-.58.29-1.1.37-1.36.25-.2-.04-.53-.42-.72-.92l.1.18c-.06-.12-.13-.29-.19-.52-.03-.11-.06-.24-.09-.38-.03-.12-.04-.25-.05-.41-.03-.31-.03-.7,0-1.13.02-.21.03-.48.05-.59.04-.25.09-.51.13-.78l.07-.37.09-.32c.07-.26.14-.52.22-.79.2-.51.41-1.05.62-1.59.42-1.1,1.04-2.19,1.7-3.27,1.35-2.16,2.95-4.21,4.33-5.97,1.34-1.77,2.42-3.19,2.97-3.92l-.31.38c.93-1.27,1.35-1.8,1.75-2.25.29-.34.56-.66.91-1.06.21-.25.45-.53.72-.86.07-.08.14-.17.21-.26.04-.09-.12-.18-.17-.27-.16-.19-.33-.39-.51-.6.07.12-.09-.02-.37-.31-.25-.27-.58-.61-.94-1-.53-.56-1.15-1.26-1.49-1.65h.04c-1.04-1.15-3.41-3.81-5.12-5.72l.11.04c-.36-.41-.8-.89-1.27-1.42-.41-.47-.85-.98-1.28-1.47-.17-.19-.33-.38-.47-.55l-.1-.12s-.09-.08-.03-.11c.07-.06.14-.09.21-.12.3-.1.67-.05,1.01.06.02.01.34.1.56.19.23.1.47.21.71.31.48.2.96.51,1.46.77,1.96,1.15,3.89,2.75,5.65,4.25.7.72,1.41,1.42,2.07,2.18l.33.3s1.24.47,1.98.37c.74-.1.98-.78-1.13-3.17l.11.03c-.29-.3-.62-.57-.93-.85-1.1-1.04-1.67-1.45-1.56-1.43l1.54,1.39c-1.12-1.03-.31-.35.15.02-.46-.43-.9-.85-1.28-1.21-.24-.18.15.17.31.34-.6-.55-1.56-1.21-2.31-1.87-1.25-.97-.01-.15-1.5-1.25-1-.72-2.04-1.39-3.17-1.97-.56-.3-1.17-.54-1.78-.78l-.56-.18c-.27-.09-.53-.16-.79-.2l-1.54-.16c-.93.09-1.82.25-2.43.71-.31.23-.57.49-.85.8,0,.31.14.62.2.93l.12.46.06.23.03.12.13.16,1.08,1.27,1.51,1.76c2.77,3.23,5.54,6.46,8.37,9.76-.03,0-.03,0-.05,0,.02,0,.02.02,0,.03v.02s-.02.01-.02.01l-.13.16c-.43.53-.84,1.06-1.24,1.59-.8,1.06-1.57,2.09-2.36,3.14-.46.56-.6.69-.75.84.19-.13-2.11,2.61-4.22,5.81-1.04,1.6-2.02,3.34-2.53,4.79-.6,1.42-.84,2.44-.86,2.49Z"/>
        </g>
      </g>
      <g class="g">
        <g>
          <g>
            <path class="h" d="M100.59,130.88c-.34-.09-.72-.18-1.14-.29-.43-.07-.91-.15-1.4-.23-.5-.07-1.03-.15-1.56-.23-.53-.05-1.08-.09-1.61-.14.82.11,1.67.18,2.61.35.93.15,1.95.26,3.11.54Z"/>
            <path class="h" d="M94.83,129.99s-.02,0-.03,0c.03,0,.05,0,.08,0-.02,0-.03,0-.04,0Z"/>
            <path class="h" d="M103.61,134.55c.63-.11,1.33-.31,2.01-.58-.65.26-1.35.45-2.01.58Z"/>
            <path class="h" d="M13.8,107l-.13-.32c.04-4.95.17-1.44.17-6.02-.18-1.79.08-7.6,0-9.19,0,0,0-.12.01-.33,0-.2.01-.47.02-.74.02-.54.04-1.06.07-.99-.1-.69,0-2.31-.01-3.72-.02-.51-.04.38-.07.76v-3.24c.05-1.27.11-1.58.11-.2.07-4.23.24-16.5.62-28.83.35-12.34,1-24.73,1.25-29.27-.14,1.16-.26,3.97-.43,5.03.05-2.41.22-3.53.21-4.6.23-.91.37-5.27.68-7.08l-.03-.33s-.03-.01-.04-.02c.04-.13.1-.13.15-.18.06-.09.3-.24.62-.34.31-.1.67-.17,1-.21.66-.08,1.21-.1,1.62-.11.86,0,1.12-.01,1.34-.01.46,0,.76,0,5.46.04,5.44-.02,8.03-.16,11.05-.11-.45,0-1.65-.07-.24-.09.24.09,3.75-.07,4.44.03,1.38-.01,5.85,0,4.34-.13.76.06,4.75.09,2.37.14,1.35,0,2.65.02,3.62,0l-1.73-.03c4.55-.02,7.02.08,9.98-.03l-1.68-.05c2.72,0,4.99-.02,6.06.11l-2.79.04c4.51,0,7.23-.01,10.98-.08h-1.34c2.39-.07,9.85-.12,17.26-.18,3.7-.03,7.4-.07,10.44-.09.76,0,1.48-.02,2.15-.03.36-.01.62,0,.87.01.26,0,.5.04.73.07.92.15,1.61.4,2.03.6-.49-.3-1.03-.5-1.58-.67,1.05.22,2.06.67,2.94,1.32-.3-.28-1.47-.58-1.74-.72.76.33,1.93.99,2.9,2.3.48.65.91,1.44,1.17,2.37.28.94.28,1.89.27,3.28,0,5.22.01,11.5.02,17.76,0,12.52-.02,24.96-.02,28.72-.05,3.03-.15.54-.17.51.04,3.69.1,1.59.09,4.72-.02.86-.08-.18-.09-.66.01,1.37-.02,2.65.02,2.75.03-1.72.15-.99.23-1.72v4.03s-.09-.18-.09-.18c0,.9.21,2.28.17,6.24,0,6.68-.02,13.93-.02,20.65-.05-.1-.07-1.51-.1-2.93,0,.9,0,2.27-.02,3.1.08-1.62.05,2.82.09,1.55.09,2.46.1,5.28.09,8.03,0,1.37,0,2.73,0,4.02-.02,1.28.07,2.55-.02,3.41.03.09.17.65.17,1.51.01.86-.17,2.04-.65,3.17-.47,1.14-1.24,2.21-1.95,2.93-.7.73-1.29,1.14-1.27,1.19-1.54.6-3.19.68-3.68.65.21.02,1.12.03,2.17-.19,1.05-.21,2.21-.68,2.94-1.12l.2-.24c.83-.51,1.24-.88,1.49-1.09.24-.2.33-.27.42-.35.09-.07.17-.13.39-.36.22-.23.6-.61,1.12-1.41.09-.07-.31.68-1.17,1.59-.85.92-2.21,1.93-3.68,2.5,1.32-.51,2.51-1.3,3.38-2.13.88-.82,1.44-1.66,1.7-2.16.68-1.13.62-1.09.65-1.06.01,0,.03,0,.13-.19.1-.19.28-.57.52-1.35.15-.56.27-1.17.33-1.81.03-.32.04-.65.04-.98,0-.28,0-.57-.01-.85-.02-1.11-.03-2.26,0-3.33l.02.04c.09-5.2-.13-7.95-.04-12.7l.03.51c.05-1.68-.02-4.98.04-8.01-.02.86-.08,1.61-.09-.21.05-3.48,0-5.86.07-8.4l-.08-2.44c0-6.06-.03-21.06-.05-36.07-.02-7.5-.03-15.01-.04-21.4,0-1.6,0-3.13,0-4.57,0-.72,0-1.42,0-2.09,0-.34,0-.67,0-1-.02-.39-.03-.78-.07-1.15-.35-3.04-1.92-5.22-3.25-6.44.15.12.29.25.42.39-.97-1.01-2.2-1.91-3.67-2.48-.73-.28-1.51-.52-2.33-.63-.41-.08-.82-.09-1.24-.11-.46-.03-.73,0-1.11-.01-2.85,0-5.94,0-9.18.01-6.48,0-13.58.02-20.7.02-14.24.04-28.55.08-38.14.1-2.97-.08-7.06-.06-10.15-.09,1.72.03,1.13.09-.21.09-2.34,0-3.6,0-4.35.06-.73.06-.83.1-.92.12-.11.04-.19.02-.99.23-.4.13-1,.25-1.88.85-.43.29-.92.8-1.27,1.48-.08.17-.17.35-.23.54-.05.18-.1.38-.15.62-.03.11-.02.24-.03.34v.21c-.02.14-.03.28-.04.43-.35,5.49-1.11,18.75-1.52,31.85-.43,13.11-.63,26.06-.73,30.93.06,5.24-.1,11.78-.06,16.91l-.02-.52c-.01,1.38-.03,4.36-.06,8.16-.02,1.9-.04,4-.06,6.21,0,.55-.01,1.11-.02,1.67-.01.24.02.41.04.55l.05.45.1.9c.07.6.14,1.2.21,1.81l.42,1.8c.51,2.42,1.62,4.73,2.89,6.8,1.44,1.96,3.06,3.72,4.83,4.88.43.3.84.62,1.27.88.44.24.86.46,1.27.68.41.21.8.44,1.19.62.4.16.78.31,1.14.46,1.44.63,2.65.92,3.45,1.16l-.86-.27c.7.19,1.31.38,1.83.51.53.11.98.21,1.38.29.79.16,1.37.33,1.9.4.54.09,1.04.18,1.68.29.65.12,1.44.23,2.56.32-.29-.1.79-.03,2.17,0,1.38.01,3.06.09,3.98.06l-.07.03c2.8.07,9.09-.3,13.63-.71l-.17.09c3.81-.37,10.89-1.06,13.6-1.33,6.19-.56,15.75-1.48,23.91-1.24,1.75.16,3.49.35,5.18.69l.75.08s.48-.08,1.19-.19c.65-.12,1.44-.3,1.91-.57.47-.24.63-.61-.02-1.08-.66-.46-2.15-1.12-4.96-1.6l.19-.05c-.75-.1-1.49-.12-2.23-.19-2.67-.23-3.9-.1-3.72-.2,1.22.05,2.43.05,3.66.18-2.69-.21-.81-.13.22-.09-1.13-.12-2.21-.15-3.1-.2-.53.01.39.04.8.07-.72,0-1.59-.02-2.49-.01-.9.02-1.83.04-2.71.03-2.72.07-.18-.12-3.35-.02-8.35.38-16.45,1.33-24.54,2.04-8.07.68-16.2,1.31-24.26.53-.36-.06.07-.02.54,0-4.84-.42-9.09-1.33-12.81-3.28-.5-.29-.82-.48-1.05-.62-.22-.15-.33-.28-.46-.38.06.06-.17-.11-.65-.43-.23-.17-.54-.36-.87-.61-.3-.28-.64-.61-1.02-.96-1.48-1.44-3.17-3.77-4.03-6.6-.36-1.43-.79-2.86-.88-4.3-.04-.36-.08-.71-.12-1.05-.02-.17-.04-.34-.06-.5-.01-.12,0,0,0-.13v-.27c0-.71.01-1.38.02-2,.03-2.49.04-4.19.04-4.3Z"/>
          </g>
          <g>
            <path class="e" d="M29.4,7.63v16.69M45.23,7.63v16.69M61.06,7.63v16.69M76.89,7.63v16.69M92.73,7.63v16.69"/>
            <g>
              <path class="f" d="M29.4,7.63v16.69M45.23,7.63v16.69M61.06,7.63v16.69M76.89,7.63v16.69M92.73,7.63v16.69"/>
              <g>
                <path class="h" d="M91.08,7.69c-.08.05-.09.14-.1.22.08-.06.11-.13.1-.22Z"/>
                <polygon class="h" points="90.98 7.92 90.98 7.92 90.98 7.92 90.98 7.92"/>
                <path class="h" d="M94.65,24.26s0-.05,0-.07c0,.02,0,.05,0,.07Z"/>
                <path class="h" d="M90.74,12h.14c0,.21-.16.07-.12.26.19.07-.02.31.08.37-.02,0-.02.09-.08.08.1.03.02.09.05.15.03.02.03-.02.06-.03l.04.13c-.03.05-.09.06-.11,0-.04.34-.14,1.98-.09,2.35.08-.05.03-.16.15-.2.07.1-.02.14.05.19-.18.04-.04.21-.23.29l.1.03-.06.05c.11.43.05.1.03.48.02.22.16.32.11.45,0-.02.07-.07.09,0-.09,0,.07.15-.03.18.01.06,0,.24.13.18-.06.03-.09.19-.14.1,0,.05-.02.11,0,.15l.03-.07c.02.18-.08.28.03.4l.05-.07c0,.11.02.2-.11.24l-.04-.11c0,.18.01.29.08.44v-.05c.13.19.23,1.2.38,1.38l.1-.08.08.15s-.31-.07-.28-.09c0,.33.08,2.03.02,2.34-.05.12-.15.02-.17.02.04.15.1.06.09.19-.02.03-.08,0-.09-.03.01.06-.02.11.02.11.03-.07.15-.04.23-.07v.16s-.09,0-.09,0c0,.04.21.09.17.25-.03.27,0,.56-.02.83-.05,0-.07-.06-.1-.12,0,.04,0,.09-.02.13.08-.07.05.11.09.06.18.2.02.46.14.63.17.02,2.85.38,3.04.38,0,.05,0,.11-.02.13.05-.01.07-.12.04-.18h-.11c-.04-.14.06-.04.06-.17.09,0,.1.11.11.21.01-.09.07-.19-.02-.22.04-.09.11,0,.14-.1-.03-.08-.11-.17-.06-.26h.02c.09-.21-.13-.32-.04-.51l.03.02c.05-.07-.02-.2.04-.32-.02.03-.08.07-.09,0,.05-.14,0-.24.07-.34l-.08-.1c.02-.49-.1-2.42-.12-2.91v.02c-.03-.75-.02-2.28-.14-3.06.08-.12.06-.28.09-.41-.03.07-.09.05-.09,0,0-.38-.06-.03-.09-.41-.08-.44.01-2.14.08-2.53-.12-.21-.03-.47-.11-.68l.03.02c-.05-.22.07-1.48.02-1.74l-.02.03c-.08-.23.06-.19.1-.37-.14.02-.22-.17-.23-.24h.03c-.02-.11-.14-.36-.16-.54h.08c-.08-.15-.05-.43-.06-.54.03-.25.16-.64.06-.97l.21-.22-.02-.03s-2.59-.35-3.15.09h-.08s0,.08,0,.08c-.04.11.05.15-.02.15v-.14c-.01.11-.05.03-.1,0,0,.04-.02.09-.04.12.03.02.03-.02.05-.03.03.06.1.14.06.21,0,.11-.12,0-.13.13-.06.67-.15,1.31-.13,1.99-.03.02-.03,0-.04-.02.03.2.02.38.05.57-.03.05-.08.07-.11.08.06-.03.07,1.02.05,1.04Z"/>
              </g>
              <g>
                <path class="h" d="M75.25,7.69c-.08.05-.09.14-.1.22.08-.06.11-.13.1-.22Z"/>
                <polygon class="h" points="75.15 7.92 75.15 7.92 75.15 7.92 75.15 7.92"/>
                <path class="h" d="M78.82,24.26s0-.05,0-.07c0,.02,0,.05,0,.07Z"/>
                <path class="h" d="M74.91,12h.14c0,.21-.16.07-.12.26.19.07-.02.31.08.37-.02,0-.02.09-.08.08.1.03.02.09.05.15.03.02.03-.02.06-.03l.04.13c-.03.05-.1.06-.11,0-.04.34-.14,1.98-.09,2.35.08-.05.03-.16.15-.2.07.1-.02.14.05.19-.18.04-.04.21-.23.29l.1.03-.06.05c.11.43.05.1.03.48.02.22.16.32.11.45,0-.02.07-.07.09,0-.09,0,.07.15-.03.18.01.06,0,.24.13.18-.06.03-.09.19-.14.1,0,.05-.02.11,0,.15l.03-.07c.02.18-.08.28.03.4l.05-.07c0,.11.02.2-.11.24l-.04-.11c0,.18.01.29.08.44v-.05c.13.19.23,1.2.38,1.38l.1-.08.08.15s-.31-.07-.28-.09c0,.33.08,2.03.02,2.34-.05.12-.15.02-.17.02.04.15.1.06.09.19-.02.03-.08,0-.09-.03.01.06-.02.11.02.11.03-.07.15-.04.23-.07v.16s-.09,0-.09,0c0,.04.21.09.17.25-.03.27,0,.56-.02.83-.05,0-.07-.06-.1-.12,0,.04,0,.09-.02.13.08-.07.05.11.09.06.18.2.02.46.14.63.17.02,2.85.38,3.04.38,0,.05,0,.11-.02.13.05-.01.07-.12.04-.18h-.11c-.04-.14.06-.04.06-.17.09,0,.1.11.11.21.01-.09.07-.19-.02-.22.04-.09.11,0,.14-.1-.03-.08-.11-.17-.06-.26h.02c.09-.21-.13-.32-.04-.51l.03.02c.05-.07-.02-.2.04-.32-.02.03-.08.07-.09,0,.05-.14,0-.24.07-.34l-.08-.1c.02-.49-.1-2.42-.12-2.91v.02c-.03-.75-.02-2.28-.14-3.06.08-.12.06-.28.09-.41-.03.07-.09.05-.09,0,0-.38-.06-.03-.09-.41-.08-.44.01-2.14.08-2.53-.12-.21-.03-.47-.11-.68l.03.02c-.05-.22.07-1.48.02-1.74l-.02.03c-.08-.23.06-.19.1-.37-.14.02-.22-.17-.23-.24h.03c-.02-.11-.14-.36-.16-.54h.08c-.08-.15-.05-.43-.06-.54.03-.25.16-.64.06-.97l.21-.22-.02-.03s-2.59-.35-3.15.09h-.08s0,.08,0,.08c-.04.11.05.15-.02.15v-.14c-.01.11-.05.03-.1,0,0,.04-.02.09-.04.12.03.02.03-.02.05-.03.03.06.1.14.06.21,0,.11-.12,0-.13.13-.06.67-.15,1.31-.13,1.99-.03.02-.03,0-.04-.02.03.2.02.38.05.57-.03.05-.08.07-.11.08.06-.03.07,1.02.05,1.04Z"/>
              </g>
              <g>
                <path class="h" d="M59.42,7.69c-.08.05-.09.14-.1.22.08-.06.11-.13.1-.22Z"/>
                <polygon class="h" points="59.31 7.92 59.31 7.92 59.32 7.92 59.31 7.92"/>
                <path class="h" d="M62.99,24.26s0-.05,0-.07c0,.02,0,.05,0,.07Z"/>
                <path class="h" d="M59.08,12h.14c0,.21-.16.07-.12.26.19.07-.02.31.08.37-.02,0-.02.09-.08.08.1.03.02.09.05.15.03.02.03-.02.06-.03l.04.13c-.03.05-.09.06-.11,0-.04.34-.14,1.98-.09,2.35.08-.05.03-.16.15-.2.07.1-.02.14.05.19-.18.04-.04.21-.23.29l.1.03-.06.05c.11.43.05.1.03.48.02.22.16.32.11.45,0-.02.07-.07.09,0-.09,0,.07.15-.03.18.01.06,0,.24.13.18-.06.03-.09.19-.14.1,0,.05-.02.11,0,.15l.03-.07c.02.18-.08.28.03.4l.05-.07c0,.11.02.2-.11.24l-.04-.11c0,.18.01.29.08.44v-.05c.13.19.23,1.2.38,1.38l.1-.08.08.15s-.31-.07-.28-.09c0,.33.08,2.03.02,2.34-.05.12-.15.02-.17.02.04.15.1.06.09.19-.02.03-.08,0-.09-.03.01.06-.02.11.02.11.03-.07.15-.04.23-.07v.16s-.09,0-.09,0c0,.04.21.09.17.25-.03.27,0,.56-.02.83-.05,0-.07-.06-.1-.12,0,.04,0,.09-.02.13.08-.07.05.11.09.06.18.2.02.46.14.63.17.02,2.85.38,3.04.38,0,.05,0,.11-.02.13.05-.01.07-.12.04-.18h-.11c-.04-.14.06-.04.06-.17.09,0,.1.11.11.21.01-.09.07-.19-.02-.22.04-.09.11,0,.14-.1-.03-.08-.11-.17-.06-.26h.02c.09-.21-.13-.32-.04-.51l.03.02c.05-.07-.02-.2.04-.32-.02.03-.08.07-.09,0,.05-.14,0-.24.07-.34l-.08-.1c.02-.49-.1-2.42-.12-2.91v.02c-.03-.75-.02-2.28-.14-3.06.08-.12.06-.28.09-.41-.03.07-.09.05-.09,0,0-.38-.06-.03-.09-.41-.08-.44.01-2.14.08-2.53-.12-.21-.03-.47-.11-.68l.03.02c-.05-.22.07-1.48.02-1.74l-.02.03c-.08-.23.06-.19.1-.37-.14.02-.22-.17-.23-.24h.03c-.02-.11-.14-.36-.16-.54h.08c-.08-.15-.05-.43-.06-.54.03-.25.16-.64.06-.97l.21-.22-.02-.03s-2.59-.35-3.15.09h-.08s0,.08,0,.08c-.04.11.05.15-.02.15v-.14c-.01.11-.05.03-.1,0,0,.04-.02.09-.04.12.03.02.03-.02.05-.03.03.06.1.14.06.21,0,.11-.12,0-.13.13-.06.67-.15,1.31-.13,1.99-.03.02-.03,0-.04-.02.03.2.02.38.05.57-.03.05-.08.07-.11.08.06-.03.07,1.02.05,1.04Z"/>
              </g>
              <g>
                <path class="h" d="M43.59,7.69c-.08.05-.09.14-.1.22.08-.06.11-.13.1-.22Z"/>
                <polygon class="h" points="43.48 7.92 43.48 7.92 43.48 7.92 43.48 7.92"/>
                <path class="h" d="M47.15,24.26s0-.05,0-.07c0,.02,0,.05,0,.07Z"/>
                <path class="h" d="M43.25,12h.14c0,.21-.16.07-.12.26.19.07-.02.31.08.37-.02,0-.02.09-.08.08.1.03.02.09.05.15.03.02.03-.02.06-.03l.04.13c-.03.05-.09.06-.11,0-.04.34-.14,1.98-.09,2.35.08-.05.03-.16.15-.2.07.1-.02.14.05.19-.18.04-.04.21-.23.29l.1.03-.06.05c.11.43.05.1.03.48.02.22.16.32.11.45,0-.02.07-.07.09,0-.09,0,.07.15-.03.18.01.06,0,.24.13.18-.06.03-.09.19-.14.1,0,.05-.02.11,0,.15l.03-.07c.02.18-.08.28.03.4l.05-.07c0,.11.02.2-.11.24l-.04-.11c0,.18.01.29.08.44v-.05c.13.19.23,1.2.38,1.38l.1-.08.08.15s-.31-.07-.28-.09c0,.33.08,2.03.02,2.34-.05.12-.15.02-.17.02.04.15.1.06.09.19-.02.03-.08,0-.09-.03.01.06-.02.11.02.11.03-.07.15-.04.23-.07v.16s-.09,0-.09,0c0,.04.21.09.17.25-.03.27,0,.56-.02.83-.05,0-.07-.06-.1-.12,0,.04,0,.09-.02.13.08-.07.05.11.09.06.18.2.02.46.14.63.17.02,2.85.38,3.04.38,0,.05,0,.11-.02.13.05-.01.07-.12.04-.18h-.11c-.04-.14.06-.04.06-.17.09,0,.1.11.11.21.01-.09.07-.19-.02-.22.04-.09.11,0,.14-.1-.03-.08-.11-.17-.06-.26h.02c.09-.21-.13-.32-.04-.51l.03.02c.05-.07-.02-.2.04-.32-.02.03-.08.07-.09,0,.05-.14,0-.24.07-.34l-.08-.1c.02-.49-.1-2.42-.12-2.91v.02c-.03-.75-.02-2.28-.14-3.06.08-.12.06-.28.09-.41-.03.07-.09.05-.09,0,0-.38-.06-.03-.09-.41-.08-.44.01-2.14.08-2.53-.12-.21-.03-.47-.11-.68l.03.02c-.05-.22.07-1.48.02-1.74l-.02.03c-.08-.23.06-.19.1-.37-.14.02-.22-.17-.23-.24h.03c-.02-.11-.14-.36-.16-.54h.08c-.08-.15-.05-.43-.06-.54.03-.25.16-.64.06-.97l.21-.22-.02-.03s-2.59-.35-3.15.09h-.08s0,.08,0,.08c-.04.11.05.15-.02.15v-.14c-.01.11-.05.03-.1,0,0,.04-.02.09-.04.12.03.02.03-.02.05-.03.03.06.1.14.06.21,0,.11-.12,0-.13.13-.06.67-.15,1.31-.13,1.99-.03.02-.03,0-.04-.02.03.2.02.38.05.57-.03.05-.08.07-.11.08.06-.03.07,1.02.05,1.04Z"/>
              </g>
              <g>
                <path class="h" d="M27.75,7.69c-.08.05-.09.14-.1.22.08-.06.11-.13.1-.22Z"/>
                <polygon class="h" points="27.65 7.92 27.65 7.92 27.65 7.92 27.65 7.92"/>
                <path class="h" d="M31.32,24.26s0-.05,0-.07c0,.02,0,.05,0,.07Z"/>
                <path class="h" d="M27.41,12h.14c0,.21-.16.07-.12.26.19.07-.02.31.08.37-.02,0-.02.09-.08.08.1.03.02.09.05.15.03.02.03-.02.06-.03l.04.13c-.03.05-.09.06-.11,0-.04.34-.14,1.98-.09,2.35.08-.05.03-.16.15-.2.07.1-.02.14.05.19-.18.04-.04.21-.23.29l.1.03-.06.05c.11.43.05.1.03.48.02.22.16.32.11.45,0-.02.07-.07.09,0-.09,0,.07.15-.03.18.01.06,0,.24.13.18-.06.03-.09.19-.14.1,0,.05-.02.11,0,.15l.03-.07c.02.18-.08.28.03.4l.05-.07c0,.11.02.2-.11.24l-.04-.11c0,.18.01.29.08.44v-.05c.13.19.23,1.2.38,1.38l.1-.08.08.15s-.31-.07-.28-.09c0,.33.08,2.03.02,2.34-.05.12-.15.02-.17.02.04.15.1.06.09.19-.02.03-.08,0-.09-.03.01.06-.02.11.02.11.03-.07.15-.04.23-.07v.16s-.09,0-.09,0c0,.04.21.09.17.25-.03.27,0,.56-.02.83-.05,0-.07-.06-.1-.12,0,.04,0,.09-.02.13.08-.07.05.11.09.06.18.2.02.46.14.63.17.02,2.85.38,3.04.38,0,.05,0,.11-.02.13.05-.01.07-.12.04-.18h-.11c-.04-.14.06-.04.06-.17.09,0,.1.11.11.21.01-.09.07-.19-.02-.22.04-.09.11,0,.14-.1-.03-.08-.11-.17-.06-.26h.02c.09-.21-.13-.32-.04-.51l.03.02c.05-.07-.02-.2.04-.32-.02.03-.08.07-.09,0,.05-.14,0-.24.07-.34l-.08-.1c.02-.49-.1-2.42-.12-2.91v.02c-.03-.75-.02-2.28-.14-3.06.08-.12.06-.28.09-.41-.03.07-.09.05-.09,0,0-.38-.06-.03-.09-.41-.08-.44.01-2.14.08-2.53-.12-.21-.03-.47-.11-.68l.03.02c-.05-.22.07-1.48.02-1.74l-.02.03c-.08-.23.06-.19.1-.37-.14.02-.22-.17-.23-.24h.03c-.02-.11-.14-.36-.16-.54h.08c-.08-.15-.05-.43-.06-.54.03-.25.16-.64.06-.97l.21-.22-.02-.03s-2.59-.35-3.15.09h-.08s0,.08,0,.08c-.04.11.05.15-.02.15v-.14c-.01.11-.05.03-.1,0,0,.04-.02.09-.04.12.03.02.03-.02.05-.03.03.06.1.14.06.21,0,.11-.12,0-.13.13-.06.67-.15,1.31-.13,1.99-.03.02-.03,0-.04-.02.03.2.02.38.05.57-.03.05-.08.07-.11.08.06-.03.07,1.02.05,1.04Z"/>
              </g>
            </g>
          </g>
          <g>
            <path class="h" d="M41.12,57.45c-.08.51-.09,1.38-.1,2.2.08-.64.11-1.31.1-2.2Z"/>
            <polygon class="h" points="41.01 59.67 41.01 59.68 41.02 59.66 41.01 59.67"/>
            <path class="h" d="M43.01,54.9c-.16-.06-.33-.15-.51-.25.16.09.33.19.51.25Z"/>
            <path class="h" d="M69.78,77.32l.13-.14c1.96,0,.57.16,2.38.12.18-.05.45-.07.78-.08.41-.02.9-.03,1.38-.11.95-.14,1.87-.47,2.2-.71,0,.05,1-.53.97-.45.24-.28.96-.71,1.43-1.27.15-.22-.14.13-.32.23.39-.39.73-.82,1.04-1.28.37-.52.51-.64.15-.03.29-.46.72-1.15,1.03-2.11.15-.48.27-1.02.34-1.61.02-.29.03-.59.05-.9,0-.24,0-.49,0-.74.01-2.03.03-4.47.04-6.91,0-1.08.01-2.15.01-3.19,0,0,0-.01.01-.01,0,0,0,0,0,0h0s.1-.05.1-.05l.42-.23c.27-.17.53-.34.79-.5,2.02-1.39,3.2-3.04,3.74-3.94-.33.44-1.09,1.5-1.52,1.78.68-.87,1.04-1.26,1.25-1.71.44-.23,1.24-2.1,1.64-2.86,0-.11,0-.22,0-.34l.21-.52c.51-2.42.3-2.73.36-2.93-.02-.21.13-.36-.13-2.53-.2-1.25-.57-2.12-.88-2.84-.35-.71-.64-1.28-1-1.88.11.18.34.68-.02.14.05-.17-1.01-1.39-1.15-1.67-.22-.22-.65-.75-1.04-1.07-.38-.33-.65-.53-.44-.25-.18-.31-1.67-1.38-.75-.79-.48-.39-1-.69-1.39-.9l.66.44c-1.78-1.07-2.86-1.52-4.2-1.72l.73.24c-.6-.16-1.15-.29-1.62-.35-.47-.1-.84-.15-1.08-.22.43,0,.85.05,1.28.11-2.04-.29-3.36-.22-5.03.24l.6-.13c-.12.03-.27.07-.44.11-.16.04-.41.12-.44.13-.09.04-.14.07-.24.13-.04-.05-.09-.12-.17-.21-.16-.21-.33-.43-.5-.65-.2-.23-.41-.47-.62-.71-.88-.93-1.94-1.75-3.03-2.35-2.19-1.24-4.4-1.5-5.15-1.5.3.06.59.12.88.22-.55-.07-1.11-.11-1.66-.09.19,0,.83-.26.99-.21-1.01-.11-3.39-.27-6.04.8-1.31.52-2.66,1.31-3.82,2.38-.59.52-1.13,1.12-1.61,1.75l-.35.48-.1.15c-.07.1-.1.19-.16.27-.16-.06-.25-.1-.47-.16-.55-.14-1.11-.25-1.65-.32-1.09-.14-2.12-.08-3.03.02-1.82.23-3.17.78-3.81,1.09-1.24.54-.29-.03-.28-.05-.75.37-.86.54-.98.62-.11.11-.23.14-.79.56-.32.22.02-.11.19-.25-.49.38-.98.69-.97.77.63-.45.45-.15.75-.29-.49.34-.93.75-1.37,1.15v-.11c-.27.3-.6.83-1.62,2.23-1.7,2.43-2.36,5.77-1.94,8.7-.04-.04-.18-.65-.22-1.28,0,.4.1,1.01.11,1.38-.04-.72.28,1.22.22.66.31,1.05.73,2.22,1.3,3.28.56,1.07,1.28,2.02,1.98,2.67.12,0,1.34.25,2.47.18,1.14-.03,2.14-.34,2.18-.43.37.22.77.36.89.44l-1.97.42s.02-.02.02-.02c0,0-.01,0-.03.02l1.98-.42c-.14-.1-.87-.45-1.26-.66l-.12.05c-.93-.55-.19-.18-1.04-.79.01-.1.77.49,1.52.86-.67-.36-1.23-.87-1.52-.99-.51-.5.12-.02-.48-.62-.46-.39-1.03-.96-1.37-1.58h.02c-.43-.73-.72-1.3-.96-1.88-.25-.58-.43-1.17-.5-1.95l.05.16c-.04-.54-.16-1.62.03-2.59-.06.27-.16.51-.08-.08.21-1.12.43-1.87.84-2.59.09-.25.17-.51.29-.75.28-.48.72-1.15,1.39-1.84.67-.68,1.55-1.39,2.64-1.91,1.08-.53,2.35-.88,3.67-.94.66-.06,1.31,0,1.95.11l.48.1.28.07c.17.04.36.11.54.17.72.26,1.45.57,2.14.84.33-.58.64-1.19.97-1.74l.49-.83c.11-.16.17-.24.26-.36.33-.45.7-.86,1.09-1.23.77-.73,1.61-1.28,2.43-1.66,1.64-.77,3.13-.89,4.01-.88-.05,0-.11,0-.16.01,1.3-.01,2.93.24,4.5,1.09.78.42,1.55.98,2.23,1.66.35.34.66.72.95,1.12l.11.15.21.35.43.72c.27.49.55.98.83,1.48.7-.28,1.43-.59,2.14-.85.36-.13.67-.2.79-.23.16-.04.33-.08.49-.11.66-.12,1.32-.18,2-.12,1.35.06,2.67.41,3.82.98,2.34,1.14,3.86,3.16,4.59,4.85.33.94.63,2.29.62,3.33,0-.58.07-.39.09.07.02.79-.04,1.2-.06,1.42-.02.22-.01.25,0,.28,0,.03,0,.06-.02.28-.03.22-.09.64-.34,1.41-.28.88-.95,2.39-2.34,3.75-.34.34-.73.67-1.14.97-.2.16-.43.29-.65.43-.11.08-.23.13-.35.2l-.22.12c-.12.07-.25.13-.38.18l-.75.35-.38.17-.19.09c-.06.03-.15.04-.12.13,0,.56,0,1.12,0,1.68,0,.71,0,1.44,0,2.16-.02,2.59-.03,5.16-.04,7.33,0,.54,0,1.06-.01,1.54,0,.12,0,.24,0,.36l-.02.26c0,.17-.03.33-.06.48-.11.61-.3,1.08-.48,1.39-.29.71-.88,1.41-1.62,1.87-.73.48-1.59.7-2.35.76l.15-.04c-.11,0-.21.02-.42.03-.21,0-.46,0-.73,0-.55,0-1.22,0-1.97,0-1.5,0-3.33-.01-5.16-.02-3.67-.02-7.39-.03-8.65-.01l.34.02c-2.21.08-1.91-.06-3.65-.1.23.14-1.66.22-2.38.23l.03-.03c-.27,0-.63.02-1.04.03-.21,0-.43.02-.65.02-.18,0-.37,0-.57,0-.76-.04-1.58-.31-2.18-.69l.09-.04c-.52-.27-1.19-.83-1.61-1.53-.44-.68-.64-1.44-.69-1.86-.05-.24-.04-.5-.05-.77,0-.35.01-.71.02-1.09.01-.75.03-1.56.04-2.4.02-1.67.03-3.44-.02-5.09l.21-2.13-.02-.31s-2.59-3.43-3.15.92l-.08-.07v.86c-.03,1.03.06,1.51-.02,1.44v-1.41c-.01,1.04-.05.31-.1-.08,0,.43-.02.85-.04,1.2.03.2.03-.15.05-.31.03.56.1,1.33.06,2.01,0,1.06-.12.07-.13,1.31-.02,1.63-.03,3.25-.05,4.87v.31s.01.39.01.39c0,.26.03.52.07.78.07.52.19,1.03.37,1.52.34.99.88,1.91,1.56,2.7,1.37,1.58,3.38,2.62,5.5,2.78.25.01.57.03.76.03h.61s1.22,0,1.22,0c.82,0,1.64,0,2.46,0,.15.03-.03.03-.22.04,1.99-.02,3.75-.04,5.57-.05.5.03.64.08.79.11-.15-.03,2.35-.05,4.91-.06,2.56,0,5.16,0,5.26,0Z"/>
          </g>
          <g>
            <path class="h" d="M42.88,66.53c.11.08.31.09.49.1-.14-.08-.29-.11-.49-.1Z"/>
            <polygon class="h" points="43.38 66.64 43.38 66.63 43.37 66.63 43.38 66.64"/>
            <path class="h" d="M79.24,62.96s-.1,0-.15,0c.05,0,.1,0,.15,0Z"/>
            <path class="h" d="M52.33,66.87l.03-.14c.44,0,.13.16.53.12.16-.19.67.02.81-.08,0,.02.2.02.18.08.06-.1.2-.02.33-.05.05-.03-.03-.03-.07-.06l.29-.04c.11.03.14.1.02.11.75.04,4.35.14,5.15.09-.1-.08-.35-.03-.45-.15.21-.07.31.02.41-.05.08.18.47.04.63.23l.06-.1.11.06c.94-.11.21-.05,1.05-.03.48-.02.71-.16.98-.11-.04,0-.15-.07-.02-.09.02.09.33-.07.39.03.12-.01.52,0,.38-.13.07.06.42.09.21.14.12,0,.23.02.32,0l-.15-.03c.4-.02.62.08.88-.03l-.15-.05c.24,0,.44-.02.54.11l-.25.04c.4,0,.64-.01.97-.08h-.12c.42-.13,2.64-.23,3.03-.38l-.18-.1.34-.08s-.16.31-.2.28c.72,0,4.46-.08,5.13-.02.27.05.05.15.05.17.33-.04.14-.1.42-.09.08.02-.02.08-.06.09.12-.01.23.02.24-.02-.15-.03-.09-.15-.15-.23h.36s-.02.09-.02.09c.08,0,.2-.21.55-.17.59.03,1.23,0,1.83.02,0,.05-.13.07-.26.1.08,0,.2,0,.27.02-.14-.08.25-.05.14-.09.44-.18,1-.02,1.38-.14.03-.17.82-2.85.82-3.04.12,0,.24,0,.27.02-.03-.05-.27-.07-.39-.04l-.02.11c-.29.04-.07-.06-.35-.06-.01-.09.24-.1.47-.11-.2-.01-.41-.07-.49.02-.19-.04.02-.11-.21-.14-.16.03-.38.11-.57.06v-.02c-.46-.09-.7.13-1.12.04l.05-.03c-.15-.05-.44.02-.71-.04.08.02.14.08-.02.09-.31-.05-.52,0-.74-.07l-.22.08c-1.07-.02-5.31.1-6.39.12h.04c-1.64.03-5.01.02-6.71.14-.26-.08-.62-.06-.9-.09.15.03.1.09-.02.09-.83,0-.06.06-.9.09-.97.08-4.69-.01-5.55-.08-.46.12-1.04.03-1.5.11l.05-.03c-.49.05-3.25-.07-3.81-.02l.08.02c-.49.08-.43-.06-.82-.1.05.14-.37.22-.53.23v-.03c-.24.02-.79.14-1.19.16l.02-.08c-.34.08-.97.05-1.21.06-.55-.03-1.4-.16-2.14-.06l-.48-.21-.07.02s-.77,2.59.21,3.15l-.02.08h.19c.23.03.34-.06.32.02h-.32c.23.01.07.05-.02.1.1,0,.19.02.27.04.05-.03-.03-.03-.07-.05.12-.03.3-.1.45-.06.24,0,.02.12.29.13,1.46.06,2.88.15,4.36.13.03.03,0,.03-.05.04.45-.03.84-.02,1.25-.05.11.03.14.08.18.11-.07-.06,2.24-.07,2.28-.05Z"/>
          </g>
          <g>
            <path class="h" d="M22.97,90.82c.24.08.65.09,1.03.1-.3-.08-.62-.11-1.03-.1Z"/>
            <path class="h" d="M24.01,90.93h0s-.01,0-.01,0h0Z"/>
            <path class="h" d="M99.14,87.25c-.1,0-.2,0-.32,0,.11,0,.21,0,.32,0Z"/>
            <path class="h" d="M42.77,91.16l.06-.14c.92,0,.27.16,1.12.12.33-.19,1.41.02,1.7-.08,0,.02.41.02.38.08.13-.1.43-.02.69-.05.1-.03-.07-.03-.14-.06l.6-.04c.23.03.29.09.04.11,1.57.04,9.11.14,10.8.09-.22-.08-.74-.03-.94-.15.45-.07.66.02.86-.05.17.18.98.04,1.32.23l.13-.1.22.06c.98-.05,1.1-.07,1.18-.06.05,0,.09,0,.24.01.38,0,.48-.02.94-.05.98-.09,1.44-.28,2-.25-.08,0-.3-.05-.05-.09.05.09.68-.1.81-.02.25-.03,1.07-.06.78-.17.14.05.87.05.44.12.25,0,.49,0,.66-.03l-.32-.02c.83-.05,1.29.03,1.83-.1l-.31-.04c.5-.03.92-.04,1.11.08l-.51.05c.83-.02,1.33-.04,2.01-.12h-.25c.87-.15,5.49-.26,6.31-.39l-.37-.1.7-.07c-.08,0-.34.31-.41.28,1.5-.02,9.32.1,10.71.21.56.07.1.16.09.17.68-.02.3-.09.88-.07.16.02-.03.07-.12.09.25,0,.49.04.51,0-.32-.04-.18-.16-.31-.24l.75.03-.04.07c.17,0,.43-.19,1.16-.13,1.24.06,2.59.07,3.84.12-.02.04-.28.07-.55.09.17,0,.42,0,.58.03-.3-.09.53-.04.29-.08.92-.16,2.1.02,2.91-.1.08-.16,1.74-2.84,1.74-3.04.25,0,.49,0,.57.03-.06-.05-.55-.07-.81-.04l-.04.11c-.6.04-.14-.06-.72-.06-.03-.09.5-.1.97-.11-.42-.01-.84-.08-1.02.02-.4-.04.04-.11-.43-.14-.34.02-.79.1-1.19.04v-.02c-.95-.1-1.46.11-2.34,0l.09-.03c-.31-.06-.92,0-1.48-.07.16.02.3.09-.04.09-.64-.07-1.08-.03-1.55-.11l-.45.07c-2.24-.08-11.14-.2-13.42-.19h.09c-3.46-.04-10.59.02-14.2.44-.56-.04-1.35.04-1.9.06.12,0,.21.02.18.05,0,.01-.04.02-.08.03-.03,0-.13.02-.1.02-.39,0-.58,0-.69,0-.12,0-.14.01-.15.02-.03.02-.07.05-.95.06-2.04.08-9.83-.01-11.64-.08-.97.12-2.18.03-3.14.11l.1-.03c-1.02.05-6.81-.07-7.99-.02l.16.02c-1.04.08-.89-.06-1.71-.1.11.14-.78.22-1.12.23v-.03c-.5.02-1.65.14-2.5.16l.03-.08c-.7.08-2.02.05-2.53.06-1.16-.03-2.94-.16-4.48-.06l-1-.21-.15.02s-1.61,2.59.43,3.15l-.03.08h.4c.48.03.71-.06.68.02h-.66c.49.01.15.05-.04.1.2,0,.4.02.56.04.1-.03-.07-.03-.15-.05.26-.03.63-.1.94-.06.5,0,.03.12.61.13,3.06.06,6.03.15,9.13.13.07.03-.01.03-.1.04.95-.02,1.75-.04,2.61-.05.24.03.3.08.37.11-.07-.03,1.1-.05,2.3-.06.6,0,1.21,0,1.67,0,.46,0,.77,0,.8,0Z"/>
          </g>
          <g>
            <path class="h" d="M22.97,104.6c.24.08.65.09,1.03.1-.3-.08-.61-.11-1.03-.1Z"/>
            <path class="h" d="M24.01,104.71h0s-.01,0-.01,0h0Z"/>
            <path class="h" d="M99.14,101.04c-.1,0-.21,0-.32,0,.11,0,.22,0,.32,0Z"/>
            <path class="h" d="M42.77,104.94l.06-.14c.92,0,.27.16,1.12.12.33-.19,1.41.02,1.7-.08,0,.02.41.02.38.08.13-.1.43-.02.69-.05.1-.03-.07-.03-.14-.06l.6-.04c.23.03.29.09.04.11,1.57.04,9.11.14,10.8.09-.22-.08-.74-.03-.94-.15.45-.07.66.02.86-.05.17.18.98.04,1.32.23l.13-.1.22.06c1.97-.11.45-.05,2.19-.03,1.01-.02,1.49-.16,2.05-.11-.08,0-.31-.07-.04-.09.04.09.7-.07.82.03.26-.01,1.09,0,.8-.13.14.06.88.09.44.14.25,0,.49.02.67,0l-.32-.03c.84-.02,1.3.08,1.85-.03l-.31-.05c.5,0,.93-.02,1.12.11l-.52.04c.84,0,1.34-.01,2.04-.08h-.25c.89-.13,5.53-.23,6.35-.38l-.38-.1.7-.08c-.08,0-.34.31-.41.28,1.51,0,9.35-.08,10.74-.02.56.05.1.15.09.17.68-.04.29-.1.88-.09.16.02-.03.08-.12.09.25-.01.49.02.51-.02-.32-.03-.18-.15-.32-.23h.75s-.03.09-.03.09c.17,0,.42-.21,1.16-.17,1.24.03,2.58,0,3.83.02-.02.05-.28.07-.54.1.17,0,.42,0,.58.02-.3-.08.52-.05.29-.09.91-.18,2.09-.02,2.9-.14.07-.17,1.72-2.85,1.72-3.04.25,0,.5,0,.58.02-.06-.05-.56-.07-.82-.04l-.05.11c-.6.04-.14-.06-.73-.06-.03-.09.51-.1.98-.11-.43-.01-.85-.07-1.03.02-.4-.04.04-.11-.44-.14-.35.03-.8.11-1.2.06v-.02c-.96-.09-1.47.13-2.35.04l.09-.03c-.31-.05-.92.02-1.49-.04.16.02.3.08-.04.09-.65-.05-1.09,0-1.56-.07l-.45.08c-2.25.02-11.13.1-13.39.12h.09c-3.44.03-10.51.02-14.06.14-.55-.08-1.31-.06-1.88-.09.32.03.21.09-.04.09-1.75,0-.12.06-1.89.09-2.04.08-9.83-.01-11.64-.08-.97.12-2.18.03-3.13.11l.1-.03c-1.02.05-6.8-.07-7.99-.02l.16.02c-1.04.08-.89-.06-1.71-.1.11.14-.78.22-1.12.23v-.03c-.5.02-1.65.14-2.5.16l.03-.08c-.7.08-2.02.05-2.53.06-1.16-.03-2.94-.16-4.48-.06l-1-.21-.15.02s-1.61,2.59.43,3.15l-.03.08h.4c.48.03.71-.06.67.02h-.66c.49.01.15.05-.04.1.2,0,.4.02.56.04.1-.03-.07-.03-.15-.05.26-.03.63-.1.94-.06.5,0,.03.12.61.13,3.06.06,6.03.15,9.13.13.07.03-.01.03-.1.04.95-.02,1.75-.04,2.61-.05.24.03.3.08.37.11-.07-.03,1.1-.05,2.3-.06.6,0,1.21,0,1.67,0,.46,0,.77,0,.8,0Z"/>
          </g>
          <g>
            <path class="h" d="M22.93,118.39c.24.09.64.11,1.03.13-.3-.09-.61-.13-1.03-.13Z"/>
            <path class="h" d="M23.97,118.52h0s-.01,0-.01,0h0Z"/>
            <path class="h" d="M99.09,114.83c-.1,0-.21,0-.32.01.11,0,.22,0,.32-.01Z"/>
            <path class="h" d="M42.74,119.25l.06-.13c.92.02.27.16,1.12.15.33-.18,1.41.06,1.71-.04,0,.02.41.03.38.09.13-.1.43-.01.69-.03.1-.03-.07-.03-.14-.07l.6-.02c.23.04.29.1.04.11,1.57.08,9.12.38,10.81.37-.22-.08-.74-.04-.94-.17.45-.06.66.04.86-.03.17.19.98.07,1.32.27l.13-.1.22.07c1.97-.06.45-.04,2.2.03,1.01.02,1.49-.19,2.05-.13-.08,0-.31-.06-.04-.09.04.09.7-.09.82,0,.26-.02,1.09-.03.81-.15.14.06.88.06.44.13.25,0,.49,0,.67-.02l-.32-.03c.84-.04,1.3.04,1.85-.09l-.31-.04c.5-.02.93-.04,1.13.08l-.52.05c.84-.03,1.34-.05,2.04-.13h-.25c.89-.15,5.54-.38,6.35-.56l-.38-.09.7-.1c-.08,0-.34.32-.41.29,1.51-.05,9.36-.35,10.75-.32.56.04.1.15.1.17.68-.06.29-.11.88-.12.16.01-.03.08-.12.09.25-.02.49,0,.51-.04-.32-.03-.19-.15-.32-.22h.75s-.03.07-.03.07c.17,0,.42-.22,1.15-.2,1.24,0,2.59-.07,3.83-.08-.02.05-.28.08-.54.11.17,0,.42-.02.58,0-.3-.07.52-.07.29-.09.91-.21,2.09-.07,2.9-.22.07-.17,1.65-2.89,1.64-3.09.25,0,.5,0,.58,0-.07-.04-.56-.05-.82-.02l-.04.11c-.6.05-.14-.06-.73-.04-.03-.09.51-.12.98-.14-.43,0-.86-.05-1.03.05-.4-.02.04-.11-.44-.13-.34.04-.79.13-1.19.09v-.02c-.96-.06-1.46.17-2.34.11l.09-.03c-.31-.04-.92.04-1.48,0,.16.01.3.07-.04.09-.65-.04-1.08.03-1.56-.02l-.45.1c-2.24.08-11.11.41-13.37.49l.09-.02c-3.44.14-10.49.33-14.04.55-.55-.05-1.31-.06-1.88-.1.32.04.21.1-.04.09-1.75-.06-.12.05-1.88.04-2.03.02-9.82-.27-11.62-.39-.97.1-2.18-.03-3.13.03l.1-.03c-1.02.02-6.8-.25-7.98-.23l.16.02c-1.04.05-.89-.08-1.71-.14.1.14-.78.2-1.12.2v-.03c-.5,0-1.65.1-2.5.1l.03-.07c-.7.06-2.02,0-2.53-.01-1.15-.06-2.93-.24-4.48-.18l-.99-.24-.15.02s-1.68,2.55.35,3.16l-.03.07h.4c.48.05.71-.03.68.04l-.66-.03c.49.03.15.07-.04.1.2.01.4.03.56.05.1-.03-.07-.03-.15-.05.26-.02.63-.08.95-.04.5.02.03.12.61.15,3.07.14,6.04.3,9.14.37.07.03-.01.03-.1.04.95,0,1.75,0,2.62.01.24.04.3.09.37.12-.07-.03,1.11-.02,2.31,0,.6.01,1.21.03,1.67.04.46.02.77.03.8.03Z"/>
          </g>
        </g>
      </g>
    </g>
  </g>
</svg>