<?xml version="1.0" encoding="UTF-8"?>
<svg id="b" data-name="Camada_2" xmlns="http://www.w3.org/2000/svg" xmlns:xlink="http://www.w3.org/1999/xlink" viewBox="0 0 160.97 152.66">
  <defs>
    <style>
      .e {
        fill: #505a4f;
      }

      .f {
        fill: #fff;
      }

      .g {
        fill: none;
      }

      .h {
        clip-path: url(#d);
      }

      .i {
        fill: #FFF;
      }
    </style>
    <clipPath id="d">
      <path class="g" d="M0,0v152.66h160.97V0H0ZM156.26,89.11c-1.42.75-8.65,2.41-12.48,2.96-2.94.43-8.8.94-13.35,1.16-3.61.18-9.2.83-11.74,1.35-4.85,1-12.96,3.61-20.64,6.67-5.53,2.2-14.78,6.63-17.36,8.32-2.78,1.82-4.58,4.04-4.69,5.77-.1,1.61-1.01,4.98-1.92,7.06-1.03,2.38-3.67,6.28-5.53,8.17-2.97,3.02-10.23,7.24-16.54,9.6-6.42,2.39-13.69,3.73-19.78,3.73-1.78,0-3.46-.11-4.98-.35-.01,0-.02,0-.03,0-5.36-.84-11.63-3.33-14.27-5.67-.18-.16-.34-.27-.38-.29,0,0,.11.05.28.05-1.44,0-2.98-5.51-2.99-5.56-.87-4.16-.09-7.82,2.39-11.18,2.62-3.53,5.22-5.93,9.62-8.83,3.69-2.43,5.12-3.22,8.06-4.46,6.29-2.63,12.09-3.63,22.17-3.84,6.41-.14,11.54.14,14.07.74.43.1.92.22,1.04.21-.04,0,0-.05.06-.1,1.18-1.07,7.03-4.51,11.96-7.25,2.71-1.5,12.04-6.16,15.35-7.67,14.21-6.5,33.94-12.51,45.9-13.97,3.86-.47,10.59-.39,12.46.35,2.6,1.02,5.66,3.62,6.54,5.56,1.25,2.74-.07,5.82-3.21,7.49Z"/>
    </clipPath>
  </defs>
  <g id="c" data-name="Camada_1">
    <g>
      <g>
        <path class="g" d="M159.47,81.62c-.88-1.94-3.93-4.54-6.54-5.56-1.87-.73-8.6-.82-12.46-.35-11.95,1.46-31.69,7.47-45.9,13.97-3.32,1.51-12.64,6.17-15.35,7.67-4.94,2.74-10.78,6.18-11.96,7.25-.06.05-.1.1-.06.1-.12,0-.61-.11-1.04-.21-2.53-.6-7.66-.87-14.07-.74-10.08.21-15.88,1.21-22.17,3.84-2.94,1.24-4.37,2.03-8.06,4.46-4.4,2.91-7,5.3-9.62,8.83-2.48,3.36-3.27,7.02-2.39,11.18.01.06,1.55,5.56,2.99,5.56-.17,0-.27-.05-.28-.05.04.02.19.12.38.29,2.64,2.34,8.91,4.83,14.27,5.67.01,0,.02,0,.03,0,1.53.23,3.2.35,4.98.35,6.09,0,13.36-1.34,19.78-3.73,6.31-2.36,13.58-6.58,16.54-9.6,1.86-1.89,4.5-5.79,5.53-8.17.91-2.08,1.82-5.45,1.92-7.06.1-1.74,1.9-3.95,4.69-5.77,2.58-1.69,11.83-6.12,17.36-8.32,7.69-3.05,15.79-5.67,20.64-6.67,2.54-.52,8.13-1.17,11.74-1.35,4.55-.22,10.41-.73,13.35-1.16,3.83-.56,11.06-2.21,12.48-2.96,3.14-1.67,4.46-4.75,3.21-7.49Z"/>
        <g>
          <path class="i" d="M160.04,79.61c-.71-1.09-2.19-2.55-3.82-3.64,1.2.93,2.43,1.88,3.82,3.64Z"/>
          <path class="i" d="M156.19,75.95s-.02-.01-.03-.02c.02.02.04.03.06.04-.01,0-.02-.02-.03-.02Z"/>
          <path class="i" d="M158.07,83.19c.06.28.06.6.03.93.03-.31.04-.63-.03-.93Z"/>
          <path class="i" d="M73.25,98.61l-.17.25c-3.67,2.18-1.15.48-4.51,2.59-.23.19-.58.43-1,.73-.21.15-.44.31-.68.48-.06.05-.13.1-.2.15,0,0,0,0-.02,0l-.08-.03h-.04s-.2-.06-.2-.06l-.39-.09c-.5-.1-.99-.18-1.43-.24-.88-.12-1.61-.18-2.03-.19.03-.02-1.93-.15-1.8-.2-.6.07-2.01-.07-3.24-.06-.44.02.33.03.66.07-.94-.01-1.87,0-2.8,0-1.09-.03-1.36-.09-.17-.1-1.84,0-5.37,0-9.85.31-2.23.16-4.71.45-7.28.94-2.57.5-5.24,1.27-7.78,2.28-1.28.5-2.51,1.03-3.77,1.65-1.25.62-2.43,1.32-3.52,2.01-2.17,1.38-4.26,2.76-6.09,4.24-1.83,1.46-3.36,3.01-4.53,4.39-.58.69-1.08,1.33-1.51,1.91-.44.59-.81,1.16-1.09,1.63.64-1,2.15-2.99,2.88-3.63-.68.84-1.17,1.46-1.56,1.97-.39.51-.71.96-.94,1.4-.31.32-.98,1.41-1.48,2.72-.52,1.3-.81,2.8-.98,3.68l.05.68c-.04.39-.07.77-.08,1.16.05,1.24.2,2.19.35,2.92.02.1.04.2.06.29.03.12.06.23.09.34.05.15.09.29.13.43.09.26.16.48.22.67.28.76.37,1.02.45,1.22.08.2.12.35.35.88.12.27.27.63.56,1.17.16.28.32.58.63.98.12.18.38.44.63.68.18.14.41.29.63.41.26.13.72.25,1.1.27v-2.65s0,.03,0,.05c0,.02,0,.04-.01.07,0,.03-.02.06-.03.09l-.04.1-.03.08-.03.06s0,0,0,0l.65-1.39h-.03s-.14-.08-.14-.08l-.69,1.9c-.08.23-.23.61-.48,1.04-.06.11-.13.22-.2.33l-.11.17h0c.24.19.48.38.71.56.25.18.5.36.74.51.48.31.93.57,1.36.81.86.46,1.62.82,2.32,1.11,1.41.6,2.59,1.02,3.85,1.47-.38-.12-1.36-.54-.18-.15.17.17,3.2.92,3.78,1.11.61.15,1.86.4,2.86.54,1,.13,1.66.16.99.03.67.18,4.23.34,2.11.3,1.2.07,2.36.07,3.22.02l-1.53-.02c4.03-.03,6.2-.27,8.75-.75-.49.06-.97.12-1.46.17,2.36-.32,4.3-.75,5.24-.84-.79.19-1.59.36-2.39.52,3.88-.74,6.18-1.41,9.29-2.51l-1.12.37c.98-.35,3.04-1.07,5.5-2.2,2.46-1.12,5.33-2.62,8.07-4.35,1.37-.87,2.71-1.79,3.95-2.79,1.24-.97,2.38-2.17,3.19-3.24,1.66-2.14,2.71-3.95,3.18-4.82-.33.5-.67,1-1.02,1.48.58-.95,1.13-1.91,1.62-2.95-.17.37-.52,1.59-.72,1.86.23-.39.52-.88.83-1.49.32-.61.66-1.38.96-2.19.3-.82.59-1.73.86-2.72.26-1,.53-2.04.68-3.31-.03-1.61,1.65-3.33,3.54-4.71.95-.68,2.06-1.27,3.21-1.89,1.15-.61,2.34-1.2,3.53-1.79,4.78-2.33,9.59-4.47,13.68-5.98,4.08-1.54,7.34-2.61,8.85-3.08,2.45-.73.48,0,.46.02,2.96-.95,1.25-.5,3.79-1.23.7-.18-.12.11-.51.23,1.11-.33,2.15-.57,2.22-.64-1.4.34-.84.07-1.45.17,1.09-.3,2.18-.59,3.27-.83l-.13.1c.74-.16,1.75-.64,5.09-1.02,2.81-.34,5.72-.62,8.68-.75,2.99-.17,5.98-.4,8.85-.69-.09.05-1.29.2-2.5.33.77-.06,1.94-.19,2.66-.23-1.4.07,2.41-.31,1.32-.22,2.11-.31,4.55-.75,6.85-1.24,2.32-.49,4.56-1.01,6.38-1.62.07-.07.54-.38,1.24-.96.65-.61,1.3-1.46,1.7-2.37.4-.91.51-1.83.43-2.43-.08-.61-.27-.93-.31-.93.09-.75-.19-1.48-.27-1.71.01.1.19.51.24.99.07.48-.01,1.04-.13,1.43l.04.17c-.35.91-.54.97-.6,1.06-.1.07-.1.19-.89.88-.08,0,.29-.29.68-.8.39-.51.76-1.24.83-1.94-.13,1.29-1.27,2.35-1.69,2.77-.59.41-.58.36-.59.34,0-.01-.02-.02-.13.03-.06.03-.13.07-.24.12-.16.09-.13.06-.36.15-1.23.48-3.29,1.08-5.03,1.42l.03-.02c-2.13.45-3.77.8-5.34,1.11-1.56.31-3.09.51-5.1.67l.43-.07c-1.41.1-4.19.41-6.75.53.73-.03,1.37-.02-.17.1-2.9.12-5.04.27-7.22.44l-2.09.3c-1.31.16-3.06.35-5.27.77-2.19.44-4.62,1.1-7.27,1.91-5.28,1.63-11.34,3.77-17.31,6.36-2.96,1.3-5.88,2.67-8.67,4.06-1.4.7-2.75,1.39-4.08,2.13-.65.37-1.36.77-1.99,1.23-.64.45-1.24.92-1.8,1.44-1.12,1.04-2.13,2.17-2.77,3.71-.15.39-.28.81-.34,1.27-.03.29-.06.58-.09.87-.07.49-.17,1-.29,1.48-.46,1.95-1.03,3.59-1.5,4.64l.13-.34c-.67,1.59-1.84,3.48-3.2,5.36-.69.93-1.44,1.9-2.25,2.69-.83.8-1.85,1.59-2.93,2.35-2.18,1.52-4.64,2.94-7.22,4.23-2.59,1.3-5.3,2.43-8.11,3.33-5.62,1.79-11.57,2.79-16.95,2.78-2.7,0-5.17-.34-7.49-.93-2.31-.59-4.42-1.32-6.2-2.11-.74-.36-1.56-.78-2.36-1.26-.4-.24-.8-.49-1.16-.76-.19-.13-.36-.27-.52-.4l-.32-.26c-.19-.15-.39-.29-.58-.41l-1.4,2.94c.37.16.65.19.94.2v-2.19c0-.07,0-.13.02-.18.02-.08.04-.03.1-.2.05-.12.12-.24.19-.34.04-.05.08-.1.13-.14l.07-.06h0s-.03-.05-.06-.07l-.1-.14c-.15-.2-.31-.5-.45-.78.27.56.35.68.3.65-.05-.04-.23-.29-.44-.76-.75-1.64-1.01-2.67-1.17-3.14-.1-.32-.11-.49-.14-.52-.01-.06-.06-.13-.14-.64-.07-.5-.26-1.47-.08-3.26.12-1.03.41-2.41,1.2-3.92.4-.77.88-1.51,1.53-2.35.64-.83,1.34-1.68,2.13-2.51,1.56-1.67,3.5-3.25,5.68-4.74,2.21-1.48,4.52-3.04,6.9-4.16,9.81-4.89,21.03-4.38,25.09-4.53,2.06-.08,4.35-.07,6.63.04,1.14.06,2.27.14,3.36.26.54.06,1.07.13,1.57.22.26.05.51.1.77.15.45.07.9.14,1.34.21,0-.51,0-.99,0-1.47.05-.16.15-.17.22-.26l.03-.03h.01s0-.02.01-.01l.09.15.37.59.19.29c.06.09.15.24.13.19l.09-.1s.07-.05.09-.1c-.02.08-.09.1-.13.16l-.03.04-.02.02s-.08-.12-.11-.17l-.55-.87-.12-.19h-.01s-.02.03-.02.03l-.04.04-.08.08.09-.08.04-.04.02-.02.29.45.32.51.16.26c.05.08.03.01.04.02l.08-.09.02-.02s.03.01.03,0l.03-.06.07-.11c-.02-.06.11.08.09.04l.03-.02.05-.04.11-.08c.08-.06.16-.11.25-.18.35-.24.78-.53,1.27-.84.98-.62,2.21-1.37,3.6-2.18,1.39-.82,2.94-1.7,4.57-2.62,1.64-.93,3.33-1.81,5.1-2.71,3.52-1.78,7.09-3.55,10.08-4.97,2.97-1.4,5.44-2.42,6.68-2.96l-.68.27c4.34-1.86,3.8-1.48,7.3-2.77-.51.04,3.28-1.41,4.74-1.91l-.05.05c2.19-.79,7.19-2.52,10.9-3.57l-.13.11c3.06-.99,8.93-2.38,11.19-2.83,1.29-.26,2.76-.52,4.34-.77.79-.12,1.61-.22,2.45-.33.82-.1,1.67-.16,2.55-.2,1.75-.08,3.58-.09,5.38-.02.9.04,1.79.1,2.63.2.42.05.82.12,1.16.2.24.06.67.24,1.01.4,1.19.68,2.32,1.58,3.26,2.58.15.13.29.27.44.41,0,0,.35.17.88.42.49.23,1.05.52,1.49.68.43.15.82.09.78-.67-.07-.79-.7-2.23-2.6-3.95l.17.05c-.52-.43-1.07-.83-1.64-1.19-1.01-.68-1.86-1.07-2.42-1.28-.67-.24-.94-.27-.83-.28.27.06.72.2.95.31.27.11.54.23.79.36.51.26,1,.54,1.47.85-2.13-1.27-.6-.46.22.03-.86-.57-1.75-1.06-2.56-1.41-.29-.09-.16-.04.03.04.19.09.49.21.66.31-.15-.07-.32-.14-.5-.21l-.27-.11c-.11-.04-.23-.07-.35-.11-.48-.14-.88-.2-1.3-.26-.83-.11-1.65-.18-2.41-.24-2.37-.12-.15-.15-2.9-.22-1.81-.01-3.61.03-5.43.19-1.84.19-3.57.46-5.33.76-3.49.62-6.92,1.4-10.32,2.27-6.81,1.75-13.51,3.88-20.25,6.38-.32.09.05-.05.43-.2-4.05,1.54-7.62,2.98-11.22,4.63-1.01.41-1.32.52-1.62.62.29-.12-4.6,2.24-9.53,4.75-1.24.64-2.48,1.28-3.65,1.88-1.19.62-2.28,1.24-3.2,1.76-1.86,1.06-3.13,1.78-3.21,1.83Z"/>
        </g>
      </g>
      <g class="h">
        <g>
          <g>
            <path class="i" d="M119.32,125.41c-.34-.09-.72-.18-1.14-.29-.43-.07-.91-.15-1.4-.23-.5-.07-1.03-.15-1.56-.23-.53-.05-1.08-.09-1.61-.14.82.11,1.67.18,2.61.35.93.15,1.95.26,3.11.54Z"/>
            <path class="i" d="M113.57,124.52s-.02,0-.03,0c.03,0,.05,0,.08,0-.02,0-.03,0-.04,0Z"/>
            <path class="i" d="M122.34,129.08c.63-.11,1.33-.31,2.01-.58-.65.26-1.35.45-2.01.58Z"/>
            <path class="i" d="M32.53,101.53l-.13-.32c.04-4.95.17-1.44.17-6.02-.18-1.79.08-7.6,0-9.19,0,0,0-.12.01-.33,0-.2.01-.47.02-.74.02-.54.04-1.06.07-.99-.1-.69,0-2.31-.01-3.72-.02-.51-.04.38-.07.76v-3.24c.05-1.27.11-1.58.11-.2.07-4.23.24-16.5.62-28.83.35-12.34,1-24.73,1.25-29.27-.14,1.16-.26,3.97-.43,5.03.05-2.41.22-3.53.21-4.6.23-.91.37-5.27.68-7.08l-.03-.33s-.03-.01-.04-.02c.04-.13.1-.13.15-.18.06-.09.3-.24.62-.34.31-.1.67-.17,1-.21.66-.08,1.21-.1,1.62-.11.86,0,1.12-.01,1.34-.01.46,0,.76,0,5.46.04,5.44-.02,8.03-.16,11.05-.11-.45,0-1.65-.07-.24-.09.24.09,3.75-.07,4.44.03,1.38-.01,5.85,0,4.34-.13.76.06,4.75.09,2.37.14,1.35,0,2.65.02,3.62,0l-1.73-.03c4.55-.02,7.02.08,9.98-.03l-1.68-.05c2.72,0,4.99-.02,6.06.11l-2.79.04c4.51,0,7.23-.01,10.98-.08h-1.34c2.39-.07,9.85-.12,17.26-.18,3.7-.03,7.4-.07,10.44-.09.76,0,1.48-.02,2.15-.03.36-.01.62,0,.87.01.26,0,.5.04.73.07.92.15,1.61.4,2.03.6-.49-.3-1.03-.5-1.58-.67,1.05.22,2.06.67,2.94,1.32-.3-.28-1.47-.58-1.74-.72.76.33,1.93.99,2.9,2.3.48.65.91,1.44,1.17,2.37.28.94.28,1.89.27,3.28,0,5.22.01,11.5.02,17.76,0,12.52-.02,24.96-.02,28.72-.05,3.03-.15.54-.17.51.04,3.69.1,1.59.09,4.72-.02.86-.08-.18-.09-.66.01,1.37-.02,2.65.02,2.75.03-1.72.15-.99.23-1.72v4.03s-.09-.18-.09-.18c0,.9.21,2.28.17,6.24,0,6.68-.02,13.93-.02,20.65-.05-.1-.07-1.51-.1-2.93,0,.9,0,2.27-.02,3.1.08-1.62.05,2.82.09,1.55.09,2.46.1,5.28.09,8.03,0,1.37,0,2.73,0,4.02-.02,1.28.07,2.55-.02,3.41.03.09.17.65.17,1.51.01.86-.17,2.04-.65,3.17-.47,1.14-1.24,2.21-1.95,2.93-.7.73-1.29,1.14-1.27,1.19-1.54.6-3.19.68-3.68.65.21.02,1.12.03,2.17-.19,1.05-.21,2.21-.68,2.94-1.12l.2-.24c.83-.51,1.24-.88,1.49-1.09.24-.2.33-.27.42-.35.09-.07.17-.13.39-.36.22-.23.6-.61,1.12-1.41.09-.07-.31.68-1.17,1.59-.85.92-2.21,1.93-3.68,2.5,1.32-.51,2.51-1.3,3.38-2.13.88-.82,1.44-1.66,1.7-2.16.68-1.13.62-1.09.65-1.06.01,0,.03,0,.13-.19.1-.19.28-.57.52-1.35.15-.56.27-1.17.33-1.81.03-.32.04-.65.04-.98,0-.28,0-.57-.01-.85-.02-1.11-.03-2.26,0-3.33l.02.04c.09-5.2-.13-7.95-.04-12.7l.03.51c.05-1.68-.02-4.98.04-8.01-.02.86-.08,1.61-.09-.21.05-3.48,0-5.86.07-8.4l-.08-2.44c0-6.06-.03-21.06-.05-36.07-.02-7.5-.03-15.01-.04-21.4,0-1.6,0-3.13,0-4.57,0-.72,0-1.42,0-2.09,0-.34,0-.67,0-1-.02-.39-.03-.78-.07-1.15-.35-3.04-1.92-5.22-3.25-6.44.15.12.29.25.42.39-.97-1.01-2.2-1.91-3.67-2.48-.73-.28-1.51-.52-2.33-.63-.41-.08-.82-.09-1.24-.11-.46-.03-.73,0-1.11-.01-2.85,0-5.94,0-9.18.01-6.48,0-13.58.02-20.7.02-14.24.04-28.55.08-38.14.1-2.97-.08-7.06-.06-10.15-.09,1.72.03,1.13.09-.21.09-2.34,0-3.6,0-4.35.06-.73.06-.83.1-.92.12-.11.04-.19.02-.99.23-.4.13-1,.25-1.88.85-.43.29-.92.8-1.27,1.48-.08.17-.17.35-.23.54-.05.18-.1.38-.15.62-.03.11-.02.24-.03.34v.21c-.02.14-.03.28-.04.43-.35,5.49-1.11,18.75-1.52,31.85-.43,13.11-.63,26.06-.73,30.93.06,5.24-.1,11.78-.06,16.91l-.02-.52c-.01,1.38-.03,4.36-.06,8.16-.02,1.9-.04,4-.06,6.21,0,.55-.01,1.11-.02,1.67-.01.24.02.41.04.55l.05.45.1.9c.07.6.14,1.2.21,1.81l.42,1.8c.51,2.42,1.62,4.73,2.89,6.8,1.44,1.96,3.06,3.72,4.83,4.88.43.3.84.62,1.27.88.44.24.86.46,1.27.68.41.21.8.44,1.19.62.4.16.78.31,1.14.46,1.44.63,2.65.92,3.45,1.16l-.86-.27c.7.19,1.31.38,1.83.51.53.11.98.21,1.38.29.79.16,1.37.33,1.9.4.54.09,1.04.18,1.68.29.65.13,1.44.23,2.56.32-.29-.1.79-.03,2.17,0,1.38.01,3.06.09,3.98.06l-.07.03c2.8.07,9.09-.3,13.63-.71l-.17.09c3.81-.37,10.89-1.06,13.6-1.33,6.19-.56,15.75-1.48,23.91-1.24,1.75.16,3.49.35,5.18.69l.75.08s.48-.08,1.19-.19c.65-.12,1.44-.3,1.91-.57.47-.24.63-.61-.02-1.08-.66-.46-2.15-1.12-4.96-1.6l.19-.05c-.75-.1-1.49-.12-2.23-.19-2.67-.23-3.9-.1-3.72-.2,1.22.05,2.43.05,3.66.18-2.69-.21-.81-.13.22-.09-1.13-.12-2.21-.15-3.1-.2-.53.01.39.04.8.07-.72,0-1.59-.02-2.49-.01-.9.02-1.83.04-2.71.03-2.72.07-.18-.12-3.35-.02-8.35.38-16.45,1.33-24.54,2.04-8.07.68-16.2,1.31-24.26.53-.36-.06.07-.02.54,0-4.84-.42-9.09-1.33-12.81-3.28-.5-.29-.82-.48-1.05-.62-.22-.15-.33-.28-.46-.38.06.06-.17-.11-.65-.43-.23-.17-.54-.36-.87-.61-.3-.28-.64-.61-1.02-.96-1.48-1.44-3.17-3.77-4.03-6.6-.36-1.43-.79-2.86-.88-4.31-.04-.36-.08-.71-.12-1.05-.02-.17-.04-.34-.06-.5-.01-.12,0,0,0-.13v-.27c0-.71.01-1.38.02-2,.03-2.49.04-4.19.04-4.3Z"/>
          </g>
          <g>
            <path class="f" d="M48.13,2.16v16.69M63.96,2.16v16.69M79.79,2.16v16.69M95.63,2.16v16.69M111.46,2.16v16.69"/>
            <g>
              <path class="g" d="M48.13,2.16v16.69M63.96,2.16v16.69M79.79,2.16v16.69M95.63,2.16v16.69M111.46,2.16v16.69"/>
              <g>
                <path class="i" d="M109.82,2.22c-.08.05-.09.14-.1.22.08-.06.11-.13.1-.22Z"/>
                <polygon class="i" points="109.71 2.45 109.71 2.45 109.71 2.45 109.71 2.45"/>
                <path class="i" d="M113.38,18.79s0-.05,0-.07c0,.02,0,.05,0,.07Z"/>
                <path class="i" d="M109.48,6.53h.14c0,.21-.16.07-.12.26.19.07-.02.31.08.37-.02,0-.02.09-.08.08.1.03.02.09.05.15.03.02.03-.02.06-.03l.04.13c-.03.05-.1.06-.11,0-.04.34-.14,1.98-.09,2.35.08-.05.03-.16.15-.2.07.1-.02.14.05.19-.18.04-.04.21-.23.29l.1.03-.06.05c.11.43.05.1.03.48.02.22.16.32.11.45,0-.02.07-.07.09,0-.09,0,.07.15-.03.18.01.06,0,.24.13.18-.06.03-.09.19-.14.1,0,.05-.02.11,0,.15l.03-.07c.02.18-.08.28.03.4l.05-.07c0,.11.02.2-.11.24l-.04-.11c0,.18.01.29.08.44v-.05c.13.19.23,1.2.38,1.38l.1-.08.08.15s-.31-.07-.28-.09c0,.33.08,2.03.02,2.34-.05.12-.15.02-.17.02.04.15.1.06.09.19-.02.03-.08,0-.09-.03.01.06-.02.11.02.11.03-.07.15-.04.23-.07v.16s-.09,0-.09,0c0,.04.21.09.17.25-.03.27,0,.56-.02.83-.05,0-.07-.06-.1-.12,0,.04,0,.09-.02.13.08-.07.05.11.09.06.18.2.02.46.14.63.17.02,2.85.38,3.04.38,0,.05,0,.11-.02.13.05-.01.07-.12.04-.18h-.11c-.04-.14.06-.04.06-.17.09,0,.1.11.11.21.01-.09.07-.19-.02-.22.04-.09.11,0,.14-.1-.03-.08-.11-.17-.06-.26h.02c.09-.21-.13-.32-.04-.51l.03.02c.05-.07-.02-.2.04-.32-.02.03-.08.07-.09,0,.05-.14,0-.24.07-.34l-.08-.1c.02-.49-.1-2.42-.12-2.91v.02c-.03-.75-.02-2.28-.14-3.06.08-.12.06-.28.09-.41-.03.07-.09.05-.09,0,0-.38-.06-.03-.09-.41-.08-.44.01-2.14.08-2.53-.12-.21-.03-.47-.11-.68l.03.02c-.05-.22.07-1.48.02-1.74l-.02.03c-.08-.23.06-.19.1-.37-.14.02-.22-.17-.23-.24h.03c-.02-.11-.14-.36-.16-.54h.08c-.08-.15-.05-.43-.06-.54.03-.25.16-.64.06-.97l.21-.22-.02-.03s-2.59-.35-3.15.09h-.08s0,.08,0,.08c-.04.11.05.15-.02.15v-.14c-.01.11-.05.03-.1,0,0,.04-.02.09-.04.12.03.02.03-.02.05-.03.03.06.1.14.06.21,0,.11-.12,0-.13.13-.06.67-.15,1.31-.13,1.99-.03.02-.03,0-.04-.02.03.2.02.38.05.57-.03.05-.08.07-.11.08.06-.03.07,1.02.05,1.04Z"/>
              </g>
              <g>
                <path class="i" d="M93.98,2.22c-.08.05-.09.14-.1.22.08-.06.11-.13.1-.22Z"/>
                <polygon class="i" points="93.88 2.45 93.88 2.45 93.88 2.45 93.88 2.45"/>
                <path class="i" d="M97.55,18.79s0-.05,0-.07c0,.02,0,.05,0,.07Z"/>
                <path class="i" d="M93.64,6.53h.14c0,.21-.16.07-.12.26.19.07-.02.31.08.37-.02,0-.02.09-.08.08.1.03.02.09.05.15.03.02.03-.02.06-.03l.04.13c-.03.05-.09.06-.11,0-.04.34-.14,1.98-.09,2.35.08-.05.03-.16.15-.2.07.1-.02.14.05.19-.18.04-.04.21-.23.29l.1.03-.06.05c.11.43.05.1.03.48.02.22.16.32.11.45,0-.02.07-.07.09,0-.09,0,.07.15-.03.18.01.06,0,.24.13.18-.06.03-.09.19-.14.1,0,.05-.02.11,0,.15l.03-.07c.02.18-.08.28.03.4l.05-.07c0,.11.02.2-.11.24l-.04-.11c0,.18.01.29.08.44v-.05c.13.19.23,1.2.38,1.38l.1-.08.08.15s-.31-.07-.28-.09c0,.33.08,2.03.02,2.34-.05.12-.15.02-.17.02.04.15.1.06.09.19-.02.03-.08,0-.09-.03.01.06-.02.11.02.11.03-.07.15-.04.23-.07v.16s-.09,0-.09,0c0,.04.21.09.17.25-.03.27,0,.56-.02.83-.05,0-.07-.06-.1-.12,0,.04,0,.09-.02.13.08-.07.05.11.09.06.18.2.02.46.14.63.17.02,2.85.38,3.04.38,0,.05,0,.11-.02.13.05-.01.07-.12.04-.18h-.11c-.04-.14.06-.04.06-.17.09,0,.1.11.11.21.01-.09.07-.19-.02-.22.04-.09.11,0,.14-.1-.03-.08-.11-.17-.06-.26h.02c.09-.21-.13-.32-.04-.51l.03.02c.05-.07-.02-.2.04-.32-.02.03-.08.07-.09,0,.05-.14,0-.24.07-.34l-.08-.1c.02-.49-.1-2.42-.12-2.91v.02c-.03-.75-.02-2.28-.14-3.06.08-.12.06-.28.09-.41-.03.07-.09.05-.09,0,0-.38-.06-.03-.09-.41-.08-.44.01-2.14.08-2.53-.12-.21-.03-.47-.11-.68l.03.02c-.05-.22.07-1.48.02-1.74l-.02.03c-.08-.23.06-.19.1-.37-.14.02-.22-.17-.23-.24h.03c-.02-.11-.14-.36-.16-.54h.08c-.08-.15-.05-.43-.06-.54.03-.25.16-.64.06-.97l.21-.22-.02-.03s-2.59-.35-3.15.09h-.08s0,.08,0,.08c-.04.11.05.15-.02.15v-.14c-.01.11-.05.03-.1,0,0,.04-.02.09-.04.12.03.02.03-.02.05-.03.03.06.1.14.06.21,0,.11-.12,0-.13.13-.06.67-.15,1.31-.13,1.99-.03.02-.03,0-.04-.02.03.2.02.38.05.57-.03.05-.08.07-.11.08.06-.03.07,1.02.05,1.04Z"/>
              </g>
              <g>
                <path class="i" d="M78.15,2.22c-.08.05-.09.14-.1.22.08-.06.11-.13.1-.22Z"/>
                <polygon class="i" points="78.05 2.45 78.05 2.45 78.05 2.45 78.05 2.45"/>
                <path class="i" d="M81.72,18.79s0-.05,0-.07c0,.02,0,.05,0,.07Z"/>
                <path class="i" d="M77.81,6.53h.14c0,.21-.16.07-.12.26.19.07-.02.31.08.37-.02,0-.02.09-.08.08.1.03.02.09.05.15.03.02.03-.02.06-.03l.04.13c-.03.05-.09.06-.11,0-.04.34-.14,1.98-.09,2.35.08-.05.03-.16.15-.2.07.1-.02.14.05.19-.18.04-.04.21-.23.29l.1.03-.06.05c.11.43.05.1.03.48.02.22.16.32.11.45,0-.02.07-.07.09,0-.09,0,.07.15-.03.18.01.06,0,.24.13.18-.06.03-.09.19-.14.1,0,.05-.02.11,0,.15l.03-.07c.02.18-.08.28.03.4l.05-.07c0,.11.02.2-.11.24l-.04-.11c0,.18.01.29.08.44v-.05c.13.19.23,1.2.38,1.38l.1-.08.08.15s-.31-.07-.28-.09c0,.33.08,2.03.02,2.34-.05.12-.15.02-.17.02.04.15.1.06.09.19-.02.03-.08,0-.09-.03.01.06-.02.11.02.11.03-.07.15-.04.23-.07v.16s-.09,0-.09,0c0,.04.21.09.17.25-.03.27,0,.56-.02.83-.05,0-.07-.06-.1-.12,0,.04,0,.09-.02.13.08-.07.05.11.09.06.18.2.02.46.14.63.17.02,2.85.38,3.04.38,0,.05,0,.11-.02.13.05-.01.07-.12.04-.18h-.11c-.04-.14.06-.04.06-.17.09,0,.1.11.11.21.01-.09.07-.19-.02-.22.04-.09.11,0,.14-.1-.03-.08-.11-.17-.06-.26h.02c.09-.21-.13-.32-.04-.51l.03.02c.05-.07-.02-.2.04-.32-.02.03-.08.07-.09,0,.05-.14,0-.24.07-.34l-.08-.1c.02-.49-.1-2.42-.12-2.91v.02c-.03-.75-.02-2.28-.14-3.06.08-.12.06-.28.09-.41-.03.07-.09.05-.09,0,0-.38-.06-.03-.09-.41-.08-.44.01-2.14.08-2.53-.12-.21-.03-.47-.11-.68l.03.02c-.05-.22.07-1.48.02-1.74l-.02.03c-.08-.23.06-.19.1-.37-.14.02-.22-.17-.23-.24h.03c-.02-.11-.14-.36-.16-.54h.08c-.08-.15-.05-.43-.06-.54.03-.25.16-.64.06-.97l.21-.22-.02-.03s-2.59-.35-3.15.09h-.08s0,.08,0,.08c-.04.11.05.15-.02.15v-.14c-.01.11-.05.03-.1,0,0,.04-.02.09-.04.12.03.02.03-.02.05-.03.03.06.1.14.06.21,0,.11-.12,0-.13.13-.06.67-.15,1.31-.13,1.99-.03.02-.03,0-.04-.02.03.2.02.38.05.57-.03.05-.08.07-.11.08.06-.03.07,1.02.05,1.04Z"/>
              </g>
              <g>
                <path class="i" d="M62.32,2.22c-.08.05-.09.14-.1.22.08-.06.11-.13.1-.22Z"/>
                <polygon class="i" points="62.21 2.45 62.21 2.45 62.22 2.45 62.21 2.45"/>
                <path class="i" d="M65.89,18.79s0-.05,0-.07c0,.02,0,.05,0,.07Z"/>
                <path class="i" d="M61.98,6.53h.14c0,.21-.16.07-.12.26.19.07-.02.31.08.37-.02,0-.02.09-.08.08.1.03.02.09.05.15.03.02.03-.02.06-.03l.04.13c-.03.05-.09.06-.11,0-.04.34-.14,1.98-.09,2.35.08-.05.03-.16.15-.2.07.1-.02.14.05.19-.18.04-.04.21-.23.29l.1.03-.06.05c.11.43.05.1.03.48.02.22.16.32.11.45,0-.02.07-.07.09,0-.09,0,.07.15-.03.18.01.06,0,.24.13.18-.06.03-.09.19-.14.1,0,.05-.02.11,0,.15l.03-.07c.02.18-.08.28.03.4l.05-.07c0,.11.02.2-.11.24l-.04-.11c0,.18.01.29.08.44v-.05c.13.19.23,1.2.38,1.38l.1-.08.08.15s-.31-.07-.28-.09c0,.33.08,2.03.02,2.34-.05.12-.15.02-.17.02.04.15.1.06.09.19-.02.03-.08,0-.09-.03.01.06-.02.11.02.11.03-.07.15-.04.23-.07v.16s-.09,0-.09,0c0,.04.21.09.17.25-.03.27,0,.56-.02.83-.05,0-.07-.06-.1-.12,0,.04,0,.09-.02.13.08-.07.05.11.09.06.18.2.02.46.14.63.17.02,2.85.38,3.04.38,0,.05,0,.11-.02.13.05-.01.07-.12.04-.18h-.11c-.04-.14.06-.04.06-.17.09,0,.1.11.11.21.01-.09.07-.19-.02-.22.04-.09.11,0,.14-.1-.03-.08-.11-.17-.06-.26h.02c.09-.21-.13-.32-.04-.51l.03.02c.05-.07-.02-.2.04-.32-.02.03-.08.07-.09,0,.05-.14,0-.24.07-.34l-.08-.1c.02-.49-.1-2.42-.12-2.91v.02c-.03-.75-.02-2.28-.14-3.06.08-.12.06-.28.09-.41-.03.07-.09.05-.09,0,0-.38-.06-.03-.09-.41-.08-.44.01-2.14.08-2.53-.12-.21-.03-.47-.11-.68l.03.02c-.05-.22.07-1.48.02-1.74l-.02.03c-.08-.23.06-.19.1-.37-.14.02-.22-.17-.23-.24h.03c-.02-.11-.14-.36-.16-.54h.08c-.08-.15-.05-.43-.06-.54.03-.25.16-.64.06-.97l.21-.22-.02-.03s-2.59-.35-3.15.09h-.08s0,.08,0,.08c-.04.11.05.15-.02.15v-.14c-.01.11-.05.03-.1,0,0,.04-.02.09-.04.12.03.02.03-.02.05-.03.03.06.1.14.06.21,0,.11-.12,0-.13.13-.06.67-.15,1.31-.13,1.99-.03.02-.03,0-.04-.02.03.2.02.38.05.57-.03.05-.08.07-.11.08.06-.03.07,1.02.05,1.04Z"/>
              </g>
              <g>
                <path class="i" d="M46.49,2.22c-.08.05-.09.14-.1.22.08-.06.11-.13.1-.22Z"/>
                <polygon class="i" points="46.38 2.45 46.38 2.45 46.38 2.45 46.38 2.45"/>
                <path class="i" d="M50.05,18.79s0-.05,0-.07c0,.02,0,.05,0,.07Z"/>
                <path class="i" d="M46.15,6.53h.14c0,.21-.16.07-.12.26.19.07-.02.31.08.37-.02,0-.02.09-.08.08.1.03.02.09.05.15.03.02.03-.02.06-.03l.04.13c-.03.05-.09.06-.11,0-.04.34-.14,1.98-.09,2.35.08-.05.03-.16.15-.2.07.1-.02.14.05.19-.18.04-.04.21-.23.29l.1.03-.06.05c.11.43.05.1.03.48.02.22.16.32.11.45,0-.02.07-.07.09,0-.09,0,.07.15-.03.18.01.06,0,.24.13.18-.06.03-.09.19-.14.1,0,.05-.02.11,0,.15l.03-.07c.02.18-.08.28.03.4l.05-.07c0,.11.02.2-.11.24l-.04-.11c0,.18.01.29.08.44v-.05c.13.19.23,1.2.38,1.38l.1-.08.08.15s-.31-.07-.28-.09c0,.33.08,2.03.02,2.34-.05.12-.15.02-.17.02.04.15.1.06.09.19-.02.03-.08,0-.09-.03.01.06-.02.11.02.11.03-.07.15-.04.23-.07v.16s-.09,0-.09,0c0,.04.21.09.17.25-.03.27,0,.56-.02.83-.05,0-.07-.06-.1-.12,0,.04,0,.09-.02.13.08-.07.05.11.09.06.18.2.02.46.14.63.17.02,2.85.38,3.04.38,0,.05,0,.11-.02.13.05-.01.07-.12.04-.18h-.11c-.04-.14.06-.04.06-.17.09,0,.1.11.11.21.01-.09.07-.19-.02-.22.04-.09.11,0,.14-.1-.03-.08-.11-.17-.06-.26h.02c.09-.21-.13-.32-.04-.51l.03.02c.05-.07-.02-.2.04-.32-.02.03-.08.07-.09,0,.05-.14,0-.24.07-.34l-.08-.1c.02-.49-.1-2.42-.12-2.91v.02c-.03-.75-.02-2.28-.14-3.06.08-.12.06-.28.09-.41-.03.07-.09.05-.09,0,0-.38-.06-.03-.09-.41-.08-.44.01-2.14.08-2.53-.12-.21-.03-.47-.11-.68l.03.02c-.05-.22.07-1.48.02-1.74l-.02.03c-.08-.23.06-.19.1-.37-.14.02-.22-.17-.23-.24h.03c-.02-.11-.14-.36-.16-.54h.08c-.08-.15-.05-.43-.06-.54.03-.25.16-.64.06-.97l.21-.22-.02-.03s-2.59-.35-3.15.09h-.08s0,.08,0,.08c-.04.11.05.15-.02.15v-.14c-.01.11-.05.03-.1,0,0,.04-.02.09-.04.12.03.02.03-.02.05-.03.03.06.1.14.06.21,0,.11-.12,0-.13.13-.06.67-.15,1.31-.13,1.99-.03.02-.03,0-.04-.02.03.2.02.38.05.57-.03.05-.08.07-.11.08.06-.03.07,1.02.05,1.04Z"/>
              </g>
            </g>
          </g>
          <g>
            <path class="i" d="M59.85,51.98c-.08.51-.09,1.38-.1,2.2.08-.64.11-1.31.1-2.2Z"/>
            <polygon class="i" points="59.75 54.2 59.75 54.21 59.75 54.19 59.75 54.2"/>
            <path class="i" d="M61.74,49.43c-.16-.06-.33-.15-.51-.25.16.09.33.19.51.25Z"/>
            <path class="i" d="M88.51,71.85l.13-.14c1.96,0,.57.16,2.38.12.18-.05.45-.07.78-.08.41-.02.9-.03,1.38-.11.95-.14,1.87-.47,2.2-.71,0,.05,1-.53.97-.45.24-.28.96-.71,1.43-1.27.15-.22-.14.13-.32.23.39-.39.73-.82,1.04-1.28.37-.52.51-.64.15-.03.29-.46.72-1.15,1.03-2.11.15-.48.27-1.02.34-1.61.02-.29.03-.59.05-.9,0-.24,0-.49,0-.74.01-2.03.03-4.47.04-6.91,0-1.08.01-2.15.01-3.19,0,0,0-.01.01-.01,0,0,0,0,0,0h0s.1-.05.1-.05l.42-.23c.27-.17.53-.34.79-.5,2.02-1.39,3.2-3.04,3.74-3.94-.33.44-1.09,1.5-1.52,1.78.68-.87,1.04-1.26,1.25-1.71.44-.23,1.24-2.1,1.64-2.86,0-.11,0-.22,0-.34l.21-.52c.51-2.42.3-2.73.36-2.93-.02-.21.13-.36-.13-2.53-.2-1.25-.57-2.12-.88-2.84-.35-.71-.64-1.28-1-1.88.11.18.34.68-.02.14.05-.17-1.01-1.39-1.15-1.67-.22-.22-.65-.75-1.04-1.07-.38-.33-.65-.53-.44-.25-.18-.31-1.67-1.38-.75-.79-.48-.39-1-.69-1.39-.9l.66.44c-1.78-1.06-2.86-1.52-4.2-1.72l.73.24c-.6-.16-1.15-.29-1.62-.35-.47-.1-.84-.15-1.08-.22.43,0,.85.05,1.28.11-2.04-.29-3.36-.22-5.03.24l.6-.13c-.12.03-.27.07-.44.11-.16.04-.41.12-.44.13-.09.04-.14.07-.24.13-.04-.05-.09-.12-.17-.21-.16-.21-.33-.43-.5-.65-.2-.23-.41-.47-.62-.71-.88-.93-1.94-1.75-3.03-2.35-2.19-1.24-4.4-1.5-5.15-1.5.3.06.59.12.88.22-.55-.07-1.11-.11-1.66-.09.19,0,.83-.26.99-.21-1.01-.11-3.39-.27-6.04.8-1.31.52-2.66,1.31-3.82,2.38-.59.52-1.13,1.12-1.61,1.75l-.35.48-.1.15c-.07.1-.1.19-.16.27-.16-.06-.25-.1-.47-.16-.55-.14-1.11-.25-1.65-.32-1.09-.14-2.12-.08-3.03.02-1.82.23-3.17.78-3.81,1.09-1.24.54-.29-.03-.28-.05-.75.37-.86.54-.98.62-.11.11-.23.14-.79.56-.32.22.02-.11.19-.25-.49.38-.98.69-.97.77.63-.45.45-.15.75-.29-.49.34-.93.75-1.37,1.15v-.11c-.27.3-.6.83-1.62,2.23-1.7,2.43-2.36,5.77-1.94,8.7-.04-.04-.18-.65-.22-1.28,0,.4.1,1.01.11,1.38-.04-.72.28,1.22.22.66.31,1.05.73,2.22,1.3,3.28.56,1.07,1.28,2.02,1.98,2.67.12,0,1.34.25,2.47.18,1.14-.03,2.14-.34,2.18-.43.37.22.77.36.89.44l-1.97.42s.02-.02.02-.02c0,0-.01,0-.03.02l1.98-.42c-.14-.1-.87-.45-1.26-.66l-.12.05c-.93-.55-.19-.18-1.04-.79.01-.1.77.49,1.52.86-.67-.36-1.23-.87-1.52-.99-.51-.5.12-.02-.48-.62-.46-.39-1.03-.96-1.37-1.58h.02c-.43-.73-.72-1.3-.96-1.88-.25-.58-.43-1.17-.5-1.95l.05.16c-.04-.54-.16-1.62.03-2.59-.06.27-.16.51-.08-.08.21-1.12.43-1.87.84-2.59.09-.25.17-.51.29-.75.28-.48.72-1.15,1.39-1.84.67-.68,1.55-1.39,2.64-1.91,1.08-.53,2.35-.88,3.67-.94.66-.06,1.31,0,1.95.11l.48.1.28.07c.17.04.36.11.54.17.72.26,1.45.57,2.14.84.33-.58.64-1.19.97-1.74l.49-.83c.11-.16.17-.24.26-.36.33-.45.7-.86,1.09-1.23.77-.73,1.61-1.28,2.43-1.66,1.64-.77,3.13-.89,4.01-.88-.05,0-.11,0-.16.01,1.3-.01,2.93.24,4.5,1.09.78.42,1.55.98,2.23,1.66.35.34.66.72.95,1.12l.11.15.21.35.43.72c.27.49.55.98.83,1.48.7-.28,1.43-.59,2.14-.85.36-.13.67-.2.79-.23.16-.04.33-.08.49-.11.66-.12,1.32-.18,2-.12,1.35.06,2.67.41,3.82.98,2.34,1.14,3.86,3.16,4.59,4.85.33.94.63,2.29.62,3.33,0-.58.07-.39.09.07.02.79-.04,1.2-.06,1.42-.02.22-.01.25,0,.28,0,.03,0,.06-.02.28-.03.22-.09.64-.34,1.41-.28.88-.95,2.39-2.34,3.75-.34.34-.73.67-1.14.97-.2.16-.43.29-.65.43-.11.08-.23.13-.35.2l-.22.12c-.12.07-.25.13-.38.18l-.75.35-.38.17-.19.09c-.06.03-.15.04-.12.13,0,.56,0,1.12,0,1.68,0,.71,0,1.44,0,2.16-.02,2.59-.03,5.16-.04,7.33,0,.54,0,1.06-.01,1.54,0,.12,0,.24,0,.36l-.02.26c0,.17-.03.33-.06.48-.11.61-.3,1.08-.48,1.39-.29.71-.88,1.41-1.62,1.87-.73.48-1.59.7-2.35.76l.15-.04c-.11,0-.21.02-.42.03-.21,0-.46,0-.73,0-.55,0-1.22,0-1.97,0-1.5,0-3.33-.01-5.16-.02-3.67-.02-7.39-.03-8.65-.01l.34.02c-2.21.08-1.91-.06-3.65-.1.23.14-1.66.22-2.38.23l.03-.03c-.27,0-.63.02-1.04.03-.21,0-.43.02-.65.02-.18,0-.37,0-.57,0-.76-.04-1.58-.31-2.18-.69l.09-.04c-.52-.27-1.19-.83-1.61-1.53-.44-.69-.64-1.44-.69-1.86-.05-.24-.04-.5-.05-.77,0-.35.01-.71.02-1.09.01-.75.03-1.56.04-2.4.02-1.67.03-3.44-.02-5.09l.21-2.13-.02-.31s-2.59-3.43-3.15.92l-.08-.07v.86c-.03,1.03.06,1.51-.02,1.44v-1.41c-.01,1.04-.05.31-.1-.08,0,.43-.02.85-.04,1.2.03.2.03-.15.05-.31.03.56.1,1.33.06,2.01,0,1.06-.12.07-.13,1.31-.02,1.63-.03,3.25-.05,4.87v.31s.01.39.01.39c0,.26.03.52.07.78.07.52.19,1.03.37,1.52.34.99.88,1.91,1.56,2.7,1.37,1.58,3.38,2.62,5.5,2.78.25.01.57.03.76.03h.61s1.22,0,1.22,0c.82,0,1.64,0,2.46,0,.15.03-.03.03-.22.04,1.99-.02,3.75-.04,5.57-.05.5.03.64.08.79.11-.15-.03,2.35-.05,4.91-.06,2.56,0,5.16,0,5.26,0Z"/>
          </g>
          <g>
            <path class="i" d="M61.61,61.06c.11.08.31.09.49.1-.14-.08-.29-.11-.49-.1Z"/>
            <polygon class="i" points="62.11 61.17 62.11 61.16 62.11 61.16 62.11 61.17"/>
            <path class="i" d="M97.97,57.49s-.1,0-.15,0c.05,0,.1,0,.15,0Z"/>
            <path class="i" d="M71.06,61.4l.03-.14c.44,0,.13.16.53.12.16-.19.67.02.81-.08,0,.02.2.02.18.08.06-.1.2-.02.33-.05.05-.03-.03-.03-.07-.06l.29-.04c.11.03.14.09.02.11.75.04,4.35.14,5.15.09-.1-.08-.35-.03-.45-.15.21-.07.31.02.41-.05.08.18.47.04.63.23l.06-.1.11.06c.94-.11.21-.05,1.05-.03.48-.02.71-.16.98-.11-.04,0-.15-.07-.02-.09.02.09.33-.07.39.03.12-.01.52,0,.38-.13.07.06.42.09.21.14.12,0,.23.02.32,0l-.15-.04c.4-.02.62.08.88-.03l-.15-.05c.24,0,.44-.02.54.11l-.25.04c.4,0,.64-.01.97-.08h-.12c.42-.13,2.64-.23,3.03-.38l-.18-.1.34-.08s-.16.31-.2.28c.72,0,4.46-.08,5.13-.02.27.05.05.15.05.17.33-.04.14-.1.42-.09.08.02-.02.08-.06.09.12-.01.23.02.24-.02-.15-.03-.09-.15-.15-.23h.36s-.02.09-.02.09c.08,0,.2-.21.55-.17.59.03,1.23,0,1.83.02,0,.05-.13.07-.26.1.08,0,.2,0,.27.02-.14-.08.25-.05.14-.09.44-.18,1-.02,1.38-.14.03-.17.82-2.85.82-3.04.12,0,.24,0,.27.02-.03-.05-.27-.07-.39-.04l-.02.11c-.29.04-.07-.06-.35-.06-.01-.09.24-.1.47-.11-.2-.01-.41-.07-.49.02-.19-.04.02-.11-.21-.14-.16.03-.38.11-.57.06v-.02c-.46-.09-.7.13-1.12.04l.05-.03c-.15-.05-.44.02-.71-.04.08.02.14.08-.02.09-.31-.05-.52,0-.74-.07l-.22.08c-1.07-.02-5.31.1-6.39.12h.04c-1.64.03-5.01.02-6.71.14-.26-.08-.62-.06-.9-.09.15.03.1.09-.02.09-.83,0-.06.06-.9.09-.97.08-4.69-.01-5.55-.08-.46.12-1.04.03-1.5.11l.05-.03c-.49.05-3.25-.07-3.81-.02l.08.02c-.49.08-.43-.06-.82-.1.05.14-.37.22-.53.23v-.03c-.24.02-.79.14-1.19.16l.02-.08c-.34.08-.97.05-1.21.06-.55-.03-1.4-.16-2.14-.06l-.48-.21-.07.02s-.77,2.59.21,3.15l-.02.08h.19c.23.03.34-.06.32.02h-.32c.23.01.07.05-.02.1.1,0,.19.02.27.04.05-.03-.03-.03-.07-.05.12-.03.3-.1.45-.06.24,0,.02.12.29.13,1.46.06,2.88.15,4.36.13.03.03,0,.03-.05.04.45-.03.84-.02,1.25-.05.11.03.14.08.18.11-.07-.06,2.24-.07,2.28-.05Z"/>
          </g>
          <g>
            <path class="i" d="M41.7,85.35c.24.08.65.09,1.03.1-.3-.08-.62-.11-1.03-.1Z"/>
            <path class="i" d="M42.75,85.46h0s-.01,0-.01,0h0Z"/>
            <path class="i" d="M117.87,81.78c-.1,0-.2,0-.32,0,.11,0,.21,0,.32,0Z"/>
            <path class="i" d="M61.51,85.69l.06-.14c.92,0,.27.16,1.12.12.33-.19,1.41.02,1.7-.08,0,.02.41.02.38.08.13-.1.43-.02.69-.05.1-.03-.07-.03-.14-.06l.6-.04c.24.03.29.1.04.11,1.57.04,9.11.14,10.8.09-.22-.08-.74-.03-.94-.15.45-.07.66.02.86-.05.17.18.98.04,1.32.23l.13-.1.22.06c.98-.05,1.1-.07,1.18-.06.05,0,.09,0,.24.01.38,0,.48-.02.94-.05.98-.09,1.44-.28,2-.25-.08,0-.3-.05-.05-.09.05.09.68-.1.81-.02.25-.03,1.07-.06.78-.17.14.05.87.05.44.12.25,0,.49,0,.66-.03l-.32-.02c.83-.05,1.29.03,1.83-.1l-.31-.04c.5-.03.92-.04,1.11.08l-.51.05c.83-.02,1.33-.04,2.01-.12h-.25c.87-.15,5.49-.26,6.31-.39l-.37-.1.7-.07c-.08,0-.34.31-.41.28,1.5-.02,9.32.1,10.71.21.56.07.1.16.09.17.68-.02.3-.09.88-.07.16.02-.03.07-.12.09.25,0,.49.04.51,0-.32-.04-.18-.16-.31-.24l.75.03-.04.07c.17,0,.43-.19,1.16-.13,1.24.06,2.59.07,3.84.12-.02.04-.28.07-.55.09.17,0,.42,0,.58.03-.3-.09.53-.04.29-.08.92-.16,2.1.02,2.91-.1.08-.16,1.74-2.84,1.74-3.04.25,0,.49,0,.57.03-.06-.05-.55-.07-.81-.04l-.04.11c-.6.04-.14-.06-.72-.06-.03-.09.5-.1.97-.11-.42-.01-.84-.08-1.02.02-.4-.04.04-.11-.43-.14-.34.02-.79.1-1.19.04v-.02c-.95-.1-1.46.11-2.34,0l.09-.03c-.31-.06-.92,0-1.48-.07.16.02.3.09-.04.09-.64-.07-1.08-.03-1.55-.11l-.45.07c-2.24-.08-11.14-.2-13.42-.19h.09c-3.46-.04-10.59.02-14.2.44-.56-.04-1.35.04-1.9.06.12,0,.21.02.18.05,0,.01-.04.02-.08.03-.03,0-.13.02-.1.02-.39,0-.58,0-.69,0-.12,0-.14.01-.15.02-.03.02-.07.05-.95.06-2.04.08-9.83-.01-11.64-.08-.97.12-2.18.03-3.14.11l.1-.03c-1.02.05-6.81-.07-7.99-.02l.16.02c-1.04.08-.89-.06-1.71-.1.11.14-.78.22-1.12.23v-.03c-.5.02-1.65.14-2.5.16l.03-.08c-.7.08-2.02.05-2.53.06-1.16-.03-2.94-.16-4.48-.06l-1-.21-.15.02s-1.61,2.59.43,3.15l-.03.08h.4c.48.03.71-.06.68.02h-.66c.49.01.15.05-.04.1.2,0,.4.02.56.04.1-.03-.07-.03-.15-.05.26-.03.63-.1.94-.06.5,0,.03.12.61.13,3.06.06,6.03.15,9.13.13.07.03-.01.03-.1.04.95-.02,1.75-.04,2.61-.05.24.03.3.08.37.11-.07-.03,1.1-.05,2.3-.06.6,0,1.21,0,1.67,0,.46,0,.77,0,.8,0Z"/>
          </g>
          <g>
            <path class="i" d="M41.7,99.13c.24.08.65.09,1.03.1-.3-.08-.61-.11-1.03-.1Z"/>
            <path class="i" d="M42.75,99.24h0s-.01,0-.01,0h0Z"/>
            <path class="i" d="M117.87,95.57c-.1,0-.21,0-.32,0,.11,0,.22,0,.32,0Z"/>
            <path class="i" d="M61.5,99.47l.06-.14c.92,0,.27.16,1.12.12.33-.19,1.41.02,1.7-.08,0,.02.41.02.38.08.13-.1.43-.02.69-.05.1-.03-.07-.03-.14-.06l.6-.04c.23.03.29.09.04.11,1.57.04,9.11.14,10.8.09-.22-.08-.74-.03-.94-.15.45-.07.66.02.86-.05.17.18.98.04,1.32.23l.13-.1.22.06c1.97-.11.45-.05,2.19-.03,1.01-.02,1.49-.16,2.05-.11-.08,0-.31-.06-.04-.09.04.09.7-.07.82.03.26-.01,1.09,0,.8-.13.14.06.88.09.44.14.25,0,.49.02.67,0l-.32-.03c.84-.02,1.3.08,1.85-.03l-.31-.05c.5,0,.93-.02,1.12.11l-.52.04c.84,0,1.34-.01,2.04-.08h-.25c.89-.13,5.53-.23,6.35-.38l-.38-.1.7-.08c-.08,0-.34.31-.41.28,1.51,0,9.35-.08,10.74-.02.56.05.1.15.09.17.68-.04.29-.1.88-.09.16.02-.03.08-.12.09.25-.01.49.02.51-.02-.32-.03-.18-.15-.32-.23h.75s-.03.09-.03.09c.17,0,.42-.21,1.16-.17,1.24.03,2.58,0,3.83.02-.02.05-.28.07-.54.1.17,0,.42,0,.58.02-.3-.08.52-.05.29-.09.91-.18,2.09-.02,2.9-.14.07-.17,1.72-2.85,1.72-3.04.25,0,.5,0,.58.02-.06-.05-.56-.07-.82-.04l-.05.11c-.6.04-.14-.06-.73-.06-.03-.09.51-.1.98-.11-.43-.01-.85-.07-1.03.02-.4-.04.04-.11-.44-.14-.35.03-.8.11-1.2.06v-.02c-.96-.09-1.47.13-2.35.04l.09-.03c-.31-.05-.92.02-1.49-.04.16.02.3.08-.04.09-.65-.05-1.09,0-1.56-.07l-.45.08c-2.25.02-11.13.1-13.39.12h.09c-3.44.03-10.51.02-14.06.14-.55-.08-1.31-.06-1.88-.09.32.03.21.09-.04.09-1.75,0-.12.06-1.89.09-2.04.08-9.83-.01-11.64-.08-.97.12-2.18.03-3.13.11l.1-.03c-1.02.05-6.8-.07-7.99-.02l.16.02c-1.04.08-.89-.06-1.71-.1.11.14-.78.22-1.12.23v-.03c-.5.02-1.65.14-2.5.16l.03-.08c-.7.08-2.02.05-2.53.06-1.16-.03-2.94-.16-4.48-.06l-1-.21-.15.02s-1.61,2.59.43,3.15l-.03.08h.4c.48.03.71-.06.67.02h-.66c.49.01.15.05-.04.1.2,0,.4.02.56.04.1-.03-.07-.03-.15-.05.26-.03.63-.1.94-.06.5,0,.03.12.61.13,3.06.06,6.03.15,9.13.13.07.03-.01.03-.1.04.95-.02,1.75-.04,2.61-.05.24.03.3.08.37.11-.07-.03,1.1-.05,2.3-.06.6,0,1.21,0,1.67,0,.46,0,.77,0,.8,0Z"/>
          </g>
          <g>
            <path class="i" d="M41.66,112.92c.24.09.64.11,1.03.13-.3-.09-.61-.13-1.03-.13Z"/>
            <path class="i" d="M42.7,113.05h0s-.01,0-.01,0h0Z"/>
            <path class="i" d="M117.82,109.36c-.1,0-.21,0-.32.01.11,0,.22,0,.32-.01Z"/>
            <path class="i" d="M61.48,113.78l.06-.13c.92.02.27.16,1.12.15.33-.18,1.41.06,1.71-.04,0,.02.41.03.38.09.13-.1.43-.01.69-.03.1-.03-.07-.03-.14-.07l.6-.02c.23.04.29.1.04.11,1.57.08,9.12.38,10.81.37-.22-.08-.74-.05-.94-.17.45-.06.66.04.86-.03.17.19.98.07,1.32.27l.13-.1.22.07c1.97-.06.45-.04,2.2.03,1.01.02,1.49-.19,2.05-.13-.08,0-.31-.06-.04-.09.04.09.7-.09.82,0,.26-.02,1.09-.03.81-.15.14.06.88.06.44.13.25,0,.49,0,.67-.02l-.32-.03c.84-.04,1.3.04,1.85-.09l-.31-.04c.5-.02.93-.04,1.13.08l-.52.05c.84-.03,1.34-.05,2.04-.13h-.25c.89-.15,5.54-.38,6.35-.56l-.38-.09.7-.1c-.08,0-.34.32-.41.29,1.51-.05,9.36-.35,10.75-.32.56.04.1.15.1.17.68-.06.29-.11.88-.12.16.01-.03.08-.12.09.25-.02.49,0,.51-.04-.32-.03-.19-.15-.32-.22h.75s-.03.07-.03.07c.17,0,.42-.22,1.15-.2,1.24,0,2.59-.07,3.83-.08-.02.05-.28.08-.54.11.17,0,.42-.02.58,0-.3-.07.52-.07.29-.09.91-.21,2.09-.07,2.9-.22.07-.17,1.65-2.9,1.64-3.09.25,0,.5,0,.58,0-.07-.04-.56-.05-.82-.02l-.04.11c-.6.05-.14-.06-.73-.04-.03-.09.51-.12.98-.14-.43,0-.86-.05-1.03.05-.4-.02.04-.11-.44-.13-.34.04-.79.13-1.19.09v-.02c-.96-.06-1.46.17-2.34.11l.09-.03c-.31-.04-.92.04-1.48,0,.16.01.3.07-.04.09-.65-.04-1.08.03-1.56-.02l-.45.1c-2.24.08-11.11.41-13.37.49l.09-.02c-3.44.14-10.49.33-14.04.55-.55-.05-1.31-.06-1.88-.1.32.04.21.1-.04.09-1.75-.06-.12.05-1.88.04-2.03.02-9.82-.27-11.62-.39-.97.1-2.18-.03-3.13.03l.1-.03c-1.02.02-6.8-.25-7.98-.23l.16.02c-1.04.05-.89-.08-1.71-.14.1.14-.78.2-1.12.2v-.03c-.5,0-1.65.1-2.5.1l.03-.07c-.7.06-2.02,0-2.53-.01-1.15-.06-2.93-.24-4.48-.18l-.99-.24-.15.02s-1.68,2.55.35,3.16l-.03.07h.4c.48.05.71-.03.68.04l-.66-.03c.49.03.15.07-.04.1.2.01.4.03.56.05.1-.03-.07-.03-.15-.05.26-.02.63-.08.95-.04.5.02.03.12.61.15,3.07.14,6.04.3,9.14.37.07.03-.01.03-.1.04.95,0,1.75,0,2.62.01.24.04.3.09.37.12-.07-.03,1.11-.02,2.31,0,.6.01,1.21.03,1.67.04.46.02.77.03.8.03Z"/>
          </g>
        </g>
      </g>
      <path class="e" d="M62.83,118.3c.55-1.49.59-3.99.09-5.56-.4-1.26-1.33-2.3-2.43-2.71-.27-.1-1.08-.41-1.51.26-.47.74.23,1.42,1.05,2.22l.8.77-.06,1.49c-.08,2.07-.39,3.06-1.45,4.6-2.53,3.71-8.83,6.85-18.74,9.34-9.82,2.46-16.75,2.45-19.5-.03-.9-.82-1.11-2.4-.51-3.75.9-2.04,1.87-3.32,3.86-5.08,5.41-4.82,11.28-7.23,20.93-8.6,2.45-.35,3.33-.41,4.49-.32.92.07,2.08.06,2.65-.03l.91-.13c.41-.06.72-.42.73-.83s-.3-.78-.71-.84l-.76-.12c-1.41-.23-7.38-.17-9.39.09-8.67,1.15-16.33,4.77-21.56,10.18-3.39,3.51-4.55,6.28-3.76,9,.5,1.72,2.16,3.94,7.23,4.75.02,0,.03,0,.05,0,.51.08,1.34.12,2.32.12,2.08,0,4.82-.16,6.57-.43,6.94-1.05,14.92-3.42,19.87-5.89,4.51-2.25,7.64-5.26,8.83-8.48Z"/>
      <path class="e" d="M149.34,81.42c.78.64,1.33,1.28,1.69,1.97,0,.02.02.04.03.05.39.74.75,1.3,1.35,1.3.04,0,.09,0,.13,0,.35-.05.68-.37.76-.71.27-1.23-.59-2.33-1.26-3.06-.47-.51-2.42-2.19-3.3-2.21-.22,0-.52.1-.68.27-.17.17-.26.41-.25.65.02.31.03.52,1.52,1.75Z"/>
      <path class="e" d="M68.21,119.06c-.42-.11-.85.12-1,.52l-.29.75c-.6,1.56-2.06,3.22-5.37,6.12-3.15,2.75-3.15,2.77-3.15,3.24h0c0,.35.22.69.54.82.06.02.13.04.2.04,1.52,0,6.39-4.59,6.44-4.64,2.06-2.05,2.94-3.44,3.14-4.97l.12-.94c.06-.43-.22-.83-.63-.93Z"/>
    </g>
  </g>
</svg>