<?xml version="1.0" encoding="UTF-8"?>
<svg id="b" data-name="Camada_2" xmlns="http://www.w3.org/2000/svg" viewBox="0 0 127.89 148.45">
  <defs>
    <style>
      .d {
        fill: #606a55;
      }
    </style>
  </defs>
  <g id="c" data-name="Camada_1">
    <g>
      <g>
        <path class="d" d="M79.13,34.88c-.96-.81-2.77-1.82-4.53-2.58,1.32.67,2.73,1.33,4.53,2.58Z"/>
        <path class="d" d="M74.57,32.28s-.02,0-.03-.01c.02.01.04.02.06.03-.01,0-.02-.01-.03-.02Z"/>
        <path class="d" d="M.13,68.94c-.04.47-.08,1.01-.1,1.58.03-.53.07-1.06.1-1.58Z"/>
        <path class="d" d="M.53,57.65l.1.31c-.26,2.26-.27,2.59-.33,2.88-.02.14-.04.28-.07.64,0,.18-.03.42-.02.74,0,.23,0,.49,0,.78,0,.39.04.81.07,1.29.05.41.1.85.16,1.36.01.13.03.27.05.41l.02.22c.03.06.14.02.2.04.31.02.63.03.96.05.65.05,1.41.04,2.16.05.45,0,.91.02,1.38.03,1.63.04,3.24.09,3.93.04,0,0,.11,0,.28.01.18,0,.41.01.65.02.47.02.93.04.86.07.6-.1,2.01,0,3.24,0,.45-.02-.33-.04-.66-.07h2.82c1.1.05,1.37.11.17.11,7.37.13,42.74.7,50.68.76-1.02-.09-3.47-.07-4.4-.21,2.1-.04,3.09.07,4.02,0,.8.19,4.61.11,6.2.31l.6-.1,1.04.08c9.23.01,2.11-.03,10.29.11,4.74.05,6.99-.07,9.62.02-.39,0-1.43-.08-.21-.09.21.09,3.27-.02,3.86.08,1.2,0,5.09.07,3.78-.08.66.07,4.13.14,2.06.17,1.17.02,2.31.05,3.15.04l-1.5-.05c3.96.03,6.11.16,8.69.08l-1.46-.07c2.37.02,4.34.04,5.27.18h-2.43c1.96.03,3.53.04,5.02.06.74,0,1.47,0,2.21,0h.56c.13,0,.12,0,.13,0h.04s.12-.04.16,0c-.03-.04-.1-.01-.15-.02.03,0,.06,0,.1-.01.02,0,.04,0,.06,0l.03.06c.02.05.03.06.07.19l.03.1.06.25c.04.17.08.35.12.52.15.71.27,1.52.23,2.21-.03.44-.04.39-.08.51-.04.1-.15.14-.25.16l-.5.03c-.25,0-.49.02-.74.03-.5.02-1.01.03-1.53.05-1.03.03-2.08.05-3.12.08-2.09.05-4.16.09-6.07.14-3.81.08-6.95.16-8.2.22l1.77.08-3.3.11c.39,0,1.59-.33,1.92-.3-7.07.1-43.86.37-50.39.3-2.64-.05-.47-.15-.44-.17-3.21.04-1.38.11-4.11.1-.74-.02.15-.08.57-.09-1.19.01-2.3-.02-2.39.03,1.49.03.86.15,1.49.23h-3.51s.16-.08.16-.08c-.78,0-1.98.21-5.43.17-5.81-.02-12.12-.05-17.97-.08.09-.04,1.32-.06,2.55-.08-.78,0-1.98,0-2.7-.04,1.41.09-2.45.04-1.35.08-4.28.15-9.81-.07-13.58-.05-.08.04-.63.22-1.41.48-.39.12-.84.26-1.31.41-.48.14-.95.31-1.61.42-.32.06-.67.09-.96.04-.08,0-.14-.05-.24-.05l-.15-.14c-.11-.1-.17-.22-.26-.34-.32-.48-.52-1.11-.68-1.69-.29-.83-.46-1.33-.51-1.34.06-1.25.2-2.43.26-2.83-.1.34-.36,2.68-.31,4.06.03.07.08.24.12.35.05,1.3.29,1.95.46,2.29.06.19.17.26.22.35.03.04.05.07.07.1h0s0,.02,0,.02h0s.07-.07.07-.07h0s0,0,0,0h0s.02.02.02.02l.03.04c.09.08.15.17.43.4.29.2,1.05.3,2.29.37,0,.01.02.02-.09.02-.12,0-.3,0-.54-.01-.24-.01-.54-.03-.88-.07-.33-.05-.72-.1-.98-.34-.73-.24-1.05-1.18-1.19-2.19-.04-.26-.06-.52-.07-.79l-.02-.4v-.25c0-.31,0-.62.01-.92l-.03.82v.21c0,.06,0,.14,0,.27,0,.24.02.47.03.7.08.93.29,1.78.76,2.3l.02.03h0s0,0,0,0c-.02.02.15-.15.08-.08h0s.01.01.01.01l.05.05.09.09.18.17c.1.13.26.19.41.26.32.11.67.15.99.18.32.02.62.04.89.05.32.01.34,0,.48,0,1.93.12-.21.11,2.1.23,1.64.03,3.78-.01,5.64.07h-.03c4.54.17,6.94-.03,11.07.08l-.45.03c1.46.06,4.34,0,6.98.07-.75-.02-1.41-.08.18-.09,3.03.06,5.1.01,7.32.08l2.13-.08c10.56.06,52.24-.25,62.85-.38l-.42.02c2.95-.03,6.46-.07,10.36-.12,1.95-.03,4-.05,6.13-.08,1.06-.02,2.15-.04,3.25-.05.55-.01,1.11-.02,1.67-.04l.85-.02c.3-.01.48,0,1.11-.05.42-.1.83-.24,1.24-.38.36-.23.74-.46.99-.83.3-.32.46-.73.64-1.14.09-.2.12-.43.17-.65.03-.18.08-.36.08-.52.12-1.28-.04-2.36-.24-3.41-.05-.26-.11-.52-.17-.78l-.05-.2-.08-.3-.16-.6-.41-1.27-.21-.63s-.01-.06-.03-.07h-.08s-.17-.01-.17-.01l-.33-.02c-.44-.02-.88-.05-1.34-.05h-1.12s-1.46-.03-1.46-.03c-3.9-.04-7.81-.09-11.57-.13-7.52-.07-14.48-.13-19.78-.18-2.58-.12-6.14-.14-8.83-.2,1.5.05.98.11-.19.09-8.21-.12-.55.05-8.85-.02-9.56-.05-46.13-.62-54.61-.8-2.28.03-4.84,0-7.39-.03-1.27-.02-2.55-.03-3.78-.05-.62,0-1.22,0-1.81-.01-.3,0-.59,0-.88,0h-.27s.12-.02.12-.02c-.11-.03-.49.12-.4-.27,0-.09,0-.19,0-.29,0-.32,0-.65.02-1,.01-.69.08-1.44.15-2.22.16-1.57.48-3.29.95-5.04.5-1.75,1.21-3.51,2.1-5.17,1.83-3.29,4.66-5.91,7.42-7.37,2.74-1.52,5.22-1.71,6.43-1.64l-.66-.02c2.15-.09,3.06.31,3.84.52.77.3,1.44.53,2.93,1.39-.16-.16.54.14,1.38.7.22.13.43.3.65.46.12.09.21.15.35.26.17.15.34.3.5.44.17.15.32.28.49.45.18.18.35.36.51.53.32.34.62.66.88.93.12-.08.2-.2.28-.28l-.07.12c.7-.75,1.8-1.89,2.53-2.57.64-.61,1.38-1.28,2.18-1.96,1.59-1.37,3.42-2.74,5.04-3.78l-.09.14c1.31-.92,3.31-2.08,5.3-2.95,1.98-.89,3.94-1.5,5.04-1.71,2.49-.57,5.82-.78,9.35-.44,3.52.36,7.25,1.18,10.54,2.36,1.38.58,2.73,1.25,3.95,2.03l.56.29s.12.02.29.05c.18.03.43.08.72.12.59.06,1.22.21,1.74.15.49-.03.81-.27.51-.95-.31-.69-1.32-1.85-3.54-3.09h.18c-.6-.29-1.2-.58-1.82-.82-2.19-.95-3.27-1.15-3.09-1.18,1.02.35,2.04.7,3.04,1.14-2.21-.92-.64-.34.22-.02-.92-.41-1.83-.74-2.56-1.03-.45-.13.32.15.66.29-1.21-.44-2.93-.87-4.43-1.28-2.36-.55-.12-.18-2.9-.75-3.2-.58-6.45-.83-9.72-.62-3.27.2-6.59,1-9.55,2.3-2.99,1.28-5.77,2.92-8.4,4.77-1.3.94-2.57,1.91-3.8,2.96-.61.52-1.22,1.05-1.81,1.6l-.36.33-.03-.03-.08-.07-.22-.19-.62-.48c-.41-.32-.86-.6-1.29-.9-.46-.27-.91-.54-1.38-.8-.32-.18.09-.01.49.22-2.13-1.19-4.41-1.94-6.73-2.12-2.32-.19-4.59.19-6.71.94-1.15.45-1.48.55-1.83.67.16-.08-1.13.57-2.97,1.84-1.84,1.28-4.05,3.49-5.7,6.09-1.67,2.59-2.73,5.5-3.31,7.74-.13.56-.26,1.08-.37,1.54-.08.47-.16.87-.22,1.22-.13.68-.18,1.1-.18,1.14Z"/>
      </g>
      <g>
        <path class="d" d="M97.42,40.17c0,.15.11.34.22.52-.02-.18-.09-.34-.22-.52Z"/>
        <polygon class="d" points="97.63 40.7 97.64 40.7 97.63 40.69 97.63 40.7"/>
        <path class="d" d="M127.79,64.33c0-.06,0-.12,0-.19,0,.06,0,.13,0,.19Z"/>
        <path class="d" d="M105.73,48.61l.03-.14c.53-.02.16.15.64.1.19-.2.79,0,.95-.11,0,.02.23.01.21.08.07-.11.23-.03.38-.06.05-.03-.04-.03-.08-.06l.33-.04c.13.03.16.09.02.11.43.01,1.66.02,2.85.11,1.2.08,2.35.27,2.77.33-.09-.1-.36-.09-.44-.23.24-.03.33.08.44.03.05.19.48.14.6.36l.09-.09.09.09c.97.14.23,0,1.05.26.47.13.74.09.97.24-.04-.02-.11-.12.01-.09-.02.09.34.07.36.18.12.04.48.22.41.05.03.09.34.27.13.22.1.06.2.13.29.14l-.12-.1c.37.18.5.37.78.42l-.1-.12c.21.12.39.23.39.39-.07-.04-.15-.08-.22-.11.33.22.52.36.82.51l-.09-.08c.21.08.75.46,1.24.92.5.45.95.96,1.12,1.09l-.03-.21.27.25s-.35.03-.35-.01c.23.29.86,1.28,1.32,2.38.47,1.09.77,2.27.82,2.63.01.3-.14.09-.15.09.11.34.13.13.19.42,0,.08-.08,0-.1-.04.04.13.03.25.08.26,0-.17.13-.13.19-.21.03.13.04.26.07.39h-.08c.01.08.24.18.28.57.07.66.19,1.37.23,2.04-.05,0-.08-.14-.13-.28,0,.09.03.22,0,.31.07-.17.08.27.1.15.23.47.09,1.12.24,1.55.17.01,2.87.88,3.07.89,0,.15,0,.29-.02.34.05-.04.06-.33.03-.48l-.11-.02c-.04-.35.06-.08.05-.43.09-.02.11.3.13.57,0-.25.06-.5-.03-.6.03-.24.11.02.14-.26-.04-.2-.13-.47-.09-.7h.02c.07-.57-.19-.86-.14-1.39l.03.05c.04-.19-.07-.55-.06-.89,0,.1-.06.19-.09-.01.01-.39-.08-.64-.06-.93l-.12-.26c-.1-.67-.42-2.32-1.02-3.94-.57-1.63-1.47-3.16-1.89-3.75l.04.04c-.6-.91-1.68-2.25-3.04-3.29-1.35-1.05-2.91-1.77-3.97-2.09-.29-.2-.75-.33-1.09-.45.18.09.1.13-.05.08-1.04-.29-.09.02-1.14-.2-.61-.11-2.08-.37-3.51-.48-1.43-.12-2.83-.14-3.34-.17-.56.13-1.25.06-1.78.15l.05-.03c-.28.03-1.25.06-2.11.02l-.31-.02-.2-.02c-.05,0-.1-.02-.14-.04-.09-.03-.14-.08-.16-.11v.03s-.06-.05-.06-.08c0-.06.09-.02-.04-.37-.1.11-.39-.34-.49-.51h.03c-.15-.27-.56-.82-.81-1.24l.08-.02c-.26-.32-.6-1-.75-1.25-.3-.59-.71-1.54-1.27-2.23l-.13-.6-.06-.06s-.67.16-1.32.48c-.64.33-1.26.81-1.2,1.43l-.07.03.13.18c.11.24.25.3.18.32l-.19-.31c.12.24,0,.1-.1.04.05.1.1.19.13.28.05.03,0-.05,0-.09.1.11.26.24.33.4.14.23-.09.08.06.35.81,1.45,1.54,2.9,2.2,4.34-.01.05-.03,0-.06-.03.04.08.08.15.11.22.07.17.14.33.21.49.26.56.62,1.02,1.14,1.29.19.16.24.21.29.28-.03-.03.24.1.71.2.23.06.51.09.82.13.3.03.43.03.65.04.37,0,.75,0,1.04,0,.28,0,.46,0,.47,0Z"/>
      </g>
      <g>
        <path class="d" d="M92.32,6.39c-.27.32-.62.93-.96,1.5.32-.41.61-.87.96-1.5Z"/>
        <path class="d" d="M91.36,7.9h0s.01-.01.01-.01c0,0,0,.01,0,.01Z"/>
        <path class="d" d="M97.36,4.25c.14-.07.3-.14.46-.22-.15.06-.3.13-.46.22Z"/>
        <path class="d" d="M76.12,36.43l.08.15c-.68,1.44-.34.35-.93,1.7-.07.6-1.04,2.23-1.14,2.75-.01-.02-.3.65-.34.58,0,.25-.27.7-.42,1.14-.04.17.08-.1.15-.21l-.36,1c-.18.38-.28.45-.12.02-.19.46-.5,1.23-.84,2.28-.09.26-.17.55-.26.85-.04.18-.08.26-.13.54-.05.28-.13.55-.14.84-.08.58-.05,1.16.13,1.71.19.57.59.99,1.09,1.33.25.14.51.27.79.39.27.13.57.26.68.3.31.13.62.25.93.37.63.23,1.26.44,1.89.64,1.27.39,2.55.72,3.76.98,2.41.52,4.57.67,5.63.64-.42-.08-1.41-.06-1.77-.22.83,0,1.23.09,1.61.02.32.2,1.9,0,2.66,0l.25-.16c.16-.01.33-.04.5-.06,1.07-.33,1.7-.78,2.05-1.04.35-.29.44-.4.54-.48.09-.08.16-.16.42-.47.13-.15.28-.39.46-.73.1-.2.23-.47.4-.81.71-1.5.98-2.31,1.46-3.14-.07.13-.3.43-.12.03.12-.03.49-1.09.67-1.24.19-.39.86-1.65.53-1.28.17-.19.78-1.3.48-.6.2-.38.41-.74.53-1.02l-.29.47c.66-1.29,1.11-1.94,1.45-2.83l-.29.45c.4-.77.73-1.41,1-1.65l-.38.8c.67-1.27,1.07-2.04,1.57-3.13l-.2.38c.6-1.4,4.26-8.5,4.78-9.82l-.39.53.49-1.11c-.07.13,0,.66-.08.75.6-1.15,2.47-4.7,4.29-8.28.45-.9.9-1.79,1.33-2.71.11-.27.22-.55.33-.81.07-.21.14-.41.2-.62.14-.44.28-.86.41-1.26.52-1.63.77-3.02.88-3.66.17-1.05.17-.17.19-.16.1-1.31-.02-.56.02-1.69.02-.31.07.06.08.24.02-.49.01-.97-.04-1.01,0,.64-.13.37-.21.63,0-.48-.03-.98-.09-1.47l.09.06c-.09-.34-.26-.82-.79-2.24-.5-1.21-1.46-2.28-2.56-3.02l-.85-.51c-.28-.15-.55-.25-.82-.38-.53-.26-1.11-.43-1.65-.63.05-.04.52.11.99.25-.3-.11-.75-.27-1.02-.38.53.23-.97-.21-.55-.06-1.68-.32-3.97-.59-5.49-.15-.06.09-.74.94-1.18,1.84-.46.9-.72,1.81-.69,1.91-.34.15-.76.34-.91.39.17-.02.92-.36,1.25-.52l.02-.12c.82-.35.22-.04,1.03-.3.06.07-.66.29-1.32.61.6-.26,1.19-.38,1.41-.54.56-.11-.03.11.64-.01.46-.12,1.09-.29,1.65-.24v.02c1.33.09,2.1.02,3.33.49-.05,0-.09-.02-.14-.02.21.1.53.21.9.34.35.16.81.33,1.11.53-.07-.06-.16-.13-.17-.15-.01-.02.09-.01.25.09.33.23.63.38.82.59.1.1.22.18.31.28.07.11.14.21.21.33.14.1.25.23.35.38.32.54.7,1.72.57,3.47-.06.87-.25,1.85-.51,2.87-.13.51-.29,1.04-.47,1.58l-.28.84-.07.23-.04.12-.02.06v.03c.29.1-.69-.2.67.22l-.19-.05-.38-.11c-.18-.05-.1-.03-.12-.03h0s0,.03,0,.03l-.02.03-.03.07-.06.14c-.39.89-.97,2.05-1.47,3.04-.52,1.02-1.02,2-1.48,2.91-.94,1.8-1.71,3.29-2.15,4.15l.06-.14c-2.72,5.25-8.46,15.93-11.15,21.46-.25.41-.52.91-.79,1.42-.13.27-.26.54-.39.8-.06.13-.13.26-.19.38-.03.05-.05.07-.07.11.12-.14.14-.07.07.07-.15.22-.36.32-.44.39-.11.06-.12.07-.13.09-.01.02-.02.04-.14.1-.13.06-.36.19-.97.3-.94.24-3.16.26-5.74-.23-1.28-.23-2.64-.56-3.96-.96-.66-.2-1.31-.41-1.93-.64-.31-.11-.61-.23-.9-.35l-.27-.12-.1-.05c-.15-.04-.17-.2-.14-.31.01-.07.02-.09.05-.2.06-.21.11-.41.17-.6.24-.79.5-1.44.67-1.87.45-1.55,1.36-3.4,1.96-4.9l-.04.16c.33-.8,1.57-3.42,2.89-6.05,1.34-2.63,2.68-5.28,3.15-6.19l-.14.23c.75-1.61.76-1.33,1.44-2.55-.21.1.43-1.28.69-1.8l.02.03c.39-.78,1.21-2.59,1.88-3.87l.04.09c.5-1.1,1.6-3.08,2.01-3.84.97-1.73,2.55-4.34,3.75-6.71l1.02-1.39.1-.23s-.91-3.68-3.11-.88l-.04-.09-.33.61c-.44.71-.55,1.09-.59,1l.56-.99c-.43.72-.18.19-.06-.11-.18.3-.35.59-.5.83-.05.16.09-.09.16-.2-.2.41-.44.99-.73,1.45-.42.75-.13-.01-.62.86-2.59,4.59-5.1,9.05-7.56,13.79-.08.09-.02-.03.04-.18-.73,1.44-1.36,2.71-2.02,4.03-.22.35-.31.43-.39.52.08-.09-.82,1.72-1.74,3.58-.91,1.87-1.83,3.76-1.87,3.84Z"/>
      </g>
      <g>
        <path class="d" d="M1.07,76.65c.01.76.17,2.06.32,3.28-.04-.95-.14-1.96-.32-3.28Z"/>
        <path class="d" d="M1.39,79.96s0,.01,0,.02c0-.02,0-.03,0-.04,0,0,0,.02,0,.02Z"/>
        <path class="d" d="M124.09,76.2c-.04.31-.09.66-.14,1.01.05-.34.09-.68.14-1.01Z"/>
        <path class="d" d="M9.78,139.24l.17.16c.58,2.91,0,.87.61,3.57.18.43.38,1.29.66,2.27.02.08.11.37.17.56.06.22.15.42.22.63.17.41.37.78.63,1.07.25.29.58.52.91.57.16.05.32.09.47.14.18,0,.35,0,.51,0,.41-.01.75-.03.98-.05.05,0,.36,0,.71.01.32,0,.62.02.58.05.4-.11,1.36-.03,2.19-.06.3-.03-.22-.03-.45-.06l1.91-.04c.75.03.93.09.12.11,5.01.03,29.01.19,34.4.23-.69-.08-2.36-.04-2.99-.17,1.43-.06,2.1.04,2.73-.03.55.19,3.13.06,4.21.25l.41-.1.71.07c6.27-.08,1.43-.05,6.99,0,3.22,0,4.74-.14,6.53-.08-.27,0-.97-.07-.14-.09.14.09,2.22-.06,2.62.04.82,0,3.46.01,2.57-.11.45.06,2.81.1,1.4.15.8,0,1.57.03,2.14,0l-1.02-.04c2.69,0,4.15.09,5.9-.02l-.99-.05c1.61,0,2.95,0,3.58.12l-1.65.03c2.66,0,4.27,0,6.49-.07h-.79c1.42-.06,5.82-.12,10.21-.19,4.41-.08,8.68-.17,10.13-.33-.52,0-.85-.04-1.28-.05l1.14-.07.85-.1c.28-.04.58-.03.81-.15-.16.09-.54.18-.95.29-.4.11-.85.23-.91.2.11,0,.43-.03.73-.06.31-.03.64-.06,1.01-.1.16-.06.33-.12.5-.19l.13-.05c-.03-.13.06-.09.08-.14l.22-.19c.27-.28.46-.7.62-1.17.07-.23.15-.48.22-.72.04-.16.08-.32.12-.48.07-.32.15-.65.23-.99.15-.69.3-1.41.45-2.18.6-3.06,1.22-6.73,1.81-10.39,1.14-7.32,2.28-14.59,2.62-16.79.32-1.76.2-.3.21-.27.28-2.16.04-.95.32-2.78.09-.5.06.11.03.4.11-.81.25-1.55.21-1.61-.18,1-.24.56-.38.97l.36-2.36.06.12c.08-.53,0-1.36.37-3.67.57-3.91,1.18-8.15,1.75-12.08.04.07-.05.9-.15,1.73.08-.53.18-1.33.28-1.81-.21.94.18-1.66.04-.92.23-2.91.91-6.61,1.15-9.17-.13-.25-2.06-5.84-2.25-5.87.12-.8.23-1.56.29-1.86-.09.27-.33,1.78-.42,2.62l.08.16c-.23,1.9-.12.44-.38,2.29-.1.09.12-1.62.32-3.12-.2,1.35-.45,2.69-.43,3.25-.21,1.26-.08-.16-.34,1.37-.13,1.09-.24,2.54-.47,3.78v-.02c-.53,3.03-.54,4.67-1.02,7.44v-.3c-.17.97-.38,2.92-.69,4.68.09-.5.21-.93.07.13-.34,2.03-.49,3.43-.77,4.9l-.12,1.44c-.52,3.54-1.81,12.3-3.11,21.07-.67,4.38-1.37,8.75-2.01,12.45-.33,1.85-.64,3.53-.93,4.94-.15.71-.29,1.35-.43,1.89-.03.1-.05.2-.07.29,0,.03-.02.06-.03.08v-.04s-.04.05-.1.06h-.1s-.35.02-.35.02c-.76.02-1.56.04-2.39.06-1.68.02-3.5.04-5.41.06-3.83.01-8.02.02-12.22.04-8.41.01-16.86.02-22.54.03-1.75-.09-4.17-.08-6-.12,1.02.04.67.1-.13.09-5.57-.04-.38.06-6.01.06-6.49.04-31.32-.18-37.09-.24-1.03.04-2.14.06-3.28.07-1.02.01-2.06.02-3.07.03-.07,0-.13.02-.2,0-.05-.04-.07-.11-.1-.16l-.08-.2c-.07-.24-.14-.47-.21-.7l.1.27c-.46-1.45-1.49-6.75-2.35-12.15-.84-5.41-1.68-10.88-1.97-12.75l.06.5c-.56-3.25-.36-2.82-.69-5.4-.09.36-.57-2.43-.73-3.49l.04.04c-.25-1.6-.88-5.23-1.27-7.89l.09.09c-.39-2.21-.92-6.38-1.14-7.97-.46-3.65-1.07-9.29-1.8-14.16l-.19-3.18-.08-.46s-3.22-4.76-2.95,1.77l-.09-.09.17,1.27c.16,1.54.34,2.23.25,2.14l-.26-2.1c.18,1.54,0,.47-.12-.11.08.64.15,1.27.19,1.78.07.3,0-.23-.01-.47.13.82.35,1.97.45,2.98.2,1.58-.11.12.12,1.95,1.21,9.69,2.4,19.09,3.83,28.86,0,.23-.04-.04-.09-.32.46,2.95.86,5.55,1.27,8.24.08.75.07.96.07,1.19,0-.23.57,3.47,1.2,7.26.32,1.89.65,3.81.9,5.27.26,1.46.44,2.46.46,2.52Z"/>
      </g>
      <g>
        <path class="d" d="M64.54,87.4c-.49-.1-1.33-.11-2.12-.1.61.07,1.25.09,2.12.1Z"/>
        <polygon class="d" points="62.41 87.3 62.4 87.3 62.42 87.3 62.41 87.3"/>
        <path class="d" d="M69.65,90.99c.18.02.38.04.58.06-.19-.02-.4-.05-.58-.06Z"/>
        <path class="d" d="M32.17,107.23l.11.15c-.09.51-.13.81-.13,1-.02.19-.04.26-.05.33-.03.13-.08.25-.05,1.25.17.38.24,1.22.44,2.03.25.79.48,1.6.73,1.86-.02,0,.45.86.37.84.21.23.58.82.98,1.29.16.16-.08-.15-.15-.3.3.36.58.73.92,1.02.35.4.41.53-.02.13.61.65,1.91,1.83,3.7,2.85,1.78,1.03,4.01,1.95,6.27,2.63,4.53,1.39,9.18,1.85,10.87,2-.43-.11-1.48-.19-1.86-.35.9.03,1.31.19,1.72.14.33.21,1.96.23,2.63.44l.26-.09.44.09c3.95.05.9.02,4.4.11,2.02,0,2.98-.18,4.1-.17-.17,0-.61-.04-.09-.09.09.08,1.39-.11,1.65-.05.51-.04,2.17-.14,1.6-.23.29.05,1.77-.06.89.07.5-.04.98-.06,1.34-.12l-.64.02c1.68-.18,2.61-.2,3.7-.47l-.63.04c1.01-.14,1.84-.29,2.26-.24l-1.03.21c1.68-.29,2.68-.47,4.08-.9l-.5.13c.44-.14,1.35-.39,2.52-.83.3-.13.6-.26.93-.39.29-.15.58-.3.89-.46.61-.3,1.23-.65,1.83-1.02,2.46-1.43,4.58-3.35,5.14-3.99l-.65.44c.35-.34.7-.67,1.01-1.05-.12.12-.28.73-.42.8.57-.54,1.75-1.66,2.93-3.37,1.18-1.68,2.32-4.07,2.49-6.7.22-2.62-.65-5.21-1.73-6.96-.13-.23-.26-.45-.38-.66-.15-.2-.3-.39-.44-.57-.28-.36-.54-.7-.78-1-.53-.53-.95-.95-1.21-1.22-.86-.85-.05-.27-.04-.27-1.15-.91-.55-.32-1.52-1.09-.26-.22.1-.02.26.09-.43-.33-.83-.64-.89-.61.54.38.23.35.42.57-.41-.33-.86-.57-1.3-.86l.1-.03c-.3-.19-.84-.32-2.16-1.03-2.25-1.18-4.82-2.11-7.21-2.83.05-.03.57.08,1.08.22-.32-.11-.81-.25-1.1-.36.56.24-1.03-.24-.58-.08-1.81-.32-4.07-1.02-5.69-1.17-.11.07-1.04.63-1.98,1.2-.93.59-1.78,1.21-1.79,1.31-.47-.06-.88-.09-1.01-.12.06.03.29.06.57.1.3.04.65.08.89.1l.1-.09c1.13.12.25.09,1.36.25.05.09-.97-.05-1.85-.14.79.1,1.58.28,1.92.25.75.16-.1.09.8.27.65.1,1.51.16,2.24.38h-.02c1.77.48,2.76.52,4.34,1.07l-.18-.02c.56.2,1.67.5,2.65.9-.27-.12-.5-.27.1-.06.56.24,1.03.42,1.47.59.43.18.81.36,1.19.57.26.09.54.17.8.27.9.49,2.56,1.26,4.16,2.58.44.3.78.69,1.19,1.06.43.36.72.81,1.07,1.24.38.41.6.96.91,1.44.28.5.45,1.04.66,1.57.63,2.15.35,4.45-.58,6.25-.88,1.81-2.04,3.15-2.76,3.85l.1-.12c-1.05,1.12-2.56,2.42-4.45,3.59-.94.58-1.96,1.15-3.04,1.66-1,.48-2.1.8-3.3,1.1-4.82,1.1-10,1.42-13.41,1.54-1.06-.05-2.52-.05-3.62-.09.61.04.4.1-.08.09-3.36-.14-.23.09-3.63-.07-1.95-.08-6.7-.48-11.16-1.66-2.22-.58-4.35-1.38-5.99-2.24-.42-.2-.8-.41-1.14-.64-.34-.22-.68-.41-.95-.62-.52-.44-1-.74-1.24-1.04-.65-.52-1.27-1.2-1.71-1.97-.2-.39-.45-.76-.56-1.17-.14-.4-.3-.77-.35-1.16l.05.15c-.04-.2-.09-.53-.16-.94.02-.43-.02-.94.05-1.53.16-1.15.55-2.71,1.16-4.14,1.17-2.9,3.3-5.28,4.09-5.99l-.21.19c1.31-1.34,1.23-1.06,2.42-1.93-.25,0,1.05-1,1.6-1.31v.04c.77-.53,2.66-1.59,4.15-2.15l-.03.09c1.2-.57,3.62-1.23,4.55-1.43,2.14-.49,5.52-.85,8.46-1.05.64.05,1.27.1,1.89.18l.27-.02s.76-.64,1.08-1.34c.34-.68.16-1.54-1.93-1.81l.07-.08-.82.02c-.98-.01-1.43.11-1.37.03l1.34-.04c-.99,0-.3-.05.08-.11-.41,0-.79,0-1.14,0-.19.04.14.02.3.03-.53.05-1.26.16-1.91.18-1.01.08-.07-.12-1.25-.01-3.1.29-6.15.86-9.13,1.79-2.97.95-5.91,2.27-8.56,4.25-.14.07,0-.04.15-.17-1.6,1.19-2.91,2.42-4.05,3.86-.35.37-.48.45-.6.55.06-.05-.28.44-.82,1.22-.51.79-1.15,1.91-1.67,3.1-.52,1.19-.93,2.43-1.17,3.39-.15.46-.22.91-.27,1.22-.06.31-.09.5-.09.52Z"/>
      </g>
    </g>
  </g>
</svg>