<?xml version="1.0" encoding="UTF-8"?>
<svg id="b" data-name="Camada_2" xmlns="http://www.w3.org/2000/svg" viewBox="0 0 120.77 132.6">
  <defs>
    <style>
      .d {
        fill: #FFF;
      }
    </style>
  </defs>
  <g id="c" data-name="Camada_1">
    <g>
      <g>
        <path class="d" d="M16.58,10.18c.1-.08.16-.26.23-.43-.11.11-.19.25-.23.43Z"/>
        <polygon class="d" points="16.81 9.75 16.81 9.75 16.81 9.75 16.81 9.75"/>
        <path class="d" d="M24.26,23.41c.05-.03.12-.06.18-.1-.06.03-.12.06-.18.1Z"/>
        <path class="d" d="M20.99,3.64v-.14c.27-.05.08.13.35.06.11-.19.51-.03.63-.11,0,.02.16.03.15.09.05-.1.17-.02.27-.04.04-.03-.03-.03-.05-.07l.24-.03c.09.05.11.11,0,.11.16.03.46.1.83.18.36.13.81.24,1.21.45.43.16.76.45,1.09.62.27.24.5.43.63.52,0-.11-.2-.19-.17-.34.18.06.18.18.29.17-.06.16.22.31.16.53l.11-.03v.1c.56.49.18.08.49.65.19.33.46.4.46.65,0-.03.02-.14.08-.05-.08.05.15.24.08.32.04.09.15.41.23.27-.04.07.04.36-.07.21.04.09.04.19.08.26v-.14c.09.35.02.56.17.77l.03-.14c.04.21.09.39-.02.48l-.08-.21c.03.17.06.31.1.44.02.14.03.27.07.42v-.11c.06.19.15.8.19,1.43-.02.64-.03,1.28.02,1.48l.12-.16.04.34s-.29-.21-.26-.24c.02.34-.29,1.46-.51,2.52-.02.12-.02.09-.08.21-.06.12-.11.23-.16.34-.1.23-.24.42-.34.61-.22.37-.43.64-.53.76-.2.17-.15-.05-.16-.07-.16.26,0,.17-.17.37-.06.05-.05-.06-.04-.1-.06.1-.15.16-.12.19.11-.09.17.03.27.03-.07.09-.14.18-.22.26l-.05-.06c-.05.05.03.28-.22.51-.42.39-.84.85-1.31,1.2-.02-.04.05-.14.13-.24-.06.05-.14.13-.22.15.16-.03-.15.19-.05.15-.22.41-.77.59-1.01.89.03.08.24.79.41,1.52.17.73.28,1.49.32,1.57-.14.07-.28.13-.37.16.11,0,.38-.11.51-.21l-.03-.11c.29-.21.11.01.4-.17.06.07-.2.24-.47.39.24-.12.49-.19.53-.32.22-.09.03.1.3-.01.16-.13.34-.35.56-.43h0c.52-.24.62-.59,1.08-.85l-.02.06c.17-.08.41-.35.68-.54-.08.05-.18.06-.04-.08.32-.21.46-.43.7-.59l.12-.25c.45-.47,1.52-1.74,2.24-3.23l.26-.56c.05-.12.13-.25.18-.42l.08-.36c.08-.36.16-.71.23-1.03.13-.64.27-1.16.3-1.48v.05c.06-.49.12-1.1.19-1.77.1-.67,0-1.46,0-2.22-.03-.77-.25-1.56-.38-2.27-.27-.7-.48-1.35-.76-1.83-.09-.34-.35-.75-.51-1.07.07.19-.01.16-.09.03-.63-.89-.07-.04-.8-.87-.11-.12-.26-.28-.43-.46-.2-.16-.42-.35-.67-.56-.48-.44-1.14-.8-1.78-1.17C25.13.39,23.7.12,23.16,0c-.6.06-1.32-.09-1.93.06l.06-.03c-.16.03-.5.03-.98.14-.24.05-.49.08-.83.24-.16.07-.32.14-.49.21-.13.07-.24.15-.36.23-.96.6-1.66,1.41-1.88,1.69l.07-.06c-.32.53-.38.38-.7.74.15.03-.08.5-.18.66l-.02-.02c-.14.26-.37.88-.56,1.3l-.06-.05c-.12.38-.45,1.02-.55,1.28-.29.56-.75,1.43-.9,2.27l-.36.47v.08s.57.39,1.25.63c.69.23,1.45.36,1.85,0l.07.03.04-.18c.1-.21.05-.33.12-.3l-.1.29c.09-.21.08-.05.09.05.03-.09.07-.17.11-.24-.01-.05-.04.02-.06.05,0-.12,0-.31.08-.44.08-.22.12.02.22-.23.53-1.34,1.2-2.55,1.95-3.63.04,0,.02.02.01.06.21-.33.43-.6.63-.85.09-.04.14-.03.18-.03-.04,0,.26-.34.6-.57.08-.06.17-.12.24-.18h0c.04.07-.37-.64-.2-.34h0s0,.01,0,.01v.02s.04.04.04.04l.05.08.1.15c.05.08.02.02.04.04.01,0,.02,0,.03-.01,0-.03.17-.04.16-.03Z"/>
      </g>
      <g>
        <path class="d" d="M44.51,10.18c.1-.08.16-.26.23-.43-.11.11-.19.25-.23.43Z"/>
        <polygon class="d" points="44.74 9.75 44.74 9.75 44.73 9.75 44.74 9.75"/>
        <path class="d" d="M52.19,23.41c.05-.03.12-.06.18-.1-.06.03-.12.06-.18.1Z"/>
        <path class="d" d="M48.91,3.64v-.14c.27-.05.08.13.35.06.11-.19.51-.03.63-.11,0,.02.16.03.15.09.05-.1.17-.02.27-.04.04-.03-.03-.03-.05-.07l.24-.03c.09.05.11.11,0,.11.16.03.46.1.83.18.36.13.81.24,1.2.45.43.16.76.45,1.09.62.27.24.5.43.63.52,0-.11-.2-.19-.17-.34.18.06.18.18.29.17-.06.16.22.31.16.53l.11-.03v.1c.56.49.18.08.49.65.19.33.46.4.46.65,0-.03.02-.14.08-.05-.08.05.15.24.08.32.04.09.15.41.23.27-.04.07.04.36-.07.21.04.09.04.19.08.26v-.14c.09.35.02.56.17.77l.03-.14c.04.21.09.39-.02.48l-.08-.21c.03.17.06.31.1.44.02.14.03.27.07.42v-.11c.06.19.15.8.19,1.43-.02.64-.03,1.28.02,1.48l.12-.16.04.34s-.29-.21-.26-.24c.02.34-.29,1.46-.51,2.52-.02.12-.02.09-.08.21-.06.12-.11.23-.16.34-.1.23-.24.42-.34.61-.22.37-.43.64-.53.76-.2.17-.15-.05-.16-.07-.16.26,0,.17-.17.37-.06.05-.05-.06-.04-.1-.06.1-.15.16-.12.19.11-.09.17.03.27.03-.07.09-.14.18-.22.26l-.05-.06c-.05.05.03.28-.22.51-.42.39-.84.85-1.31,1.2-.02-.04.05-.14.13-.24-.06.05-.14.13-.22.15.16-.03-.15.19-.05.15-.22.41-.77.59-1.01.89.03.08.24.79.41,1.52.17.73.28,1.49.32,1.57-.14.07-.28.13-.37.16.11,0,.38-.11.51-.21l-.03-.11c.29-.21.11.01.4-.17.06.07-.2.24-.47.39.24-.12.49-.19.53-.32.22-.09.03.1.3-.01.16-.13.34-.35.56-.43h0c.52-.24.62-.59,1.08-.85l-.02.06c.17-.08.41-.35.68-.54-.08.05-.18.06-.04-.08.32-.21.46-.43.7-.59l.12-.25c.45-.47,1.52-1.74,2.24-3.23l.26-.56c.05-.12.13-.25.18-.42l.08-.36c.08-.36.16-.71.23-1.03.13-.64.27-1.16.3-1.48v.05c.06-.49.12-1.1.19-1.77.1-.67,0-1.46,0-2.22-.03-.77-.25-1.56-.38-2.27-.27-.7-.48-1.35-.76-1.83-.09-.34-.35-.75-.51-1.07.07.19-.01.16-.09.03-.63-.89-.07-.04-.8-.87-.11-.12-.26-.28-.43-.46-.2-.16-.42-.35-.67-.56-.48-.44-1.14-.8-1.78-1.17-1.31-.69-2.74-.96-3.28-1.07-.6.06-1.32-.09-1.93.06l.06-.03c-.16.03-.5.03-.98.14-.24.05-.49.08-.83.24-.16.07-.32.14-.49.21-.13.07-.24.15-.36.23-.96.6-1.66,1.41-1.88,1.69l.07-.06c-.32.53-.38.38-.7.74.15.03-.08.5-.18.66l-.02-.02c-.14.26-.37.88-.56,1.3l-.06-.05c-.12.38-.45,1.02-.55,1.28-.29.56-.75,1.43-.9,2.27l-.36.47v.08s.57.39,1.25.63c.69.23,1.45.36,1.85,0l.07.03.04-.18c.1-.21.05-.33.12-.3l-.1.29c.09-.21.08-.05.09.05.03-.09.07-.17.11-.24-.01-.05-.04.02-.06.05,0-.12,0-.31.08-.44.08-.22.12.02.22-.23.53-1.34,1.2-2.55,1.95-3.63.04,0,.02.02.01.06.21-.33.43-.6.63-.85.09-.04.14-.03.18-.03-.04,0,.26-.34.6-.57.08-.06.17-.12.24-.18h0c.04.07-.37-.64-.2-.34h0s0,.01,0,.01v.02s.04.04.04.04l.05.08.1.15c.05.08.02.02.04.04.01,0,.02,0,.03-.01,0-.03.17-.04.16-.03Z"/>
      </g>
      <g>
        <path class="d" d="M72.43,10.18c.1-.08.16-.26.23-.43-.11.11-.19.25-.23.43Z"/>
        <polygon class="d" points="72.66 9.75 72.66 9.75 72.66 9.75 72.66 9.75"/>
        <path class="d" d="M80.11,23.41c.05-.03.12-.06.18-.1-.06.03-.12.06-.18.1Z"/>
        <path class="d" d="M76.84,3.64v-.14c.27-.05.08.13.35.06.11-.19.51-.03.63-.11,0,.02.16.03.15.09.05-.1.17-.02.27-.04.04-.03-.03-.03-.05-.07l.24-.03c.09.05.11.11,0,.11.16.03.46.1.83.18.36.13.81.24,1.21.45.43.16.76.45,1.09.62.27.24.5.43.63.52,0-.11-.2-.19-.17-.34.18.06.18.18.29.17-.06.16.22.31.16.53l.11-.03v.1c.56.49.18.08.49.65.19.33.46.4.46.65,0-.03.02-.14.08-.05-.08.05.15.24.08.32.04.09.15.41.23.27-.04.07.04.36-.07.21.04.09.04.19.08.26v-.14c.09.35.02.56.17.77l.03-.14c.04.21.09.39-.02.48l-.08-.21c.03.17.06.31.1.44.02.14.03.27.07.42v-.11c.06.19.15.8.19,1.43-.02.64-.03,1.28.02,1.48l.12-.16.04.34s-.29-.21-.26-.24c.02.34-.29,1.46-.51,2.52-.02.12-.02.09-.08.21-.06.12-.11.23-.16.34-.1.23-.24.42-.34.61-.22.37-.43.64-.53.76-.2.17-.15-.05-.16-.07-.16.26,0,.17-.17.37-.06.05-.05-.06-.04-.1-.06.1-.15.16-.12.19.11-.09.17.03.27.03-.07.09-.14.18-.22.26l-.05-.06c-.05.05.03.28-.22.51-.42.39-.84.85-1.31,1.2-.02-.04.05-.14.13-.24-.06.05-.14.13-.22.15.16-.03-.15.19-.05.15-.22.41-.77.59-1.01.89.03.08.24.79.41,1.52.17.73.28,1.49.32,1.57-.14.07-.28.13-.37.16.11,0,.38-.11.51-.21l-.03-.11c.29-.21.11.01.4-.17.06.07-.2.24-.47.39.24-.12.49-.19.53-.32.22-.09.03.1.3-.01.16-.13.34-.35.56-.43h0c.52-.24.62-.59,1.08-.85l-.02.06c.17-.08.41-.35.68-.54-.08.05-.18.06-.04-.08.32-.21.46-.43.7-.59l.12-.25c.45-.47,1.52-1.74,2.24-3.23l.26-.56c.05-.12.13-.25.18-.42l.08-.36c.08-.36.16-.71.23-1.03.13-.64.27-1.16.3-1.48v.05c.06-.49.12-1.1.19-1.77.1-.67,0-1.46,0-2.22-.03-.77-.25-1.56-.38-2.27-.27-.7-.48-1.35-.76-1.83-.09-.34-.35-.75-.51-1.07.07.19-.01.16-.09.03-.63-.89-.07-.04-.8-.87-.11-.12-.26-.28-.43-.46-.2-.16-.42-.35-.67-.56-.48-.44-1.14-.8-1.78-1.17-1.31-.69-2.74-.96-3.28-1.07-.6.06-1.32-.09-1.93.06l.06-.03c-.16.03-.5.03-.98.14-.24.05-.49.08-.83.24-.16.07-.32.14-.49.21-.13.07-.24.15-.36.23-.96.6-1.66,1.41-1.88,1.69l.07-.06c-.32.53-.38.38-.7.74.15.03-.08.5-.18.66l-.02-.02c-.14.26-.37.88-.56,1.3l-.06-.05c-.12.38-.45,1.02-.55,1.28-.29.56-.75,1.43-.9,2.27l-.36.47v.08s.57.39,1.25.63c.69.23,1.45.36,1.85,0l.07.03.04-.18c.1-.21.05-.33.12-.3l-.1.29c.09-.21.08-.05.09.05.03-.09.07-.17.11-.24-.01-.05-.04.02-.06.05,0-.12,0-.31.08-.44.08-.22.12.02.22-.23.53-1.34,1.2-2.55,1.95-3.63.04,0,.02.02.01.06.21-.33.43-.6.63-.85.09-.04.14-.03.18-.03-.04,0,.26-.34.6-.57.08-.06.17-.12.24-.18h0c.04.07-.37-.64-.2-.34h0s0,.01,0,.01v.02s.04.04.04.04l.05.08.1.15c.05.08.02.02.04.04.01,0,.02,0,.03-.01,0-.03.17-.04.16-.03Z"/>
      </g>
      <g>
        <path class="d" d="M33.63,129.74c.41-.55.94-1.57,1.39-2.57-.45.82-.85,1.57-1.39,2.57Z"/>
        <path class="d" d="M35.04,127.15v-.02s0,.02-.01.03v-.02Z"/>
        <path class="d" d="M42.58,132.48c.26,0,.55,0,.85,0-.29,0-.57,0-.85,0Z"/>
        <path class="d" d="M57.9,108.45l.16-.14c2.45-.02.71.15,2.98.1.89-.2,3.77,0,4.55-.11-.02.02,1.09.01,1.02.07.34-.11,1.14-.03,1.84-.07.25-.03-.19-.03-.38-.06l1.6-.05c.63.03.78.09.1.11,4.19-.02,24.26-.11,28.78-.13-.57-.09-1.96-.04-2.49-.16,1.19-.07,1.75.02,2.27-.04.46.18,2.59.07,3.47.29l.33-.09.57.09c1.26.03,1.91.1,2.26.14.36.04.49.07.59.09.2.06.36.04,2.42.64,2.35.74,3.44,1.18,4.53,1.92-.17-.1-.58-.43-.04-.13.06.11,1.37.89,1.51,1.17.25.17.65.63.99.95.29.35.5.58.36.29.2.26,1,1.7.45.89.31.46.5.96.69,1.32l-.26-.67c.81,1.69.89,2.79,1.06,4.02v-.71c.12,1.15.06,2.11-.14,2.51.09-.36.03-.76.06-1.14-.09,1.84-.46,2.87-1.21,4.18.1-.15.22-.29.3-.45-.1.22-.32.52-.56.93-.31.36-.64.83-1.14,1.25-.95.89-2.35,1.75-3.91,2.35-1.56.6-3.23.96-4.63,1.13-.71.08-1.33.13-1.86.17-.54.02-.97.04-1.25.06l1.01.1-1.87.08c.22,0,.9-.31,1.08-.28-4.02,0-24.91.08-28.63.02-1.5-.05-.27-.15-.25-.17-1.82.04-.78.1-2.33.09-.42-.02.09-.08.32-.09-.68.01-1.31-.02-1.36.02.85.03.49.15.85.23h-1.99s.09-.09.09-.09c-.44,0-1.12.21-3.08.17-3.31,0-6.89-.02-10.21-.02.05-.05.75-.07,1.45-.1-.45,0-1.12,0-1.53-.02.8.08-1.39.05-.77.09-2.43.18-5.58.02-7.73.14-.19.17-4.61,2.85-4.61,3.04-.67,0-1.33,0-1.54-.02.17.05,1.48.07,2.18.04l.12-.11c1.61-.04.38.06,1.94.06.08.09-1.36.1-2.63.11,1.14.01,2.28.07,2.75-.02,1.07.04-.12.11,1.17.14.92-.03,2.13-.11,3.19-.06l-.02.02c2.57.09,3.94-.13,6.29-.04l-.25.03c.83.05,2.47-.02,3.97.04-.43-.02-.8-.08.1-.09,1.72.05,2.9,0,4.16.07l1.21-.08c6-.02,29.72-.1,35.75-.12h-.24c.57.01,1.19,0,1.83,0,.32,0,.65,0,.99,0,.36-.02.73-.04,1.1-.06,1.51-.09,3.14-.33,4.83-.81,1.68-.47,3.43-1.16,5.06-2.24,1.63-1.07,3.13-2.57,4.12-4.42,1-1.85,1.4-3.99,1.31-5.97-.08-1.97-.56-3.9-1.44-5.57-.87-1.68-2.09-3.04-3.34-4.06-1.26-1.03-2.55-1.76-3.71-2.31-1.4-.78-3.49-1.44-5.06-1.82.87.24.56.23-.13.06-1.18-.28-1.9-.34-2.25-.39-.34-.02-.39-.02-.43-.01-.08.03-.22-.01-2.63-.09-5.53-.11-26.27.14-31.1.07-2.59.14-5.82.08-8.36.17l.26-.03c-2.72.07-18.15.02-21.31.07l.43.02c-2.76.08-2.39-.05-4.56-.09.14.07-.38.12-1.05.16-.34.01-.71.03-1.05.05-.57,0-1.09.02-1.46.02l.05-.03c-.84.01-2.1.03-3.53.06-.69.01-1.43.03-2.18.04-.37,0-.75.01-1.12.02-.29.03-.4.1-.6.15,1.01.74,2.2,1.67,3.18,2.43l-.3-.14c.39.32.82.66,1.28,1.03.22.18.45.37.69.56.16.18.33.37.5.56.17.19.34.39.51.58.07.09.2.22.23.27l.12.18c.15.24.33.47.45.73.58.99.89,2.04,1.03,2.62.34,1.34.44,3.14.18,5.06-.25,1.92-.84,3.95-1.52,5.78-.38.76-.79,1.5-1.24,2.21l-.15.34s.1,1.19.5,1.89c.36.71,1.31.94,2.83-1.52l.03.11c.16-.34.31-.69.46-1.04.57-1.24.69-1.87.73-1.76-.21.59-.45,1.16-.7,1.73.55-1.25.22-.36.05.14.23-.52.45-1.02.64-1.45.07-.26-.1.18-.19.37.25-.7.53-1.69.81-2.55.38-1.37.16-.04.56-1.66.65-2.85.83-5.94-.02-8.94-.41-1.47-1.12-2.96-1.97-4.16l-.12-.17s-.05-.06-.08-.08c-.06-.03.04-.01.07-.01h.12c.87,0,1.75,0,2.64,0,.19.03-.04.03-.27.04,2.49-.02,4.7-.05,6.97-.07.63.03.8.08.99.11-.19-.03,2.94-.05,6.15-.08,3.2-.01,6.47-.03,6.58-.03Z"/>
      </g>
      <g>
        <path class="d" d="M26.91,128.88c-.91-.23-2.52-.57-4-1,1.12.39,2.36.73,4,1Z"/>
        <path class="d" d="M22.88,127.87s-.02,0-.02,0c.02,0,.04.01.05.02-.01,0-.02,0-.03,0Z"/>
        <path class="d" d="M99.64,100.26c0-.4.01-.86.02-1.33,0,.45-.01.9-.02,1.33Z"/>
        <path class="d" d="M4.17,60.96l-.14-.24c-.1-3.83.13-1.12,0-4.66-.23-1.38-.12-5.88-.25-7.1,0,0,0-.1,0-.25,0-.16,0-.37,0-.58,0-.42,0-.82.04-.77-.12-.53-.06-1.78-.11-2.87-.04-.4-.03.29-.05.59l-.09-2.5c.01-.98.07-1.22.1-.16-.03-3.27-.23-12.77-.07-22.26.06-2.34.11-4.78.36-6.84.01-.1,0-.04.02-.07.16-.02.31-.04.46-.06.99-.13,2.03-.2,3.01-.26,3.96-.22,7.25-.27,9-.32-.9-.06-3.07.04-3.89-.06,1.85-.12,2.73-.04,3.55-.13.72.17,4.08-.02,5.5.16l.53-.11.92.06c8.19-.13,1.87-.07,9.13-.04,4.2,0,6.2-.13,8.54-.06-.35,0-1.27-.08-.18-.09.18.09,2.9-.04,3.43.06,1.07,0,4.52.05,3.36-.09.59.07,3.67.13,1.83.16,1.04.02,2.05.05,2.8.03l-1.34-.05c3.51.03,5.43.16,7.72.08l-1.3-.07c2.1.02,3.86.04,4.68.18h-2.16c3.49.06,5.59.09,8.49.07l-1.04-.02c3.7-.07,23.07.25,26.48.19l-1.57-.14h2.93c-.35-.02-1.42.27-1.71.23.79.02,1.98.05,3.49.08.35,0,.74.02,1.16.03.09-.03.04.09.05.14v.2c0,.28-.01.58-.02.88-.07,4.04-.15,8.9-.24,13.74-.19,9.69-.38,19.31-.43,22.22-.1,2.34-.16.42-.18.39-.02,2.85.08,1.23.03,3.66-.03.66-.07-.14-.08-.51,0,1.06-.06,2.05-.02,2.13.06-1.33.17-.76.26-1.32l-.07,3.12-.07-.14c-.02.7.17,1.77.08,4.83-.1,5.17-.22,10.78-.32,15.97-.04-.08-.05-1.17-.06-2.27-.02.7-.02,1.76-.07,2.4.1-1.25.01,2.18.06,1.2.11,3.81-.15,8.73-.09,12.09.16.3,2.71,7.25,2.91,7.25-.02,1.04-.05,2.08-.07,2.4.05-.27.11-2.32.11-3.41l-.1-.19c0-2.51.07-.59.11-3.03.09-.13.07,2.12.04,4.11.04-1.79.14-3.56.06-4.29.07-1.68.1.19.18-1.83,0-1.44-.05-3.33.03-4.99v.03c.18-4.02,0-6.15.16-9.83l.02.4c.07-1.3.06-3.86.15-6.2-.03.67-.1,1.25-.09-.16.1-2.69.08-4.53.19-6.5l-.05-1.89c.08-4.69.28-16.29.48-27.91.09-5.81.19-11.61.27-16.56.05-2.86.09-5.46.13-7.69,0-.45.02-.9.02-1.33v-.16s.04-.14-.04-.11h-.32c-.21-.01-.42-.02-.63-.02-.83-.02-1.62-.04-2.36-.06-.87-.02-1.64-.04-2.29-.06h.37c-14.36-.35-43.83-.94-58.69-.88-2.3-.1-5.47-.09-7.86-.12,1.33.04.88.09-.16.09-7.31,0-.49.05-7.88.12-2.13.04-5.76.08-10.15.22-2.2.09-4.55.16-7.12.45l-.49.07-.73.14c-.25.03-.5.15-.75.22-.26.08-.43.26-.65.39-.22.14-.38.35-.49.58-.14.21-.2.48-.28.73-.08.25-.11.53-.16.8-.06.31-.05.39-.08.59-.15,1.34-.21,2.62-.26,3.91-.31,10.23-.05,20.22-.05,24,.2,4.05.21,9.11.39,13.08l-.04-.4c.11,4.27.73,28.37.86,33.33v-.67c.19,4.31.04,3.73.08,7.13.13-.45.29,3.25.33,4.65l-.03-.05c.07,2.13.27,6.92.31,10.45l-.08-.14c.05,1.55.27,3.79.86,5.86.58,2.07,1.48,3.93,2.1,4.87,1.28,2.24,3.49,4.75,6.3,6.75,2.8,2.01,6.13,3.53,9.31,4.5,1.35.51,2.71.95,4.11,1.32l.63.11s1.84-.31,2.54-.97c.35-.33.4-.69-.09-1.07-.5-.39-1.58-.8-3.54-1.42l.14-.04c-.52-.12-1.05-.26-1.57-.4-1.85-.57-2.71-.83-2.56-.85.83.31,1.67.57,2.52.82-1.86-.58-.55-.22.18-.06-.78-.22-1.53-.47-2.13-.7-.37-.09.26.12.54.23-1-.29-2.39-.73-3.53-1.29-1.78-.85-.08-.13-2.11-1.19-2.62-1.46-5-3.28-6.75-5.55-.88-1.13-1.63-2.34-2.2-3.64-.55-1.3-.96-2.66-1.2-4.08-.09-.71-.2-1.42-.23-2.14l-.04-1.09c-.01-.36,0-.79,0-1.18-.01-1.59-.03-3.18-.04-4.78-.06-3.18-.13-6.38-.2-9.62.02-.29.03.06.05.43-.12-3.9-.23-7.35-.33-10.9,0-.99.05-1.26.07-1.55-.02.29-.17-4.6-.32-9.6-.13-5-.27-10.11-.27-10.28Z"/>
      </g>
      <g>
        <path class="d" d="M5.3,28.72c.28.08.75.09,1.2.1-.35-.08-.72-.11-1.2-.1Z"/>
        <path class="d" d="M6.51,28.82s0,0,0,0c0,0-.01,0-.02,0,0,0,0,0,0,0Z"/>
        <path class="d" d="M94,25.15c-.11,0-.24,0-.37,0,.12,0,.25,0,.37,0Z"/>
        <path class="d" d="M28.35,29.06l.07-.14c1.07,0,.31.16,1.3.12.39-.19,1.64.02,1.98-.08,0,.02.48.02.45.08.15-.1.5-.02.8-.05.11-.03-.08-.03-.16-.06l.7-.04c.27.03.34.1.04.11,1.83.04,10.61.14,12.58.09-.25-.08-.86-.03-1.09-.15.52-.07.77.02,1-.05.2.18,1.14.04,1.54.23l.15-.1.26.06c2.29-.11.52-.05,2.55-.03,1.18-.02,1.73-.16,2.39-.11-.1,0-.36-.07-.05-.09.05.09.81-.07.96.03.3-.01,1.26,0,.94-.13.16.06,1.03.09.51.14.29,0,.57.02.78,0l-.37-.03c.98-.02,1.52.08,2.16-.03l-.36-.05c.59,0,1.08-.02,1.31.11l-.6.04c.97,0,1.56-.01,2.37-.08h-.29c1.03-.13,6.44-.23,7.39-.38l-.44-.1.82-.08c-.1,0-.4.31-.48.28,1.76,0,10.89-.08,12.51-.02.65.05.12.15.11.17.8-.04.34-.1,1.02-.09.18.02-.04.08-.14.09.3-.01.57.02.59-.02-.37-.03-.21-.15-.37-.23h.87s-.04.09-.04.09c.19,0,.49-.21,1.35-.17,1.44.03,3.01,0,4.46.02-.02.05-.33.07-.63.1.19,0,.49,0,.67.02-.35-.08.61-.05.33-.09,1.06-.18,2.44-.02,3.38-.14.08-.17,2.01-2.85,2.01-3.04.29,0,.58,0,.67.02-.08-.05-.65-.07-.95-.04l-.05.11c-.7.04-.16-.06-.85-.06-.04-.09.59-.1,1.15-.11-.5-.01-1-.07-1.2.02-.47-.04.05-.11-.51-.14-.4.03-.93.11-1.39.06v-.02c-1.11-.09-1.71.13-2.74.04l.11-.03c-.36-.05-1.08.02-1.73-.04.19.02.35.08-.04.09-.75-.05-1.27,0-1.81-.07l-.53.08c-2.62-.02-12.96.1-15.59.12h.1c-4.01.03-12.23.02-16.38.14-.64-.08-1.52-.06-2.19-.09.37.03.24.09-.05.09-2.04,0-.14.06-2.2.09-2.37.08-11.45-.01-13.55-.08-1.13.12-2.54.03-3.65.11l.11-.03c-1.19.05-7.92-.07-9.31-.02l.19.02c-1.21.08-1.04-.06-1.99-.1.12.14-.91.22-1.3.23v-.03c-.58.02-1.93.14-2.91.16l.04-.08c-.82.08-2.36.05-2.95.06-1.35-.03-3.42-.16-5.22-.06l-1.16-.21-.17.02s-1.87,2.59.5,3.15l-.04.08h.47c.56.03.82-.06.79.02h-.77c.57.01.17.05-.05.1.24,0,.47.02.65.04.11-.03-.08-.03-.17-.05.3-.03.73-.1,1.1-.06.58,0,.04.12.71.13,3.57.06,7.02.15,10.63.13.08.03-.02.03-.12.04,1.09-.03,2.05-.02,3.04-.05.27.03.35.08.43.11-.16-.06,5.46-.07,5.55-.05Z"/>
      </g>
      <g>
        <path class="d" d="M17.47,48.38c.11.08.31.08.49.09-.14-.07-.29-.1-.49-.09Z"/>
        <polygon class="d" points="17.96 48.47 17.96 48.47 17.96 48.47 17.96 48.47"/>
        <path class="d" d="M53.34,44.81s-.1,0-.16-.01c.05,0,.11.01.16.01Z"/>
        <path class="d" d="M26.74,48.47l.02-.14c.43-.01.13.15.53.11.15-.2.66,0,.8-.1,0,.02.19.02.18.08.06-.11.2-.03.32-.06.04-.03-.03-.03-.07-.06l.28-.04c.11.03.14.09.02.11.74.02,4.26.02,5.05-.05-.1-.08-.35-.02-.44-.14.21-.08.31.02.4-.06.08.18.46.03.62.21l.06-.11.11.06c.92-.13.21-.06,1.03-.06.47-.03.69-.18.96-.13-.04,0-.14-.06-.02-.09.02.09.32-.07.38.02.12-.01.51,0,.37-.13.07.06.41.08.21.14.12,0,.23.02.31,0l-.15-.03c.39-.02.61.07.86-.04l-.15-.05c.23,0,.43-.02.52.11l-.24.04c.39,0,.62-.01.95-.08h-.12c.41-.13,2.58-.22,2.96-.37l-.17-.1.33-.08s-.16.31-.19.28c.7-.01,4.35,0,5,.11.26.06.04.15.04.17.32-.02.14-.1.41-.08.07.02-.02.07-.06.09.12,0,.23.03.24-.01-.15-.04-.08-.16-.14-.24l.35.03-.02.07c.08,0,.21-.2.55-.14.57.06,1.2.07,1.77.13-.01.04-.13.06-.26.08.08,0,.2,0,.26.04-.13-.09.25-.04.14-.08.43-.15.97.06,1.35-.04.03-.16,1.07-2.76,1.1-2.95.12.02.25.03.3.06-.04-.05-.28-.1-.41-.09l-.03.1c-.3,0-.06-.07-.35-.09,0-.09.26-.08.49-.07-.21-.03-.41-.11-.5-.03-.19-.05.03-.1-.2-.16-.17,0-.39.08-.58,0h0c-.46-.14-.72.06-1.13-.06l.05-.03c-.15-.06-.44-.01-.71-.08.08.02.14.09-.02.09-.3-.07-.52-.03-.74-.11l-.22.07c-1.07-.09-5.29-.1-6.36-.09h.04c-1.63,0-4.97,0-6.65.15-.26-.08-.62-.05-.89-.06.15.03.1.09-.02.09-.82.01-.05.06-.89.12-.96.1-4.62.12-5.47.07-.45.14-1.03.06-1.47.15l.04-.03c-.48.06-3.2.02-3.76.08l.08.02c-.48.09-.42-.05-.81-.08.06.14-.36.23-.52.24v-.03c-.23.03-.77.16-1.17.19v-.08c-.31.09-.94.07-1.17.09-.54-.02-1.39-.12-2.11,0l-.48-.2-.07.02s-.64,2.61.34,3.14v.08s.18-.01.18-.01c.23.03.33-.06.32.02h-.31c.23.01.07.06-.01.1.1,0,.19.01.26.03.04-.03-.03-.03-.07-.05.12-.03.29-.11.44-.07.23,0,.02.12.29.12,1.44.02,2.83.07,4.28.01.03.03,0,.03-.05.05.44-.04.82-.04,1.22-.09.11.03.14.08.18.11-.03-.03.51-.06,1.08-.08.28,0,.56-.02.78-.03.22,0,.36,0,.37,0Z"/>
      </g>
      <g>
        <path class="d" d="M53.09,34.77c-.07-.08-.17-.08-.27-.1.08.08.17.11.27.1Z"/>
        <polygon class="d" points="52.81 34.67 52.81 34.67 52.82 34.67 52.81 34.67"/>
        <path class="d" d="M32.84,37.93s.07.01.1.02c-.03,0-.07-.02-.1-.02Z"/>
        <path class="d" d="M47.93,34.58v.14c-.25,0-.09-.15-.3-.11-.08.19-.37,0-.44.1,0-.02-.11-.02-.1-.08-.03.11-.11.03-.18.06-.02.03.02.03.04.06l-.16.04c-.06-.03-.08-.09-.01-.11-.41-.02-2.37-.06-2.81,0,.06.08.19.02.25.14-.12.07-.17-.02-.22.06-.05-.18-.26-.04-.35-.22l-.03.11-.06-.06c-.51.12-.12.06-.57.05-.26.02-.39.17-.53.12.02,0,.08.06.01.09-.01-.09-.18.07-.21-.03-.07.01-.28,0-.21.13-.04-.06-.23-.09-.11-.14-.06,0-.13-.02-.17,0l.08.03c-.22.02-.33-.08-.47.03l.08.05c-.13,0-.24.01-.29-.11l.13-.04c-.21,0-.34,0-.52.07h.06c-.23.13-1.42.2-1.64.34l.09.1-.18.07s.1-.31.12-.28c-.39,0-2.39-.05-2.73-.16-.14-.07-.01-.15,0-.17-.18.02-.08.1-.23.07-.04-.02.02-.07.04-.09-.06,0-.12-.04-.13,0,.08.04.03.16.06.24l-.19-.03.02-.07s-.13.19-.31.13c-.31-.07-.65-.08-.96-.15.01-.04.08-.06.15-.08-.04,0-.11,0-.14-.04.06.09-.14.03-.08.08-.25.15-.52-.06-.73.03-.03.17-.96,2.72-1.03,2.9-.08-.02-.16-.04-.19-.07.03.06.18.11.26.1l.03-.1c.18,0,.03.07.2.1,0,.09-.17.08-.31.05.13.04.24.12.31.04.11.06-.03.1.1.16.1,0,.24-.07.35,0h0c.26.15.43-.05.66.07l-.03.02c.08.06.26.02.41.09-.04-.02-.07-.09.02-.09.17.08.3.04.42.12l.13-.07c.62.11,3.04.16,3.64.16h-.02c.93.02,2.83.05,3.79-.08.15.08.35.05.5.07-.08-.03-.06-.09,0-.09.46,0,.03-.06.5-.11.54-.09,2.6-.07,3.08-.01.25-.13.58-.05.82-.13l-.02.03c.27-.05,1.8.01,2.11-.04l-.04-.02c.27-.08.24.05.46.09-.03-.14.2-.22.29-.24v.03c.13-.03.43-.16.65-.18v.08c.18-.09.53-.06.66-.08.31.02.78.14,1.19.03l.28.21.04-.02s.26-2.6-.3-3.14v-.08s-.1.01-.1.01c-.13-.03-.18.06-.18-.02h.17c-.13-.01-.04-.06,0-.1-.05,0-.1-.01-.15-.03-.02.03.02.03.04.05-.07.03-.16.1-.24.07-.13,0-.02-.12-.17-.12-.8-.03-1.58-.1-2.38-.06-.02-.03,0-.03.02-.04-.24.04-.46.03-.68.08-.06-.03-.08-.08-.1-.11.04.06-1.22.11-1.24.09Z"/>
      </g>
      <g>
        <path class="d" d="M63.35,34.41c-.1.18-.13.51-.17.82.1-.23.15-.48.17-.82Z"/>
        <polygon class="d" points="63.18 35.24 63.18 35.25 63.18 35.23 63.18 35.24"/>
        <path class="d" d="M66.2,36.23c.08,0,.16-.02.25-.02-.08,0-.17,0-.25.02Z"/>
        <path class="d" d="M66.47,50.86l.06-.13c.79.05.22.17.95.18.29-.18,1.17.05,1.41-.05,0,.02.33.02.31.08.11-.1.35-.02.56-.05.08-.03-.06-.03-.11-.06l.49-.04c.19.03.24.09.03.11,1.29.07,7.34-.03,8.69-.16-.18-.07-.59,0-.76-.12.36-.08.53,0,.68-.08.15.18.79,0,1.07.18l.1-.11.18.06c2.97-.26.66-.08,3.38-.21.15-.01.29-.02.42-.03-.01-1.33-.11-2.04-.06-2.8,0,.13-.07.44-.09.04.05-.02.03-.29.02-.56,0-.15-.01-.29-.01-.4,0-.12,0-.13.03-.17-.01-.21,0-.87-.12-.65.06-.11.09-.71.14-.35,0-.2.02-.4,0-.54l-.03.26c-.02-.68.07-1.05-.04-1.49l-.05.25c-.01-.41-.03-.74.1-.91l.04.42c-.01-.67-.03-1.08-.1-1.64v.2c-.12-.71-.37-4.47-.62-5.14l-.07.32-.13-.57c0,.07.34.25.31.31-.02-.23-.06-.63-.13-1.16-.02-.14-.04-.28-.07-.43-.05-.23-.1-.46-.15-.71-.12-.49-.32-.96-.65-1.37-.18-.14-.37-.27-.55-.4-.21-.09-.43-.19-.67-.24-.23-.06-.48-.11-.73-.14l-.36-.05-.24-.02c-.64-.05-1.24-.07-1.79-.09-1.08-.01-1.96-.02-2.34-.03-.46-.05-.08-.15-.08-.17-.55.04-.24.11-.71.11-.13-.01.02-.08.1-.09-.21.02-.4-.01-.41.03.26.03.15.15.26.23h-.6s.02-.07.02-.07c-.13,0-.33.22-.93.2-1,0-2.08.08-3.07.12.01-.05.22-.08.43-.12-.13,0-.34.03-.46,0,.25.07-.42.08-.23.1-.72.22-1.67.11-2.31.28-.05.17-1.18,2.93-1.16,3.13-.2.01-.39.02-.45.01.05.04.44.04.64,0l.03-.11c.47-.07.12.05.58.02.03.08-.39.13-.77.17.34-.01.68.03.81-.08.32.01-.03.11.36.12.27-.04.62-.15.94-.12v.02c.76.04,1.15-.2,1.85-.15l-.07.03c.25.04.73-.06,1.17-.02-.13-.01-.24-.07.03-.09.51.03.86-.04,1.23.01l.35-.1c.68-.02,2.15-.09,3.71-.11.78,0,1.58,0,2.28.03.17.01.33.02.49.03h.07s.08,0,.1.02c.02.03.03.06.04.09.01.05,0-.02.04.22.05.33.08.59.1.78l-.02-.06c.16,1.27.26,3.33.32,5.41.02,1.04.05,2.08.07,3.05,0,.48.02.94.03,1.37.01.08.03.16.04.22-.04.02-.06.04-.07.08-.05,0-.09,0-.13-.01.06.03.09.09.05.09-.13,0-.13.02-.14.04,0,.01,0,.02-.03.03-.01,0-.03.01-.06.02,0,0-.21.02-.36.03-1.61.17-7.8.3-9.21.2-.76.13-1.71.03-2.44.08l.07-.03c-.19,0-.59,0-1.08-.04-.11,0-.23-.02-.36-.03-.05,0-.1-.01-.15-.02-.07-.01-.15-.02-.21-.06-.07-.05-.07-.15-.09-.22-.01-.16-.02-.31-.03-.45-.03-.57-.05-1.03-.06-1.27l-.02.12c-.09-.79.05-.69.09-1.32-.14.08-.21-.61-.21-.87h.03c-.02-.39-.11-1.3-.1-1.96l.07.03c-.06-.56.03-1.6.04-2,.08-.91.3-2.31.3-3.53l.28-.77v-.12s-.63-.37-1.34-.55c-.7-.18-1.5-.16-1.84.64l-.07-.03-.02.32c-.07.39,0,.57-.07.54l.05-.53c-.05.39-.07.11-.1-.04-.02.16-.04.32-.07.45.02.08.04-.05.06-.11.01.21.06.51,0,.76-.04.4-.12.02-.16.48-.22,2.46-.45,4.84-.45,7.39-.03.06-.03-.01-.04-.08.03.77.02,1.46.09,2.19-.02.21-.07.26-.09.33,0-.02.02.05.04.19.02.18.05.43.09.73.07.42.14.92.33,1.38.08.24.2.46.34.65.16.18.33.37.49.55.16.09.32.17.47.26.16.07.33.13.48.19.33.09.66.15.92.19.47.05.76.09.8.09Z"/>
      </g>
      <g>
        <path class="d" d="M17.47,74.04c.11.08.31.08.49.09-.14-.07-.29-.1-.49-.09Z"/>
        <polygon class="d" points="17.96 74.13 17.96 74.13 17.96 74.13 17.96 74.13"/>
        <path class="d" d="M53.34,70.48s-.1,0-.16-.01c.05,0,.11.01.16.01Z"/>
        <path class="d" d="M26.74,74.13l.02-.14c.43-.01.13.15.53.11.15-.2.66,0,.8-.1,0,.02.19.02.18.08.06-.11.2-.03.32-.06.04-.03-.03-.03-.07-.06l.28-.04c.11.03.14.09.02.11.74.02,4.26.02,5.05-.05-.1-.08-.35-.02-.44-.14.21-.08.31.02.4-.06.08.18.46.03.62.21l.06-.11.11.06c.92-.13.21-.06,1.03-.06.47-.03.69-.18.96-.13-.04,0-.14-.06-.02-.09.02.09.32-.07.38.02.12-.01.51,0,.37-.13.07.06.41.08.21.14.12,0,.23.02.31,0l-.15-.03c.39-.02.61.07.86-.04l-.15-.05c.23,0,.43-.02.52.11l-.24.04c.39,0,.62-.01.95-.08h-.12c.41-.13,2.58-.22,2.96-.37l-.17-.1.33-.08s-.16.31-.19.28c.7-.01,4.35,0,5,.11.26.06.04.15.04.17.32-.02.14-.1.41-.08.07.02-.02.07-.06.09.12,0,.23.03.24-.01-.15-.04-.08-.16-.14-.24l.35.03-.02.07c.08,0,.21-.2.55-.14.57.06,1.2.07,1.77.13-.01.04-.13.06-.26.08.08,0,.2,0,.26.04-.13-.09.25-.04.14-.08.43-.15.97.06,1.35-.04.03-.16,1.07-2.76,1.1-2.95.12.02.25.03.3.06-.04-.05-.28-.1-.41-.09l-.03.1c-.3,0-.06-.07-.35-.09,0-.09.26-.08.49-.07-.21-.03-.41-.11-.5-.03-.19-.05.03-.1-.2-.16-.17,0-.39.08-.58,0h0c-.46-.14-.72.06-1.13-.06l.05-.03c-.15-.06-.44-.01-.71-.08.08.02.14.09-.02.09-.3-.07-.52-.03-.74-.11l-.22.07c-1.07-.09-5.29-.1-6.36-.09h.04c-1.63,0-4.97,0-6.65.15-.26-.08-.62-.05-.89-.06.15.03.1.09-.02.09-.82.01-.05.06-.89.12-.96.1-4.62.12-5.47.07-.45.14-1.03.06-1.47.15l.04-.03c-.48.06-3.2.02-3.76.08l.08.02c-.48.09-.42-.05-.81-.08.06.14-.36.23-.52.24v-.03c-.23.03-.77.16-1.17.19v-.08c-.31.09-.94.07-1.17.09-.54-.02-1.39-.12-2.11,0l-.48-.2-.07.02s-.64,2.61.34,3.14v.08s.18-.01.18-.01c.23.03.33-.06.32.02h-.31c.23.01.07.06-.01.1.1,0,.19.01.26.03.04-.03-.03-.03-.07-.05.12-.03.29-.11.44-.07.23,0,.02.12.29.12,1.44.02,2.83.07,4.28.01.03.03,0,.03-.05.05.44-.04.82-.04,1.22-.09.11.03.14.08.18.11-.03-.03.51-.06,1.08-.08.28,0,.56-.02.78-.03.22,0,.36,0,.37,0Z"/>
      </g>
      <g>
        <path class="d" d="M53.09,60.43c-.07-.08-.17-.08-.27-.1.08.08.17.11.27.1Z"/>
        <polygon class="d" points="52.81 60.33 52.81 60.33 52.82 60.33 52.81 60.33"/>
        <path class="d" d="M32.84,63.6s.07.01.1.02c-.03,0-.07-.02-.1-.02Z"/>
        <path class="d" d="M47.93,60.24v.14c-.25,0-.09-.15-.3-.11-.08.19-.37,0-.44.1,0-.02-.11-.02-.1-.08-.03.11-.11.03-.18.06-.02.03.02.03.04.06l-.16.04c-.06-.03-.08-.09-.01-.11-.41-.02-2.37-.06-2.81,0,.06.08.19.02.25.14-.12.07-.17-.02-.22.06-.05-.18-.26-.04-.35-.22l-.03.11-.06-.06c-.51.12-.12.06-.57.05-.26.02-.39.17-.53.12.02,0,.08.06.01.09-.01-.09-.18.07-.21-.03-.07.01-.28,0-.21.13-.04-.06-.23-.09-.11-.14-.06,0-.13-.02-.17,0l.08.03c-.22.02-.33-.08-.47.03l.08.05c-.13,0-.24.01-.29-.11l.13-.04c-.21,0-.34,0-.52.07h.06c-.23.13-1.42.2-1.64.34l.09.1-.18.07s.1-.31.12-.28c-.39,0-2.39-.05-2.73-.16-.14-.07-.01-.15,0-.17-.18.02-.08.1-.23.07-.04-.02.02-.07.04-.09-.06,0-.12-.04-.13,0,.08.04.03.16.06.24l-.19-.03.02-.07s-.13.19-.31.13c-.31-.07-.65-.08-.96-.15.01-.04.08-.06.15-.08-.04,0-.11,0-.14-.04.06.09-.14.03-.08.08-.25.15-.52-.06-.73.03-.03.17-.96,2.72-1.03,2.9-.08-.02-.16-.04-.19-.07.03.06.18.11.26.1l.03-.1c.18,0,.03.07.2.1,0,.09-.17.08-.31.05.13.04.24.12.31.04.11.06-.03.1.1.16.1,0,.24-.07.35,0h0c.26.15.43-.05.66.07l-.03.02c.08.06.26.02.41.09-.04-.02-.07-.09.02-.09.17.08.3.04.42.12l.13-.07c.62.11,3.04.16,3.64.16h-.02c.93.02,2.83.05,3.79-.08.15.08.35.05.5.07-.08-.03-.06-.09,0-.09.46,0,.03-.06.5-.11.54-.09,2.6-.07,3.08-.01.25-.13.58-.05.82-.13l-.02.03c.27-.05,1.8.01,2.11-.04l-.04-.02c.27-.08.24.05.46.09-.03-.14.2-.22.29-.24v.03c.13-.03.43-.16.65-.18v.08c.18-.09.53-.06.66-.08.31.02.78.14,1.19.03l.28.21.04-.02s.26-2.6-.3-3.14v-.08s-.1.01-.1.01c-.13-.03-.18.06-.18-.02h.17c-.13-.01-.04-.06,0-.1-.05,0-.1-.01-.15-.03-.02.03.02.03.04.05-.07.03-.16.1-.24.07-.13,0-.02-.12-.17-.12-.8-.03-1.58-.1-2.38-.06-.02-.03,0-.03.02-.04-.24.04-.46.03-.68.08-.06-.03-.08-.08-.1-.11.04.06-1.22.11-1.24.09Z"/>
      </g>
      <g>
        <path class="d" d="M63.35,60.07c-.1.18-.13.51-.17.82.1-.23.15-.48.17-.82Z"/>
        <polygon class="d" points="63.18 60.9 63.18 60.91 63.18 60.9 63.18 60.9"/>
        <path class="d" d="M66.2,61.89c.08,0,.16-.02.25-.02-.08,0-.17,0-.25.02Z"/>
        <path class="d" d="M66.47,76.53l.06-.13c.79.05.22.17.95.18.29-.18,1.17.05,1.41-.05,0,.02.33.02.31.08.11-.1.35-.02.56-.05.08-.03-.06-.03-.11-.06l.49-.04c.19.03.24.09.03.11,1.29.07,7.34-.03,8.69-.16-.18-.07-.59,0-.76-.12.36-.08.53,0,.68-.08.15.18.79,0,1.07.18l.1-.11.18.06c2.97-.26.66-.08,3.38-.21.15-.01.29-.02.42-.03-.01-1.33-.11-2.04-.06-2.8,0,.13-.07.44-.09.04.05-.02.03-.29.02-.56,0-.15-.01-.29-.01-.4,0-.12,0-.13.03-.17-.01-.21,0-.87-.12-.65.06-.11.09-.71.14-.35,0-.2.02-.4,0-.54l-.03.26c-.02-.68.07-1.05-.04-1.49l-.05.25c-.01-.41-.03-.74.1-.91l.04.42c-.01-.67-.03-1.08-.1-1.64v.2c-.12-.71-.37-4.47-.62-5.14l-.07.32-.13-.57c0,.07.34.25.31.31-.02-.23-.06-.63-.13-1.16-.02-.14-.04-.28-.07-.43-.05-.23-.1-.46-.15-.71-.12-.49-.32-.96-.65-1.37-.18-.14-.37-.27-.55-.4-.21-.09-.43-.19-.67-.24-.23-.06-.48-.11-.73-.14l-.36-.05-.24-.02c-.64-.05-1.24-.07-1.79-.09-1.08-.01-1.96-.02-2.34-.03-.46-.05-.08-.15-.08-.17-.55.04-.24.11-.71.11-.13-.01.02-.08.1-.09-.21.02-.4-.01-.41.03.26.03.15.15.26.23h-.6s.02-.07.02-.07c-.13,0-.33.22-.93.2-1,0-2.08.08-3.07.12.01-.05.22-.08.43-.12-.13,0-.34.03-.46,0,.25.07-.42.08-.23.1-.72.22-1.67.11-2.31.28-.05.17-1.18,2.93-1.16,3.13-.2.01-.39.02-.45.01.05.04.44.04.64,0l.03-.11c.47-.07.12.05.58.02.03.08-.39.13-.77.17.34-.01.68.03.81-.08.32.01-.03.11.36.12.27-.04.62-.15.94-.12v.02c.76.04,1.15-.2,1.85-.15l-.07.03c.25.04.73-.06,1.17-.02-.13-.01-.24-.07.03-.09.51.03.86-.04,1.23.01l.35-.1c.68-.02,2.15-.09,3.71-.11.78,0,1.58,0,2.28.03.17.01.33.02.49.03h.07s.08,0,.1.02c.02.03.03.06.04.09.01.05,0-.02.04.22.05.33.08.59.1.78l-.02-.06c.16,1.27.26,3.33.32,5.41.02,1.04.05,2.08.07,3.05,0,.48.02.94.03,1.37.01.08.03.16.04.22-.04.02-.06.04-.07.08-.05,0-.09,0-.13-.01.06.03.09.09.05.09-.13,0-.13.02-.14.04,0,.01,0,.02-.03.03-.01,0-.03.01-.06.02,0,0-.21.02-.36.03-1.61.17-7.8.3-9.21.2-.76.13-1.71.03-2.44.08l.07-.03c-.19,0-.59,0-1.08-.04-.11,0-.23-.02-.36-.03-.05,0-.1-.01-.15-.02-.07-.01-.15-.02-.21-.06-.07-.05-.07-.15-.09-.22-.01-.16-.02-.31-.03-.45-.03-.57-.05-1.03-.06-1.27l-.02.12c-.09-.79.05-.69.09-1.32-.14.08-.21-.61-.21-.87h.03c-.02-.39-.11-1.3-.1-1.96l.07.03c-.06-.56.03-1.6.04-2,.08-.91.3-2.31.3-3.53l.28-.77v-.12s-.63-.37-1.34-.55c-.7-.18-1.5-.16-1.84.64l-.07-.03-.02.32c-.07.39,0,.57-.07.54l.05-.53c-.05.39-.07.11-.1-.04-.02.16-.04.32-.07.45.02.08.04-.05.06-.11.01.21.06.51,0,.76-.04.4-.12.02-.16.48-.22,2.46-.45,4.84-.45,7.39-.03.06-.03-.01-.04-.08.03.77.02,1.46.09,2.19-.02.21-.07.26-.09.33,0-.02.02.05.04.19.02.18.05.43.09.73.07.42.14.92.33,1.38.08.24.2.46.34.65.16.18.33.37.49.55.16.09.32.17.47.26.16.07.33.13.48.19.33.09.66.15.92.19.47.05.76.09.8.09Z"/>
      </g>
      <g>
        <path class="d" d="M17.47,99.7c.11.08.31.08.49.09-.14-.07-.29-.1-.49-.09Z"/>
        <polygon class="d" points="17.96 99.8 17.96 99.79 17.96 99.79 17.96 99.8"/>
        <path class="d" d="M53.34,96.14s-.1,0-.16-.01c.05,0,.11.01.16.01Z"/>
        <path class="d" d="M26.74,99.79l.02-.14c.43-.01.13.15.53.11.15-.2.66,0,.8-.1,0,.02.19.02.18.08.06-.11.2-.03.32-.06.04-.03-.03-.03-.07-.06l.28-.04c.11.03.14.09.02.11.74.02,4.26.02,5.05-.05-.1-.08-.35-.02-.44-.14.21-.08.31.02.4-.06.08.18.46.03.62.21l.06-.11.11.06c.92-.13.21-.06,1.03-.06.47-.03.69-.18.96-.13-.04,0-.14-.06-.02-.09.02.09.32-.07.38.02.12-.01.51,0,.37-.13.07.06.41.08.21.14.12,0,.23.02.31,0l-.15-.03c.39-.02.61.07.86-.04l-.15-.05c.23,0,.43-.02.52.11l-.24.04c.39,0,.62-.01.95-.08h-.12c.41-.13,2.58-.22,2.96-.37l-.17-.1.33-.08s-.16.31-.19.28c.7-.01,4.35,0,5,.11.26.06.04.15.04.17.32-.02.14-.1.41-.08.07.02-.02.07-.06.09.12,0,.23.03.24-.01-.15-.04-.08-.16-.14-.24l.35.03-.02.07c.08,0,.21-.2.55-.14.57.06,1.2.07,1.77.13-.01.04-.13.06-.26.08.08,0,.2,0,.26.04-.13-.09.25-.04.14-.08.43-.15.97.06,1.35-.04.03-.16,1.07-2.76,1.1-2.95.12.02.25.03.3.06-.04-.05-.28-.1-.41-.09l-.03.1c-.3,0-.06-.07-.35-.09,0-.09.26-.08.49-.07-.21-.03-.41-.11-.5-.03-.19-.05.03-.1-.2-.16-.17,0-.39.08-.58,0h0c-.46-.14-.72.06-1.13-.06l.05-.03c-.15-.06-.44-.01-.71-.08.08.02.14.09-.02.09-.3-.07-.52-.03-.74-.11l-.22.07c-1.07-.09-5.29-.1-6.36-.09h.04c-1.63,0-4.97,0-6.65.15-.26-.08-.62-.05-.89-.06.15.03.1.09-.02.09-.82.01-.05.06-.89.12-.96.1-4.62.12-5.47.07-.45.14-1.03.06-1.47.15l.04-.03c-.48.06-3.2.02-3.76.08l.08.02c-.48.09-.42-.05-.81-.08.06.14-.36.23-.52.24v-.03c-.23.03-.77.16-1.17.19v-.08c-.31.09-.94.07-1.17.09-.54-.02-1.39-.12-2.11,0l-.48-.2-.07.02s-.64,2.61.34,3.14v.08s.18-.01.18-.01c.23.03.33-.06.32.02h-.31c.23.01.07.06-.01.1.1,0,.19.01.26.03.04-.03-.03-.03-.07-.05.12-.03.29-.11.44-.07.23,0,.02.12.29.12,1.44.02,2.83.07,4.28.01.03.03,0,.03-.05.05.44-.04.82-.04,1.22-.09.11.03.14.08.18.11-.03-.03.51-.06,1.08-.08.28,0,.56-.02.78-.03.22,0,.36,0,.37,0Z"/>
      </g>
      <g>
        <path class="d" d="M53.09,86.09c-.07-.08-.17-.08-.27-.1.08.08.17.11.27.1Z"/>
        <polygon class="d" points="52.81 85.99 52.81 85.99 52.82 86 52.81 85.99"/>
        <path class="d" d="M32.84,89.26s.07.01.1.02c-.03,0-.07-.02-.1-.02Z"/>
        <path class="d" d="M47.93,85.91v.14c-.25,0-.09-.15-.3-.11-.08.19-.37,0-.44.1,0-.02-.11-.02-.1-.08-.03.11-.11.03-.18.06-.02.03.02.03.04.06l-.16.04c-.06-.03-.08-.09-.01-.11-.41-.02-2.37-.06-2.81,0,.06.08.19.02.25.14-.12.07-.17-.02-.22.06-.05-.18-.26-.04-.35-.22l-.03.11-.06-.06c-.51.12-.12.06-.57.05-.26.02-.39.17-.53.12.02,0,.08.06.01.09-.01-.09-.18.07-.21-.03-.07.01-.28,0-.21.13-.04-.06-.23-.09-.11-.14-.06,0-.13-.02-.17,0l.08.03c-.22.02-.33-.08-.47.03l.08.05c-.13,0-.24.01-.29-.11l.13-.04c-.21,0-.34,0-.52.07h.06c-.23.13-1.42.2-1.64.34l.09.1-.18.07s.1-.31.12-.28c-.39,0-2.39-.05-2.73-.16-.14-.07-.01-.15,0-.17-.18.02-.08.1-.23.07-.04-.02.02-.07.04-.09-.06,0-.12-.04-.13,0,.08.04.03.16.06.24l-.19-.03.02-.07s-.13.19-.31.13c-.31-.07-.65-.08-.96-.15.01-.04.08-.06.15-.08-.04,0-.11,0-.14-.04.06.09-.14.03-.08.08-.25.15-.52-.06-.73.03-.03.17-.96,2.72-1.03,2.9-.08-.02-.16-.04-.19-.07.03.06.18.11.26.1l.03-.1c.18,0,.03.07.2.1,0,.09-.17.08-.31.05.13.04.24.12.31.04.11.06-.03.1.1.16.1,0,.24-.07.35,0h0c.26.15.43-.05.66.07l-.03.02c.08.06.26.02.41.09-.04-.02-.07-.09.02-.09.17.08.3.04.42.12l.13-.07c.62.11,3.04.16,3.64.16h-.02c.93.02,2.83.05,3.79-.08.15.08.35.05.5.07-.08-.03-.06-.09,0-.09.46,0,.03-.06.5-.11.54-.09,2.6-.07,3.08-.01.25-.13.58-.05.82-.13l-.02.03c.27-.05,1.8.01,2.11-.04l-.04-.02c.27-.08.24.05.46.09-.03-.14.2-.22.29-.24v.03c.13-.03.43-.16.65-.18v.08c.18-.09.53-.06.66-.08.31.02.78.14,1.19.03l.28.21.04-.02s.26-2.6-.3-3.14v-.08s-.1.01-.1.01c-.13-.03-.18.06-.18-.02h.17c-.13-.01-.04-.06,0-.1-.05,0-.1-.01-.15-.03-.02.03.02.03.04.05-.07.03-.16.1-.24.07-.13,0-.02-.12-.17-.12-.8-.03-1.58-.1-2.38-.06-.02-.03,0-.03.02-.04-.24.04-.46.03-.68.08-.06-.03-.08-.08-.1-.11.04.06-1.22.11-1.24.09Z"/>
      </g>
      <g>
        <path class="d" d="M63.35,85.74c-.1.18-.13.51-.17.82.1-.23.15-.48.17-.82Z"/>
        <polygon class="d" points="63.18 86.56 63.18 86.57 63.18 86.56 63.18 86.56"/>
        <path class="d" d="M66.2,87.56c.08,0,.16-.02.25-.02-.08,0-.17,0-.25.02Z"/>
        <path class="d" d="M66.47,102.19l.06-.13c.79.05.22.17.95.18.29-.18,1.17.05,1.41-.05,0,.02.33.02.31.08.11-.1.35-.02.56-.05.08-.03-.06-.03-.11-.06l.49-.04c.19.03.24.09.03.11,1.29.07,7.34-.03,8.69-.16-.18-.07-.59,0-.76-.12.36-.08.53,0,.68-.08.15.18.79,0,1.07.18l.1-.11.18.06c2.97-.26.66-.08,3.38-.21.15-.01.29-.02.42-.03-.01-1.33-.11-2.04-.06-2.8,0,.13-.07.44-.09.04.05-.02.03-.29.02-.56,0-.15-.01-.29-.01-.4,0-.12,0-.13.03-.17-.01-.21,0-.87-.12-.65.06-.11.09-.71.14-.35,0-.2.02-.4,0-.54l-.03.26c-.02-.68.07-1.05-.04-1.49l-.05.25c-.01-.41-.03-.74.1-.91l.04.42c-.01-.67-.03-1.08-.1-1.64v.2c-.12-.71-.37-4.47-.62-5.14l-.07.32-.13-.57c0,.07.34.25.31.31-.02-.23-.06-.63-.13-1.16-.02-.14-.04-.28-.07-.43-.05-.23-.1-.46-.15-.71-.12-.49-.32-.96-.65-1.37-.18-.14-.37-.27-.55-.4-.21-.09-.43-.19-.67-.24-.23-.06-.48-.11-.73-.14l-.36-.05-.24-.02c-.64-.05-1.24-.07-1.79-.09-1.08-.01-1.96-.02-2.34-.03-.46-.05-.08-.15-.08-.17-.55.04-.24.11-.71.11-.13-.01.02-.08.1-.09-.21.02-.4-.01-.41.03.26.03.15.15.26.23h-.6s.02-.07.02-.07c-.13,0-.33.22-.93.2-1,0-2.08.08-3.07.12.01-.05.22-.08.43-.12-.13,0-.34.03-.46,0,.25.07-.42.08-.23.1-.72.22-1.67.11-2.31.28-.05.17-1.18,2.93-1.16,3.13-.2.01-.39.02-.45.01.05.04.44.04.64,0l.03-.11c.47-.07.12.05.58.02.03.08-.39.13-.77.17.34-.01.68.03.81-.08.32.01-.03.11.36.12.27-.04.62-.15.94-.12v.02c.76.04,1.15-.2,1.85-.15l-.07.03c.25.04.73-.06,1.17-.02-.13-.01-.24-.07.03-.09.51.03.86-.04,1.23.01l.35-.1c.68-.02,2.15-.09,3.71-.11.78,0,1.58,0,2.28.03.17.01.33.02.49.03h.07s.08,0,.1.02c.02.03.03.06.04.09.01.05,0-.02.04.22.05.33.08.59.1.78l-.02-.06c.16,1.27.26,3.33.32,5.41.02,1.04.05,2.08.07,3.05,0,.48.02.94.03,1.37.01.08.03.16.04.22-.04.02-.06.04-.07.08-.05,0-.09,0-.13-.01.06.03.09.09.05.09-.13,0-.13.02-.14.04,0,.01,0,.02-.03.03-.01,0-.03.01-.06.02,0,0-.21.02-.36.03-1.61.17-7.8.3-9.21.2-.76.13-1.71.03-2.44.08l.07-.03c-.19,0-.59,0-1.08-.04-.11,0-.23-.02-.36-.03-.05,0-.1-.01-.15-.02-.07-.01-.15-.02-.21-.06-.07-.05-.07-.15-.09-.22-.01-.16-.02-.31-.03-.45-.03-.57-.05-1.03-.06-1.27l-.02.12c-.09-.79.05-.69.09-1.32-.14.08-.21-.61-.21-.87h.03c-.02-.39-.11-1.3-.1-1.96l.07.03c-.06-.56.03-1.6.04-2,.08-.91.3-2.31.3-3.53l.28-.77v-.12s-.63-.37-1.34-.55c-.7-.18-1.5-.16-1.84.64l-.07-.03-.02.32c-.07.39,0,.57-.07.54l.05-.53c-.05.39-.07.11-.1-.04-.02.16-.04.32-.07.45.02.08.04-.05.06-.11.01.21.06.51,0,.76-.04.4-.12.02-.16.48-.22,2.46-.45,4.84-.45,7.39-.03.06-.03-.01-.04-.08.03.77.02,1.46.09,2.19-.02.21-.07.26-.09.33,0-.02.02.05.04.19.02.18.05.43.09.73.07.42.14.92.33,1.38.08.24.2.46.34.65.16.18.33.37.49.55.16.09.32.17.47.26.16.07.33.13.48.19.33.09.66.15.92.19.47.05.76.09.8.09Z"/>
      </g>
    </g>
  </g>
</svg>